<svg id="kity_svg_6" xmlns="http://www.w3.org/2000/svg" xmlns:xlink="http://www.w3.org/1999/xlink" version="1.1" width="754" height="316" style="background: rgb(251, 251, 251); visibility: visible;" viewBox="0 0 754 316"><defs id="kity_defs_7"><linearGradient id="kity_linearGradient_17" x1="0" y1="0" x2="0" y2="1"><stop id="kity_stop_18" offset="0" stop-color="rgb(255, 255, 255)"></stop><stop id="kity_stop_19" offset="1" stop-color="rgb(204, 204, 204)"></stop></linearGradient><marker id="kity_marker_2" orient="auto" refX="6" refY="0" viewBox="-7 -7 14 14" markerWidth="7" markerHeight="7" markerUnits="userSpaceOnUse"><path id="kity_path_3" fill="rgb(123, 115, 191)" stroke="none" d="M6,0A6,6,0,1,1,-6,0A6,6,0,1,1,6,0"></path></marker></defs><g id="kity_g_8"><g id="minder1" text-rendering="optimize-speed"><g id="minder_connect_group1"><path id="kity_path_304" fill="none" stroke="rgb(123, 115, 191)" stroke-width="1" d="M76.5000007674098,112.50000192970037A174,79,0,0,1,250.5000007674098,33.500001929700375"></path><path id="kity_path_313" fill="none" stroke="rgb(123, 115, 191)" stroke-width="1" d="M76.5000007674098,112.50000192970037A174,79,0,0,0,250.5000007674098,191.50000192970037"></path><path id="kity_path_322" fill="none" stroke="rgb(123, 115, 191)" stroke-width="1" d="M348.5000007674098,191.50000192970037C368.5000007674098,191.50000192970037,368.5000007674098,191.50000192970037,388.5000007674098,191.50000192970037"></path><path id="kity_path_330" fill="none" stroke="rgb(123, 115, 191)" stroke-width="1" d="M505.5000007674098,191.50000192970037C525.5000007674098,191.50000192970037,525.5000007674098,101.50000192970037,545.5000007674098,101.50000192970037"></path><path id="kity_path_338" fill="none" stroke="rgb(123, 115, 191)" stroke-width="1" d="M505.5000007674098,191.50000192970037C525.5000007674098,191.50000192970037,525.5000007674098,161.50000192970037,545.5000007674098,161.50000192970037"></path><path id="kity_path_346" fill="none" stroke="rgb(123, 115, 191)" stroke-width="1" d="M505.5000007674098,191.50000192970037C525.5000007674098,191.50000192970037,525.5000007674098,221.50000192970037,545.5000007674098,221.50000192970037"></path><path id="kity_path_354" fill="none" stroke="rgb(123, 115, 191)" stroke-width="1" d="M505.5000007674098,191.50000192970037C525.5000007674098,191.50000192970037,525.5000007674098,281.5000019297004,545.5000007674098,281.5000019297004"></path></g><g id="minder_node1"><path id="kity_path_30" fill="rgba(0, 0, 0, .25)" stroke="none" d="M50.5000007674098,90.50000192970037h92a27,27,0,0,1,27,27v0a27,27,0,0,1,-27,27h-92a27,27,0,0,1,-27,-27v0a27,27,0,0,1,27,-27z" display="none"></path><path id="node_outline1" fill="rgb(123, 115, 191)" stroke="rgb(123, 115, 191)" d="M25.5000007674098,92.50000192970037h102a5,5,0,0,1,5,5v30a5,5,0,0,1,-5,5h-102a5,5,0,0,1,-5,-5v-30a5,5,0,0,1,5,-5z" stroke-width="3"></path><g id="node_text1" fill="white"><text id="kity_text_22" text-rendering="inherit" font-size="16" dy=".8em" y="102.10000189393759" x="44.5000007674098">行政法规</text></g></g><g id="kity_g_14" display="none"><path id="kity_path_15" fill="none" stroke="none" d="M44.5000007674098,112.50000192970037h0v0h0z"></path><path id="kity_path_16" fill="none" stroke="none"></path></g><g id="kity_g_12" display="none"><path id="kity_path_13" fill="none" stroke="yellow" d="M46.5000007674098,85.50000192970037h20a27,27,0,0,1,27,27v0a27,27,0,0,1,-27,27h-20a27,27,0,0,1,-27,-27v0a27,27,0,0,1,27,-27z" stroke-width="4"></path></g><g id="minder_node25"><path id="kity_path_311" fill="rgba(0, 0, 0, .25)" stroke="none" d="M266.50000416487455,24.50000075250864h164a10,10,0,0,1,10,10v8a10,10,0,0,1,-10,10h-164a10,10,0,0,1,-10,-10v-8a10,10,0,0,1,10,-10z" display="none"></path><g id="node_expander24" style="cursor: pointer;" display="none"><path id="kity_path_309" fill="white" stroke="gray" d="M251.5000037625432,33.50000075250864A6,6,0,1,1,239.5000037625432,33.50000075250864A6,6,0,1,1,251.5000037625432,33.50000075250864"></path><path id="kity_path_310" fill="none" stroke="gray"></path></g><path id="node_outline25" fill="rgb(239, 238, 246)" stroke="rgb(123, 115, 191)" d="M255.50000416487455,20.50000075250864h160a3,3,0,0,1,3,3v20a3,3,0,0,1,-3,3h-160a3,3,0,0,1,-3,-3v-20a3,3,0,0,1,3,-3z" stroke-width="1"></path><g id="node_text25" fill="black"><text id="kity_text_306" text-rendering="inherit" font-size="14" dy=".8em" y="24.400000721216202" font-weight="bold" x="272.50000416487455">由国务院制定并颁布</text></g></g><g id="minder_node26"><path id="kity_path_320" fill="rgba(0, 0, 0, .25)" stroke="none" d="M266.50000416487455,182.5000031068921h86a10,10,0,0,1,10,10v8a10,10,0,0,1,-10,10h-86a10,10,0,0,1,-10,-10v-8a10,10,0,0,1,10,-10z" display="none"></path><g id="node_expander25" style="cursor: pointer;"><path id="kity_path_318" fill="white" stroke="gray" d="M251.5000037625432,191.5000031068921A6,6,0,1,1,239.5000037625432,191.5000031068921A6,6,0,1,1,251.5000037625432,191.5000031068921"></path><path id="kity_path_319" fill="none" stroke="gray" d="M241.0000037625432,191.5000031068921L250.0000037625432,191.5000031068921"></path></g><path id="node_outline26" fill="rgb(239, 238, 246)" stroke="rgb(123, 115, 191)" d="M255.50000416487455,178.5000031068921h90a3,3,0,0,1,3,3v20a3,3,0,0,1,-3,3h-90a3,3,0,0,1,-3,-3v-20a3,3,0,0,1,3,-3z" stroke-width="1"></path><g id="node_text26" fill="black"><text id="kity_text_315" text-rendering="inherit" font-size="14" dy=".8em" y="182.40000307559967" x="272.50000416487455">主要法规</text></g></g><g id="minder_node27"><g id="node_expander26" style="cursor: pointer;"><path id="kity_path_327" fill="white" stroke="gray" d="M388.5000058040023,191.5000031068921A6,6,0,1,1,376.5000058040023,191.5000031068921A6,6,0,1,1,388.5000058040023,191.5000031068921"></path><path id="kity_path_328" fill="none" stroke="gray" d="M378.0000058040023,191.5000031068921L387.0000058040023,191.5000031068921"></path></g><path id="node_outline27" fill="none" stroke="none" d="M393.50000604242086,180.5000031068921h107a5,5,0,0,1,5,5v12a5,5,0,0,1,-5,5h-107a5,5,0,0,1,-5,-5v-12a5,5,0,0,1,5,-5z" stroke-width="3"></path><g id="node_text27" fill="black"><text id="kity_text_324" text-rendering="inherit" font-size="12" dy=".8em" y="183.70000308007002" font-style="italic" font-weight="bold" x="398.50000604242086">《XXX管理条例》</text></g></g><g id="minder_node28"><g id="node_expander27" style="cursor: pointer;" display="none"><path id="kity_path_335" fill="white" stroke="gray" d="M545.5000081434846,101.5000017657876A6,6,0,1,1,533.5000081434846,101.5000017657876A6,6,0,1,1,545.5000081434846,101.5000017657876"></path><path id="kity_path_336" fill="none" stroke="gray"></path></g><path id="node_outline28" fill="none" stroke="none" d="M550.5000087544322,86.5000017657876h155a5,5,0,0,1,5,5v20a5,5,0,0,1,-5,5h-155a5,5,0,0,1,-5,-5v-20a5,5,0,0,1,5,-5z" stroke-width="3"></path><g id="node_text28" fill="black"><text id="kity_text_332" text-rendering="inherit" font-size="12" dy=".8em" y="93.70000173896551" x="580.5000087544322">《公司登记管理条例》</text></g><g id="node_priority14"><path id="kity_path_363" fill="#840023" stroke="none" d="M556.0000083893538,105.00000162422657c0,3.866,3.134,7,7,7h6c3.866,0,7,-3.134,7,-7V99.00000162422657H556.0000083893538V105.00000162422657z"></path><path id="kity_path_364" fill="#FF1200" stroke="none" d="M576.0000083893538,102.00000162422657c0,3.866,-3.134,7,-7,7H563.0000083893538c-3.866,0,-7,-3.134,-7,-7V99.00000162422657c0,-3.866,3.134,-7,7,-7h6c3.866,0,7,3.134,7,7V102.00000162422657z" opacity="0.8"></path><text id="kity_text_365" text-rendering="geometricPrecision" x="565.0000083819032" y="101.50000161677599" text-anchor="middle" font-style="italic" font-size="12" fill="white" dy="5">1</text></g></g><g id="minder_node29"><g id="node_expander28" style="cursor: pointer;" display="none"><path id="kity_path_343" fill="white" stroke="gray" d="M545.5000081434846,161.50000265985727A6,6,0,1,1,533.5000081434846,161.50000265985727A6,6,0,1,1,545.5000081434846,161.50000265985727"></path><path id="kity_path_344" fill="none" stroke="gray"></path></g><path id="node_outline29" fill="none" stroke="none" d="M550.5000087544322,146.50000265985727h179a5,5,0,0,1,5,5v20a5,5,0,0,1,-5,5h-179a5,5,0,0,1,-5,-5v-20a5,5,0,0,1,5,-5z" stroke-width="3"></path><g id="node_text29" fill="black"><text id="kity_text_340" text-rendering="inherit" font-size="12" dy=".8em" y="153.70000263303518" x="580.5000087544322">《证券公司监督管理条例》</text></g><g id="node_priority15"><path id="kity_path_368" fill="#01467F" stroke="none" d="M556.0000083893538,165.00000251829624c0,3.866,3.134,7,7,7h6c3.866,0,7,-3.134,7,-7V159.00000251829624H556.0000083893538V165.00000251829624z"></path><path id="kity_path_369" fill="#0074FF" stroke="none" d="M576.0000083893538,162.00000251829624c0,3.866,-3.134,7,-7,7H563.0000083893538c-3.866,0,-7,-3.134,-7,-7V159.00000251829624c0,-3.866,3.134,-7,7,-7h6c3.866,0,7,3.134,7,7V162.00000251829624z" opacity="0.8"></path><text id="kity_text_370" text-rendering="geometricPrecision" x="565.0000083819032" y="161.50000251084566" text-anchor="middle" font-style="italic" font-size="12" fill="white" dy="5">2</text></g></g><g id="minder_node30"><g id="node_expander29" style="cursor: pointer;" display="none"><path id="kity_path_351" fill="white" stroke="gray" d="M545.5000081434846,221.50000355392694A6,6,0,1,1,533.5000081434846,221.50000355392694A6,6,0,1,1,545.5000081434846,221.50000355392694"></path><path id="kity_path_352" fill="none" stroke="gray"></path></g><path id="node_outline30" fill="none" stroke="none" d="M550.5000087544322,206.50000355392694h155a5,5,0,0,1,5,5v20a5,5,0,0,1,-5,5h-155a5,5,0,0,1,-5,-5v-20a5,5,0,0,1,5,-5z" stroke-width="3"></path><g id="node_text30" fill="black"><text id="kity_text_348" text-rendering="inherit" font-size="12" dy=".8em" y="213.70000352710485" x="580.5000087544322">《期货交易管理条例》</text></g><g id="node_priority16"><path id="kity_path_373" fill="#006300" stroke="none" d="M556.0000083893538,225.0000034123659c0,3.866,3.134,7,7,7h6c3.866,0,7,-3.134,7,-7V219.0000034123659H556.0000083893538V225.0000034123659z"></path><path id="kity_path_374" fill="#00AF00" stroke="none" d="M576.0000083893538,222.0000034123659c0,3.866,-3.134,7,-7,7H563.0000083893538c-3.866,0,-7,-3.134,-7,-7V219.0000034123659c0,-3.866,3.134,-7,7,-7h6c3.866,0,7,3.134,7,7V222.0000034123659z" opacity="0.8"></path><text id="kity_text_375" text-rendering="geometricPrecision" x="565.0000083819032" y="221.50000340491533" text-anchor="middle" font-style="italic" font-size="12" fill="white" dy="5">3</text></g></g><g id="minder_node31"><g id="node_expander30" style="cursor: pointer;" display="none"><path id="kity_path_359" fill="white" stroke="gray" d="M545.5000081434846,281.5000044479966A6,6,0,1,1,533.5000081434846,281.5000044479966A6,6,0,1,1,545.5000081434846,281.5000044479966"></path><path id="kity_path_360" fill="none" stroke="gray"></path></g><path id="node_outline31" fill="none" stroke="none" d="M550.5000087544322,266.5000044479966h155a5,5,0,0,1,5,5v20a5,5,0,0,1,-5,5h-155a5,5,0,0,1,-5,-5v-20a5,5,0,0,1,5,-5z" stroke-width="3"></path><g id="node_text31" fill="black"><text id="kity_text_356" text-rendering="inherit" font-size="12" dy=".8em" y="273.7000044211745" x="580.5000087544322">《企业债券管理条例》</text></g><g id="node_priority17"><path id="kity_path_378" fill="#B25000" stroke="none" d="M556.0000083893538,285.0000043064356c0,3.866,3.134,7,7,7h6c3.866,0,7,-3.134,7,-7V279.0000043064356H556.0000083893538V285.0000043064356z"></path><path id="kity_path_379" fill="#FF962E" stroke="none" d="M576.0000083893538,282.0000043064356c0,3.866,-3.134,7,-7,7H563.0000083893538c-3.866,0,-7,-3.134,-7,-7V279.0000043064356c0,-3.866,3.134,-7,7,-7h6c3.866,0,7,3.134,7,7V282.0000043064356z" opacity="0.8"></path><text id="kity_text_380" text-rendering="geometricPrecision" x="565.0000083819032" y="281.500004298985" text-anchor="middle" font-style="italic" font-size="12" fill="white" dy="5">4</text></g></g></g></g></svg>