<svg id="kity_svg_6" xmlns="http://www.w3.org/2000/svg" xmlns:xlink="http://www.w3.org/1999/xlink" version="1.1" width="710" height="394" style="background: rgb(251, 251, 251); visibility: visible;" viewBox="0 0 710 394"><defs id="kity_defs_7"><linearGradient id="kity_linearGradient_17" x1="0" y1="0" x2="0" y2="1"><stop id="kity_stop_18" offset="0" stop-color="rgb(255, 255, 255)"></stop><stop id="kity_stop_19" offset="1" stop-color="rgb(204, 204, 204)"></stop></linearGradient><marker id="kity_marker_2" orient="auto" refX="6" refY="0" viewBox="-7 -7 14 14" markerWidth="7" markerHeight="7" markerUnits="userSpaceOnUse"><path id="kity_path_3" fill="rgb(115, 191, 118)" stroke="none" d="M6,0A6,6,0,1,1,-6,0A6,6,0,1,1,6,0"></path></marker></defs><g id="kity_g_8"><g id="minder1" text-rendering="optimize-speed"><g id="minder_connect_group1"><path id="kity_path_31" fill="none" stroke="rgb(115, 191, 118)" stroke-width="1" d="M80.00000213831663,197.50000406056643A177.5,166,0,0,1,257.50000213831663,31.500004060566425"></path><path id="kity_path_39" fill="none" stroke="rgb(115, 191, 118)" stroke-width="1" d="M80.00000213831663,197.50000406056643A177.5,55,0,0,1,257.50000213831663,142.50000406056643"></path><path id="kity_path_47" fill="none" stroke="rgb(115, 191, 118)" stroke-width="1" d="M80.00000213831663,197.50000406056643A177.5,80,0,0,0,257.50000213831663,277.5000040605664"></path><path id="kity_path_55" fill="none" stroke="rgb(115, 191, 118)" stroke-width="1" d="M80.00000213831663,197.50000406056643A177.5,166,0,0,0,257.50000213831663,363.5000040605664"></path><path id="kity_path_63" fill="none" stroke="rgb(115, 191, 118)" stroke-width="1" d="M340.50000213831663,31.500004060566425C360.50000213831663,31.500004060566425,360.50000213831663,31.500004060566425,380.50000213831663,31.500004060566425"></path><path id="kity_path_87" fill="none" stroke="rgb(115, 191, 118)" stroke-width="1" d="M339.50000213831663,142.50000406056643C359.50000213831663,142.50000406056643,359.50000213831663,92.50000406056643,379.50000213831663,92.50000406056643"></path><path id="kity_path_95" fill="none" stroke="rgb(115, 191, 118)" stroke-width="1" d="M339.50000213831663,142.50000406056643C359.50000213831663,142.50000406056643,359.50000213831663,142.50000406056643,379.50000213831663,142.50000406056643"></path><path id="kity_path_103" fill="none" stroke="rgb(115, 191, 118)" stroke-width="1" d="M339.50000213831663,142.50000406056643C359.50000213831663,142.50000406056643,359.50000213831663,192.50000406056643,379.50000213831663,192.50000406056643"></path><path id="kity_path_111" fill="none" stroke="rgb(115, 191, 118)" stroke-width="1" d="M490.50000213831663,92.50000406056643C510.50000213831663,92.50000406056643,510.50000213831663,92.50000406056643,530.5000021383166,92.50000406056643"></path><path id="kity_path_119" fill="none" stroke="rgb(115, 191, 118)" stroke-width="1" d="M340.50000213831663,277.5000040605664C360.50000213831663,277.5000040605664,360.50000213831663,252.50000406056643,380.50000213831663,252.50000406056643"></path><path id="kity_path_127" fill="none" stroke="rgb(115, 191, 118)" stroke-width="1" d="M340.50000213831663,277.5000040605664C360.50000213831663,277.5000040605664,360.50000213831663,302.5000040605664,380.50000213831663,302.5000040605664"></path><path id="kity_path_143" fill="none" stroke="rgb(115, 191, 118)" stroke-width="1" d="M360.50000213831663,363.5000040605664C380.50000213831663,363.5000040605664,380.50000213831663,363.5000040605664,400.50000213831663,363.5000040605664"></path><path id="kity_path_151" fill="none" stroke="rgb(115, 191, 118)" stroke-width="1" d="M461.50000213831663,252.50000406056643C481.50000213831663,252.50000406056643,481.50000213831663,252.50000406056643,501.50000213831663,252.50000406056643"></path><path id="kity_path_159" fill="none" stroke="rgb(115, 191, 118)" stroke-width="1" d="M461.50000213831663,302.5000040605664C481.50000213831663,302.5000040605664,481.50000213831663,302.5000040605664,501.50000213831663,302.5000040605664"></path></g><g id="minder_node1"><path id="node_outline1" fill="rgb(115, 191, 118)" stroke="rgb(115, 191, 118)" d="M25.50000213831663,180.50000406056643h109a5,5,0,0,1,5,5v24a5,5,0,0,1,-5,5h-109a5,5,0,0,1,-5,-5v-24a5,5,0,0,1,5,-5z" stroke-width="3"></path><g id="node_text1" fill="white"><text id="kity_text_22" text-rendering="inherit" font-size="10" dy=".8em" y="191.00000403821468" font-family="微软雅黑,Microsoft YaHei" x="44.50000213831663">公司登记的要求</text></g></g><g id="kity_g_12"><path id="kity_path_13" fill="none" stroke="none" d="M44.50000213831663,197.50000406056643h0v0h0z"></path></g><g id="kity_g_14"><path id="kity_path_15" fill="none" stroke="none" d="M44.50000213831663,197.50000406056643h0v0h0z"></path><path id="kity_path_16" fill="none" stroke="none"></path></g><g id="minder_node2"><g id="node_expander1" style="cursor: pointer;"><path id="kity_path_36" fill="white" stroke="gray" d="M258.50000523775816,31.500001586973667A6,6,0,1,1,246.50000523775816,31.500001586973667A6,6,0,1,1,258.50000523775816,31.500001586973667"></path><path id="kity_path_37" fill="none" stroke="gray" d="M248.00000523775816,31.500001586973667L257.00000523775816,31.500001586973667"></path></g><path id="node_outline2" fill="rgb(238, 246, 238)" stroke="rgb(115, 191, 118)" d="M262.5000056400895,20.500001586973667h75a3,3,0,0,1,3,3v16a3,3,0,0,1,-3,3h-75a3,3,0,0,1,-3,-3v-16a3,3,0,0,1,3,-3z" stroke-width="1"></path><g id="node_text2" fill="black"><text id="kity_text_33" text-rendering="inherit" font-size="10" dy=".8em" y="25.000001564621925" font-family="微软雅黑,Microsoft YaHei" x="279.5000056400895">公司登记</text></g></g><g id="minder_node3"><g id="node_expander2" style="cursor: pointer;"><path id="kity_path_44" fill="white" stroke="gray" d="M258.50000523775816,142.50000324100256A6,6,0,1,1,246.50000523775816,142.50000324100256A6,6,0,1,1,258.50000523775816,142.50000324100256"></path><path id="kity_path_45" fill="none" stroke="gray" d="M248.00000523775816,142.50000324100256L257.00000523775816,142.50000324100256"></path></g><path id="node_outline3" fill="rgb(238, 246, 238)" stroke="rgb(115, 191, 118)" d="M262.5000056400895,131.50000324100256h74a3,3,0,0,1,3,3v16a3,3,0,0,1,-3,3h-74a3,3,0,0,1,-3,-3v-16a3,3,0,0,1,3,-3z" stroke-width="1"></path><g id="node_text3" fill="black"><text id="kity_text_41" text-rendering="inherit" font-size="10" dy=".8em" y="136.00000321865082" font-family="微软雅黑,Microsoft YaHei" x="279.5000056400895">营业执照</text></g></g><g id="minder_node4"><g id="node_expander3" style="cursor: pointer;"><path id="kity_path_52" fill="white" stroke="gray" d="M258.50000523775816,277.5000052526593A6,6,0,1,1,246.50000523775816,277.5000052526593A6,6,0,1,1,258.50000523775816,277.5000052526593"></path><path id="kity_path_53" fill="none" stroke="gray" d="M248.00000523775816,277.5000052526593L257.00000523775816,277.5000052526593"></path></g><path id="node_outline4" fill="rgb(238, 246, 238)" stroke="rgb(115, 191, 118)" d="M262.5000056400895,266.5000052526593h75a3,3,0,0,1,3,3v16a3,3,0,0,1,-3,3h-75a3,3,0,0,1,-3,-3v-16a3,3,0,0,1,3,-3z" stroke-width="1"></path><g id="node_text4" fill="black"><text id="kity_text_49" text-rendering="inherit" font-size="10" dy=".8em" y="271.0000052303076" font-family="微软雅黑,Microsoft YaHei" x="279.5000056400895">公司名称</text></g></g><g id="minder_node5"><g id="node_expander4" style="cursor: pointer;"><path id="kity_path_60" fill="white" stroke="gray" d="M258.50000523775816,363.5000065341592A6,6,0,1,1,246.50000523775816,363.5000065341592A6,6,0,1,1,258.50000523775816,363.5000065341592"></path><path id="kity_path_61" fill="none" stroke="gray" d="M248.00000523775816,363.5000065341592L257.00000523775816,363.5000065341592"></path></g><path id="node_outline5" fill="rgb(238, 246, 238)" stroke="rgb(115, 191, 118)" d="M262.5000056400895,352.5000065341592h95a3,3,0,0,1,3,3v16a3,3,0,0,1,-3,3h-95a3,3,0,0,1,-3,-3v-16a3,3,0,0,1,3,-3z" stroke-width="1"></path><g id="node_text5" fill="black"><text id="kity_text_57" text-rendering="inherit" font-size="10" dy=".8em" y="357.00000651180744" font-family="微软雅黑,Microsoft YaHei" x="279.5000056400895">公司形式变更</text></g></g><g id="minder_node6"><g id="node_expander5" style="cursor: pointer;" display="none"><path id="kity_path_68" fill="white" stroke="gray" d="M380.5000070556998,31.500001586973667A6,6,0,1,1,368.5000070556998,31.500001586973667A6,6,0,1,1,380.5000070556998,31.500001586973667"></path><path id="kity_path_69" fill="none" stroke="gray"></path></g><path id="node_outline6" fill="none" stroke="none" d="M385.5000072941184,21.500001586973667h211a5,5,0,0,1,5,5v10a5,5,0,0,1,-5,5h-211a5,5,0,0,1,-5,-5v-10a5,5,0,0,1,5,-5z" stroke-width="3"></path><g id="node_text6" fill="black"><text id="kity_text_65" text-rendering="inherit" font-size="10" dy=".8em" y="25.000001564621925" font-weight="bold" font-family="微软雅黑,Microsoft YaHei" x="390.5000072941184">设立公司，应当向公司登记机关申请设立登记</text></g></g><g id="minder_node9"><g id="node_expander8" style="cursor: pointer;"><path id="kity_path_92" fill="white" stroke="gray" d="M379.50000704079866,92.5000024959445A6,6,0,1,1,367.50000704079866,92.5000024959445A6,6,0,1,1,379.50000704079866,92.5000024959445"></path><path id="kity_path_93" fill="none" stroke="gray" d="M369.00000704079866,92.5000024959445L378.00000704079866,92.5000024959445"></path></g><path id="node_outline9" fill="#92d050" stroke="none" d="M384.50000727921724,82.5000024959445h101a5,5,0,0,1,5,5v10a5,5,0,0,1,-5,5h-101a5,5,0,0,1,-5,-5v-10a5,5,0,0,1,5,-5z" stroke-width="3"></path><g id="node_text9" fill="black"><text id="kity_text_89" text-rendering="inherit" font-size="10" dy=".8em" y="86.00000247359276" font-family="微软雅黑,Microsoft YaHei" x="389.50000727921724">由公司登记机关发放</text></g></g><g id="minder_node10"><g id="node_expander9" style="cursor: pointer;" display="none"><path id="kity_path_100" fill="white" stroke="gray" d="M379.50000704079866,142.50000324100256A6,6,0,1,1,367.50000704079866,142.50000324100256A6,6,0,1,1,379.50000704079866,142.50000324100256"></path><path id="kity_path_101" fill="none" stroke="gray"></path></g><path id="node_outline10" fill="none" stroke="none" d="M384.50000727921724,132.50000324100256h301a5,5,0,0,1,5,5v10a5,5,0,0,1,-5,5h-301a5,5,0,0,1,-5,-5v-10a5,5,0,0,1,5,-5z" stroke-width="3"></path><g id="node_text10" fill="black"><text id="kity_text_97" text-rendering="inherit" font-size="10" dy=".8em" y="136.00000321865082" font-weight="bold" font-family="微软雅黑,Microsoft YaHei" x="389.50000727921724">应载明：公司名称、住所、注册资本、经营范围、法人代表姓名等</text></g></g><g id="minder_node11"><g id="node_expander10" style="cursor: pointer;" display="none"><path id="kity_path_108" fill="white" stroke="gray" d="M379.50000704079866,192.50000398606062A6,6,0,1,1,367.50000704079866,192.50000398606062A6,6,0,1,1,379.50000704079866,192.50000398606062"></path><path id="kity_path_109" fill="none" stroke="gray"></path></g><path id="node_outline11" fill="none" stroke="none" d="M384.50000727921724,182.50000398606062h200a5,5,0,0,1,5,5v10a5,5,0,0,1,-5,5h-200a5,5,0,0,1,-5,-5v-10a5,5,0,0,1,5,-5z" stroke-width="3"></path><g id="node_text11" fill="black"><text id="kity_text_105" text-rendering="inherit" font-size="10" dy=".8em" y="186.00000396370888" font-weight="bold" font-family="微软雅黑,Microsoft YaHei" x="389.50000727921724">记载事项发生变更应做变更登记，换发执照</text></g></g><g id="minder_node12"><g id="node_expander11" style="cursor: pointer;" display="none"><path id="kity_path_116" fill="white" stroke="gray" d="M530.500009290874,92.5000024959445A6,6,0,1,1,518.500009290874,92.5000024959445A6,6,0,1,1,530.500009290874,92.5000024959445"></path><path id="kity_path_117" fill="none" stroke="gray"></path></g><path id="node_outline12" fill="none" stroke="none" d="M535.5000095292926,82.5000024959445h118a5,5,0,0,1,5,5v10a5,5,0,0,1,-5,5h-118a5,5,0,0,1,-5,-5v-10a5,5,0,0,1,5,-5z" stroke-width="3"></path><g id="node_text12" fill="black"><text id="kity_text_113" text-rendering="inherit" font-size="10" dy=".8em" y="86.00000247359276" font-weight="bold" font-family="微软雅黑,Microsoft YaHei" x="540.5000095292926">签发日期=公司成立日期</text></g></g><g id="minder_node13"><g id="node_expander12" style="cursor: pointer;"><path id="kity_path_124" fill="white" stroke="gray" d="M380.5000070556998,252.5000048801303A6,6,0,1,1,368.5000070556998,252.5000048801303A6,6,0,1,1,380.5000070556998,252.5000048801303"></path><path id="kity_path_125" fill="none" stroke="gray" d="M370.0000070556998,252.5000048801303L379.0000070556998,252.5000048801303"></path></g><path id="node_outline13" fill="none" stroke="none" d="M385.5000072941184,242.5000048801303h71a5,5,0,0,1,5,5v10a5,5,0,0,1,-5,5h-71a5,5,0,0,1,-5,-5v-10a5,5,0,0,1,5,-5z" stroke-width="3"></path><g id="node_text13" fill="black"><text id="kity_text_121" text-rendering="inherit" font-size="10" dy=".8em" y="246.00000485777855" font-family="微软雅黑,Microsoft YaHei" x="390.5000072941184">有限责任公司</text></g></g><g id="minder_node14"><g id="node_expander13" style="cursor: pointer;"><path id="kity_path_132" fill="white" stroke="gray" d="M380.5000070556998,302.50000562518835A6,6,0,1,1,368.5000070556998,302.50000562518835A6,6,0,1,1,380.5000070556998,302.50000562518835"></path><path id="kity_path_133" fill="none" stroke="gray" d="M370.0000070556998,302.50000562518835L379.0000070556998,302.50000562518835"></path></g><path id="node_outline14" fill="none" stroke="none" d="M385.5000072941184,292.50000562518835h71a5,5,0,0,1,5,5v10a5,5,0,0,1,-5,5h-71a5,5,0,0,1,-5,-5v-10a5,5,0,0,1,5,-5z" stroke-width="3"></path><g id="node_text14" fill="black"><text id="kity_text_129" text-rendering="inherit" font-size="10" dy=".8em" y="296.0000056028366" font-family="微软雅黑,Microsoft YaHei" x="390.5000072941184">股份有限公司</text></g></g><g id="minder_node16"><g id="node_expander15" style="cursor: pointer;" display="none"><path id="kity_path_148" fill="white" stroke="gray" d="M400.50000735372305,363.5000065341592A6,6,0,1,1,388.50000735372305,363.5000065341592A6,6,0,1,1,400.50000735372305,363.5000065341592"></path><path id="kity_path_149" fill="none" stroke="gray"></path></g><path id="node_outline16" fill="none" stroke="none" d="M405.5000075921416,353.5000065341592h221a5,5,0,0,1,5,5v10a5,5,0,0,1,-5,5h-221a5,5,0,0,1,-5,-5v-10a5,5,0,0,1,5,-5z" stroke-width="3"></path><g id="node_text16" fill="black"><text id="kity_text_145" text-rendering="inherit" font-size="10" dy=".8em" y="357.00000651180744" font-family="微软雅黑,Microsoft YaHei" x="410.5000075921416">有限责任公司和股份有限公司可以依法互相变更</text></g></g><g id="minder_node17"><g id="node_expander16" style="cursor: pointer;" display="none"><path id="kity_path_156" fill="white" stroke="gray" d="M501.50000885874033,252.5000048801303A6,6,0,1,1,489.50000885874033,252.5000048801303A6,6,0,1,1,501.50000885874033,252.5000048801303"></path><path id="kity_path_157" fill="none" stroke="gray"></path></g><path id="node_outline17" fill="none" stroke="none" d="M506.5000090971589,242.5000048801303h81a5,5,0,0,1,5,5v10a5,5,0,0,1,-5,5h-81a5,5,0,0,1,-5,-5v-10a5,5,0,0,1,5,-5z" stroke-width="3"></path><g id="node_text17" fill="black"><text id="kity_text_153" text-rendering="inherit" font-size="10" dy=".8em" y="246.00000485777855" font-family="微软雅黑,Microsoft YaHei" x="511.5000090971589">名称必须有有限</text></g></g><g id="minder_node18"><g id="node_expander17" style="cursor: pointer;" display="none"><path id="kity_path_164" fill="white" stroke="gray" d="M501.50000885874033,302.50000562518835A6,6,0,1,1,489.50000885874033,302.50000562518835A6,6,0,1,1,501.50000885874033,302.50000562518835"></path><path id="kity_path_165" fill="none" stroke="gray"></path></g><path id="node_outline18" fill="none" stroke="none" d="M506.5000090971589,292.50000562518835h81a5,5,0,0,1,5,5v10a5,5,0,0,1,-5,5h-81a5,5,0,0,1,-5,-5v-10a5,5,0,0,1,5,-5z" stroke-width="3"></path><g id="node_text18" fill="black"><text id="kity_text_161" text-rendering="inherit" font-size="10" dy=".8em" y="296.0000056028366" font-family="微软雅黑,Microsoft YaHei" x="511.5000090971589">名称必须有股份</text></g></g></g></g></svg>