<svg id="kity_svg_6" xmlns="http://www.w3.org/2000/svg" xmlns:xlink="http://www.w3.org/1999/xlink" version="1.1" width="550" height="236" style="background: rgb(251, 251, 251); visibility: visible;" viewBox="0 0 550 236"><defs id="kity_defs_7"><linearGradient id="kity_linearGradient_17" x1="0" y1="0" x2="0" y2="1"><stop id="kity_stop_18" offset="0" stop-color="rgb(255, 255, 255)"></stop><stop id="kity_stop_19" offset="1" stop-color="rgb(204, 204, 204)"></stop></linearGradient><marker id="kity_marker_2" orient="auto" refX="6" refY="0" viewBox="-7 -7 14 14" markerWidth="7" markerHeight="7" markerUnits="userSpaceOnUse"><path id="kity_path_3" fill="rgb(115, 191, 118)" stroke="none" d="M6,0A6,6,0,1,1,-6,0A6,6,0,1,1,6,0"></path></marker></defs><g id="kity_g_8"><g id="minder1" text-rendering="optimize-speed"><g id="minder_connect_group1"><path id="kity_path_31" fill="none" stroke="rgb(115, 191, 118)" stroke-width="1" d="M68.00000213831663,118.50000406056643A63.5,87,0,0,1,131.50000213831663,31.500004060566425"></path><path id="kity_path_39" fill="none" stroke="rgb(115, 191, 118)" stroke-width="1" d="M68.00000213831663,118.50000406056643A63.5,28,0,0,1,131.50000213831663,90.50000406056643"></path><path id="kity_path_47" fill="none" stroke="rgb(115, 191, 118)" stroke-width="1" d="M68.00000213831663,118.50000406056643A63.5,40,0,0,0,131.50000213831663,158.50000406056643"></path><path id="kity_path_55" fill="none" stroke="rgb(115, 191, 118)" stroke-width="1" d="M68.00000213831663,118.50000406056643A63.5,87,0,0,0,131.50000213831663,205.50000406056643"></path><path id="kity_path_63" fill="none" stroke="rgb(115, 191, 118)" stroke-width="1" d="M214.50000213831663,31.500004060566425C222.50000213831663,31.500004060566425,222.50000213831663,31.500004060566425,230.50000213831663,31.500004060566425"></path><path id="kity_path_87" fill="none" stroke="rgb(115, 191, 118)" stroke-width="1" d="M213.50000213831663,90.50000406056643C221.50000213831663,90.50000406056643,221.50000213831663,66.50000406056643,229.50000213831663,66.50000406056643"></path><path id="kity_path_95" fill="none" stroke="rgb(115, 191, 118)" stroke-width="1" d="M213.50000213831663,90.50000406056643C221.50000213831663,90.50000406056643,221.50000213831663,90.50000406056643,229.50000213831663,90.50000406056643"></path><path id="kity_path_103" fill="none" stroke="rgb(115, 191, 118)" stroke-width="1" d="M213.50000213831663,90.50000406056643C221.50000213831663,90.50000406056643,221.50000213831663,114.50000406056643,229.50000213831663,114.50000406056643"></path><path id="kity_path_111" fill="none" stroke="rgb(115, 191, 118)" stroke-width="1" d="M330.50000213831663,66.50000406056643C338.50000213831663,66.50000406056643,338.50000213831663,66.50000406056643,346.50000213831663,66.50000406056643"></path><path id="kity_path_119" fill="none" stroke="rgb(115, 191, 118)" stroke-width="1" d="M214.50000213831663,158.50000406056643C222.50000213831663,158.50000406056643,222.50000213831663,146.50000406056643,230.50000213831663,146.50000406056643"></path><path id="kity_path_127" fill="none" stroke="rgb(115, 191, 118)" stroke-width="1" d="M214.50000213831663,158.50000406056643C222.50000213831663,158.50000406056643,222.50000213831663,170.50000406056643,230.50000213831663,170.50000406056643"></path><path id="kity_path_143" fill="none" stroke="rgb(115, 191, 118)" stroke-width="1" d="M234.50000213831663,205.50000406056643C242.50000213831663,205.50000406056643,242.50000213831663,205.50000406056643,250.50000213831663,205.50000406056643"></path><path id="kity_path_151" fill="none" stroke="rgb(115, 191, 118)" stroke-width="1" d="M301.50000213831663,146.50000406056643C309.50000213831663,146.50000406056643,309.50000213831663,146.50000406056643,317.50000213831663,146.50000406056643"></path><path id="kity_path_159" fill="none" stroke="rgb(115, 191, 118)" stroke-width="1" d="M301.50000213831663,170.50000406056643C309.50000213831663,170.50000406056643,309.50000213831663,170.50000406056643,317.50000213831663,170.50000406056643"></path></g><g id="minder_node1"><path id="node_outline1" fill="rgb(115, 191, 118)" stroke="rgb(115, 191, 118)" d="M25.50000213831663,107.50000406056643h85a5,5,0,0,1,5,5v12a5,5,0,0,1,-5,5h-85a5,5,0,0,1,-5,-5v-12a5,5,0,0,1,5,-5z" stroke-width="3"></path><g id="node_text1" fill="white"><text id="kity_text_22" text-rendering="inherit" font-size="10" dy=".8em" y="112.00000403821468" font-family="微软雅黑,Microsoft YaHei" x="32.50000213831663">公司登记的要求</text></g></g><g id="kity_g_12"><path id="kity_path_13" fill="none" stroke="none" d="M32.50000213831663,118.50000406056643h0v0h0z"></path></g><g id="kity_g_14"><path id="kity_path_15" fill="none" stroke="none" d="M32.50000213831663,118.50000406056643h0v0h0z"></path><path id="kity_path_16" fill="none" stroke="none"></path></g><g id="minder_node2"><g id="node_expander1" style="cursor: pointer;"><path id="kity_path_36" fill="white" stroke="gray" d="M132.50000353902578,31.5000027641654A6,6,0,1,1,120.50000353902578,31.5000027641654A6,6,0,1,1,132.50000353902578,31.5000027641654"></path><path id="kity_path_37" fill="none" stroke="gray" d="M122.00000353902578,31.5000027641654L131.00000353902578,31.5000027641654"></path></g><path id="node_outline2" fill="rgb(238, 246, 238)" stroke="rgb(115, 191, 118)" d="M136.50000394135714,20.5000027641654h75a3,3,0,0,1,3,3v16a3,3,0,0,1,-3,3h-75a3,3,0,0,1,-3,-3v-16a3,3,0,0,1,3,-3z" stroke-width="1"></path><g id="node_text2" fill="black"><text id="kity_text_33" text-rendering="inherit" font-size="10" dy=".8em" y="25.00000274181366" font-family="微软雅黑,Microsoft YaHei" x="153.50000394135714">公司登记</text></g></g><g id="minder_node3"><g id="node_expander2" style="cursor: pointer;"><path id="kity_path_44" fill="white" stroke="gray" d="M132.50000353902578,90.50000364333391A6,6,0,1,1,120.50000353902578,90.50000364333391A6,6,0,1,1,132.50000353902578,90.50000364333391"></path><path id="kity_path_45" fill="none" stroke="gray" d="M122.00000353902578,90.50000364333391L131.00000353902578,90.50000364333391"></path></g><path id="node_outline3" fill="rgb(238, 246, 238)" stroke="rgb(115, 191, 118)" d="M136.50000394135714,79.50000364333391h74a3,3,0,0,1,3,3v16a3,3,0,0,1,-3,3h-74a3,3,0,0,1,-3,-3v-16a3,3,0,0,1,3,-3z" stroke-width="1"></path><g id="node_text3" fill="black"><text id="kity_text_41" text-rendering="inherit" font-size="10" dy=".8em" y="84.00000362098217" font-family="微软雅黑,Microsoft YaHei" x="153.50000394135714">营业执照</text></g></g><g id="minder_node4"><g id="node_expander3" style="cursor: pointer;"><path id="kity_path_52" fill="white" stroke="gray" d="M132.50000353902578,158.50000465661287A6,6,0,1,1,120.50000353902578,158.50000465661287A6,6,0,1,1,132.50000353902578,158.50000465661287"></path><path id="kity_path_53" fill="none" stroke="gray" d="M122.00000353902578,158.50000465661287L131.00000353902578,158.50000465661287"></path></g><path id="node_outline4" fill="rgb(238, 246, 238)" stroke="rgb(115, 191, 118)" d="M136.50000394135714,147.50000465661287h75a3,3,0,0,1,3,3v16a3,3,0,0,1,-3,3h-75a3,3,0,0,1,-3,-3v-16a3,3,0,0,1,3,-3z" stroke-width="1"></path><g id="node_text4" fill="black"><text id="kity_text_49" text-rendering="inherit" font-size="10" dy=".8em" y="152.00000463426113" font-family="微软雅黑,Microsoft YaHei" x="153.50000394135714">公司名称</text></g></g><g id="minder_node5"><g id="node_expander4" style="cursor: pointer;"><path id="kity_path_60" fill="white" stroke="gray" d="M132.50000353902578,205.50000535696745A6,6,0,1,1,120.50000353902578,205.50000535696745A6,6,0,1,1,132.50000353902578,205.50000535696745"></path><path id="kity_path_61" fill="none" stroke="gray" d="M122.00000353902578,205.50000535696745L131.00000353902578,205.50000535696745"></path></g><path id="node_outline5" fill="rgb(238, 246, 238)" stroke="rgb(115, 191, 118)" d="M136.50000394135714,194.50000535696745h95a3,3,0,0,1,3,3v16a3,3,0,0,1,-3,3h-95a3,3,0,0,1,-3,-3v-16a3,3,0,0,1,3,-3z" stroke-width="1"></path><g id="node_text5" fill="black"><text id="kity_text_57" text-rendering="inherit" font-size="10" dy=".8em" y="199.0000053346157" font-family="微软雅黑,Microsoft YaHei" x="153.50000394135714">公司形式变更</text></g></g><g id="minder_node6"><g id="node_expander5" style="cursor: pointer;" display="none"><path id="kity_path_68" fill="white" stroke="gray" d="M230.50000499933958,31.5000027641654A6,6,0,1,1,218.50000499933958,31.5000027641654A6,6,0,1,1,230.50000499933958,31.5000027641654"></path><path id="kity_path_69" fill="none" stroke="gray"></path></g><path id="node_outline6" fill="none" stroke="none" d="M235.50000516325235,23.5000027641654h201a5,5,0,0,1,5,5v6a5,5,0,0,1,-5,5h-201a5,5,0,0,1,-5,-5v-6a5,5,0,0,1,5,-5z" stroke-width="3"></path><g id="node_text6" fill="black"><text id="kity_text_65" text-rendering="inherit" font-size="10" dy=".8em" y="25.00000274181366" font-weight="bold" font-family="微软雅黑,Microsoft YaHei" x="235.50000516325235">设立公司，应当向公司登记机关申请设立登记</text></g></g><g id="minder_node9"><g id="node_expander8" style="cursor: pointer;"><path id="kity_path_92" fill="white" stroke="gray" d="M229.50000498443842,66.50000328570604A6,6,0,1,1,217.50000498443842,66.50000328570604A6,6,0,1,1,229.50000498443842,66.50000328570604"></path><path id="kity_path_93" fill="none" stroke="gray" d="M219.00000498443842,66.50000328570604L228.00000498443842,66.50000328570604"></path></g><path id="node_outline9" fill="#92d050" stroke="none" d="M234.5000051483512,58.50000328570604h91a5,5,0,0,1,5,5v6a5,5,0,0,1,-5,5h-91a5,5,0,0,1,-5,-5v-6a5,5,0,0,1,5,-5z" stroke-width="3"></path><g id="node_text9" fill="black"><text id="kity_text_89" text-rendering="inherit" font-size="10" dy=".8em" y="60.0000032633543" font-family="微软雅黑,Microsoft YaHei" x="234.5000051483512">由公司登记机关发放</text></g></g><g id="minder_node10"><g id="node_expander9" style="cursor: pointer;" display="none"><path id="kity_path_100" fill="white" stroke="gray" d="M229.50000498443842,90.50000364333391A6,6,0,1,1,217.50000498443842,90.50000364333391A6,6,0,1,1,229.50000498443842,90.50000364333391"></path><path id="kity_path_101" fill="none" stroke="gray"></path></g><path id="node_outline10" fill="none" stroke="none" d="M234.5000051483512,82.50000364333391h291a5,5,0,0,1,5,5v6a5,5,0,0,1,-5,5h-291a5,5,0,0,1,-5,-5v-6a5,5,0,0,1,5,-5z" stroke-width="3"></path><g id="node_text10" fill="black"><text id="kity_text_97" text-rendering="inherit" font-size="10" dy=".8em" y="84.00000362098217" font-weight="bold" font-family="微软雅黑,Microsoft YaHei" x="234.5000051483512">应载明：公司名称、住所、注册资本、经营范围、法人代表姓名等</text></g></g><g id="minder_node11"><g id="node_expander10" style="cursor: pointer;" display="none"><path id="kity_path_108" fill="white" stroke="gray" d="M229.50000498443842,114.50000400096178A6,6,0,1,1,217.50000498443842,114.50000400096178A6,6,0,1,1,229.50000498443842,114.50000400096178"></path><path id="kity_path_109" fill="none" stroke="gray"></path></g><path id="node_outline11" fill="none" stroke="none" d="M234.5000051483512,106.50000400096178h190a5,5,0,0,1,5,5v6a5,5,0,0,1,-5,5h-190a5,5,0,0,1,-5,-5v-6a5,5,0,0,1,5,-5z" stroke-width="3"></path><g id="node_text11" fill="black"><text id="kity_text_105" text-rendering="inherit" font-size="10" dy=".8em" y="108.00000397861004" font-weight="bold" font-family="微软雅黑,Microsoft YaHei" x="234.5000051483512">记载事项发生变更应做变更登记，换发执照</text></g></g><g id="minder_node12"><g id="node_expander11" style="cursor: pointer;" display="none"><path id="kity_path_116" fill="white" stroke="gray" d="M346.5000067278743,66.50000328570604A6,6,0,1,1,334.5000067278743,66.50000328570604A6,6,0,1,1,346.5000067278743,66.50000328570604"></path><path id="kity_path_117" fill="none" stroke="gray"></path></g><path id="node_outline12" fill="none" stroke="none" d="M351.50000689178705,58.50000328570604h108a5,5,0,0,1,5,5v6a5,5,0,0,1,-5,5h-108a5,5,0,0,1,-5,-5v-6a5,5,0,0,1,5,-5z" stroke-width="3"></path><g id="node_text12" fill="black"><text id="kity_text_113" text-rendering="inherit" font-size="10" dy=".8em" y="60.0000032633543" font-weight="bold" font-family="微软雅黑,Microsoft YaHei" x="351.50000689178705">签发日期=公司成立日期</text></g></g><g id="minder_node13"><g id="node_expander12" style="cursor: pointer;"><path id="kity_path_124" fill="white" stroke="gray" d="M230.50000499933958,146.50000447779894A6,6,0,1,1,218.50000499933958,146.50000447779894A6,6,0,1,1,230.50000499933958,146.50000447779894"></path><path id="kity_path_125" fill="none" stroke="gray" d="M220.00000499933958,146.50000447779894L229.00000499933958,146.50000447779894"></path></g><path id="node_outline13" fill="none" stroke="none" d="M235.50000516325235,138.50000447779894h61a5,5,0,0,1,5,5v6a5,5,0,0,1,-5,5h-61a5,5,0,0,1,-5,-5v-6a5,5,0,0,1,5,-5z" stroke-width="3"></path><g id="node_text13" fill="black"><text id="kity_text_121" text-rendering="inherit" font-size="10" dy=".8em" y="140.0000044554472" font-family="微软雅黑,Microsoft YaHei" x="235.50000516325235">有限责任公司</text></g></g><g id="minder_node14"><g id="node_expander13" style="cursor: pointer;"><path id="kity_path_132" fill="white" stroke="gray" d="M230.50000499933958,170.5000048354268A6,6,0,1,1,218.50000499933958,170.5000048354268A6,6,0,1,1,230.50000499933958,170.5000048354268"></path><path id="kity_path_133" fill="none" stroke="gray" d="M220.00000499933958,170.5000048354268L229.00000499933958,170.5000048354268"></path></g><path id="node_outline14" fill="none" stroke="none" d="M235.50000516325235,162.5000048354268h61a5,5,0,0,1,5,5v6a5,5,0,0,1,-5,5h-61a5,5,0,0,1,-5,-5v-6a5,5,0,0,1,5,-5z" stroke-width="3"></path><g id="node_text14" fill="black"><text id="kity_text_129" text-rendering="inherit" font-size="10" dy=".8em" y="164.00000481307507" font-family="微软雅黑,Microsoft YaHei" x="235.50000516325235">股份有限公司</text></g></g><g id="minder_node16"><g id="node_expander15" style="cursor: pointer;" display="none"><path id="kity_path_148" fill="white" stroke="gray" d="M250.5000052973628,205.50000535696745A6,6,0,1,1,238.5000052973628,205.50000535696745A6,6,0,1,1,250.5000052973628,205.50000535696745"></path><path id="kity_path_149" fill="none" stroke="gray"></path></g><path id="node_outline16" fill="none" stroke="none" d="M255.50000546127558,197.50000535696745h211a5,5,0,0,1,5,5v6a5,5,0,0,1,-5,5h-211a5,5,0,0,1,-5,-5v-6a5,5,0,0,1,5,-5z" stroke-width="3"></path><g id="node_text16" fill="black"><text id="kity_text_145" text-rendering="inherit" font-size="10" dy=".8em" y="199.0000053346157" font-family="微软雅黑,Microsoft YaHei" x="255.50000546127558">有限责任公司和股份有限公司可以依法互相变更</text></g></g><g id="minder_node17"><g id="node_expander16" style="cursor: pointer;" display="none"><path id="kity_path_156" fill="white" stroke="gray" d="M317.5000062957406,146.50000447779894A6,6,0,1,1,305.5000062957406,146.50000447779894A6,6,0,1,1,317.5000062957406,146.50000447779894"></path><path id="kity_path_157" fill="none" stroke="gray"></path></g><path id="node_outline17" fill="none" stroke="none" d="M322.5000064596534,138.50000447779894h71a5,5,0,0,1,5,5v6a5,5,0,0,1,-5,5h-71a5,5,0,0,1,-5,-5v-6a5,5,0,0,1,5,-5z" stroke-width="3"></path><g id="node_text17" fill="black"><text id="kity_text_153" text-rendering="inherit" font-size="10" dy=".8em" y="140.0000044554472" font-family="微软雅黑,Microsoft YaHei" x="322.5000064596534">名称必须有有限</text></g></g><g id="minder_node18"><g id="node_expander17" style="cursor: pointer;" display="none"><path id="kity_path_164" fill="white" stroke="gray" d="M317.5000062957406,170.5000048354268A6,6,0,1,1,305.5000062957406,170.5000048354268A6,6,0,1,1,317.5000062957406,170.5000048354268"></path><path id="kity_path_165" fill="none" stroke="gray"></path></g><path id="node_outline18" fill="none" stroke="none" d="M322.5000064596534,162.5000048354268h71a5,5,0,0,1,5,5v6a5,5,0,0,1,-5,5h-71a5,5,0,0,1,-5,-5v-6a5,5,0,0,1,5,-5z" stroke-width="3"></path><g id="node_text18" fill="black"><text id="kity_text_161" text-rendering="inherit" font-size="10" dy=".8em" y="164.00000481307507" font-family="微软雅黑,Microsoft YaHei" x="322.5000064596534">名称必须有股份</text></g></g></g></g></svg>