<svg id="kity_svg_6" xmlns="http://www.w3.org/2000/svg" xmlns:xlink="http://www.w3.org/1999/xlink" version="1.1" width="620" height="251" style="background: rgb(251, 251, 251); visibility: visible;" viewBox="0 0 620 251"><defs id="kity_defs_7"><linearGradient id="kity_linearGradient_17" x1="0" y1="0" x2="0" y2="1"><stop id="kity_stop_18" offset="0" stop-color="rgb(255, 255, 255)"></stop><stop id="kity_stop_19" offset="1" stop-color="rgb(204, 204, 204)"></stop></linearGradient><marker id="kity_marker_2" orient="auto" refX="6" refY="0" viewBox="-7 -7 14 14" markerWidth="7" markerHeight="7" markerUnits="userSpaceOnUse"><path id="kity_path_3" fill="rgb(115, 191, 118)" stroke="none" d="M6,0A6,6,0,1,1,-6,0A6,6,0,1,1,6,0"></path></marker></defs><g id="kity_g_8"><g id="minder1" text-rendering="optimize-speed"><g id="minder_connect_group1"><path id="kity_path_31" fill="none" stroke="rgb(115, 191, 118)" stroke-width="1" d="M68.00000213831663,136.50000406056643A130.5,105,0,0,1,198.50000213831663,31.500004060566425"></path><path id="kity_path_39" fill="none" stroke="rgb(115, 191, 118)" stroke-width="1" d="M68.00000213831663,136.50000406056643A133.5,47,0,0,1,201.50000213831663,89.50000406056643"></path><path id="kity_path_47" fill="none" stroke="rgb(115, 191, 118)" stroke-width="1" d="M68.00000213831663,136.50000406056643A135.5,26,0,0,0,203.50000213831663,162.50000406056643"></path><path id="kity_path_55" fill="none" stroke="rgb(115, 191, 118)" stroke-width="1" d="M68.00000213831663,136.50000406056643A115.5,84,0,0,0,183.50000213831663,220.50000406056643"></path><path id="kity_path_190" fill="none" stroke="rgb(115, 191, 118)" stroke-width="1" d="M281.50000213831663,31.500004060566425C289.50000213831663,31.500004060566425,289.50000213831663,31.500004060566425,297.50000213831663,31.500004060566425"></path><path id="kity_path_191" fill="none" stroke="rgb(115, 191, 118)" stroke-width="1" d="M400.50000213831663,65.50000406056643C408.50000213831663,65.50000406056643,408.50000213831663,65.50000406056643,416.50000213831663,65.50000406056643"></path><path id="kity_path_192" fill="none" stroke="rgb(115, 191, 118)" stroke-width="1" d="M283.50000213831663,89.50000406056643C291.50000213831663,89.50000406056643,291.50000213831663,65.50000406056643,299.50000213831663,65.50000406056643"></path><path id="kity_path_193" fill="none" stroke="rgb(115, 191, 118)" stroke-width="1" d="M283.50000213831663,89.50000406056643C291.50000213831663,89.50000406056643,291.50000213831663,89.50000406056643,299.50000213831663,89.50000406056643"></path><path id="kity_path_194" fill="none" stroke="rgb(115, 191, 118)" stroke-width="1" d="M283.50000213831663,89.50000406056643C291.50000213831663,89.50000406056643,291.50000213831663,113.50000406056643,299.50000213831663,113.50000406056643"></path><path id="kity_path_195" fill="none" stroke="rgb(115, 191, 118)" stroke-width="1" d="M373.50000213831663,150.50000406056643C381.50000213831663,150.50000406056643,381.50000213831663,150.50000406056643,389.50000213831663,150.50000406056643"></path><path id="kity_path_196" fill="none" stroke="rgb(115, 191, 118)" stroke-width="1" d="M286.50000213831663,162.50000406056643C294.50000213831663,162.50000406056643,294.50000213831663,150.50000406056643,302.50000213831663,150.50000406056643"></path><path id="kity_path_197" fill="none" stroke="rgb(115, 191, 118)" stroke-width="1" d="M373.50000213831663,174.50000406056643C381.50000213831663,174.50000406056643,381.50000213831663,174.50000406056643,389.50000213831663,174.50000406056643"></path><path id="kity_path_198" fill="none" stroke="rgb(115, 191, 118)" stroke-width="1" d="M286.50000213831663,162.50000406056643C294.50000213831663,162.50000406056643,294.50000213831663,174.50000406056643,302.50000213831663,174.50000406056643"></path><path id="kity_path_200" fill="none" stroke="rgb(115, 191, 118)" stroke-width="1" d="M286.50000213831663,220.50000406056643C294.50000213831663,220.50000406056643,294.50000213831663,220.50000406056643,302.50000213831663,220.50000406056643"></path></g><g id="minder_node1"><path id="node_outline1" fill="rgb(115, 191, 118)" stroke="rgb(115, 191, 118)" d="M25.50000213831663,125.50000406056643h85a5,5,0,0,1,5,5v12a5,5,0,0,1,-5,5h-85a5,5,0,0,1,-5,-5v-12a5,5,0,0,1,5,-5z" stroke-width="3"></path><g id="node_text1" fill="white"><text id="kity_text_22" text-rendering="inherit" font-size="10" dy=".8em" y="130.00000403821468" font-family="微软雅黑,Microsoft YaHei" x="32.50000213831663">公司登记的要求</text></g></g><g id="kity_g_12" display="none"><path id="kity_path_13" fill="none" stroke="none" d="M32.50000213831663,136.50000406056643h0v0h0z"></path></g><g id="kity_g_14" display="none"><path id="kity_path_15" fill="none" stroke="none" d="M32.50000213831663,136.50000406056643h0v0h0z"></path><path id="kity_path_16" fill="none" stroke="none"></path></g><g id="minder_node2" opacity="1"><g id="node_expander1" style="cursor: pointer;"><path id="kity_path_36" fill="white" stroke="gray" d="M199.50000453740358,31.5000024959445A6,6,0,1,1,187.50000453740358,31.5000024959445A6,6,0,1,1,199.50000453740358,31.5000024959445"></path><path id="kity_path_37" fill="none" stroke="gray" d="M189.00000453740358,31.5000024959445L198.00000453740358,31.5000024959445"></path></g><path id="node_outline2" fill="rgb(238, 246, 238)" stroke="rgb(115, 191, 118)" d="M203.50000493973494,20.5000024959445h75a3,3,0,0,1,3,3v16a3,3,0,0,1,-3,3h-75a3,3,0,0,1,-3,-3v-16a3,3,0,0,1,3,-3z" stroke-width="1"></path><g id="node_text2" fill="black"><text id="kity_text_33" text-rendering="inherit" font-size="10" dy=".8em" y="25.000002473592758" font-family="微软雅黑,Microsoft YaHei" x="220.50000493973494">公司登记</text></g></g><g id="minder_node3" opacity="1"><g id="node_expander2" style="cursor: pointer;"><path id="kity_path_44" fill="white" stroke="gray" d="M202.50000458210707,89.50000336021185A6,6,0,1,1,190.50000458210707,89.50000336021185A6,6,0,1,1,202.50000458210707,89.50000336021185"></path><path id="kity_path_45" fill="none" stroke="gray" d="M192.00000458210707,89.50000336021185L201.00000458210707,89.50000336021185"></path></g><path id="node_outline3" fill="rgb(238, 246, 238)" stroke="rgb(115, 191, 118)" d="M206.50000498443842,78.50000336021185h74a3,3,0,0,1,3,3v16a3,3,0,0,1,-3,3h-74a3,3,0,0,1,-3,-3v-16a3,3,0,0,1,3,-3z" stroke-width="1"></path><g id="node_text3" fill="black"><text id="kity_text_41" text-rendering="inherit" font-size="10" dy=".8em" y="83.00000333786011" font-family="微软雅黑,Microsoft YaHei" x="223.50000498443842">营业执照</text></g></g><g id="minder_node4" opacity="1"><g id="node_expander3" style="cursor: pointer;"><path id="kity_path_52" fill="white" stroke="gray" d="M204.5000046119094,162.50000444799662A6,6,0,1,1,192.5000046119094,162.50000444799662A6,6,0,1,1,204.5000046119094,162.50000444799662"></path><path id="kity_path_53" fill="none" stroke="gray" d="M194.0000046119094,162.50000444799662L203.0000046119094,162.50000444799662"></path></g><path id="node_outline4" fill="rgb(238, 246, 238)" stroke="rgb(115, 191, 118)" d="M208.50000501424074,151.50000444799662h75a3,3,0,0,1,3,3v16a3,3,0,0,1,-3,3h-75a3,3,0,0,1,-3,-3v-16a3,3,0,0,1,3,-3z" stroke-width="1"></path><g id="node_text4" fill="black"><text id="kity_text_49" text-rendering="inherit" font-size="10" dy=".8em" y="156.00000442564487" font-family="微软雅黑,Microsoft YaHei" x="225.50000501424074">公司名称</text></g></g><g id="minder_node5" opacity="1"><g id="node_expander4" style="cursor: pointer;"><path id="kity_path_60" fill="white" stroke="gray" d="M184.50000431388617,220.50000531226397A6,6,0,1,1,172.50000431388617,220.50000531226397A6,6,0,1,1,184.50000431388617,220.50000531226397"></path><path id="kity_path_61" fill="none" stroke="gray" d="M174.00000431388617,220.50000531226397L183.00000431388617,220.50000531226397"></path></g><path id="node_outline5" fill="rgb(238, 246, 238)" stroke="rgb(57, 96, 58)" d="M188.50000471621752,209.50000531226397h95a3,3,0,0,1,3,3v16a3,3,0,0,1,-3,3h-95a3,3,0,0,1,-3,-3v-16a3,3,0,0,1,3,-3z" stroke-width="3"></path><g id="node_text5" fill="black"><text id="kity_text_57" text-rendering="inherit" font-size="10" dy=".8em" y="214.00000528991222" font-family="微软雅黑,Microsoft YaHei" x="205.50000471621752">公司形式变更</text></g></g><g id="minder_node6"><g id="node_expander5" style="cursor: pointer;" display="none"><path id="kity_path_68" fill="white" stroke="gray" d="M297.5000059977174,31.5000024959445A6,6,0,1,1,285.5000059977174,31.5000024959445A6,6,0,1,1,297.5000059977174,31.5000024959445"></path><path id="kity_path_69" fill="none" stroke="gray"></path></g><path id="node_outline6" fill="none" stroke="none" d="M302.50000616163015,23.5000024959445h201a5,5,0,0,1,5,5v6a5,5,0,0,1,-5,5h-201a5,5,0,0,1,-5,-5v-6a5,5,0,0,1,5,-5z" stroke-width="3"></path><g id="node_text6" fill="black"><text id="kity_text_65" text-rendering="inherit" font-size="10" dy=".8em" y="25.000002473592758" font-weight="bold" font-family="微软雅黑,Microsoft YaHei" x="302.50000616163015">设立公司，应当向公司登记机关申请设立登记</text></g></g><g id="minder_node12"><g id="node_expander11" style="cursor: pointer;" display="none"><path id="kity_path_116" fill="white" stroke="gray" d="M416.50000777095556,65.50000300258398A6,6,0,1,1,404.50000777095556,65.50000300258398A6,6,0,1,1,416.50000777095556,65.50000300258398"></path><path id="kity_path_117" fill="none" stroke="gray"></path></g><path id="node_outline12" fill="none" stroke="none" d="M421.50000793486834,57.50000300258398h108a5,5,0,0,1,5,5v6a5,5,0,0,1,-5,5h-108a5,5,0,0,1,-5,-5v-6a5,5,0,0,1,5,-5z" stroke-width="3"></path><g id="node_text12" fill="black"><text id="kity_text_113" text-rendering="inherit" font-size="10" dy=".8em" y="59.00000298023224" font-weight="bold" font-family="微软雅黑,Microsoft YaHei" x="421.50000793486834">签发日期=公司成立日期</text></g></g><g id="minder_node9"><g id="node_expander8" style="cursor: pointer;"><path id="kity_path_92" fill="white" stroke="gray" d="M299.5000060275197,65.50000300258398A6,6,0,1,1,287.5000060275197,65.50000300258398A6,6,0,1,1,299.5000060275197,65.50000300258398"></path><path id="kity_path_93" fill="none" stroke="gray" d="M289.0000060275197,65.50000300258398L298.0000060275197,65.50000300258398"></path></g><path id="node_outline9" fill="#92d050" stroke="none" d="M304.5000061914325,57.50000300258398h91a5,5,0,0,1,5,5v6a5,5,0,0,1,-5,5h-91a5,5,0,0,1,-5,-5v-6a5,5,0,0,1,5,-5z" stroke-width="3"></path><g id="node_text9" fill="black"><text id="kity_text_89" text-rendering="inherit" font-size="10" dy=".8em" y="59.00000298023224" font-family="微软雅黑,Microsoft YaHei" x="304.5000061914325">由公司登记机关发放</text></g></g><g id="minder_node10"><g id="node_expander9" style="cursor: pointer;" display="none"><path id="kity_path_100" fill="white" stroke="gray" d="M299.5000060275197,89.50000336021185A6,6,0,1,1,287.5000060275197,89.50000336021185A6,6,0,1,1,299.5000060275197,89.50000336021185"></path><path id="kity_path_101" fill="none" stroke="gray"></path></g><path id="node_outline10" fill="none" stroke="none" d="M304.5000061914325,81.50000336021185h291a5,5,0,0,1,5,5v6a5,5,0,0,1,-5,5h-291a5,5,0,0,1,-5,-5v-6a5,5,0,0,1,5,-5z" stroke-width="3"></path><g id="node_text10" fill="black"><text id="kity_text_97" text-rendering="inherit" font-size="10" dy=".8em" y="83.00000333786011" font-weight="bold" font-family="微软雅黑,Microsoft YaHei" x="304.5000061914325">应载明：公司名称、住所、注册资本、经营范围、法人代表姓名等</text></g></g><g id="minder_node11"><g id="node_expander10" style="cursor: pointer;" display="none"><path id="kity_path_108" fill="white" stroke="gray" d="M299.5000060275197,113.50000371783972A6,6,0,1,1,287.5000060275197,113.50000371783972A6,6,0,1,1,299.5000060275197,113.50000371783972"></path><path id="kity_path_109" fill="none" stroke="gray"></path></g><path id="node_outline11" fill="none" stroke="none" d="M304.5000061914325,105.50000371783972h190a5,5,0,0,1,5,5v6a5,5,0,0,1,-5,5h-190a5,5,0,0,1,-5,-5v-6a5,5,0,0,1,5,-5z" stroke-width="3"></path><g id="node_text11" fill="black"><text id="kity_text_105" text-rendering="inherit" font-size="10" dy=".8em" y="107.00000369548798" font-weight="bold" font-family="微软雅黑,Microsoft YaHei" x="304.5000061914325">记载事项发生变更应做变更登记，换发执照</text></g></g><g id="minder_node17"><g id="node_expander16" style="cursor: pointer;" display="none"><path id="kity_path_156" fill="white" stroke="gray" d="M389.5000073686242,150.50000426918268A6,6,0,1,1,377.5000073686242,150.50000426918268A6,6,0,1,1,389.5000073686242,150.50000426918268"></path><path id="kity_path_157" fill="none" stroke="gray"></path></g><path id="node_outline17" fill="none" stroke="none" d="M394.500007532537,142.50000426918268h71a5,5,0,0,1,5,5v6a5,5,0,0,1,-5,5h-71a5,5,0,0,1,-5,-5v-6a5,5,0,0,1,5,-5z" stroke-width="3"></path><g id="node_text17" fill="black"><text id="kity_text_153" text-rendering="inherit" font-size="10" dy=".8em" y="144.00000424683094" font-family="微软雅黑,Microsoft YaHei" x="394.500007532537">名称必须有有限</text></g></g><g id="minder_node13"><g id="node_expander12" style="cursor: pointer;"><path id="kity_path_124" fill="white" stroke="gray" d="M302.5000060722232,150.50000426918268A6,6,0,1,1,290.5000060722232,150.50000426918268A6,6,0,1,1,302.5000060722232,150.50000426918268"></path><path id="kity_path_125" fill="none" stroke="gray" d="M292.0000060722232,150.50000426918268L301.0000060722232,150.50000426918268"></path></g><path id="node_outline13" fill="none" stroke="none" d="M307.50000623613596,142.50000426918268h61a5,5,0,0,1,5,5v6a5,5,0,0,1,-5,5h-61a5,5,0,0,1,-5,-5v-6a5,5,0,0,1,5,-5z" stroke-width="3"></path><g id="node_text13" fill="black"><text id="kity_text_121" text-rendering="inherit" font-size="10" dy=".8em" y="144.00000424683094" font-family="微软雅黑,Microsoft YaHei" x="307.50000623613596">有限责任公司</text></g></g><g id="minder_node18"><g id="node_expander17" style="cursor: pointer;" display="none"><path id="kity_path_164" fill="white" stroke="gray" d="M389.5000073686242,174.50000462681055A6,6,0,1,1,377.5000073686242,174.50000462681055A6,6,0,1,1,389.5000073686242,174.50000462681055"></path><path id="kity_path_165" fill="none" stroke="gray"></path></g><path id="node_outline18" fill="none" stroke="none" d="M394.500007532537,166.50000462681055h71a5,5,0,0,1,5,5v6a5,5,0,0,1,-5,5h-71a5,5,0,0,1,-5,-5v-6a5,5,0,0,1,5,-5z" stroke-width="3"></path><g id="node_text18" fill="black"><text id="kity_text_161" text-rendering="inherit" font-size="10" dy=".8em" y="168.0000046044588" font-family="微软雅黑,Microsoft YaHei" x="394.500007532537">名称必须有股份</text></g></g><g id="minder_node14"><g id="node_expander13" style="cursor: pointer;"><path id="kity_path_132" fill="white" stroke="gray" d="M302.5000060722232,174.50000462681055A6,6,0,1,1,290.5000060722232,174.50000462681055A6,6,0,1,1,302.5000060722232,174.50000462681055"></path><path id="kity_path_133" fill="none" stroke="gray" d="M292.0000060722232,174.50000462681055L301.0000060722232,174.50000462681055"></path></g><path id="node_outline14" fill="none" stroke="none" d="M307.50000623613596,166.50000462681055h61a5,5,0,0,1,5,5v6a5,5,0,0,1,-5,5h-61a5,5,0,0,1,-5,-5v-6a5,5,0,0,1,5,-5z" stroke-width="3"></path><g id="node_text14" fill="black"><text id="kity_text_129" text-rendering="inherit" font-size="10" dy=".8em" y="168.0000046044588" font-family="微软雅黑,Microsoft YaHei" x="307.50000623613596">股份有限公司</text></g></g><g id="minder_node16"><g id="node_expander15" style="cursor: pointer;" display="none"><path id="kity_path_148" fill="white" stroke="gray" d="M302.5000060722232,220.50000531226397A6,6,0,1,1,290.5000060722232,220.50000531226397A6,6,0,1,1,302.5000060722232,220.50000531226397"></path><path id="kity_path_149" fill="none" stroke="gray"></path></g><path id="node_outline16" fill="none" stroke="none" d="M307.50000623613596,212.50000531226397h211a5,5,0,0,1,5,5v6a5,5,0,0,1,-5,5h-211a5,5,0,0,1,-5,-5v-6a5,5,0,0,1,5,-5z" stroke-width="3"></path><g id="node_text16" fill="black"><text id="kity_text_145" text-rendering="inherit" font-size="10" dy=".8em" y="214.00000528991222" font-family="微软雅黑,Microsoft YaHei" x="307.50000623613596">有限责任公司和股份有限公司可以依法互相变更</text></g></g></g></g></svg>