<svg id="kity_svg_6" xmlns="http://www.w3.org/2000/svg" xmlns:xlink="http://www.w3.org/1999/xlink" version="1.1" width="667" height="254" style="background: rgb(251, 251, 251); visibility: visible;" viewBox="0 0 667 254"><defs id="kity_defs_7"><linearGradient id="kity_linearGradient_17" x1="0" y1="0" x2="0" y2="1"><stop id="kity_stop_18" offset="0" stop-color="rgb(255, 255, 255)"></stop><stop id="kity_stop_19" offset="1" stop-color="rgb(204, 204, 204)"></stop></linearGradient><marker id="kity_marker_2" orient="auto" refX="6" refY="0" viewBox="-7 -7 14 14" markerWidth="7" markerHeight="7" markerUnits="userSpaceOnUse"><path id="kity_path_3" fill="rgb(115, 191, 118)" stroke="none" d="M6,0A6,6,0,1,1,-6,0A6,6,0,1,1,6,0"></path></marker></defs><g id="kity_g_8"><g id="minder1" text-rendering="geometricPrecision"><g id="minder_connect_group1"><path id="kity_path_31" fill="none" stroke="rgb(115, 191, 118)" stroke-width="1" d="M89.00000082701445,127.50000237673521A84.5,94,0,0,1,173.50000082701445,33.50000237673521"></path><path id="kity_path_39" fill="none" stroke="rgb(115, 191, 118)" stroke-width="1" d="M89.00000082701445,127.50000237673521A84.5,30,0,0,1,173.50000082701445,97.50000237673521"></path><path id="kity_path_47" fill="none" stroke="rgb(115, 191, 118)" stroke-width="1" d="M89.00000082701445,127.50000237673521A84.5,43,0,0,0,173.50000082701445,170.5000023767352"></path><path id="kity_path_55" fill="none" stroke="rgb(115, 191, 118)" stroke-width="1" d="M89.00000082701445,127.50000237673521A84.5,94,0,0,0,173.50000082701445,221.5000023767352"></path><path id="kity_path_63" fill="none" stroke="rgb(115, 191, 118)" stroke-width="1" d="M273.50000082701445,33.50000237673521C281.50000082701445,33.50000237673521,281.50000082701445,33.50000237673521,289.50000082701445,33.50000237673521"></path><path id="kity_path_87" fill="none" stroke="rgb(115, 191, 118)" stroke-width="1" d="M271.50000082701445,97.50000237673521C279.50000082701445,97.50000237673521,279.50000082701445,71.50000237673521,287.50000082701445,71.50000237673521"></path><path id="kity_path_95" fill="none" stroke="rgb(115, 191, 118)" stroke-width="1" d="M271.50000082701445,97.50000237673521C279.50000082701445,97.50000237673521,279.50000082701445,97.50000237673521,287.50000082701445,97.50000237673521"></path><path id="kity_path_103" fill="none" stroke="rgb(115, 191, 118)" stroke-width="1" d="M271.50000082701445,97.50000237673521C279.50000082701445,97.50000237673521,279.50000082701445,123.50000237673521,287.50000082701445,123.50000237673521"></path><path id="kity_path_111" fill="none" stroke="rgb(115, 191, 118)" stroke-width="1" d="M406.50000082701445,71.50000237673521C414.50000082701445,71.50000237673521,414.50000082701445,71.50000237673521,422.50000082701445,71.50000237673521"></path><path id="kity_path_119" fill="none" stroke="rgb(115, 191, 118)" stroke-width="1" d="M273.50000082701445,170.5000023767352C281.50000082701445,170.5000023767352,281.50000082701445,157.5000023767352,289.50000082701445,157.5000023767352"></path><path id="kity_path_127" fill="none" stroke="rgb(115, 191, 118)" stroke-width="1" d="M273.50000082701445,170.5000023767352C281.50000082701445,170.5000023767352,281.50000082701445,183.5000023767352,289.50000082701445,183.5000023767352"></path><path id="kity_path_143" fill="none" stroke="rgb(115, 191, 118)" stroke-width="1" d="M301.50000082701445,221.5000023767352C309.50000082701445,221.5000023767352,309.50000082701445,221.5000023767352,317.50000082701445,221.5000023767352"></path><path id="kity_path_151" fill="none" stroke="rgb(115, 191, 118)" stroke-width="1" d="M372.50000082701445,157.5000023767352C380.50000082701445,157.5000023767352,380.50000082701445,157.5000023767352,388.50000082701445,157.5000023767352"></path><path id="kity_path_159" fill="none" stroke="rgb(115, 191, 118)" stroke-width="1" d="M372.50000082701445,183.5000023767352C380.50000082701445,183.5000023767352,380.50000082701445,183.5000023767352,388.50000082701445,183.5000023767352"></path></g><g id="minder_node1"><path id="node_outline1" fill="rgb(115, 191, 118)" stroke="rgb(115, 191, 118)" d="M25.500000827014446,113.50000237673521h127a5,5,0,0,1,5,5v18a5,5,0,0,1,-5,5h-127a5,5,0,0,1,-5,-5v-18a5,5,0,0,1,5,-5z" stroke-width="3"></path><g id="node_text1" fill="white"><text id="kity_text_22" text-rendering="inherit" font-size="16" dy=".8em" y="117.10000234097242" x="32.500000827014446">公司登记的要求</text></g></g><g id="kity_g_12"><path id="kity_path_13" fill="none" stroke="none" d="M32.500000827014446,127.50000237673521h0v0h0z"></path></g><g id="kity_g_14"><path id="kity_path_15" fill="none" stroke="none" d="M32.500000827014446,127.50000237673521h0v0h0z"></path><path id="kity_path_16" fill="none" stroke="none"></path></g><g id="minder_node2"><g id="node_expander1" style="cursor: pointer;"><path id="kity_path_36" fill="white" stroke="gray" d="M174.50000285357237,33.50000097602606A6,6,0,1,1,162.50000285357237,33.50000097602606A6,6,0,1,1,174.50000285357237,33.50000097602606"></path><path id="kity_path_37" fill="none" stroke="gray" d="M164.00000285357237,33.50000097602606L173.00000285357237,33.50000097602606"></path></g><path id="node_outline2" fill="rgb(238, 246, 238)" stroke="rgb(115, 191, 118)" d="M178.50000325590372,20.500000976026058h92a3,3,0,0,1,3,3v20a3,3,0,0,1,-3,3h-92a3,3,0,0,1,-3,-3v-20a3,3,0,0,1,3,-3z" stroke-width="1"></path><g id="node_text2" fill="black"><text id="kity_text_33" text-rendering="inherit" font-size="14" dy=".8em" y="24.40000094473362" x="195.50000325590372">公司登记</text></g></g><g id="minder_node3"><g id="node_expander2" style="cursor: pointer;"><path id="kity_path_44" fill="white" stroke="gray" d="M174.50000285357237,97.50000192970037A6,6,0,1,1,162.50000285357237,97.50000192970037A6,6,0,1,1,174.50000285357237,97.50000192970037"></path><path id="kity_path_45" fill="none" stroke="gray" d="M164.00000285357237,97.50000192970037L173.00000285357237,97.50000192970037"></path></g><path id="node_outline3" fill="rgb(238, 246, 238)" stroke="rgb(115, 191, 118)" d="M178.50000325590372,84.50000192970037h90a3,3,0,0,1,3,3v20a3,3,0,0,1,-3,3h-90a3,3,0,0,1,-3,-3v-20a3,3,0,0,1,3,-3z" stroke-width="1"></path><g id="node_text3" fill="black"><text id="kity_text_41" text-rendering="inherit" font-size="14" dy=".8em" y="88.40000189840794" x="195.50000325590372">营业执照</text></g></g><g id="minder_node4"><g id="node_expander3" style="cursor: pointer;"><path id="kity_path_52" fill="white" stroke="gray" d="M174.50000285357237,170.50000301748514A6,6,0,1,1,162.50000285357237,170.50000301748514A6,6,0,1,1,174.50000285357237,170.50000301748514"></path><path id="kity_path_53" fill="none" stroke="gray" d="M164.00000285357237,170.50000301748514L173.00000285357237,170.50000301748514"></path></g><path id="node_outline4" fill="rgb(238, 246, 238)" stroke="rgb(115, 191, 118)" d="M178.50000325590372,157.50000301748514h92a3,3,0,0,1,3,3v20a3,3,0,0,1,-3,3h-92a3,3,0,0,1,-3,-3v-20a3,3,0,0,1,3,-3z" stroke-width="1"></path><g id="node_text4" fill="black"><text id="kity_text_49" text-rendering="inherit" font-size="14" dy=".8em" y="161.4000029861927" x="195.50000325590372">公司名称</text></g></g><g id="minder_node5"><g id="node_expander4" style="cursor: pointer;"><path id="kity_path_60" fill="white" stroke="gray" d="M174.50000285357237,221.50000377744436A6,6,0,1,1,162.50000285357237,221.50000377744436A6,6,0,1,1,174.50000285357237,221.50000377744436"></path><path id="kity_path_61" fill="none" stroke="gray" d="M164.00000285357237,221.50000377744436L173.00000285357237,221.50000377744436"></path></g><path id="node_outline5" fill="rgb(238, 246, 238)" stroke="rgb(115, 191, 118)" d="M178.50000325590372,208.50000377744436h120a3,3,0,0,1,3,3v20a3,3,0,0,1,-3,3h-120a3,3,0,0,1,-3,-3v-20a3,3,0,0,1,3,-3z" stroke-width="1"></path><g id="node_text5" fill="black"><text id="kity_text_57" text-rendering="inherit" font-size="14" dy=".8em" y="212.40000374615192" x="195.50000325590372">公司形式变更</text></g></g><g id="minder_node6"><g id="node_expander5" style="cursor: pointer;" display="none"><path id="kity_path_68" fill="white" stroke="gray" d="M289.5000045672059,33.50000097602606A6,6,0,1,1,277.5000045672059,33.50000097602606A6,6,0,1,1,289.5000045672059,33.50000097602606"></path><path id="kity_path_69" fill="none" stroke="gray"></path></g><path id="node_outline6" fill="none" stroke="none" d="M294.5000047311187,24.500000976026058h242a5,5,0,0,1,5,5v8a5,5,0,0,1,-5,5h-242a5,5,0,0,1,-5,-5v-8a5,5,0,0,1,5,-5z" stroke-width="3"></path><g id="node_text6" fill="black"><text id="kity_text_65" text-rendering="inherit" font-size="12" dy=".8em" y="25.700000949203968" font-weight="bold" x="294.5000047311187">设立公司，应当向公司登记机关申请设立登记</text></g></g><g id="minder_node9"><g id="node_expander8" style="cursor: pointer;"><path id="kity_path_92" fill="white" stroke="gray" d="M287.5000045374036,71.50000154227018A6,6,0,1,1,275.5000045374036,71.50000154227018A6,6,0,1,1,287.5000045374036,71.50000154227018"></path><path id="kity_path_93" fill="none" stroke="gray" d="M277.0000045374036,71.50000154227018L286.0000045374036,71.50000154227018"></path></g><path id="node_outline9" fill="#92d050" stroke="none" d="M292.50000470131636,62.500001542270184h109a5,5,0,0,1,5,5v8a5,5,0,0,1,-5,5h-109a5,5,0,0,1,-5,-5v-8a5,5,0,0,1,5,-5z" stroke-width="3"></path><g id="node_text9" fill="black"><text id="kity_text_89" text-rendering="inherit" font-size="12" dy=".8em" y="63.70000151544809" x="292.50000470131636">由公司登记机关发放</text></g></g><g id="minder_node10"><g id="node_expander9" style="cursor: pointer;" display="none"><path id="kity_path_100" fill="white" stroke="gray" d="M287.5000045374036,97.50000192970037A6,6,0,1,1,275.5000045374036,97.50000192970037A6,6,0,1,1,287.5000045374036,97.50000192970037"></path><path id="kity_path_101" fill="none" stroke="gray"></path></g><path id="node_outline10" fill="none" stroke="none" d="M292.50000470131636,88.50000192970037h350a5,5,0,0,1,5,5v8a5,5,0,0,1,-5,5h-350a5,5,0,0,1,-5,-5v-8a5,5,0,0,1,5,-5z" stroke-width="3"></path><g id="node_text10" fill="black"><text id="kity_text_97" text-rendering="inherit" font-size="12" dy=".8em" y="89.70000190287828" font-weight="bold" x="292.50000470131636">应载明：公司名称、住所、注册资本、经营范围、法人代表姓名等</text></g></g><g id="minder_node11"><g id="node_expander10" style="cursor: pointer;" display="none"><path id="kity_path_108" fill="white" stroke="gray" d="M287.5000045374036,123.50000231713057A6,6,0,1,1,275.5000045374036,123.50000231713057A6,6,0,1,1,287.5000045374036,123.50000231713057"></path><path id="kity_path_109" fill="none" stroke="gray"></path></g><path id="node_outline11" fill="none" stroke="none" d="M292.50000470131636,114.50000231713057h230a5,5,0,0,1,5,5v8a5,5,0,0,1,-5,5h-230a5,5,0,0,1,-5,-5v-8a5,5,0,0,1,5,-5z" stroke-width="3"></path><g id="node_text11" fill="black"><text id="kity_text_105" text-rendering="inherit" font-size="12" dy=".8em" y="115.70000229030848" font-weight="bold" x="292.50000470131636">记载事项发生变更应做变更登记，换发执照</text></g></g><g id="minder_node12"><g id="node_expander11" style="cursor: pointer;" display="none"><path id="kity_path_116" fill="white" stroke="gray" d="M422.50000654906034,71.50000154227018A6,6,0,1,1,410.50000654906034,71.50000154227018A6,6,0,1,1,422.50000654906034,71.50000154227018"></path><path id="kity_path_117" fill="none" stroke="gray"></path></g><path id="node_outline12" fill="none" stroke="none" d="M427.5000067129731,62.500001542270184h130a5,5,0,0,1,5,5v8a5,5,0,0,1,-5,5h-130a5,5,0,0,1,-5,-5v-8a5,5,0,0,1,5,-5z" stroke-width="3"></path><g id="node_text12" fill="black"><text id="kity_text_113" text-rendering="inherit" font-size="12" dy=".8em" y="63.70000151544809" font-weight="bold" x="427.5000067129731">签发日期=公司成立日期</text></g></g><g id="minder_node13"><g id="node_expander12" style="cursor: pointer;"><path id="kity_path_124" fill="white" stroke="gray" d="M289.5000045672059,157.50000282377005A6,6,0,1,1,277.5000045672059,157.50000282377005A6,6,0,1,1,289.5000045672059,157.50000282377005"></path><path id="kity_path_125" fill="none" stroke="gray" d="M279.0000045672059,157.50000282377005L288.0000045672059,157.50000282377005"></path></g><path id="node_outline13" fill="none" stroke="none" d="M294.5000047311187,148.50000282377005h73a5,5,0,0,1,5,5v8a5,5,0,0,1,-5,5h-73a5,5,0,0,1,-5,-5v-8a5,5,0,0,1,5,-5z" stroke-width="3"></path><g id="node_text13" fill="black"><text id="kity_text_121" text-rendering="inherit" font-size="12" dy=".8em" y="149.70000279694796" x="294.5000047311187">有限责任公司</text></g></g><g id="minder_node14"><g id="node_expander13" style="cursor: pointer;"><path id="kity_path_132" fill="white" stroke="gray" d="M289.5000045672059,183.50000321120024A6,6,0,1,1,277.5000045672059,183.50000321120024A6,6,0,1,1,289.5000045672059,183.50000321120024"></path><path id="kity_path_133" fill="none" stroke="gray" d="M279.0000045672059,183.50000321120024L288.0000045672059,183.50000321120024"></path></g><path id="node_outline14" fill="none" stroke="none" d="M294.5000047311187,174.50000321120024h73a5,5,0,0,1,5,5v8a5,5,0,0,1,-5,5h-73a5,5,0,0,1,-5,-5v-8a5,5,0,0,1,5,-5z" stroke-width="3"></path><g id="node_text14" fill="black"><text id="kity_text_129" text-rendering="inherit" font-size="12" dy=".8em" y="175.70000318437815" x="294.5000047311187">股份有限公司</text></g></g><g id="minder_node16"><g id="node_expander15" style="cursor: pointer;" display="none"><path id="kity_path_148" fill="white" stroke="gray" d="M317.5000049844384,221.50000377744436A6,6,0,1,1,305.5000049844384,221.50000377744436A6,6,0,1,1,317.5000049844384,221.50000377744436"></path><path id="kity_path_149" fill="none" stroke="gray"></path></g><path id="node_outline16" fill="none" stroke="none" d="M322.5000051483512,212.50000377744436h254a5,5,0,0,1,5,5v8a5,5,0,0,1,-5,5h-254a5,5,0,0,1,-5,-5v-8a5,5,0,0,1,5,-5z" stroke-width="3"></path><g id="node_text16" fill="black"><text id="kity_text_145" text-rendering="inherit" font-size="12" dy=".8em" y="213.70000375062227" x="322.5000051483512">有限责任公司和股份有限公司可以依法互相变更</text></g></g><g id="minder_node17"><g id="node_expander16" style="cursor: pointer;" display="none"><path id="kity_path_156" fill="white" stroke="gray" d="M388.50000604242086,157.50000282377005A6,6,0,1,1,376.50000604242086,157.50000282377005A6,6,0,1,1,388.50000604242086,157.50000282377005"></path><path id="kity_path_157" fill="none" stroke="gray"></path></g><path id="node_outline17" fill="none" stroke="none" d="M393.50000620633364,148.50000282377005h86a5,5,0,0,1,5,5v8a5,5,0,0,1,-5,5h-86a5,5,0,0,1,-5,-5v-8a5,5,0,0,1,5,-5z" stroke-width="3"></path><g id="node_text17" fill="black"><text id="kity_text_153" text-rendering="inherit" font-size="12" dy=".8em" y="149.70000279694796" x="393.50000620633364">名称必须有有限</text></g></g><g id="minder_node18"><g id="node_expander17" style="cursor: pointer;" display="none"><path id="kity_path_164" fill="white" stroke="gray" d="M388.50000604242086,183.50000321120024A6,6,0,1,1,376.50000604242086,183.50000321120024A6,6,0,1,1,388.50000604242086,183.50000321120024"></path><path id="kity_path_165" fill="none" stroke="gray"></path></g><path id="node_outline18" fill="none" stroke="none" d="M393.50000620633364,174.50000321120024h86a5,5,0,0,1,5,5v8a5,5,0,0,1,-5,5h-86a5,5,0,0,1,-5,-5v-8a5,5,0,0,1,5,-5z" stroke-width="3"></path><g id="node_text18" fill="black"><text id="kity_text_161" text-rendering="inherit" font-size="12" dy=".8em" y="175.70000318437815" x="393.50000620633364">名称必须有股份</text></g></g></g></g></svg>