<svg id="kity_svg_6" xmlns="http://www.w3.org/2000/svg" xmlns:xlink="http://www.w3.org/1999/xlink" version="1.1" width="561" height="585" style="background: rgb(251, 251, 251); visibility: visible;" viewBox="0 0 561 585"><defs id="kity_defs_7"><linearGradient id="kity_linearGradient_17" x1="0" y1="0" x2="0" y2="1"><stop id="kity_stop_18" offset="0" stop-color="rgb(255, 255, 255)"></stop><stop id="kity_stop_19" offset="1" stop-color="rgb(204, 204, 204)"></stop></linearGradient><marker id="kity_marker_2" orient="auto" refX="6" refY="0" viewBox="-7 -7 14 14" markerWidth="7" markerHeight="7" markerUnits="userSpaceOnUse"><path id="kity_path_3" fill="rgb(191, 115, 148)" stroke="none" d="M6,0A6,6,0,1,1,-6,0A6,6,0,1,1,6,0"></path></marker></defs><g id="kity_g_8"><g id="minder1" text-rendering="optimize-speed"><g id="minder_connect_group1"><path id="kity_path_217" fill="none" stroke="rgb(191, 115, 148)" stroke-width="1" d="M64.5000016912818,267.5000039860606A51,132,0,0,1,115.5000016912818,135.50000398606062"></path><path id="kity_path_225" fill="none" stroke="rgb(191, 115, 148)" stroke-width="1" d="M64.5000016912818,267.5000039860606A50,149,0,0,0,114.5000016912818,416.5000039860606"></path><path id="kity_path_303" fill="none" stroke="rgb(191, 115, 148)" stroke-width="1" d="M214.5000016912818,135.50000398606062C222.5000016912818,135.50000398606062,222.5000016912818,33.50000398606062,230.5000016912818,33.50000398606062"></path><path id="kity_path_304" fill="none" stroke="rgb(191, 115, 148)" stroke-width="1" d="M214.5000016912818,135.50000398606062C222.5000016912818,135.50000398606062,222.5000016912818,67.50000398606062,230.5000016912818,67.50000398606062"></path><path id="kity_path_305" fill="none" stroke="rgb(191, 115, 148)" stroke-width="1" d="M214.5000016912818,135.50000398606062C222.5000016912818,135.50000398606062,222.5000016912818,101.50000398606062,230.5000016912818,101.50000398606062"></path><path id="kity_path_306" fill="none" stroke="rgb(191, 115, 148)" stroke-width="1" d="M214.5000016912818,135.50000398606062C222.5000016912818,135.50000398606062,222.5000016912818,135.50000398606062,230.5000016912818,135.50000398606062"></path><path id="kity_path_307" fill="none" stroke="rgb(191, 115, 148)" stroke-width="1" d="M214.5000016912818,135.50000398606062C222.5000016912818,135.50000398606062,222.5000016912818,169.50000398606062,230.5000016912818,169.50000398606062"></path><path id="kity_path_308" fill="none" stroke="rgb(191, 115, 148)" stroke-width="1" d="M214.5000016912818,135.50000398606062C222.5000016912818,135.50000398606062,222.5000016912818,203.50000398606062,230.5000016912818,203.50000398606062"></path><path id="kity_path_309" fill="none" stroke="rgb(191, 115, 148)" stroke-width="1" d="M214.5000016912818,135.50000398606062C222.5000016912818,135.50000398606062,222.5000016912818,237.50000398606062,230.5000016912818,237.50000398606062"></path><path id="kity_path_347" fill="none" stroke="rgb(191, 115, 148)" stroke-width="1" d="M213.5000016912818,416.5000039860606C221.5000016912818,416.5000039860606,221.5000016912818,280.5000039860606,229.5000016912818,280.5000039860606"></path><path id="kity_path_348" fill="none" stroke="rgb(191, 115, 148)" stroke-width="1" d="M213.5000016912818,416.5000039860606C221.5000016912818,416.5000039860606,221.5000016912818,314.5000039860606,229.5000016912818,314.5000039860606"></path><path id="kity_path_349" fill="none" stroke="rgb(191, 115, 148)" stroke-width="1" d="M213.5000016912818,416.5000039860606C221.5000016912818,416.5000039860606,221.5000016912818,382.5000039860606,229.5000016912818,382.5000039860606"></path><path id="kity_path_352" fill="none" stroke="rgb(191, 115, 148)" stroke-width="1" d="M213.5000016912818,416.5000039860606C221.5000016912818,416.5000039860606,221.5000016912818,416.5000039860606,229.5000016912818,416.5000039860606"></path><path id="kity_path_360" fill="none" stroke="rgb(191, 115, 148)" stroke-width="1" d="M213.5000016912818,416.5000039860606C221.5000016912818,416.5000039860606,221.5000016912818,450.5000039860606,229.5000016912818,450.5000039860606"></path><path id="kity_path_368" fill="none" stroke="rgb(191, 115, 148)" stroke-width="1" d="M213.5000016912818,416.5000039860606C221.5000016912818,416.5000039860606,221.5000016912818,484.5000039860606,229.5000016912818,484.5000039860606"></path><path id="kity_path_376" fill="none" stroke="rgb(191, 115, 148)" stroke-width="1" d="M213.5000016912818,416.5000039860606C221.5000016912818,416.5000039860606,221.5000016912818,518.5000039860606,229.5000016912818,518.5000039860606"></path><path id="kity_path_384" fill="none" stroke="rgb(191, 115, 148)" stroke-width="1" d="M213.5000016912818,416.5000039860606C221.5000016912818,416.5000039860606,221.5000016912818,552.5000039860606,229.5000016912818,552.5000039860606"></path><path id="kity_path_391" fill="none" stroke="rgb(191, 115, 148)" stroke-width="1" d="M213.5000016912818,416.5000039860606C221.5000016912818,416.5000039860606,221.5000016912818,348.5000039860606,229.5000016912818,348.5000039860606"></path></g><g id="minder_node1"><path id="node_outline1" fill="rgb(191, 115, 148)" stroke="rgb(191, 115, 148)" d="M25.500001691281796,253.50000398606062h78a5,5,0,0,1,5,5v18a5,5,0,0,1,-5,5h-78a5,5,0,0,1,-5,-5v-18a5,5,0,0,1,5,-5z" stroke-width="3"></path><g id="node_text1" fill="white"><text id="kity_text_22" text-rendering="inherit" font-size="16" dy=".8em" y="257.10000395029783" x="32.500001691281796">公司章程</text></g></g><g id="kity_g_14" display="none"><path id="kity_path_15" fill="rgba(153, 0, 66, 0.5)" stroke="none" d="M229.5000016912818,346.5000039860606h59v4h-59z"></path><path id="kity_path_16" fill="none" stroke="rgb(128, 0, 55)" d="M229.5000016912818,346.5000039860606L288.5000016912818,346.5000039860606" stroke-width="1"></path></g><g id="minder_node22" opacity="1"><g id="node_expander21" style="cursor: pointer;"><path id="kity_path_222" fill="white" stroke="gray" d="M116.50000285357237,135.50000201910734A6,6,0,1,1,104.50000285357237,135.50000201910734A6,6,0,1,1,116.50000285357237,135.50000201910734"></path><path id="kity_path_223" fill="none" stroke="gray" d="M106.00000285357237,135.50000201910734L115.00000285357237,135.50000201910734"></path></g><path id="node_outline22" fill="rgb(246, 238, 242)" stroke="rgb(191, 115, 148)" d="M120.50000325590372,122.50000201910734h91a3,3,0,0,1,3,3v20a3,3,0,0,1,-3,3h-91a3,3,0,0,1,-3,-3v-20a3,3,0,0,1,3,-3z" stroke-width="1"></path><g id="node_text22" fill="black"><text id="kity_text_219" text-rendering="inherit" font-size="14" dy=".8em" y="126.4000019878149" x="137.50000325590372">有限责任</text></g></g><g id="minder_node23" opacity="1"><g id="node_expander22" style="cursor: pointer;"><path id="kity_path_230" fill="white" stroke="gray" d="M115.50000283867121,416.50000620633364A6,6,0,1,1,103.50000283867121,416.50000620633364A6,6,0,1,1,115.50000283867121,416.50000620633364"></path><path id="kity_path_231" fill="none" stroke="gray" d="M105.00000283867121,416.50000620633364L114.00000283867121,416.50000620633364"></path></g><path id="node_outline23" fill="rgb(246, 238, 242)" stroke="rgb(191, 115, 148)" d="M119.50000324100256,403.50000620633364h91a3,3,0,0,1,3,3v20a3,3,0,0,1,-3,3h-91a3,3,0,0,1,-3,-3v-20a3,3,0,0,1,3,-3z" stroke-width="1"></path><g id="node_text23" fill="black"><text id="kity_text_227" text-rendering="inherit" font-size="14" dy=".8em" y="407.4000061750412" x="136.50000324100256">股份有限</text></g></g><g id="minder_node24"><g id="node_expander23" style="cursor: pointer;" display="none"><path id="kity_path_238" fill="white" stroke="gray" d="M230.50000455230474,33.5000004991889A6,6,0,1,1,218.50000455230474,33.5000004991889A6,6,0,1,1,230.50000455230474,33.5000004991889"></path><path id="kity_path_239" fill="none" stroke="gray"></path></g><path id="node_outline24" fill="none" stroke="none" d="M235.50000508874655,20.5000004991889h74a5,5,0,0,1,5,5v16a5,5,0,0,1,-5,5h-74a5,5,0,0,1,-5,-5v-16a5,5,0,0,1,5,-5z" stroke-width="3"></path><g id="node_text24" fill="black"><text id="kity_text_235" text-rendering="inherit" font-size="12" dy=".8em" y="25.70000047236681" x="260.50000508874655">名称住所</text></g><g id="node_priority4"><path id="kity_path_394" fill="#840023" stroke="none" d="M236.0000047236681,37.00000035762787c0,3.866,3.134,7,7,7h6c3.866,0,7,-3.134,7,-7V31.00000035762787H236.0000047236681V37.00000035762787z"></path><path id="kity_path_395" fill="#FF1200" stroke="none" d="M256.0000047236681,34.00000035762787c0,3.866,-3.134,7,-7,7H243.0000047236681c-3.866,0,-7,-3.134,-7,-7V31.00000035762787c0,-3.866,3.134,-7,7,-7h6c3.866,0,7,3.134,7,7V34.00000035762787z" opacity="0.8"></path><text id="kity_text_396" text-rendering="geometricPrecision" x="245.00000471621752" y="33.50000035017729" text-anchor="middle" font-style="italic" font-size="12" fill="white" dy="5">1</text></g></g><g id="minder_node26"><g id="node_expander25" style="cursor: pointer;" display="none"><path id="kity_path_254" fill="white" stroke="gray" d="M230.50000455230474,67.50000100582838A6,6,0,1,1,218.50000455230474,67.50000100582838A6,6,0,1,1,230.50000455230474,67.50000100582838"></path><path id="kity_path_255" fill="none" stroke="gray"></path></g><path id="node_outline26" fill="none" stroke="none" d="M235.50000508874655,54.50000100582838h74a5,5,0,0,1,5,5v16a5,5,0,0,1,-5,5h-74a5,5,0,0,1,-5,-5v-16a5,5,0,0,1,5,-5z" stroke-width="3"></path><g id="node_text26" fill="black"><text id="kity_text_251" text-rendering="inherit" font-size="12" dy=".8em" y="59.70000097900629" x="260.50000508874655">经营范围</text></g><g id="node_priority5"><path id="kity_path_399" fill="#01467F" stroke="none" d="M236.0000047236681,71.00000086426735c0,3.866,3.134,7,7,7h6c3.866,0,7,-3.134,7,-7V65.00000086426735H236.0000047236681V71.00000086426735z"></path><path id="kity_path_400" fill="#0074FF" stroke="none" d="M256.0000047236681,68.00000086426735c0,3.866,-3.134,7,-7,7H243.0000047236681c-3.866,0,-7,-3.134,-7,-7V65.00000086426735c0,-3.866,3.134,-7,7,-7h6c3.866,0,7,3.134,7,7V68.00000086426735z" opacity="0.8"></path><text id="kity_text_401" text-rendering="geometricPrecision" x="245.00000471621752" y="67.50000085681677" text-anchor="middle" font-style="italic" font-size="12" fill="white" dy="5">2</text></g></g><g id="minder_node27"><g id="node_expander26" style="cursor: pointer;" display="none"><path id="kity_path_262" fill="white" stroke="gray" d="M230.50000455230474,101.50000151246786A6,6,0,1,1,218.50000455230474,101.50000151246786A6,6,0,1,1,230.50000455230474,101.50000151246786"></path><path id="kity_path_263" fill="none" stroke="gray"></path></g><path id="node_outline27" fill="none" stroke="none" d="M235.50000508874655,88.50000151246786h74a5,5,0,0,1,5,5v16a5,5,0,0,1,-5,5h-74a5,5,0,0,1,-5,-5v-16a5,5,0,0,1,5,-5z" stroke-width="3"></path><g id="node_text27" fill="black"><text id="kity_text_259" text-rendering="inherit" font-size="12" dy=".8em" y="93.70000148564577" x="260.50000508874655">注册资本</text></g><g id="node_priority6"><path id="kity_path_404" fill="#006300" stroke="none" d="M236.0000047236681,105.00000137090683c0,3.866,3.134,7,7,7h6c3.866,0,7,-3.134,7,-7V99.00000137090683H236.0000047236681V105.00000137090683z"></path><path id="kity_path_405" fill="#00AF00" stroke="none" d="M256.0000047236681,102.00000137090683c0,3.866,-3.134,7,-7,7H243.0000047236681c-3.866,0,-7,-3.134,-7,-7V99.00000137090683c0,-3.866,3.134,-7,7,-7h6c3.866,0,7,3.134,7,7V102.00000137090683z" opacity="0.8"></path><text id="kity_text_406" text-rendering="geometricPrecision" x="245.00000471621752" y="101.50000136345625" text-anchor="middle" font-style="italic" font-size="12" fill="white" dy="5">3</text></g></g><g id="minder_node28"><g id="node_expander27" style="cursor: pointer;" display="none"><path id="kity_path_270" fill="white" stroke="gray" d="M230.50000455230474,135.50000201910734A6,6,0,1,1,218.50000455230474,135.50000201910734A6,6,0,1,1,230.50000455230474,135.50000201910734"></path><path id="kity_path_271" fill="none" stroke="gray"></path></g><path id="node_outline28" fill="none" stroke="none" d="M235.50000508874655,122.50000201910734h242a5,5,0,0,1,5,5v16a5,5,0,0,1,-5,5h-242a5,5,0,0,1,-5,-5v-16a5,5,0,0,1,5,-5z" stroke-width="3"></path><g id="node_text28" fill="black"><text id="kity_text_267" text-rendering="inherit" font-size="12" dy=".8em" y="127.70000199228525" font-weight="bold" x="260.50000508874655">股东姓名、出资方式、出资额、出资时间</text></g><g id="node_priority7"><path id="kity_path_409" fill="#B25000" stroke="none" d="M236.0000047236681,139.0000018775463c0,3.866,3.134,7,7,7h6c3.866,0,7,-3.134,7,-7V133.0000018775463H236.0000047236681V139.0000018775463z"></path><path id="kity_path_410" fill="#FF962E" stroke="none" d="M256.0000047236681,136.0000018775463c0,3.866,-3.134,7,-7,7H243.0000047236681c-3.866,0,-7,-3.134,-7,-7V133.0000018775463c0,-3.866,3.134,-7,7,-7h6c3.866,0,7,3.134,7,7V136.0000018775463z" opacity="0.8"></path><text id="kity_text_411" text-rendering="geometricPrecision" x="245.00000471621752" y="135.50000187009573" text-anchor="middle" font-style="italic" font-size="12" fill="white" dy="5">4</text></g></g><g id="minder_node29"><g id="node_expander28" style="cursor: pointer;" display="none"><path id="kity_path_278" fill="white" stroke="gray" d="M230.50000455230474,169.50000252574682A6,6,0,1,1,218.50000455230474,169.50000252574682A6,6,0,1,1,230.50000455230474,169.50000252574682"></path><path id="kity_path_279" fill="none" stroke="gray"></path></g><path id="node_outline29" fill="none" stroke="none" d="M235.50000508874655,156.50000252574682h145a5,5,0,0,1,5,5v16a5,5,0,0,1,-5,5h-145a5,5,0,0,1,-5,-5v-16a5,5,0,0,1,5,-5z" stroke-width="3"></path><g id="node_text29" fill="black"><text id="kity_text_275" text-rendering="inherit" font-size="12" dy=".8em" y="161.70000249892473" font-weight="bold" x="260.50000508874655">公司机构权职议事规则</text></g><g id="node_priority8"><path id="kity_path_414" fill="#4720C4" stroke="none" d="M236.0000047236681,173.0000023841858c0,3.866,3.134,7,7,7h6c3.866,0,7,-3.134,7,-7V167.0000023841858H236.0000047236681V173.0000023841858z"></path><path id="kity_path_415" fill="#A464FF" stroke="none" d="M256.0000047236681,170.0000023841858c0,3.866,-3.134,7,-7,7H243.0000047236681c-3.866,0,-7,-3.134,-7,-7V167.0000023841858c0,-3.866,3.134,-7,7,-7h6c3.866,0,7,3.134,7,7V170.0000023841858z" opacity="0.8"></path><text id="kity_text_416" text-rendering="geometricPrecision" x="245.00000471621752" y="169.5000023767352" text-anchor="middle" font-style="italic" font-size="12" fill="white" dy="5">5</text></g></g><g id="minder_node30"><g id="node_expander29" style="cursor: pointer;" display="none"><path id="kity_path_286" fill="white" stroke="gray" d="M230.50000455230474,203.5000030323863A6,6,0,1,1,218.50000455230474,203.5000030323863A6,6,0,1,1,230.50000455230474,203.5000030323863"></path><path id="kity_path_287" fill="none" stroke="gray"></path></g><path id="node_outline30" fill="none" stroke="none" d="M235.50000508874655,190.5000030323863h86a5,5,0,0,1,5,5v16a5,5,0,0,1,-5,5h-86a5,5,0,0,1,-5,-5v-16a5,5,0,0,1,5,-5z" stroke-width="3"></path><g id="node_text30" fill="black"><text id="kity_text_283" text-rendering="inherit" font-size="12" dy=".8em" y="195.7000030055642" x="260.50000508874655">法定代表人</text></g><g id="node_priority9"><path id="kity_path_419" fill="#515151" stroke="none" d="M236.0000047236681,207.00000289082527c0,3.866,3.134,7,7,7h6c3.866,0,7,-3.134,7,-7V201.00000289082527H236.0000047236681V207.00000289082527z"></path><path id="kity_path_420" fill="#A3A3A3" stroke="none" d="M256.0000047236681,204.00000289082527c0,3.866,-3.134,7,-7,7H243.0000047236681c-3.866,0,-7,-3.134,-7,-7V201.00000289082527c0,-3.866,3.134,-7,7,-7h6c3.866,0,7,3.134,7,7V204.00000289082527z" opacity="0.8"></path><text id="kity_text_421" text-rendering="geometricPrecision" x="245.00000471621752" y="203.5000028833747" text-anchor="middle" font-style="italic" font-size="12" fill="white" dy="5">6</text></g></g><g id="minder_node31"><g id="node_expander30" style="cursor: pointer;" display="none"><path id="kity_path_294" fill="white" stroke="gray" d="M230.50000455230474,237.50000353902578A6,6,0,1,1,218.50000455230474,237.50000353902578A6,6,0,1,1,230.50000455230474,237.50000353902578"></path><path id="kity_path_295" fill="none" stroke="gray"></path></g><path id="node_outline31" fill="none" stroke="none" d="M235.50000508874655,224.50000353902578h182a5,5,0,0,1,5,5v16a5,5,0,0,1,-5,5h-182a5,5,0,0,1,-5,-5v-16a5,5,0,0,1,5,-5z" stroke-width="3"></path><g id="node_text31" fill="black"><text id="kity_text_291" text-rendering="inherit" font-size="12" dy=".8em" y="229.7000035122037" x="260.50000508874655">股东会议认为需要的其他事项</text></g><g id="node_priority10"><path id="kity_path_424" fill="#515151" stroke="none" d="M236.0000047236681,241.00000339746475c0,3.866,3.134,7,7,7h6c3.866,0,7,-3.134,7,-7V235.00000339746475H236.0000047236681V241.00000339746475z"></path><path id="kity_path_425" fill="#A3A3A3" stroke="none" d="M256.0000047236681,238.00000339746475c0,3.866,-3.134,7,-7,7H243.0000047236681c-3.866,0,-7,-3.134,-7,-7V235.00000339746475c0,-3.866,3.134,-7,7,-7h6c3.866,0,7,3.134,7,7V238.00000339746475z" opacity="0.8"></path><text id="kity_text_426" text-rendering="geometricPrecision" x="245.00000471621752" y="237.50000339001417" text-anchor="middle" font-style="italic" font-size="12" fill="white" dy="5">7</text></g></g><g id="minder_node25"><g id="node_expander24" style="cursor: pointer;" display="none"><path id="kity_path_246" fill="white" stroke="gray" d="M229.50000453740358,280.5000041797757A6,6,0,1,1,217.50000453740358,280.5000041797757A6,6,0,1,1,229.50000453740358,280.5000041797757"></path><path id="kity_path_247" fill="none" stroke="gray"></path></g><path id="node_outline25" fill="none" stroke="none" d="M234.5000050738454,267.5000041797757h74a5,5,0,0,1,5,5v16a5,5,0,0,1,-5,5h-74a5,5,0,0,1,-5,-5v-16a5,5,0,0,1,5,-5z" stroke-width="3"></path><g id="node_text25" fill="black"><text id="kity_text_243" text-rendering="inherit" font-size="12" dy=".8em" y="272.7000041529536" x="259.5000050738454">名称住所</text></g><g id="node_priority11"><path id="kity_path_429" fill="#840023" stroke="none" d="M235.00000470876694,284.0000040382147c0,3.866,3.134,7,7,7h6c3.866,0,7,-3.134,7,-7V278.0000040382147H235.00000470876694V284.0000040382147z"></path><path id="kity_path_430" fill="#FF1200" stroke="none" d="M255.00000470876694,281.0000040382147c0,3.866,-3.134,7,-7,7H242.00000470876694c-3.866,0,-7,-3.134,-7,-7V278.0000040382147c0,-3.866,3.134,-7,7,-7h6c3.866,0,7,3.134,7,7V281.0000040382147z" opacity="0.8"></path><text id="kity_text_431" text-rendering="geometricPrecision" x="244.00000470131636" y="280.5000040307641" text-anchor="middle" font-style="italic" font-size="12" fill="white" dy="5">1</text></g></g><g id="minder_node32"><g id="node_expander31" style="cursor: pointer;" display="none"><path id="kity_path_317" fill="white" stroke="gray" d="M229.50000453740358,314.5000046864152A6,6,0,1,1,217.50000453740358,314.5000046864152A6,6,0,1,1,229.50000453740358,314.5000046864152"></path><path id="kity_path_318" fill="none" stroke="gray"></path></g><path id="node_outline32" fill="none" stroke="none" d="M234.5000050738454,301.5000046864152h74a5,5,0,0,1,5,5v16a5,5,0,0,1,-5,5h-74a5,5,0,0,1,-5,-5v-16a5,5,0,0,1,5,-5z" stroke-width="3"></path><g id="node_text32" fill="black"><text id="kity_text_314" text-rendering="inherit" font-size="12" dy=".8em" y="306.7000046595931" x="259.5000050738454">经营范围</text></g><g id="node_priority12"><path id="kity_path_434" fill="#01467F" stroke="none" d="M235.00000470876694,318.00000454485416c0,3.866,3.134,7,7,7h6c3.866,0,7,-3.134,7,-7V312.00000454485416H235.00000470876694V318.00000454485416z"></path><path id="kity_path_435" fill="#0074FF" stroke="none" d="M255.00000470876694,315.00000454485416c0,3.866,-3.134,7,-7,7H242.00000470876694c-3.866,0,-7,-3.134,-7,-7V312.00000454485416c0,-3.866,3.134,-7,7,-7h6c3.866,0,7,3.134,7,7V315.00000454485416z" opacity="0.8"></path><text id="kity_text_436" text-rendering="geometricPrecision" x="244.00000470131636" y="314.5000045374036" text-anchor="middle" font-style="italic" font-size="12" fill="white" dy="5">2</text></g></g><g id="minder_node33" opacity="1"><g id="node_expander32" style="cursor: pointer;" display="none"><path id="kity_path_325" fill="white" stroke="gray" d="M229.50000453740358,382.50000569969416A6,6,0,1,1,217.50000453740358,382.50000569969416A6,6,0,1,1,229.50000453740358,382.50000569969416"></path><path id="kity_path_326" fill="none" stroke="gray" d="M219.00000453740358,382.50000569969416L228.00000453740358,382.50000569969416"></path></g><path id="node_outline33" fill="#e5b8b7" stroke="none" d="M234.5000050738454,369.50000569969416h194a5,5,0,0,1,5,5v16a5,5,0,0,1,-5,5h-194a5,5,0,0,1,-5,-5v-16a5,5,0,0,1,5,-5z" stroke-width="3"></path><g id="node_text33" fill="black"><text id="kity_text_322" text-rendering="inherit" font-size="12" dy=".8em" y="374.70000567287207" x="259.5000050738454">设立方式、股份总额、每股份额</text></g><g id="node_priority14"><path id="kity_path_444" fill="#B25000" stroke="none" d="M235.00000470876694,386.0000055581331c0,3.866,3.134,7,7,7h6c3.866,0,7,-3.134,7,-7V380.0000055581331H235.00000470876694V386.0000055581331z"></path><path id="kity_path_445" fill="#FF962E" stroke="none" d="M255.00000470876694,383.0000055581331c0,3.866,-3.134,7,-7,7H242.00000470876694c-3.866,0,-7,-3.134,-7,-7V380.0000055581331c0,-3.866,3.134,-7,7,-7h6c3.866,0,7,3.134,7,7V383.0000055581331z" opacity="0.8"></path><text id="kity_text_446" text-rendering="geometricPrecision" x="244.00000470131636" y="382.50000555068254" text-anchor="middle" font-style="italic" font-size="12" fill="white" dy="5">4</text></g></g><g id="minder_node35"><g id="node_expander34" style="cursor: pointer;" display="none"><path id="kity_path_357" fill="white" stroke="gray" d="M229.50000453740358,416.50000620633364A6,6,0,1,1,217.50000453740358,416.50000620633364A6,6,0,1,1,229.50000453740358,416.50000620633364"></path><path id="kity_path_358" fill="none" stroke="gray"></path></g><path id="node_outline35" fill="none" stroke="none" d="M234.5000050738454,403.50000620633364h302a5,5,0,0,1,5,5v16a5,5,0,0,1,-5,5h-302a5,5,0,0,1,-5,-5v-16a5,5,0,0,1,5,-5z" stroke-width="3"></path><g id="node_text35" fill="black"><text id="kity_text_354" text-rendering="inherit" font-size="12" dy=".8em" y="408.70000617951155" font-weight="bold" x="259.5000050738454">发起人的姓名、认购的股份数、出资方式、出资时间</text></g><g id="node_priority15"><path id="kity_path_449" fill="#4720C4" stroke="none" d="M235.00000470876694,420.0000060647726c0,3.866,3.134,7,7,7h6c3.866,0,7,-3.134,7,-7V414.0000060647726H235.00000470876694V420.0000060647726z"></path><path id="kity_path_450" fill="#A464FF" stroke="none" d="M255.00000470876694,417.0000060647726c0,3.866,-3.134,7,-7,7H242.00000470876694c-3.866,0,-7,-3.134,-7,-7V414.0000060647726c0,-3.866,3.134,-7,7,-7h6c3.866,0,7,3.134,7,7V417.0000060647726z" opacity="0.8"></path><text id="kity_text_451" text-rendering="geometricPrecision" x="244.00000470131636" y="416.500006057322" text-anchor="middle" font-style="italic" font-size="12" fill="white" dy="5">5</text></g></g><g id="minder_node36"><g id="node_expander35" style="cursor: pointer;" display="none"><path id="kity_path_365" fill="white" stroke="gray" d="M229.50000453740358,450.5000067129731A6,6,0,1,1,217.50000453740358,450.5000067129731A6,6,0,1,1,229.50000453740358,450.5000067129731"></path><path id="kity_path_366" fill="none" stroke="gray"></path></g><path id="node_outline36" fill="none" stroke="none" d="M234.5000050738454,437.5000067129731h217a5,5,0,0,1,5,5v16a5,5,0,0,1,-5,5h-217a5,5,0,0,1,-5,-5v-16a5,5,0,0,1,5,-5z" stroke-width="3"></path><g id="node_text36" fill="black"><text id="kity_text_362" text-rendering="inherit" font-size="12" dy=".8em" y="442.700006686151" font-weight="bold" x="259.5000050738454">董事会、监事会的组成职权议事规则</text></g><g id="node_priority16"><path id="kity_path_454" fill="#515151" stroke="none" d="M235.00000470876694,454.0000065714121c0,3.866,3.134,7,7,7h6c3.866,0,7,-3.134,7,-7V448.0000065714121H235.00000470876694V454.0000065714121z"></path><path id="kity_path_455" fill="#A3A3A3" stroke="none" d="M255.00000470876694,451.0000065714121c0,3.866,-3.134,7,-7,7H242.00000470876694c-3.866,0,-7,-3.134,-7,-7V448.0000065714121c0,-3.866,3.134,-7,7,-7h6c3.866,0,7,3.134,7,7V451.0000065714121z" opacity="0.8"></path><text id="kity_text_456" text-rendering="geometricPrecision" x="244.00000470131636" y="450.5000065639615" text-anchor="middle" font-style="italic" font-size="12" fill="white" dy="5">6</text></g></g><g id="minder_node37"><g id="node_expander36" style="cursor: pointer;" display="none"><path id="kity_path_373" fill="white" stroke="gray" d="M229.50000453740358,484.5000072196126A6,6,0,1,1,217.50000453740358,484.5000072196126A6,6,0,1,1,229.50000453740358,484.5000072196126"></path><path id="kity_path_374" fill="none" stroke="gray"></path></g><path id="node_outline37" fill="none" stroke="none" d="M234.5000050738454,471.5000072196126h86a5,5,0,0,1,5,5v16a5,5,0,0,1,-5,5h-86a5,5,0,0,1,-5,-5v-16a5,5,0,0,1,5,-5z" stroke-width="3"></path><g id="node_text37" fill="black"><text id="kity_text_370" text-rendering="inherit" font-size="12" dy=".8em" y="476.7000071927905" x="259.5000050738454">法定代表人</text></g><g id="node_priority17"><path id="kity_path_459" fill="#515151" stroke="none" d="M235.00000470876694,488.00000707805157c0,3.866,3.134,7,7,7h6c3.866,0,7,-3.134,7,-7V482.00000707805157H235.00000470876694V488.00000707805157z"></path><path id="kity_path_460" fill="#A3A3A3" stroke="none" d="M255.00000470876694,485.00000707805157c0,3.866,-3.134,7,-7,7H242.00000470876694c-3.866,0,-7,-3.134,-7,-7V482.00000707805157c0,-3.866,3.134,-7,7,-7h6c3.866,0,7,3.134,7,7V485.00000707805157z" opacity="0.8"></path><text id="kity_text_461" text-rendering="geometricPrecision" x="244.00000470131636" y="484.500007070601" text-anchor="middle" font-style="italic" font-size="12" fill="white" dy="5">7</text></g></g><g id="minder_node38"><g id="node_expander37" style="cursor: pointer;" display="none"><path id="kity_path_381" fill="white" stroke="gray" d="M229.50000453740358,518.5000077262521A6,6,0,1,1,217.50000453740358,518.5000077262521A6,6,0,1,1,229.50000453740358,518.5000077262521"></path><path id="kity_path_382" fill="none" stroke="gray"></path></g><path id="node_outline38" fill="#e5b8b7" stroke="none" d="M234.5000050738454,505.5000077262521h289a5,5,0,0,1,5,5v16a5,5,0,0,1,-5,5h-289a5,5,0,0,1,-5,-5v-16a5,5,0,0,1,5,-5z" stroke-width="3"></path><g id="node_text38" fill="black"><text id="kity_text_378" text-rendering="inherit" font-size="12" dy=".8em" y="510.70000769943" x="259.5000050738454">公司林润分配办法、解算清算办法、通知公告办法</text></g><g id="node_priority18"><path id="kity_path_464" fill="#515151" stroke="none" d="M235.00000470876694,522.000007584691c0,3.866,3.134,7,7,7h6c3.866,0,7,-3.134,7,-7V516.000007584691H235.00000470876694V522.000007584691z"></path><path id="kity_path_465" fill="#A3A3A3" stroke="none" d="M255.00000470876694,519.000007584691c0,3.866,-3.134,7,-7,7H242.00000470876694c-3.866,0,-7,-3.134,-7,-7V516.000007584691c0,-3.866,3.134,-7,7,-7h6c3.866,0,7,3.134,7,7V519.000007584691z" opacity="0.8"></path><text id="kity_text_466" text-rendering="geometricPrecision" x="244.00000470131636" y="518.5000075772405" text-anchor="middle" font-style="italic" font-size="12" fill="white" dy="5">8</text></g></g><g id="minder_node39"><g id="node_expander38" style="cursor: pointer;" display="none"><path id="kity_path_389" fill="white" stroke="gray" d="M229.50000453740358,552.5000082328916A6,6,0,1,1,217.50000453740358,552.5000082328916A6,6,0,1,1,229.50000453740358,552.5000082328916"></path><path id="kity_path_390" fill="none" stroke="gray"></path></g><path id="node_outline39" fill="none" stroke="none" d="M234.5000050738454,539.5000082328916h182a5,5,0,0,1,5,5v16a5,5,0,0,1,-5,5h-182a5,5,0,0,1,-5,-5v-16a5,5,0,0,1,5,-5z" stroke-width="3"></path><g id="node_text39" fill="black"><text id="kity_text_386" text-rendering="inherit" font-size="12" dy=".8em" y="544.7000082060695" x="259.5000050738454">股东会议认为需要的其他事项</text></g><g id="node_priority19"><path id="kity_path_469" fill="#515151" stroke="none" d="M235.00000470876694,556.0000080913305c0,3.866,3.134,7,7,7h6c3.866,0,7,-3.134,7,-7V550.0000080913305H235.00000470876694V556.0000080913305z"></path><path id="kity_path_470" fill="#A3A3A3" stroke="none" d="M255.00000470876694,553.0000080913305c0,3.866,-3.134,7,-7,7H242.00000470876694c-3.866,0,-7,-3.134,-7,-7V550.0000080913305c0,-3.866,3.134,-7,7,-7h6c3.866,0,7,3.134,7,7V553.0000080913305z" opacity="0.8"></path><text id="kity_text_471" text-rendering="geometricPrecision" x="244.00000470131636" y="552.50000808388" text-anchor="middle" font-style="italic" font-size="12" fill="white" dy="5">9</text></g></g><g id="minder_node34" opacity="1"><g id="node_expander33" style="cursor: pointer;" display="none"><path id="kity_path_333" fill="white" stroke="gray" d="M229.50000453740358,348.5000051930547A6,6,0,1,1,217.50000453740358,348.5000051930547A6,6,0,1,1,229.50000453740358,348.5000051930547"></path><path id="kity_path_334" fill="none" stroke="gray"></path></g><path id="node_outline34" fill="none" stroke="none" d="M234.5000050738454,335.5000051930547h74a5,5,0,0,1,5,5v16a5,5,0,0,1,-5,5h-74a5,5,0,0,1,-5,-5v-16a5,5,0,0,1,5,-5z" stroke-width="3"></path><g id="node_text34" fill="black"><text id="kity_text_330" text-rendering="inherit" font-size="12" dy=".8em" y="340.7000051662326" x="259.5000050738454">注册资本</text></g><g id="node_priority13"><path id="kity_path_439" fill="#006300" stroke="none" d="M235.00000470876694,352.00000505149364c0,3.866,3.134,7,7,7h6c3.866,0,7,-3.134,7,-7V346.00000505149364H235.00000470876694V352.00000505149364z"></path><path id="kity_path_440" fill="#00AF00" stroke="none" d="M255.00000470876694,349.00000505149364c0,3.866,-3.134,7,-7,7H242.00000470876694c-3.866,0,-7,-3.134,-7,-7V346.00000505149364c0,-3.866,3.134,-7,7,-7h6c3.866,0,7,3.134,7,7V349.00000505149364z" opacity="0.8"></path><text id="kity_text_441" text-rendering="geometricPrecision" x="244.00000470131636" y="348.50000504404306" text-anchor="middle" font-style="italic" font-size="12" fill="white" dy="5">3</text></g></g><g id="kity_g_12" display="none"><path id="kity_path_13" fill="none" stroke="rgb(112, 66, 86)" d="M234.5000016912818,323.5000039860606h49a5,5,0,0,1,5,5v8a5,5,0,0,1,-5,5h-49a5,5,0,0,1,-5,-5v-8a5,5,0,0,1,5,-5z" stroke-width="5"></path></g></g></g></svg>