<svg id="kity_svg_6" xmlns="http://www.w3.org/2000/svg" xmlns:xlink="http://www.w3.org/1999/xlink" version="1.1" width="671" height="132" style="background: rgb(251, 251, 251); visibility: visible;" viewBox="0 0 671 132"><defs id="kity_defs_7"><linearGradient id="kity_linearGradient_17" x1="0" y1="0" x2="0" y2="1"><stop id="kity_stop_18" offset="0" stop-color="rgb(255, 255, 255)"></stop><stop id="kity_stop_19" offset="1" stop-color="rgb(204, 204, 204)"></stop></linearGradient><marker id="kity_marker_2" orient="auto" refX="6" refY="0" viewBox="-7 -7 14 14" markerWidth="7" markerHeight="7" markerUnits="userSpaceOnUse"><path id="kity_path_3" fill="rgb(191, 147, 115)" stroke="none" d="M6,0A6,6,0,1,1,-6,0A6,6,0,1,1,6,0"></path></marker></defs><g id="kity_g_8"><g id="minder1" text-rendering="geometricPrecision"><g id="minder_connect_group1"><path id="kity_path_510" fill="none" stroke="rgb(191, 147, 115)" stroke-width="1" d="M108.0000004991889,66.5000029578805A206.5,33,0,0,1,314.5000004991889,33.5000029578805"></path><path id="kity_path_518" fill="none" stroke="rgb(191, 147, 115)" stroke-width="1" d="M108.0000004991889,66.5000029578805A206.5,33,0,0,0,314.5000004991889,99.5000029578805"></path><path id="kity_path_542" fill="none" stroke="rgb(191, 147, 115)" stroke-width="1" d="M526.5000004991889,33.5000029578805C546.5000004991889,33.5000029578805,546.5000004991889,33.5000029578805,566.5000004991889,33.5000029578805"></path><path id="kity_path_550" fill="none" stroke="rgb(191, 147, 115)" stroke-width="1" d="M540.5000004991889,99.5000029578805C560.5000004991889,99.5000029578805,560.5000004991889,99.5000029578805,580.5000004991889,99.5000029578805"></path></g><g id="minder_node1"><path id="kity_path_490" fill="rgba(0, 0, 0, .25)" stroke="none" d="M59.5000004991889,24.500002957880497h72a47,47,0,0,1,47,47v0a47,47,0,0,1,-47,47h-72a47,47,0,0,1,-47,-47v0a47,47,0,0,1,47,-47z" display="none"></path><path id="node_outline1" fill="rgb(191, 147, 115)" stroke="rgb(191, 147, 115)" d="M24.5000004991889,46.5000029578805h167a5,5,0,0,1,5,5v30a5,5,0,0,1,-5,5h-167a5,5,0,0,1,-5,-5v-30a5,5,0,0,1,5,-5z" stroke-width="3"></path><g id="node_text1" fill="white"><text id="kity_text_22" text-rendering="inherit" font-size="16" dy=".8em" y="56.10000292211771" x="43.5000004991889">公司股东滥用权力</text></g></g><g id="kity_g_14" display="none"><path id="kity_path_15" fill="rgba(0, 255, 0, .5)" stroke="none" d="M224.5000004991889,-16.499997042119503h344v20h-344z"></path><path id="kity_path_16" fill="none" stroke="#0f0" d="M224.5000004991889,-16.499997042119503L568.5000004991889,-16.499997042119503" stroke-width="1"></path></g><g id="kity_g_12" display="none"><path id="kity_path_13" fill="none" stroke="yellow" d="M229.5000004991889,18.500002957880497h223a5,5,0,0,1,5,5v18a5,5,0,0,1,-5,5h-223a5,5,0,0,1,-5,-5v-18a5,5,0,0,1,5,-5z" stroke-width="4"></path></g><g id="minder_node44"><g id="node_expander43" style="cursor: pointer;"><path id="kity_path_515" fill="white" stroke="gray" d="M315.5000044628978,33.50000246614218A6,6,0,1,1,303.5000044628978,33.50000246614218A6,6,0,1,1,315.5000044628978,33.50000246614218"></path><path id="kity_path_516" fill="none" stroke="gray" d="M305.0000044628978,33.50000246614218L314.0000044628978,33.50000246614218"></path></g><path id="node_outline44" fill="rgb(246, 242, 238)" stroke="rgb(191, 147, 115)" d="M319.50000486522913,20.500002466142178h204a3,3,0,0,1,3,3v20a3,3,0,0,1,-3,3h-204a3,3,0,0,1,-3,-3v-20a3,3,0,0,1,3,-3z" stroke-width="1"></path><g id="node_text44" fill="black"><text id="kity_text_512" text-rendering="inherit" font-size="14" dy=".8em" y="24.40000243484974" x="336.50000486522913">给公司和其他股东造成损失</text></g></g><g id="minder_node45"><g id="node_expander44" style="cursor: pointer;"><path id="kity_path_523" fill="white" stroke="gray" d="M315.5000044628978,99.50000344961882A6,6,0,1,1,303.5000044628978,99.50000344961882A6,6,0,1,1,315.5000044628978,99.50000344961882"></path><path id="kity_path_524" fill="none" stroke="gray" d="M305.0000044628978,99.50000344961882L314.0000044628978,99.50000344961882"></path></g><path id="node_outline45" fill="rgb(246, 242, 238)" stroke="rgb(191, 147, 115)" d="M319.50000486522913,86.50000344961882h218a3,3,0,0,1,3,3v20a3,3,0,0,1,-3,3h-218a3,3,0,0,1,-3,-3v-20a3,3,0,0,1,3,-3z" stroke-width="1"></path><g id="node_text45" fill="black"><text id="kity_text_520" text-rendering="inherit" font-size="14" dy=".8em" y="90.40000341832638" x="336.50000486522913">逃避债务损害公司债权人权益</text></g></g><g id="minder_node48"><g id="node_expander47" style="cursor: pointer;" display="none"><path id="kity_path_547" fill="white" stroke="gray" d="M566.5000082030892,33.50000246614218A6,6,0,1,1,554.5000082030892,33.50000246614218A6,6,0,1,1,566.5000082030892,33.50000246614218"></path><path id="kity_path_548" fill="none" stroke="gray"></path></g><path id="node_outline48" fill="none" stroke="none" d="M571.5000084415078,22.500002466142178h60a5,5,0,0,1,5,5v12a5,5,0,0,1,-5,5h-60a5,5,0,0,1,-5,-5v-12a5,5,0,0,1,5,-5z" stroke-width="3"></path><g id="node_text48" fill="black"><text id="kity_text_544" text-rendering="inherit" font-size="12" dy=".8em" y="25.700002439320087" x="576.5000084415078">依法赔偿</text></g></g><g id="minder_node49"><g id="node_expander48" style="cursor: pointer;" display="none"><path id="kity_path_555" fill="white" stroke="gray" d="M580.5000084117055,99.50000344961882A6,6,0,1,1,568.5000084117055,99.50000344961882A6,6,0,1,1,580.5000084117055,99.50000344961882"></path><path id="kity_path_556" fill="none" stroke="gray"></path></g><path id="node_outline49" fill="none" stroke="none" d="M585.5000086501241,88.50000344961882h60a5,5,0,0,1,5,5v12a5,5,0,0,1,-5,5h-60a5,5,0,0,1,-5,-5v-12a5,5,0,0,1,5,-5z" stroke-width="3"></path><g id="node_text49" fill="black"><text id="kity_text_552" text-rendering="inherit" font-size="12" dy=".8em" y="91.70000342279673" x="590.5000086501241">连带责任</text></g></g></g></g></svg>