<svg id="kity_svg_6" xmlns="http://www.w3.org/2000/svg" xmlns:xlink="http://www.w3.org/1999/xlink" version="1.1" width="847" height="210" style="background: rgb(251, 251, 251); visibility: visible;" viewBox="0 0 847 210"><defs id="kity_defs_7"><linearGradient id="kity_linearGradient_17" x1="0" y1="0" x2="0" y2="1"><stop id="kity_stop_18" offset="0" stop-color="rgb(255, 255, 255)"></stop><stop id="kity_stop_19" offset="1" stop-color="rgb(204, 204, 204)"></stop></linearGradient><marker id="kity_marker_2" orient="auto" refX="6" refY="0" viewBox="-7 -7 14 14" markerWidth="7" markerHeight="7" markerUnits="userSpaceOnUse"><path id="kity_path_3" fill="rgb(115, 191, 118)" stroke="none" d="M6,0A6,6,0,1,1,-6,0A6,6,0,1,1,6,0"></path></marker></defs><g id="kity_g_8"><g id="minder1" text-rendering="optimize-speed"><g id="minder_connect_group1"><path id="kity_path_31" fill="none" stroke="rgb(115, 191, 118)" stroke-width="1" d="M88.50000093132257,96.50000251084566A84,46,0,0,1,172.50000093132257,50.50000251084566"></path><path id="kity_path_39" fill="none" stroke="rgb(115, 191, 118)" stroke-width="1" d="M88.50000093132257,96.50000251084566A84,47,0,0,0,172.50000093132257,143.50000251084566"></path><path id="kity_path_47" fill="none" stroke="rgb(115, 191, 118)" stroke-width="1" d="M271.5000009313226,50.50000251084566C279.5000009313226,50.50000251084566,279.5000009313226,33.50000251084566,287.5000009313226,33.50000251084566"></path><path id="kity_path_55" fill="none" stroke="rgb(115, 191, 118)" stroke-width="1" d="M271.5000009313226,50.50000251084566C279.5000009313226,50.50000251084566,279.5000009313226,67.50000251084566,287.5000009313226,67.50000251084566"></path><path id="kity_path_63" fill="none" stroke="rgb(115, 191, 118)" stroke-width="1" d="M271.5000009313226,143.50000251084566C279.5000009313226,143.50000251084566,279.5000009313226,109.50000251084566,287.5000009313226,109.50000251084566"></path><path id="kity_path_71" fill="none" stroke="rgb(115, 191, 118)" stroke-width="1" d="M271.5000009313226,143.50000251084566C279.5000009313226,143.50000251084566,279.5000009313226,143.50000251084566,287.5000009313226,143.50000251084566"></path><path id="kity_path_79" fill="none" stroke="rgb(115, 191, 118)" stroke-width="1" d="M271.5000009313226,143.50000251084566C279.5000009313226,143.50000251084566,279.5000009313226,177.50000251084566,287.5000009313226,177.50000251084566"></path></g><g id="minder_node1"><path id="node_outline1" fill="rgb(115, 191, 118)" stroke="rgb(115, 191, 118)" d="M25.500000931322575,82.50000251084566h126a5,5,0,0,1,5,5v18a5,5,0,0,1,-5,5h-126a5,5,0,0,1,-5,-5v-18a5,5,0,0,1,5,-5z" stroke-width="3"></path><g id="node_text1" fill="white"><text id="kity_text_22" text-rendering="inherit" font-size="16" dy=".8em" y="86.10000247508287" x="32.500000931322575">公司的设立方式</text></g></g><g id="kity_g_12"><path id="kity_path_13" fill="none" stroke="none" d="M32.500000931322575,96.50000251084566h0v0h0z"></path></g><g id="kity_g_14"><path id="kity_path_15" fill="none" stroke="none" d="M32.500000931322575,96.50000251084566h0v0h0z"></path><path id="kity_path_16" fill="none" stroke="none"></path></g><g id="minder_node2"><g id="node_expander1" style="cursor: pointer;"><path id="kity_path_36" fill="white" stroke="gray" d="M173.50000294297934,50.500001825392246A6,6,0,1,1,161.50000294297934,50.500001825392246A6,6,0,1,1,173.50000294297934,50.500001825392246"></path><path id="kity_path_37" fill="none" stroke="gray" d="M163.00000294297934,50.500001825392246L172.00000294297934,50.500001825392246"></path></g><path id="node_outline2" fill="rgb(238, 246, 238)" stroke="rgb(115, 191, 118)" d="M177.5000033453107,37.500001825392246h91a3,3,0,0,1,3,3v20a3,3,0,0,1,-3,3h-91a3,3,0,0,1,-3,-3v-20a3,3,0,0,1,3,-3z" stroke-width="1"></path><g id="node_text2" fill="black"><text id="kity_text_33" text-rendering="inherit" font-size="14" dy=".8em" y="41.40000179409981" x="194.5000033453107">发起设立</text></g></g><g id="minder_node3"><g id="node_expander2" style="cursor: pointer;"><path id="kity_path_44" fill="white" stroke="gray" d="M173.50000294297934,143.50000321120024A6,6,0,1,1,161.50000294297934,143.50000321120024A6,6,0,1,1,173.50000294297934,143.50000321120024"></path><path id="kity_path_45" fill="none" stroke="gray" d="M163.00000294297934,143.50000321120024L172.00000294297934,143.50000321120024"></path></g><path id="node_outline3" fill="rgb(238, 246, 238)" stroke="rgb(115, 191, 118)" d="M177.5000033453107,130.50000321120024h91a3,3,0,0,1,3,3v20a3,3,0,0,1,-3,3h-91a3,3,0,0,1,-3,-3v-20a3,3,0,0,1,3,-3z" stroke-width="1"></path><g id="node_text3" fill="black"><text id="kity_text_41" text-rendering="inherit" font-size="14" dy=".8em" y="134.4000031799078" x="194.5000033453107">募集设立</text></g></g><g id="minder_node4"><g id="node_expander3" style="cursor: pointer;" display="none"><path id="kity_path_52" fill="white" stroke="gray" d="M287.5000046417117,33.500001572072506A6,6,0,1,1,275.5000046417117,33.500001572072506A6,6,0,1,1,287.5000046417117,33.500001572072506"></path><path id="kity_path_53" fill="none" stroke="gray"></path></g><path id="node_outline4" fill="#f2f2f2" stroke="none" d="M292.5000051781535,20.500001572072506h289a5,5,0,0,1,5,5v16a5,5,0,0,1,-5,5h-289a5,5,0,0,1,-5,-5v-16a5,5,0,0,1,5,-5z" stroke-width="3"></path><g id="node_text4" fill="black"><text id="kity_text_49" text-rendering="inherit" font-size="12" dy=".8em" y="25.700001545250416" font-weight="bold" x="317.5000051781535">由发起人认购公司应发行的全部股份而设立的公司</text></g><g id="node_priority1"><path id="kity_path_88" fill="#840023" stroke="none" d="M293.00000481307507,37.000001430511475c0,3.866,3.134,7,7,7h6c3.866,0,7,-3.134,7,-7V31.000001430511475H293.00000481307507V37.000001430511475z"></path><path id="kity_path_89" fill="#FF1200" stroke="none" d="M313.00000481307507,34.000001430511475c0,3.866,-3.134,7,-7,7H300.00000481307507c-3.866,0,-7,-3.134,-7,-7V31.000001430511475c0,-3.866,3.134,-7,7,-7h6c3.866,0,7,3.134,7,7V34.000001430511475z" opacity="0.8"></path><text id="kity_text_90" text-rendering="geometricPrecision" x="302.0000048056245" y="33.500001423060894" text-anchor="middle" font-style="italic" font-size="12" fill="white" dy="5">1</text></g></g><g id="minder_node5"><g id="node_expander4" style="cursor: pointer;" display="none"><path id="kity_path_60" fill="white" stroke="gray" d="M287.5000046417117,67.50000207871199A6,6,0,1,1,275.5000046417117,67.50000207871199A6,6,0,1,1,287.5000046417117,67.50000207871199"></path><path id="kity_path_61" fill="none" stroke="gray"></path></g><path id="node_outline5" fill="#92d050" stroke="none" d="M292.5000051781535,54.50000207871199h215a5,5,0,0,1,5,5v16a5,5,0,0,1,-5,5h-215a5,5,0,0,1,-5,-5v-16a5,5,0,0,1,5,-5z" stroke-width="3"></path><g id="node_text5" fill="black"><text id="kity_text_57" text-rendering="inherit" font-size="12" dy=".8em" y="59.700002051889896" x="317.5000051781535">适用于有限责任公司+股份有限公司</text></g><g id="node_priority2"><path id="kity_path_93" fill="#01467F" stroke="none" d="M293.00000481307507,71.00000193715096c0,3.866,3.134,7,7,7h6c3.866,0,7,-3.134,7,-7V65.00000193715096H293.00000481307507V71.00000193715096z"></path><path id="kity_path_94" fill="#0074FF" stroke="none" d="M313.00000481307507,68.00000193715096c0,3.866,-3.134,7,-7,7H300.00000481307507c-3.866,0,-7,-3.134,-7,-7V65.00000193715096c0,-3.866,3.134,-7,7,-7h6c3.866,0,7,3.134,7,7V68.00000193715096z" opacity="0.8"></path><text id="kity_text_95" text-rendering="geometricPrecision" x="302.0000048056245" y="67.50000192970037" text-anchor="middle" font-style="italic" font-size="12" fill="white" dy="5">2</text></g></g><g id="minder_node6"><g id="node_expander5" style="cursor: pointer;" display="none"><path id="kity_path_68" fill="white" stroke="gray" d="M287.5000046417117,109.50000270456076A6,6,0,1,1,275.5000046417117,109.50000270456076A6,6,0,1,1,287.5000046417117,109.50000270456076"></path><path id="kity_path_69" fill="none" stroke="gray"></path></g><path id="node_outline6" fill="none" stroke="none" d="M292.5000051781535,96.50000270456076h530a5,5,0,0,1,5,5v16a5,5,0,0,1,-5,5h-530a5,5,0,0,1,-5,-5v-16a5,5,0,0,1,5,-5z" stroke-width="3"></path><g id="node_text6" fill="black"><text id="kity_text_65" text-rendering="inherit" font-size="12" dy=".8em" y="101.70000267773867" font-weight="bold" x="317.5000051781535">发起人认购公司应发行股份的一部分，其余股份向社会公开募集或向特定对象募集而设立的公司</text></g><g id="node_priority3"><path id="kity_path_98" fill="#840023" stroke="none" d="M293.00000481307507,113.00000256299973c0,3.866,3.134,7,7,7h6c3.866,0,7,-3.134,7,-7V107.00000256299973H293.00000481307507V113.00000256299973z"></path><path id="kity_path_99" fill="#FF1200" stroke="none" d="M313.00000481307507,110.00000256299973c0,3.866,-3.134,7,-7,7H300.00000481307507c-3.866,0,-7,-3.134,-7,-7V107.00000256299973c0,-3.866,3.134,-7,7,-7h6c3.866,0,7,3.134,7,7V110.00000256299973z" opacity="0.8"></path><text id="kity_text_100" text-rendering="geometricPrecision" x="302.0000048056245" y="109.50000255554914" text-anchor="middle" font-style="italic" font-size="12" fill="white" dy="5">1</text></g></g><g id="minder_node7"><g id="node_expander6" style="cursor: pointer;" display="none"><path id="kity_path_76" fill="white" stroke="gray" d="M287.5000046417117,143.50000321120024A6,6,0,1,1,275.5000046417117,143.50000321120024A6,6,0,1,1,287.5000046417117,143.50000321120024"></path><path id="kity_path_77" fill="none" stroke="gray"></path></g><path id="node_outline7" fill="#92d050" stroke="none" d="M292.5000051781535,130.50000321120024h146a5,5,0,0,1,5,5v16a5,5,0,0,1,-5,5h-146a5,5,0,0,1,-5,-5v-16a5,5,0,0,1,5,-5z" stroke-width="3"></path><g id="node_text7" fill="black"><text id="kity_text_73" text-rendering="inherit" font-size="12" dy=".8em" y="135.70000318437815" x="317.5000051781535">只适用于股份有限公司</text></g><g id="node_priority4"><path id="kity_path_103" fill="#01467F" stroke="none" d="M293.00000481307507,147.0000030696392c0,3.866,3.134,7,7,7h6c3.866,0,7,-3.134,7,-7V141.0000030696392H293.00000481307507V147.0000030696392z"></path><path id="kity_path_104" fill="#0074FF" stroke="none" d="M313.00000481307507,144.0000030696392c0,3.866,-3.134,7,-7,7H300.00000481307507c-3.866,0,-7,-3.134,-7,-7V141.0000030696392c0,-3.866,3.134,-7,7,-7h6c3.866,0,7,3.134,7,7V144.0000030696392z" opacity="0.8"></path><text id="kity_text_105" text-rendering="geometricPrecision" x="302.0000048056245" y="143.50000306218863" text-anchor="middle" font-style="italic" font-size="12" fill="white" dy="5">2</text></g></g><g id="minder_node8"><g id="node_expander7" style="cursor: pointer;" display="none"><path id="kity_path_84" fill="white" stroke="gray" d="M287.5000046417117,177.50000371783972A6,6,0,1,1,275.5000046417117,177.50000371783972A6,6,0,1,1,287.5000046417117,177.50000371783972"></path><path id="kity_path_85" fill="none" stroke="gray"></path></g><path id="node_outline8" fill="none" stroke="none" d="M292.5000051781535,164.50000371783972h473a5,5,0,0,1,5,5v16a5,5,0,0,1,-5,5h-473a5,5,0,0,1,-5,-5v-16a5,5,0,0,1,5,-5z" stroke-width="3"></path><g id="node_text8" fill="black"><text id="kity_text_81" text-rendering="inherit" font-size="12" dy=".8em" y="169.70000369101763" font-weight="bold" x="317.5000051781535">发起人认购的股份不得少于公司股份总数的35%，法律行政法规另有规定的从其规定</text></g><g id="node_priority5"><path id="kity_path_108" fill="#006300" stroke="none" d="M293.00000481307507,181.0000035762787c0,3.866,3.134,7,7,7h6c3.866,0,7,-3.134,7,-7V175.0000035762787H293.00000481307507V181.0000035762787z"></path><path id="kity_path_109" fill="#00AF00" stroke="none" d="M313.00000481307507,178.0000035762787c0,3.866,-3.134,7,-7,7H300.00000481307507c-3.866,0,-7,-3.134,-7,-7V175.0000035762787c0,-3.866,3.134,-7,7,-7h6c3.866,0,7,3.134,7,7V178.0000035762787z" opacity="0.8"></path><text id="kity_text_110" text-rendering="geometricPrecision" x="302.0000048056245" y="177.5000035688281" text-anchor="middle" font-style="italic" font-size="12" fill="white" dy="5">3</text></g></g></g></g></svg>