<svg id="kity_svg_6" xmlns="http://www.w3.org/2000/svg" xmlns:xlink="http://www.w3.org/1999/xlink" version="1.1" width="661" height="251" style="background: rgb(251, 251, 251); visibility: visible;" viewBox="0 0 661 251"><defs id="kity_defs_7"><linearGradient id="kity_linearGradient_17" x1="0" y1="0" x2="0" y2="1"><stop id="kity_stop_18" offset="0" stop-color="rgb(255, 255, 255)"></stop><stop id="kity_stop_19" offset="1" stop-color="rgb(204, 204, 204)"></stop></linearGradient><marker id="kity_marker_2" orient="auto" refX="6" refY="0" viewBox="-7 -7 14 14" markerWidth="7" markerHeight="7" markerUnits="userSpaceOnUse"><path id="kity_path_3" fill="rgb(115, 191, 118)" stroke="none" d="M6,0A6,6,0,1,1,-6,0A6,6,0,1,1,6,0"></path></marker></defs><g id="kity_g_8"><g id="minder1" text-rendering="optimize-speed"><g id="minder_connect_group1"><path id="kity_path_31" fill="none" stroke="rgb(115, 191, 118)" stroke-width="1" d="M88.50000227242708,136.50000423938036A151,105,0,0,1,239.50000227242708,31.50000423938036"></path><path id="kity_path_39" fill="none" stroke="rgb(115, 191, 118)" stroke-width="1" d="M88.50000227242708,136.50000423938036A154,47,0,0,1,242.50000227242708,89.50000423938036"></path><path id="kity_path_47" fill="none" stroke="rgb(115, 191, 118)" stroke-width="1" d="M88.50000227242708,136.50000423938036A156,26,0,0,0,244.50000227242708,162.50000423938036"></path><path id="kity_path_55" fill="none" stroke="rgb(115, 191, 118)" stroke-width="1" d="M88.50000227242708,136.50000423938036A136,84,0,0,0,224.50000227242708,220.50000423938036"></path><path id="kity_path_190" fill="none" stroke="rgb(115, 191, 118)" stroke-width="1" d="M322.5000022724271,31.50000423938036C330.5000022724271,31.50000423938036,330.5000022724271,31.50000423938036,338.5000022724271,31.50000423938036"></path><path id="kity_path_191" fill="none" stroke="rgb(115, 191, 118)" stroke-width="1" d="M441.5000022724271,65.50000423938036C449.5000022724271,65.50000423938036,449.5000022724271,65.50000423938036,457.5000022724271,65.50000423938036"></path><path id="kity_path_192" fill="none" stroke="rgb(115, 191, 118)" stroke-width="1" d="M324.5000022724271,89.50000423938036C332.5000022724271,89.50000423938036,332.5000022724271,65.50000423938036,340.5000022724271,65.50000423938036"></path><path id="kity_path_193" fill="none" stroke="rgb(115, 191, 118)" stroke-width="1" d="M324.5000022724271,89.50000423938036C332.5000022724271,89.50000423938036,332.5000022724271,89.50000423938036,340.5000022724271,89.50000423938036"></path><path id="kity_path_194" fill="none" stroke="rgb(115, 191, 118)" stroke-width="1" d="M324.5000022724271,89.50000423938036C332.5000022724271,89.50000423938036,332.5000022724271,113.50000423938036,340.5000022724271,113.50000423938036"></path><path id="kity_path_195" fill="none" stroke="rgb(115, 191, 118)" stroke-width="1" d="M414.5000022724271,150.50000423938036C422.5000022724271,150.50000423938036,422.5000022724271,150.50000423938036,430.5000022724271,150.50000423938036"></path><path id="kity_path_196" fill="none" stroke="rgb(115, 191, 118)" stroke-width="1" d="M327.5000022724271,162.50000423938036C335.5000022724271,162.50000423938036,335.5000022724271,150.50000423938036,343.5000022724271,150.50000423938036"></path><path id="kity_path_197" fill="none" stroke="rgb(115, 191, 118)" stroke-width="1" d="M414.5000022724271,174.50000423938036C422.5000022724271,174.50000423938036,422.5000022724271,174.50000423938036,430.5000022724271,174.50000423938036"></path><path id="kity_path_198" fill="none" stroke="rgb(115, 191, 118)" stroke-width="1" d="M327.5000022724271,162.50000423938036C335.5000022724271,162.50000423938036,335.5000022724271,174.50000423938036,343.5000022724271,174.50000423938036"></path><path id="kity_path_200" fill="none" stroke="rgb(115, 191, 118)" stroke-width="1" d="M327.5000022724271,220.50000423938036C335.5000022724271,220.50000423938036,335.5000022724271,220.50000423938036,343.5000022724271,220.50000423938036"></path></g><g id="minder_node1"><path id="node_outline1" fill="rgb(115, 191, 118)" stroke="rgb(115, 191, 118)" d="M25.500002272427082,122.50000423938036h126a5,5,0,0,1,5,5v18a5,5,0,0,1,-5,5h-126a5,5,0,0,1,-5,-5v-18a5,5,0,0,1,5,-5z" stroke-width="3"></path><g id="node_text1" fill="white"><text id="kity_text_22" text-rendering="inherit" font-size="16" dy=".8em" y="126.10000420361757" font-family="微软雅黑,Microsoft YaHei" x="32.50000227242708">公司登记的要求</text></g></g><g id="kity_g_12" display="none"><path id="kity_path_13" fill="none" stroke="none" d="M32.50000227242708,136.50000423938036h0v0h0z"></path></g><g id="kity_g_14" display="none"><path id="kity_path_15" fill="none" stroke="none" d="M32.50000227242708,136.50000423938036h0v0h0z"></path><path id="kity_path_16" fill="none" stroke="none"></path></g><g id="minder_node2" opacity="1"><g id="node_expander1" style="cursor: pointer;"><path id="kity_path_36" fill="white" stroke="gray" d="M240.50000528246164,31.500002674758434A6,6,0,1,1,228.50000528246164,31.500002674758434A6,6,0,1,1,240.50000528246164,31.500002674758434"></path><path id="kity_path_37" fill="none" stroke="gray" d="M230.00000528246164,31.500002674758434L239.00000528246164,31.500002674758434"></path></g><path id="node_outline2" fill="rgb(238, 246, 238)" stroke="rgb(115, 191, 118)" d="M244.500005684793,20.500002674758434h75a3,3,0,0,1,3,3v16a3,3,0,0,1,-3,3h-75a3,3,0,0,1,-3,-3v-16a3,3,0,0,1,3,-3z" stroke-width="1"></path><g id="node_text2" fill="black"><text id="kity_text_33" text-rendering="inherit" font-size="10" dy=".8em" y="25.000002652406693" font-family="微软雅黑,Microsoft YaHei" x="261.500005684793">公司登记</text></g></g><g id="minder_node3" opacity="1"><g id="node_expander2" style="cursor: pointer;"><path id="kity_path_44" fill="white" stroke="gray" d="M243.50000532716513,89.50000353902578A6,6,0,1,1,231.50000532716513,89.50000353902578A6,6,0,1,1,243.50000532716513,89.50000353902578"></path><path id="kity_path_45" fill="none" stroke="gray" d="M233.00000532716513,89.50000353902578L242.00000532716513,89.50000353902578"></path></g><path id="node_outline3" fill="rgb(238, 246, 238)" stroke="rgb(115, 191, 118)" d="M247.50000572949648,78.50000353902578h74a3,3,0,0,1,3,3v16a3,3,0,0,1,-3,3h-74a3,3,0,0,1,-3,-3v-16a3,3,0,0,1,3,-3z" stroke-width="1"></path><g id="node_text3" fill="black"><text id="kity_text_41" text-rendering="inherit" font-size="10" dy=".8em" y="83.00000351667404" font-family="微软雅黑,Microsoft YaHei" x="264.5000057294965">营业执照</text></g></g><g id="minder_node4" opacity="1"><g id="node_expander3" style="cursor: pointer;"><path id="kity_path_52" fill="white" stroke="gray" d="M245.50000535696745,162.50000462681055A6,6,0,1,1,233.50000535696745,162.50000462681055A6,6,0,1,1,245.50000535696745,162.50000462681055"></path><path id="kity_path_53" fill="none" stroke="gray" d="M235.00000535696745,162.50000462681055L244.00000535696745,162.50000462681055"></path></g><path id="node_outline4" fill="rgb(238, 246, 238)" stroke="rgb(115, 191, 118)" d="M249.5000057592988,151.50000462681055h75a3,3,0,0,1,3,3v16a3,3,0,0,1,-3,3h-75a3,3,0,0,1,-3,-3v-16a3,3,0,0,1,3,-3z" stroke-width="1"></path><g id="node_text4" fill="black"><text id="kity_text_49" text-rendering="inherit" font-size="10" dy=".8em" y="156.0000046044588" font-family="微软雅黑,Microsoft YaHei" x="266.5000057592988">公司名称</text></g></g><g id="minder_node5" opacity="1"><g id="node_expander4" style="cursor: pointer;"><path id="kity_path_60" fill="white" stroke="gray" d="M225.50000505894423,220.5000054910779A6,6,0,1,1,213.50000505894423,220.5000054910779A6,6,0,1,1,225.50000505894423,220.5000054910779"></path><path id="kity_path_61" fill="none" stroke="gray" d="M215.00000505894423,220.5000054910779L224.00000505894423,220.5000054910779"></path></g><path id="node_outline5" fill="rgb(238, 246, 238)" stroke="rgb(115, 191, 118)" d="M229.50000546127558,209.5000054910779h95a3,3,0,0,1,3,3v16a3,3,0,0,1,-3,3h-95a3,3,0,0,1,-3,-3v-16a3,3,0,0,1,3,-3z" stroke-width="1"></path><g id="node_text5" fill="black"><text id="kity_text_57" text-rendering="inherit" font-size="10" dy=".8em" y="214.00000546872616" font-family="微软雅黑,Microsoft YaHei" x="246.50000546127558">公司形式变更</text></g></g><g id="minder_node6"><g id="node_expander5" style="cursor: pointer;" display="none"><path id="kity_path_68" fill="white" stroke="gray" d="M338.50000674277544,31.500002674758434A6,6,0,1,1,326.50000674277544,31.500002674758434A6,6,0,1,1,338.50000674277544,31.500002674758434"></path><path id="kity_path_69" fill="none" stroke="gray"></path></g><path id="node_outline6" fill="none" stroke="none" d="M343.5000069066882,23.500002674758434h201a5,5,0,0,1,5,5v6a5,5,0,0,1,-5,5h-201a5,5,0,0,1,-5,-5v-6a5,5,0,0,1,5,-5z" stroke-width="3"></path><g id="node_text6" fill="black"><text id="kity_text_65" text-rendering="inherit" font-size="10" dy=".8em" y="25.000002652406693" font-weight="bold" font-family="微软雅黑,Microsoft YaHei" x="343.5000069066882">设立公司，应当向公司登记机关申请设立登记</text></g></g><g id="minder_node12"><g id="node_expander11" style="cursor: pointer;" display="none"><path id="kity_path_116" fill="white" stroke="gray" d="M457.5000085160136,65.50000318139791A6,6,0,1,1,445.5000085160136,65.50000318139791A6,6,0,1,1,457.5000085160136,65.50000318139791"></path><path id="kity_path_117" fill="none" stroke="gray"></path></g><path id="node_outline12" fill="none" stroke="none" d="M462.5000086799264,57.500003181397915h108a5,5,0,0,1,5,5v6a5,5,0,0,1,-5,5h-108a5,5,0,0,1,-5,-5v-6a5,5,0,0,1,5,-5z" stroke-width="3"></path><g id="node_text12" fill="black"><text id="kity_text_113" text-rendering="inherit" font-size="10" dy=".8em" y="59.00000315904617" font-weight="bold" font-family="微软雅黑,Microsoft YaHei" x="462.5000086799264">签发日期=公司成立日期</text></g></g><g id="minder_node9"><g id="node_expander8" style="cursor: pointer;"><path id="kity_path_92" fill="white" stroke="gray" d="M340.50000677257776,65.50000318139791A6,6,0,1,1,328.50000677257776,65.50000318139791A6,6,0,1,1,340.50000677257776,65.50000318139791"></path><path id="kity_path_93" fill="none" stroke="gray" d="M330.00000677257776,65.50000318139791L339.00000677257776,65.50000318139791"></path></g><path id="node_outline9" fill="#92d050" stroke="none" d="M345.50000693649054,57.500003181397915h91a5,5,0,0,1,5,5v6a5,5,0,0,1,-5,5h-91a5,5,0,0,1,-5,-5v-6a5,5,0,0,1,5,-5z" stroke-width="3"></path><g id="node_text9" fill="black"><text id="kity_text_89" text-rendering="inherit" font-size="10" dy=".8em" y="59.00000315904617" font-family="微软雅黑,Microsoft YaHei" x="345.50000693649054">由公司登记机关发放</text></g></g><g id="minder_node10"><g id="node_expander9" style="cursor: pointer;" display="none"><path id="kity_path_100" fill="white" stroke="gray" d="M340.50000677257776,89.50000353902578A6,6,0,1,1,328.50000677257776,89.50000353902578A6,6,0,1,1,340.50000677257776,89.50000353902578"></path><path id="kity_path_101" fill="none" stroke="gray"></path></g><path id="node_outline10" fill="none" stroke="none" d="M345.50000693649054,81.50000353902578h291a5,5,0,0,1,5,5v6a5,5,0,0,1,-5,5h-291a5,5,0,0,1,-5,-5v-6a5,5,0,0,1,5,-5z" stroke-width="3"></path><g id="node_text10" fill="black"><text id="kity_text_97" text-rendering="inherit" font-size="10" dy=".8em" y="83.00000351667404" font-weight="bold" font-family="微软雅黑,Microsoft YaHei" x="345.50000693649054">应载明：公司名称、住所、注册资本、经营范围、法人代表姓名等</text></g></g><g id="minder_node11"><g id="node_expander10" style="cursor: pointer;" display="none"><path id="kity_path_108" fill="white" stroke="gray" d="M340.50000677257776,113.50000389665365A6,6,0,1,1,328.50000677257776,113.50000389665365A6,6,0,1,1,340.50000677257776,113.50000389665365"></path><path id="kity_path_109" fill="none" stroke="gray"></path></g><path id="node_outline11" fill="none" stroke="none" d="M345.50000693649054,105.50000389665365h190a5,5,0,0,1,5,5v6a5,5,0,0,1,-5,5h-190a5,5,0,0,1,-5,-5v-6a5,5,0,0,1,5,-5z" stroke-width="3"></path><g id="node_text11" fill="black"><text id="kity_text_105" text-rendering="inherit" font-size="10" dy=".8em" y="107.00000387430191" font-weight="bold" font-family="微软雅黑,Microsoft YaHei" x="345.50000693649054">记载事项发生变更应做变更登记，换发执照</text></g></g><g id="minder_node17"><g id="node_expander16" style="cursor: pointer;" display="none"><path id="kity_path_156" fill="white" stroke="gray" d="M430.50000811368227,150.50000444799662A6,6,0,1,1,418.50000811368227,150.50000444799662A6,6,0,1,1,430.50000811368227,150.50000444799662"></path><path id="kity_path_157" fill="none" stroke="gray"></path></g><path id="node_outline17" fill="none" stroke="none" d="M435.50000827759504,142.50000444799662h71a5,5,0,0,1,5,5v6a5,5,0,0,1,-5,5h-71a5,5,0,0,1,-5,-5v-6a5,5,0,0,1,5,-5z" stroke-width="3"></path><g id="node_text17" fill="black"><text id="kity_text_153" text-rendering="inherit" font-size="10" dy=".8em" y="144.00000442564487" font-family="微软雅黑,Microsoft YaHei" x="435.50000827759504">名称必须有有限</text></g></g><g id="minder_node13"><g id="node_expander12" style="cursor: pointer;"><path id="kity_path_124" fill="white" stroke="gray" d="M343.50000681728125,150.50000444799662A6,6,0,1,1,331.50000681728125,150.50000444799662A6,6,0,1,1,343.50000681728125,150.50000444799662"></path><path id="kity_path_125" fill="none" stroke="gray" d="M333.00000681728125,150.50000444799662L342.00000681728125,150.50000444799662"></path></g><path id="node_outline13" fill="none" stroke="none" d="M348.500006981194,142.50000444799662h61a5,5,0,0,1,5,5v6a5,5,0,0,1,-5,5h-61a5,5,0,0,1,-5,-5v-6a5,5,0,0,1,5,-5z" stroke-width="3"></path><g id="node_text13" fill="black"><text id="kity_text_121" text-rendering="inherit" font-size="10" dy=".8em" y="144.00000442564487" font-family="微软雅黑,Microsoft YaHei" x="348.500006981194">有限责任公司</text></g></g><g id="minder_node18"><g id="node_expander17" style="cursor: pointer;" display="none"><path id="kity_path_164" fill="white" stroke="gray" d="M430.50000811368227,174.50000480562449A6,6,0,1,1,418.50000811368227,174.50000480562449A6,6,0,1,1,430.50000811368227,174.50000480562449"></path><path id="kity_path_165" fill="none" stroke="gray"></path></g><path id="node_outline18" fill="none" stroke="none" d="M435.50000827759504,166.50000480562449h71a5,5,0,0,1,5,5v6a5,5,0,0,1,-5,5h-71a5,5,0,0,1,-5,-5v-6a5,5,0,0,1,5,-5z" stroke-width="3"></path><g id="node_text18" fill="black"><text id="kity_text_161" text-rendering="inherit" font-size="10" dy=".8em" y="168.00000478327274" font-family="微软雅黑,Microsoft YaHei" x="435.50000827759504">名称必须有股份</text></g></g><g id="minder_node14"><g id="node_expander13" style="cursor: pointer;"><path id="kity_path_132" fill="white" stroke="gray" d="M343.50000681728125,174.50000480562449A6,6,0,1,1,331.50000681728125,174.50000480562449A6,6,0,1,1,343.50000681728125,174.50000480562449"></path><path id="kity_path_133" fill="none" stroke="gray" d="M333.00000681728125,174.50000480562449L342.00000681728125,174.50000480562449"></path></g><path id="node_outline14" fill="none" stroke="none" d="M348.500006981194,166.50000480562449h61a5,5,0,0,1,5,5v6a5,5,0,0,1,-5,5h-61a5,5,0,0,1,-5,-5v-6a5,5,0,0,1,5,-5z" stroke-width="3"></path><g id="node_text14" fill="black"><text id="kity_text_129" text-rendering="inherit" font-size="10" dy=".8em" y="168.00000478327274" font-family="微软雅黑,Microsoft YaHei" x="348.500006981194">股份有限公司</text></g></g><g id="minder_node16"><g id="node_expander15" style="cursor: pointer;" display="none"><path id="kity_path_148" fill="white" stroke="gray" d="M343.50000681728125,220.5000054910779A6,6,0,1,1,331.50000681728125,220.5000054910779A6,6,0,1,1,343.50000681728125,220.5000054910779"></path><path id="kity_path_149" fill="none" stroke="gray"></path></g><path id="node_outline16" fill="none" stroke="none" d="M348.500006981194,212.5000054910779h211a5,5,0,0,1,5,5v6a5,5,0,0,1,-5,5h-211a5,5,0,0,1,-5,-5v-6a5,5,0,0,1,5,-5z" stroke-width="3"></path><g id="node_text16" fill="black"><text id="kity_text_145" text-rendering="inherit" font-size="10" dy=".8em" y="214.00000546872616" font-family="微软雅黑,Microsoft YaHei" x="348.500006981194">有限责任公司和股份有限公司可以依法互相变更</text></g></g></g></g></svg>