<svg id="kity_svg_6" xmlns="http://www.w3.org/2000/svg" xmlns:xlink="http://www.w3.org/1999/xlink" version="1.1" width="686" height="281" style="background: rgb(251, 251, 251); visibility: visible;" viewBox="0 0 686 281"><defs id="kity_defs_7"><linearGradient id="kity_linearGradient_17" x1="0" y1="0" x2="0" y2="1"><stop id="kity_stop_18" offset="0" stop-color="rgb(255, 255, 255)"></stop><stop id="kity_stop_19" offset="1" stop-color="rgb(204, 204, 204)"></stop></linearGradient><marker id="kity_marker_2" orient="auto" refX="6" refY="0" viewBox="-7 -7 14 14" markerWidth="7" markerHeight="7" markerUnits="userSpaceOnUse"><path id="kity_path_3" fill="rgb(115, 191, 118)" stroke="none" d="M6,0A6,6,0,1,1,-6,0A6,6,0,1,1,6,0"></path></marker></defs><g id="kity_g_8"><g id="minder1" text-rendering="optimize-speed"><g id="minder_connect_group1"><path id="kity_path_31" fill="none" stroke="rgb(115, 191, 118)" stroke-width="1" d="M88.50000175088644,151.5000034198165A151,120,0,0,1,239.50000175088644,31.500003419816494"></path><path id="kity_path_39" fill="none" stroke="rgb(115, 191, 118)" stroke-width="1" d="M88.50000175088644,151.5000034198165A154,47,0,0,1,242.50000175088644,104.5000034198165"></path><path id="kity_path_47" fill="none" stroke="rgb(115, 191, 118)" stroke-width="1" d="M88.50000175088644,151.5000034198165A156,41,0,0,0,244.50000175088644,192.5000034198165"></path><path id="kity_path_55" fill="none" stroke="rgb(115, 191, 118)" stroke-width="1" d="M88.50000175088644,151.5000034198165A136,99,0,0,0,224.50000175088644,250.5000034198165"></path><path id="kity_path_190" fill="none" stroke="rgb(115, 191, 118)" stroke-width="1" d="M322.50000175088644,31.500003419816494C330.50000175088644,31.500003419816494,330.50000175088644,31.500003419816494,338.50000175088644,31.500003419816494"></path><path id="kity_path_191" fill="none" stroke="rgb(115, 191, 118)" stroke-width="1" d="M466.50000175088644,70.5000034198165C474.50000175088644,70.5000034198165,474.50000175088644,70.5000034198165,482.50000175088644,70.5000034198165"></path><path id="kity_path_192" fill="none" stroke="rgb(115, 191, 118)" stroke-width="1" d="M324.50000175088644,104.5000034198165C332.50000175088644,104.5000034198165,332.50000175088644,70.5000034198165,340.50000175088644,70.5000034198165"></path><path id="kity_path_193" fill="none" stroke="rgb(115, 191, 118)" stroke-width="1" d="M324.50000175088644,104.5000034198165C332.50000175088644,104.5000034198165,332.50000175088644,104.5000034198165,340.50000175088644,104.5000034198165"></path><path id="kity_path_194" fill="none" stroke="rgb(115, 191, 118)" stroke-width="1" d="M324.50000175088644,104.5000034198165C332.50000175088644,104.5000034198165,332.50000175088644,138.5000034198165,340.50000175088644,138.5000034198165"></path><path id="kity_path_195" fill="none" stroke="rgb(115, 191, 118)" stroke-width="1" d="M414.50000175088644,180.5000034198165C422.50000175088644,180.5000034198165,422.50000175088644,180.5000034198165,430.50000175088644,180.5000034198165"></path><path id="kity_path_196" fill="none" stroke="rgb(115, 191, 118)" stroke-width="1" d="M327.50000175088644,192.5000034198165C335.50000175088644,192.5000034198165,335.50000175088644,180.5000034198165,343.50000175088644,180.5000034198165"></path><path id="kity_path_197" fill="none" stroke="rgb(115, 191, 118)" stroke-width="1" d="M414.50000175088644,204.5000034198165C422.50000175088644,204.5000034198165,422.50000175088644,204.5000034198165,430.50000175088644,204.5000034198165"></path><path id="kity_path_198" fill="none" stroke="rgb(115, 191, 118)" stroke-width="1" d="M327.50000175088644,192.5000034198165C335.50000175088644,192.5000034198165,335.50000175088644,204.5000034198165,343.50000175088644,204.5000034198165"></path><path id="kity_path_200" fill="none" stroke="rgb(115, 191, 118)" stroke-width="1" d="M327.50000175088644,250.5000034198165C335.50000175088644,250.5000034198165,335.50000175088644,250.5000034198165,343.50000175088644,250.5000034198165"></path></g><g id="minder_node1"><path id="node_outline1" fill="rgb(115, 191, 118)" stroke="rgb(115, 191, 118)" d="M25.50000175088644,137.5000034198165h126a5,5,0,0,1,5,5v18a5,5,0,0,1,-5,5h-126a5,5,0,0,1,-5,-5v-18a5,5,0,0,1,5,-5z" stroke-width="3"></path><g id="node_text1" fill="white"><text id="kity_text_22" text-rendering="inherit" font-size="16" dy=".8em" y="141.1000033840537" font-family="微软雅黑,Microsoft YaHei" x="32.50000175088644">公司登记的要求</text></g></g><g id="kity_g_12" display="none"><path id="kity_path_13" fill="none" stroke="none" d="M32.50000175088644,151.5000034198165h0v0h0z"></path></g><g id="kity_g_14" display="none"><path id="kity_path_15" fill="none" stroke="none" d="M32.50000175088644,151.5000034198165h0v0h0z"></path><path id="kity_path_16" fill="none" stroke="none"></path></g><g id="minder_node2" opacity="1"><g id="node_expander1" style="cursor: pointer;"><path id="kity_path_36" fill="white" stroke="gray" d="M240.500004760921,31.50000163167715A6,6,0,1,1,228.500004760921,31.50000163167715A6,6,0,1,1,240.500004760921,31.50000163167715"></path><path id="kity_path_37" fill="none" stroke="gray" d="M230.000004760921,31.50000163167715L239.000004760921,31.50000163167715"></path></g><path id="node_outline2" fill="rgb(238, 246, 238)" stroke="rgb(115, 191, 118)" d="M244.50000516325235,20.50000163167715h75a3,3,0,0,1,3,3v16a3,3,0,0,1,-3,3h-75a3,3,0,0,1,-3,-3v-16a3,3,0,0,1,3,-3z" stroke-width="1"></path><g id="node_text2" fill="black"><text id="kity_text_33" text-rendering="inherit" font-size="10" dy=".8em" y="25.00000160932541" font-family="微软雅黑,Microsoft YaHei" x="261.50000516325235">公司登记</text></g></g><g id="minder_node3" opacity="1"><g id="node_expander2" style="cursor: pointer;"><path id="kity_path_44" fill="white" stroke="gray" d="M243.50000480562449,104.50000271946192A6,6,0,1,1,231.50000480562449,104.50000271946192A6,6,0,1,1,243.50000480562449,104.50000271946192"></path><path id="kity_path_45" fill="none" stroke="gray" d="M233.00000480562449,104.50000271946192L242.00000480562449,104.50000271946192"></path></g><path id="node_outline3" fill="rgb(238, 246, 238)" stroke="rgb(115, 191, 118)" d="M247.50000520795584,93.50000271946192h74a3,3,0,0,1,3,3v16a3,3,0,0,1,-3,3h-74a3,3,0,0,1,-3,-3v-16a3,3,0,0,1,3,-3z" stroke-width="1"></path><g id="node_text3" fill="black"><text id="kity_text_41" text-rendering="inherit" font-size="10" dy=".8em" y="98.00000269711018" font-family="微软雅黑,Microsoft YaHei" x="264.50000520795584">营业执照</text></g></g><g id="minder_node4" opacity="1"><g id="node_expander3" style="cursor: pointer;"><path id="kity_path_52" fill="white" stroke="gray" d="M245.5000048354268,192.5000040307641A6,6,0,1,1,233.5000048354268,192.5000040307641A6,6,0,1,1,245.5000048354268,192.5000040307641"></path><path id="kity_path_53" fill="none" stroke="gray" d="M235.0000048354268,192.5000040307641L244.0000048354268,192.5000040307641"></path></g><path id="node_outline4" fill="rgb(238, 246, 238)" stroke="rgb(115, 191, 118)" d="M249.50000523775816,181.5000040307641h75a3,3,0,0,1,3,3v16a3,3,0,0,1,-3,3h-75a3,3,0,0,1,-3,-3v-16a3,3,0,0,1,3,-3z" stroke-width="1"></path><g id="node_text4" fill="black"><text id="kity_text_49" text-rendering="inherit" font-size="10" dy=".8em" y="186.00000400841236" font-family="微软雅黑,Microsoft YaHei" x="266.50000523775816">公司名称</text></g></g><g id="minder_node5" opacity="1"><g id="node_expander4" style="cursor: pointer;"><path id="kity_path_60" fill="white" stroke="gray" d="M225.50000453740358,250.50000489503145A6,6,0,1,1,213.50000453740358,250.50000489503145A6,6,0,1,1,225.50000453740358,250.50000489503145"></path><path id="kity_path_61" fill="none" stroke="gray" d="M215.00000453740358,250.50000489503145L224.00000453740358,250.50000489503145"></path></g><path id="node_outline5" fill="rgb(238, 246, 238)" stroke="rgb(115, 191, 118)" d="M229.50000493973494,239.50000489503145h95a3,3,0,0,1,3,3v16a3,3,0,0,1,-3,3h-95a3,3,0,0,1,-3,-3v-16a3,3,0,0,1,3,-3z" stroke-width="1"></path><g id="node_text5" fill="black"><text id="kity_text_57" text-rendering="inherit" font-size="10" dy=".8em" y="244.0000048726797" font-family="微软雅黑,Microsoft YaHei" x="246.50000493973494">公司形式变更</text></g></g><g id="minder_node6"><g id="node_expander5" style="cursor: pointer;" display="none"><path id="kity_path_68" fill="white" stroke="gray" d="M338.5000062212348,31.50000163167715A6,6,0,1,1,326.5000062212348,31.50000163167715A6,6,0,1,1,338.5000062212348,31.50000163167715"></path><path id="kity_path_69" fill="none" stroke="gray"></path></g><path id="node_outline6" fill="none" stroke="none" d="M343.50000638514757,23.50000163167715h201a5,5,0,0,1,5,5v6a5,5,0,0,1,-5,5h-201a5,5,0,0,1,-5,-5v-6a5,5,0,0,1,5,-5z" stroke-width="3"></path><g id="node_text6" fill="black"><text id="kity_text_65" text-rendering="inherit" font-size="10" dy=".8em" y="25.00000160932541" font-weight="bold" font-family="微软雅黑,Microsoft YaHei" x="343.50000638514757">设立公司，应当向公司登记机关申请设立登记</text></g></g><g id="minder_node12"><g id="node_expander11" style="cursor: pointer;" display="none"><path id="kity_path_116" fill="white" stroke="gray" d="M482.500008367002,70.50000221282244A6,6,0,1,1,470.500008367002,70.50000221282244A6,6,0,1,1,482.500008367002,70.50000221282244"></path><path id="kity_path_117" fill="none" stroke="gray"></path></g><path id="node_outline12" fill="none" stroke="none" d="M487.5000085309148,62.50000221282244h108a5,5,0,0,1,5,5v6a5,5,0,0,1,-5,5h-108a5,5,0,0,1,-5,-5v-6a5,5,0,0,1,5,-5z" stroke-width="3"></path><g id="node_text12" fill="black"><text id="kity_text_113" text-rendering="inherit" font-size="10" dy=".8em" y="64.0000021904707" font-weight="bold" font-family="微软雅黑,Microsoft YaHei" x="487.5000085309148">签发日期=公司成立日期</text></g></g><g id="minder_node9"><g id="node_expander8" style="cursor: pointer;"><path id="kity_path_92" fill="white" stroke="gray" d="M340.5000062510371,70.50000221282244A6,6,0,1,1,328.5000062510371,70.50000221282244A6,6,0,1,1,340.5000062510371,70.50000221282244"></path><path id="kity_path_93" fill="none" stroke="gray" d="M330.0000062510371,70.50000221282244L339.0000062510371,70.50000221282244"></path></g><path id="node_outline9" fill="#92d050" stroke="none" d="M345.5000067874789,57.50000221282244h116a5,5,0,0,1,5,5v16a5,5,0,0,1,-5,5h-116a5,5,0,0,1,-5,-5v-16a5,5,0,0,1,5,-5z" stroke-width="3"></path><g id="node_text9" fill="black"><text id="kity_text_89" text-rendering="inherit" font-size="10" dy=".8em" y="64.0000021904707" font-family="微软雅黑,Microsoft YaHei" x="370.5000067874789">由公司登记机关发放</text></g><g id="node_priority1"><path id="kity_path_203" fill="#840023" stroke="none" d="M346.0000064224005,74.0000020712614c0,3.866,3.134,7,7,7h6c3.866,0,7,-3.134,7,-7V68.0000020712614H346.0000064224005V74.0000020712614z"></path><path id="kity_path_204" fill="#FF1200" stroke="none" d="M366.0000064224005,71.0000020712614c0,3.866,-3.134,7,-7,7H353.0000064224005c-3.866,0,-7,-3.134,-7,-7V68.0000020712614c0,-3.866,3.134,-7,7,-7h6c3.866,0,7,3.134,7,7V71.0000020712614z" opacity="0.8"></path><text id="kity_text_205" text-rendering="geometricPrecision" x="355.0000064149499" y="70.50000206381083" text-anchor="middle" font-style="italic" font-size="12" fill="white" dy="5">1</text></g></g><g id="minder_node10"><g id="node_expander9" style="cursor: pointer;" display="none"><path id="kity_path_100" fill="white" stroke="gray" d="M340.5000062510371,104.50000271946192A6,6,0,1,1,328.5000062510371,104.50000271946192A6,6,0,1,1,340.5000062510371,104.50000271946192"></path><path id="kity_path_101" fill="none" stroke="gray"></path></g><path id="node_outline10" fill="none" stroke="none" d="M345.5000067874789,91.50000271946192h316a5,5,0,0,1,5,5v16a5,5,0,0,1,-5,5h-316a5,5,0,0,1,-5,-5v-16a5,5,0,0,1,5,-5z" stroke-width="3"></path><g id="node_text10" fill="black"><text id="kity_text_97" text-rendering="inherit" font-size="10" dy=".8em" y="98.00000269711018" font-weight="bold" font-family="微软雅黑,Microsoft YaHei" x="370.5000067874789">应载明：公司名称、住所、注册资本、经营范围、法人代表姓名等</text></g><g id="node_priority2"><path id="kity_path_208" fill="#01467F" stroke="none" d="M346.0000064224005,108.00000257790089c0,3.866,3.134,7,7,7h6c3.866,0,7,-3.134,7,-7V102.00000257790089H346.0000064224005V108.00000257790089z"></path><path id="kity_path_209" fill="#0074FF" stroke="none" d="M366.0000064224005,105.00000257790089c0,3.866,-3.134,7,-7,7H353.0000064224005c-3.866,0,-7,-3.134,-7,-7V102.00000257790089c0,-3.866,3.134,-7,7,-7h6c3.866,0,7,3.134,7,7V105.00000257790089z" opacity="0.8"></path><text id="kity_text_210" text-rendering="geometricPrecision" x="355.0000064149499" y="104.5000025704503" text-anchor="middle" font-style="italic" font-size="12" fill="white" dy="5">2</text></g></g><g id="minder_node11"><g id="node_expander10" style="cursor: pointer;" display="none"><path id="kity_path_108" fill="white" stroke="gray" d="M340.5000062510371,138.5000032261014A6,6,0,1,1,328.5000062510371,138.5000032261014A6,6,0,1,1,340.5000062510371,138.5000032261014"></path><path id="kity_path_109" fill="none" stroke="gray"></path></g><path id="node_outline11" fill="none" stroke="none" d="M345.5000067874789,125.5000032261014h215a5,5,0,0,1,5,5v16a5,5,0,0,1,-5,5h-215a5,5,0,0,1,-5,-5v-16a5,5,0,0,1,5,-5z" stroke-width="3"></path><g id="node_text11" fill="black"><text id="kity_text_105" text-rendering="inherit" font-size="10" dy=".8em" y="132.00000320374966" font-weight="bold" font-family="微软雅黑,Microsoft YaHei" x="370.5000067874789">记载事项发生变更应做变更登记，换发执照</text></g><g id="node_priority3"><path id="kity_path_213" fill="#006300" stroke="none" d="M346.0000064224005,142.00000308454037c0,3.866,3.134,7,7,7h6c3.866,0,7,-3.134,7,-7V136.00000308454037H346.0000064224005V142.00000308454037z"></path><path id="kity_path_214" fill="#00AF00" stroke="none" d="M366.0000064224005,139.00000308454037c0,3.866,-3.134,7,-7,7H353.0000064224005c-3.866,0,-7,-3.134,-7,-7V136.00000308454037c0,-3.866,3.134,-7,7,-7h6c3.866,0,7,3.134,7,7V139.00000308454037z" opacity="0.8"></path><text id="kity_text_215" text-rendering="geometricPrecision" x="355.0000064149499" y="138.5000030770898" text-anchor="middle" font-style="italic" font-size="12" fill="white" dy="5">3</text></g></g><g id="minder_node17"><g id="node_expander16" style="cursor: pointer;" display="none"><path id="kity_path_156" fill="white" stroke="gray" d="M430.5000075921416,180.50000385195017A6,6,0,1,1,418.5000075921416,180.50000385195017A6,6,0,1,1,430.5000075921416,180.50000385195017"></path><path id="kity_path_157" fill="none" stroke="gray"></path></g><path id="node_outline17" fill="none" stroke="none" d="M435.5000077560544,172.50000385195017h71a5,5,0,0,1,5,5v6a5,5,0,0,1,-5,5h-71a5,5,0,0,1,-5,-5v-6a5,5,0,0,1,5,-5z" stroke-width="3"></path><g id="node_text17" fill="black"><text id="kity_text_153" text-rendering="inherit" font-size="10" dy=".8em" y="174.00000382959843" font-family="微软雅黑,Microsoft YaHei" font-weight="bold" x="435.5000077560544">名称必须有有限</text></g></g><g id="minder_node13"><g id="node_expander12" style="cursor: pointer;"><path id="kity_path_124" fill="white" stroke="gray" d="M343.5000062957406,180.50000385195017A6,6,0,1,1,331.5000062957406,180.50000385195017A6,6,0,1,1,343.5000062957406,180.50000385195017"></path><path id="kity_path_125" fill="none" stroke="gray" d="M333.0000062957406,180.50000385195017L342.0000062957406,180.50000385195017"></path></g><path id="node_outline13" fill="none" stroke="none" d="M348.5000064596534,172.50000385195017h61a5,5,0,0,1,5,5v6a5,5,0,0,1,-5,5h-61a5,5,0,0,1,-5,-5v-6a5,5,0,0,1,5,-5z" stroke-width="3"></path><g id="node_text13" fill="black"><text id="kity_text_121" text-rendering="inherit" font-size="10" dy=".8em" y="174.00000382959843" font-family="微软雅黑,Microsoft YaHei" x="348.5000064596534">有限责任公司</text></g></g><g id="minder_node18"><g id="node_expander17" style="cursor: pointer;" display="none"><path id="kity_path_164" fill="white" stroke="gray" d="M430.5000075921416,204.50000420957804A6,6,0,1,1,418.5000075921416,204.50000420957804A6,6,0,1,1,430.5000075921416,204.50000420957804"></path><path id="kity_path_165" fill="none" stroke="gray"></path></g><path id="node_outline18" fill="none" stroke="none" d="M435.5000077560544,196.50000420957804h71a5,5,0,0,1,5,5v6a5,5,0,0,1,-5,5h-71a5,5,0,0,1,-5,-5v-6a5,5,0,0,1,5,-5z" stroke-width="3"></path><g id="node_text18" fill="black"><text id="kity_text_161" text-rendering="inherit" font-size="10" dy=".8em" y="198.0000041872263" font-family="微软雅黑,Microsoft YaHei" font-weight="bold" x="435.5000077560544">名称必须有股份</text></g></g><g id="minder_node14"><g id="node_expander13" style="cursor: pointer;"><path id="kity_path_132" fill="white" stroke="gray" d="M343.5000062957406,204.50000420957804A6,6,0,1,1,331.5000062957406,204.50000420957804A6,6,0,1,1,343.5000062957406,204.50000420957804"></path><path id="kity_path_133" fill="none" stroke="gray" d="M333.0000062957406,204.50000420957804L342.0000062957406,204.50000420957804"></path></g><path id="node_outline14" fill="none" stroke="none" d="M348.5000064596534,196.50000420957804h61a5,5,0,0,1,5,5v6a5,5,0,0,1,-5,5h-61a5,5,0,0,1,-5,-5v-6a5,5,0,0,1,5,-5z" stroke-width="3"></path><g id="node_text14" fill="black"><text id="kity_text_129" text-rendering="inherit" font-size="10" dy=".8em" y="198.0000041872263" font-family="微软雅黑,Microsoft YaHei" x="348.5000064596534">股份有限公司</text></g></g><g id="minder_node16"><g id="node_expander15" style="cursor: pointer;" display="none"><path id="kity_path_148" fill="white" stroke="gray" d="M343.5000062957406,250.50000489503145A6,6,0,1,1,331.5000062957406,250.50000489503145A6,6,0,1,1,343.5000062957406,250.50000489503145"></path><path id="kity_path_149" fill="none" stroke="gray"></path></g><path id="node_outline16" fill="none" stroke="none" d="M348.5000064596534,242.50000489503145h211a5,5,0,0,1,5,5v6a5,5,0,0,1,-5,5h-211a5,5,0,0,1,-5,-5v-6a5,5,0,0,1,5,-5z" stroke-width="3"></path><g id="node_text16" fill="black"><text id="kity_text_145" text-rendering="inherit" font-size="10" dy=".8em" y="244.0000048726797" font-family="微软雅黑,Microsoft YaHei" x="348.5000064596534">有限责任公司和股份有限公司可以依法互相变更</text></g></g></g></g></svg>