<svg id="kity_svg_6" xmlns="http://www.w3.org/2000/svg" xmlns:xlink="http://www.w3.org/1999/xlink" version="1.1" width="721" height="981" style="background: rgb(251, 251, 251); visibility: visible;" viewBox="0 0 721 981"><defs id="kity_defs_7"><linearGradient id="kity_linearGradient_17" x1="0" y1="0" x2="0" y2="1"><stop id="kity_stop_18" offset="0" stop-color="rgb(255, 255, 255)"></stop><stop id="kity_stop_19" offset="1" stop-color="rgb(204, 204, 204)"></stop></linearGradient><marker id="kity_marker_2" orient="auto" refX="6" refY="0" viewBox="-7 -7 14 14" markerWidth="7" markerHeight="7" markerUnits="userSpaceOnUse"><path id="kity_path_3" fill="rgb(191, 115, 148)" stroke="none" d="M6,0A6,6,0,1,1,-6,0A6,6,0,1,1,6,0"></path></marker></defs><g id="kity_g_8"><g id="minder1" text-rendering="optimize-speed"><g id="minder_connect_group1"><path id="kity_path_217" fill="none" stroke="rgb(191, 115, 148)" stroke-width="1" d="M76.5000016912818,451.5000039860606A165,237,0,0,1,241.5000016912818,214.50000398606062"></path><path id="kity_path_225" fill="none" stroke="rgb(191, 115, 148)" stroke-width="1" d="M76.5000016912818,451.5000039860606A164,254,0,0,0,240.5000016912818,705.5000039860606"></path><path id="kity_path_303" fill="none" stroke="rgb(191, 115, 148)" stroke-width="1" d="M340.5000016912818,214.50000398606062C360.5000016912818,214.50000398606062,360.5000016912818,34.50000398606062,380.5000016912818,34.50000398606062"></path><path id="kity_path_304" fill="none" stroke="rgb(191, 115, 148)" stroke-width="1" d="M340.5000016912818,214.50000398606062C360.5000016912818,214.50000398606062,360.5000016912818,94.50000398606062,380.5000016912818,94.50000398606062"></path><path id="kity_path_305" fill="none" stroke="rgb(191, 115, 148)" stroke-width="1" d="M340.5000016912818,214.50000398606062C360.5000016912818,214.50000398606062,360.5000016912818,154.50000398606062,380.5000016912818,154.50000398606062"></path><path id="kity_path_306" fill="none" stroke="rgb(191, 115, 148)" stroke-width="1" d="M340.5000016912818,214.50000398606062C360.5000016912818,214.50000398606062,360.5000016912818,214.50000398606062,380.5000016912818,214.50000398606062"></path><path id="kity_path_307" fill="none" stroke="rgb(191, 115, 148)" stroke-width="1" d="M340.5000016912818,214.50000398606062C360.5000016912818,214.50000398606062,360.5000016912818,274.5000039860606,380.5000016912818,274.5000039860606"></path><path id="kity_path_308" fill="none" stroke="rgb(191, 115, 148)" stroke-width="1" d="M340.5000016912818,214.50000398606062C360.5000016912818,214.50000398606062,360.5000016912818,334.5000039860606,380.5000016912818,334.5000039860606"></path><path id="kity_path_309" fill="none" stroke="rgb(191, 115, 148)" stroke-width="1" d="M340.5000016912818,214.50000398606062C360.5000016912818,214.50000398606062,360.5000016912818,394.5000039860606,380.5000016912818,394.5000039860606"></path><path id="kity_path_347" fill="none" stroke="rgb(191, 115, 148)" stroke-width="1" d="M339.5000016912818,705.5000039860606C359.5000016912818,705.5000039860606,359.5000016912818,465.5000039860606,379.5000016912818,465.5000039860606"></path><path id="kity_path_348" fill="none" stroke="rgb(191, 115, 148)" stroke-width="1" d="M339.5000016912818,705.5000039860606C359.5000016912818,705.5000039860606,359.5000016912818,525.5000039860606,379.5000016912818,525.5000039860606"></path><path id="kity_path_349" fill="none" stroke="rgb(191, 115, 148)" stroke-width="1" d="M339.5000016912818,705.5000039860606C359.5000016912818,705.5000039860606,359.5000016912818,645.5000039860606,379.5000016912818,645.5000039860606"></path><path id="kity_path_352" fill="none" stroke="rgb(191, 115, 148)" stroke-width="1" d="M339.5000016912818,705.5000039860606C359.5000016912818,705.5000039860606,359.5000016912818,705.5000039860606,379.5000016912818,705.5000039860606"></path><path id="kity_path_360" fill="none" stroke="rgb(191, 115, 148)" stroke-width="1" d="M339.5000016912818,705.5000039860606C359.5000016912818,705.5000039860606,359.5000016912818,765.5000039860606,379.5000016912818,765.5000039860606"></path><path id="kity_path_368" fill="none" stroke="rgb(191, 115, 148)" stroke-width="1" d="M339.5000016912818,705.5000039860606C359.5000016912818,705.5000039860606,359.5000016912818,825.5000039860606,379.5000016912818,825.5000039860606"></path><path id="kity_path_376" fill="none" stroke="rgb(191, 115, 148)" stroke-width="1" d="M339.5000016912818,705.5000039860606C359.5000016912818,705.5000039860606,359.5000016912818,885.5000039860606,379.5000016912818,885.5000039860606"></path><path id="kity_path_384" fill="none" stroke="rgb(191, 115, 148)" stroke-width="1" d="M339.5000016912818,705.5000039860606C359.5000016912818,705.5000039860606,359.5000016912818,945.5000039860606,379.5000016912818,945.5000039860606"></path><path id="kity_path_391" fill="none" stroke="rgb(191, 115, 148)" stroke-width="1" d="M339.5000016912818,705.5000039860606C359.5000016912818,705.5000039860606,359.5000016912818,585.5000039860606,379.5000016912818,585.5000039860606"></path></g><g id="minder_node1"><path id="node_outline1" fill="rgb(191, 115, 148)" stroke="rgb(191, 115, 148)" d="M25.500001691281796,431.5000039860606h102a5,5,0,0,1,5,5v30a5,5,0,0,1,-5,5h-102a5,5,0,0,1,-5,-5v-30a5,5,0,0,1,5,-5z" stroke-width="3"></path><g id="node_text1" fill="white"><text id="kity_text_22" text-rendering="inherit" font-size="16" dy=".8em" y="441.10000395029783" x="44.500001691281796">公司章程</text></g></g><g id="kity_g_14" display="none"><path id="kity_path_15" fill="rgba(153, 0, 66, 0.5)" stroke="none" d="M241.5000016912818,530.5000039860606h59v4h-59z"></path><path id="kity_path_16" fill="none" stroke="rgb(128, 0, 55)" d="M241.5000016912818,530.5000039860606L300.5000016912818,530.5000039860606" stroke-width="1"></path></g><g id="minder_node22" opacity="1"><g id="node_expander21" style="cursor: pointer;"><path id="kity_path_222" fill="white" stroke="gray" d="M242.50000455230474,214.50000045448542A6,6,0,1,1,230.50000455230474,214.50000045448542A6,6,0,1,1,242.50000455230474,214.50000045448542"></path><path id="kity_path_223" fill="none" stroke="gray" d="M232.00000455230474,214.50000045448542L241.00000455230474,214.50000045448542"></path></g><path id="node_outline22" fill="rgb(246, 238, 242)" stroke="rgb(191, 115, 148)" d="M246.5000049546361,201.50000045448542h91a3,3,0,0,1,3,3v20a3,3,0,0,1,-3,3h-91a3,3,0,0,1,-3,-3v-20a3,3,0,0,1,3,-3z" stroke-width="1"></path><g id="node_text22" fill="black"><text id="kity_text_219" text-rendering="inherit" font-size="14" dy=".8em" y="205.40000042319298" x="263.5000049546361">有限责任</text></g></g><g id="minder_node23" opacity="1"><g id="node_expander22" style="cursor: pointer;"><path id="kity_path_230" fill="white" stroke="gray" d="M241.50000453740358,705.5000077709556A6,6,0,1,1,229.50000453740358,705.5000077709556A6,6,0,1,1,241.50000453740358,705.5000077709556"></path><path id="kity_path_231" fill="none" stroke="gray" d="M231.00000453740358,705.5000077709556L240.00000453740358,705.5000077709556"></path></g><path id="node_outline23" fill="rgb(246, 238, 242)" stroke="rgb(191, 115, 148)" d="M245.50000493973494,692.5000077709556h91a3,3,0,0,1,3,3v20a3,3,0,0,1,-3,3h-91a3,3,0,0,1,-3,-3v-20a3,3,0,0,1,3,-3z" stroke-width="1"></path><g id="node_text23" fill="black"><text id="kity_text_227" text-rendering="inherit" font-size="14" dy=".8em" y="696.4000077396631" x="262.50000493973494">股份有限</text></g></g><g id="minder_node24"><g id="node_expander23" style="cursor: pointer;" display="none"><path id="kity_path_238" fill="white" stroke="gray" d="M380.500006608665,34.4999977722764A6,6,0,1,1,368.500006608665,34.4999977722764A6,6,0,1,1,380.500006608665,34.4999977722764"></path><path id="kity_path_239" fill="none" stroke="gray"></path></g><path id="node_outline24" fill="none" stroke="none" d="M385.5000072196126,19.4999977722764h84a5,5,0,0,1,5,5v20a5,5,0,0,1,-5,5h-84a5,5,0,0,1,-5,-5v-20a5,5,0,0,1,5,-5z" stroke-width="3"></path><g id="node_text24" fill="black"><text id="kity_text_235" text-rendering="inherit" font-size="12" dy=".8em" y="26.69999774545431" x="415.5000072196126">名称住所</text></g><g id="node_priority4"><path id="kity_path_394" fill="#840023" stroke="none" d="M391.00000685453415,37.99999763071537c0,3.866,3.134,7,7,7h6c3.866,0,7,-3.134,7,-7V31.99999763071537H391.00000685453415V37.99999763071537z"></path><path id="kity_path_395" fill="#FF1200" stroke="none" d="M411.00000685453415,34.99999763071537c0,3.866,-3.134,7,-7,7H398.00000685453415c-3.866,0,-7,-3.134,-7,-7V31.99999763071537c0,-3.866,3.134,-7,7,-7h6c3.866,0,7,3.134,7,7V34.99999763071537z" opacity="0.8"></path><text id="kity_text_396" text-rendering="geometricPrecision" x="400.00000684708357" y="34.49999762326479" text-anchor="middle" font-style="italic" font-size="12" fill="white" dy="5">1</text></g></g><g id="minder_node26"><g id="node_expander25" style="cursor: pointer;" display="none"><path id="kity_path_254" fill="white" stroke="gray" d="M380.500006608665,94.49999866634607A6,6,0,1,1,368.500006608665,94.49999866634607A6,6,0,1,1,380.500006608665,94.49999866634607"></path><path id="kity_path_255" fill="none" stroke="gray"></path></g><path id="node_outline26" fill="none" stroke="none" d="M385.5000072196126,79.49999866634607h84a5,5,0,0,1,5,5v20a5,5,0,0,1,-5,5h-84a5,5,0,0,1,-5,-5v-20a5,5,0,0,1,5,-5z" stroke-width="3"></path><g id="node_text26" fill="black"><text id="kity_text_251" text-rendering="inherit" font-size="12" dy=".8em" y="86.69999863952398" x="415.5000072196126">经营范围</text></g><g id="node_priority5"><path id="kity_path_399" fill="#01467F" stroke="none" d="M391.00000685453415,97.99999852478504c0,3.866,3.134,7,7,7h6c3.866,0,7,-3.134,7,-7V91.99999852478504H391.00000685453415V97.99999852478504z"></path><path id="kity_path_400" fill="#0074FF" stroke="none" d="M411.00000685453415,94.99999852478504c0,3.866,-3.134,7,-7,7H398.00000685453415c-3.866,0,-7,-3.134,-7,-7V91.99999852478504c0,-3.866,3.134,-7,7,-7h6c3.866,0,7,3.134,7,7V94.99999852478504z" opacity="0.8"></path><text id="kity_text_401" text-rendering="geometricPrecision" x="400.00000684708357" y="94.49999851733446" text-anchor="middle" font-style="italic" font-size="12" fill="white" dy="5">2</text></g></g><g id="minder_node27"><g id="node_expander26" style="cursor: pointer;" display="none"><path id="kity_path_262" fill="white" stroke="gray" d="M380.500006608665,154.49999956041574A6,6,0,1,1,368.500006608665,154.49999956041574A6,6,0,1,1,380.500006608665,154.49999956041574"></path><path id="kity_path_263" fill="none" stroke="gray"></path></g><path id="node_outline27" fill="none" stroke="none" d="M385.5000072196126,139.49999956041574h84a5,5,0,0,1,5,5v20a5,5,0,0,1,-5,5h-84a5,5,0,0,1,-5,-5v-20a5,5,0,0,1,5,-5z" stroke-width="3"></path><g id="node_text27" fill="black"><text id="kity_text_259" text-rendering="inherit" font-size="12" dy=".8em" y="146.69999953359365" x="415.5000072196126">注册资本</text></g><g id="node_priority6"><path id="kity_path_404" fill="#006300" stroke="none" d="M391.00000685453415,157.9999994188547c0,3.866,3.134,7,7,7h6c3.866,0,7,-3.134,7,-7V151.9999994188547H391.00000685453415V157.9999994188547z"></path><path id="kity_path_405" fill="#00AF00" stroke="none" d="M411.00000685453415,154.9999994188547c0,3.866,-3.134,7,-7,7H398.00000685453415c-3.866,0,-7,-3.134,-7,-7V151.9999994188547c0,-3.866,3.134,-7,7,-7h6c3.866,0,7,3.134,7,7V154.9999994188547z" opacity="0.8"></path><text id="kity_text_406" text-rendering="geometricPrecision" x="400.00000684708357" y="154.49999941140413" text-anchor="middle" font-style="italic" font-size="12" fill="white" dy="5">3</text></g></g><g id="minder_node28"><g id="node_expander27" style="cursor: pointer;" display="none"><path id="kity_path_270" fill="white" stroke="gray" d="M380.500006608665,214.50000045448542A6,6,0,1,1,368.500006608665,214.50000045448542A6,6,0,1,1,380.500006608665,214.50000045448542"></path><path id="kity_path_271" fill="none" stroke="gray"></path></g><path id="node_outline28" fill="none" stroke="none" d="M385.5000072196126,199.50000045448542h252a5,5,0,0,1,5,5v20a5,5,0,0,1,-5,5h-252a5,5,0,0,1,-5,-5v-20a5,5,0,0,1,5,-5z" stroke-width="3"></path><g id="node_text28" fill="black"><text id="kity_text_267" text-rendering="inherit" font-size="12" dy=".8em" y="206.70000042766333" font-weight="bold" x="415.5000072196126">股东姓名、出资方式、出资额、出资时间</text></g><g id="node_priority7"><path id="kity_path_409" fill="#B25000" stroke="none" d="M391.00000685453415,218.00000031292439c0,3.866,3.134,7,7,7h6c3.866,0,7,-3.134,7,-7V212.00000031292439H391.00000685453415V218.00000031292439z"></path><path id="kity_path_410" fill="#FF962E" stroke="none" d="M411.00000685453415,215.00000031292439c0,3.866,-3.134,7,-7,7H398.00000685453415c-3.866,0,-7,-3.134,-7,-7V212.00000031292439c0,-3.866,3.134,-7,7,-7h6c3.866,0,7,3.134,7,7V215.00000031292439z" opacity="0.8"></path><text id="kity_text_411" text-rendering="geometricPrecision" x="400.00000684708357" y="214.5000003054738" text-anchor="middle" font-style="italic" font-size="12" fill="white" dy="5">4</text></g></g><g id="minder_node29"><g id="node_expander28" style="cursor: pointer;" display="none"><path id="kity_path_278" fill="white" stroke="gray" d="M380.500006608665,274.5000013485551A6,6,0,1,1,368.500006608665,274.5000013485551A6,6,0,1,1,380.500006608665,274.5000013485551"></path><path id="kity_path_279" fill="none" stroke="gray"></path></g><path id="node_outline29" fill="none" stroke="none" d="M385.5000072196126,259.5000013485551h155a5,5,0,0,1,5,5v20a5,5,0,0,1,-5,5h-155a5,5,0,0,1,-5,-5v-20a5,5,0,0,1,5,-5z" stroke-width="3"></path><g id="node_text29" fill="black"><text id="kity_text_275" text-rendering="inherit" font-size="12" dy=".8em" y="266.700001321733" font-weight="bold" x="415.5000072196126">公司机构权职议事规则</text></g><g id="node_priority8"><path id="kity_path_414" fill="#4720C4" stroke="none" d="M391.00000685453415,278.00000120699406c0,3.866,3.134,7,7,7h6c3.866,0,7,-3.134,7,-7V272.00000120699406H391.00000685453415V278.00000120699406z"></path><path id="kity_path_415" fill="#A464FF" stroke="none" d="M411.00000685453415,275.00000120699406c0,3.866,-3.134,7,-7,7H398.00000685453415c-3.866,0,-7,-3.134,-7,-7V272.00000120699406c0,-3.866,3.134,-7,7,-7h6c3.866,0,7,3.134,7,7V275.00000120699406z" opacity="0.8"></path><text id="kity_text_416" text-rendering="geometricPrecision" x="400.00000684708357" y="274.5000011995435" text-anchor="middle" font-style="italic" font-size="12" fill="white" dy="5">5</text></g></g><g id="minder_node30"><g id="node_expander29" style="cursor: pointer;" display="none"><path id="kity_path_286" fill="white" stroke="gray" d="M380.500006608665,334.50000224262476A6,6,0,1,1,368.500006608665,334.50000224262476A6,6,0,1,1,380.500006608665,334.50000224262476"></path><path id="kity_path_287" fill="none" stroke="gray"></path></g><path id="node_outline30" fill="none" stroke="none" d="M385.5000072196126,319.50000224262476h96a5,5,0,0,1,5,5v20a5,5,0,0,1,-5,5h-96a5,5,0,0,1,-5,-5v-20a5,5,0,0,1,5,-5z" stroke-width="3"></path><g id="node_text30" fill="black"><text id="kity_text_283" text-rendering="inherit" font-size="12" dy=".8em" y="326.70000221580267" x="415.5000072196126">法定代表人</text></g><g id="node_priority9"><path id="kity_path_419" fill="#515151" stroke="none" d="M391.00000685453415,338.0000021010637c0,3.866,3.134,7,7,7h6c3.866,0,7,-3.134,7,-7V332.0000021010637H391.00000685453415V338.0000021010637z"></path><path id="kity_path_420" fill="#A3A3A3" stroke="none" d="M411.00000685453415,335.0000021010637c0,3.866,-3.134,7,-7,7H398.00000685453415c-3.866,0,-7,-3.134,-7,-7V332.0000021010637c0,-3.866,3.134,-7,7,-7h6c3.866,0,7,3.134,7,7V335.0000021010637z" opacity="0.8"></path><text id="kity_text_421" text-rendering="geometricPrecision" x="400.00000684708357" y="334.50000209361315" text-anchor="middle" font-style="italic" font-size="12" fill="white" dy="5">6</text></g></g><g id="minder_node31"><g id="node_expander30" style="cursor: pointer;" display="none"><path id="kity_path_294" fill="white" stroke="gray" d="M380.500006608665,394.50000313669443A6,6,0,1,1,368.500006608665,394.50000313669443A6,6,0,1,1,380.500006608665,394.50000313669443"></path><path id="kity_path_295" fill="none" stroke="gray"></path></g><path id="node_outline31" fill="none" stroke="none" d="M385.5000072196126,379.50000313669443h192a5,5,0,0,1,5,5v20a5,5,0,0,1,-5,5h-192a5,5,0,0,1,-5,-5v-20a5,5,0,0,1,5,-5z" stroke-width="3"></path><g id="node_text31" fill="black"><text id="kity_text_291" text-rendering="inherit" font-size="12" dy=".8em" y="386.70000310987234" x="415.5000072196126">股东会议认为需要的其他事项</text></g><g id="node_priority10"><path id="kity_path_424" fill="#515151" stroke="none" d="M391.00000685453415,398.0000029951334c0,3.866,3.134,7,7,7h6c3.866,0,7,-3.134,7,-7V392.0000029951334H391.00000685453415V398.0000029951334z"></path><path id="kity_path_425" fill="#A3A3A3" stroke="none" d="M411.00000685453415,395.0000029951334c0,3.866,-3.134,7,-7,7H398.00000685453415c-3.866,0,-7,-3.134,-7,-7V392.0000029951334c0,-3.866,3.134,-7,7,-7h6c3.866,0,7,3.134,7,7V395.0000029951334z" opacity="0.8"></path><text id="kity_text_426" text-rendering="geometricPrecision" x="400.00000684708357" y="394.5000029876828" text-anchor="middle" font-style="italic" font-size="12" fill="white" dy="5">7</text></g></g><g id="minder_node25"><g id="node_expander24" style="cursor: pointer;" display="none"><path id="kity_path_246" fill="white" stroke="gray" d="M379.5000065937638,465.5000041946769A6,6,0,1,1,367.5000065937638,465.5000041946769A6,6,0,1,1,379.5000065937638,465.5000041946769"></path><path id="kity_path_247" fill="none" stroke="gray"></path></g><path id="node_outline25" fill="none" stroke="none" d="M384.50000720471144,450.5000041946769h84a5,5,0,0,1,5,5v20a5,5,0,0,1,-5,5h-84a5,5,0,0,1,-5,-5v-20a5,5,0,0,1,5,-5z" stroke-width="3"></path><g id="node_text25" fill="black"><text id="kity_text_243" text-rendering="inherit" font-size="12" dy=".8em" y="457.7000041678548" x="414.50000720471144">名称住所</text></g><g id="node_priority11"><path id="kity_path_429" fill="#840023" stroke="none" d="M390.000006839633,469.00000405311584c0,3.866,3.134,7,7,7h6c3.866,0,7,-3.134,7,-7V463.00000405311584H390.000006839633V469.00000405311584z"></path><path id="kity_path_430" fill="#FF1200" stroke="none" d="M410.000006839633,466.00000405311584c0,3.866,-3.134,7,-7,7H397.000006839633c-3.866,0,-7,-3.134,-7,-7V463.00000405311584c0,-3.866,3.134,-7,7,-7h6c3.866,0,7,3.134,7,7V466.00000405311584z" opacity="0.8"></path><text id="kity_text_431" text-rendering="geometricPrecision" x="399.0000068321824" y="465.50000404566526" text-anchor="middle" font-style="italic" font-size="12" fill="white" dy="5">1</text></g></g><g id="minder_node32"><g id="node_expander31" style="cursor: pointer;" display="none"><path id="kity_path_317" fill="white" stroke="gray" d="M379.5000065937638,525.5000050887465A6,6,0,1,1,367.5000065937638,525.5000050887465A6,6,0,1,1,379.5000065937638,525.5000050887465"></path><path id="kity_path_318" fill="none" stroke="gray"></path></g><path id="node_outline32" fill="none" stroke="none" d="M384.50000720471144,510.50000508874655h84a5,5,0,0,1,5,5v20a5,5,0,0,1,-5,5h-84a5,5,0,0,1,-5,-5v-20a5,5,0,0,1,5,-5z" stroke-width="3"></path><g id="node_text32" fill="black"><text id="kity_text_314" text-rendering="inherit" font-size="12" dy=".8em" y="517.7000050619245" x="414.50000720471144">经营范围</text></g><g id="node_priority12"><path id="kity_path_434" fill="#01467F" stroke="none" d="M390.000006839633,529.0000049471855c0,3.866,3.134,7,7,7h6c3.866,0,7,-3.134,7,-7V523.0000049471855H390.000006839633V529.0000049471855z"></path><path id="kity_path_435" fill="#0074FF" stroke="none" d="M410.000006839633,526.0000049471855c0,3.866,-3.134,7,-7,7H397.000006839633c-3.866,0,-7,-3.134,-7,-7V523.0000049471855c0,-3.866,3.134,-7,7,-7h6c3.866,0,7,3.134,7,7V526.0000049471855z" opacity="0.8"></path><text id="kity_text_436" text-rendering="geometricPrecision" x="399.0000068321824" y="525.5000049397349" text-anchor="middle" font-style="italic" font-size="12" fill="white" dy="5">2</text></g></g><g id="minder_node33" opacity="1"><g id="node_expander32" style="cursor: pointer;" display="none"><path id="kity_path_325" fill="white" stroke="gray" d="M379.5000065937638,645.5000068768859A6,6,0,1,1,367.5000065937638,645.5000068768859A6,6,0,1,1,379.5000065937638,645.5000068768859"></path><path id="kity_path_326" fill="none" stroke="gray" d="M369.0000065937638,645.5000068768859L378.0000065937638,645.5000068768859"></path></g><path id="node_outline33" fill="#e5b8b7" stroke="none" d="M384.50000720471144,630.5000068768859h204a5,5,0,0,1,5,5v20a5,5,0,0,1,-5,5h-204a5,5,0,0,1,-5,-5v-20a5,5,0,0,1,5,-5z" stroke-width="3"></path><g id="node_text33" fill="black"><text id="kity_text_322" text-rendering="inherit" font-size="12" dy=".8em" y="637.7000068500638" x="414.50000720471144">设立方式、股份总额、每股份额</text></g><g id="node_priority14"><path id="kity_path_444" fill="#B25000" stroke="none" d="M390.000006839633,649.0000067353249c0,3.866,3.134,7,7,7h6c3.866,0,7,-3.134,7,-7V643.0000067353249H390.000006839633V649.0000067353249z"></path><path id="kity_path_445" fill="#FF962E" stroke="none" d="M410.000006839633,646.0000067353249c0,3.866,-3.134,7,-7,7H397.000006839633c-3.866,0,-7,-3.134,-7,-7V643.0000067353249c0,-3.866,3.134,-7,7,-7h6c3.866,0,7,3.134,7,7V646.0000067353249z" opacity="0.8"></path><text id="kity_text_446" text-rendering="geometricPrecision" x="399.0000068321824" y="645.5000067278743" text-anchor="middle" font-style="italic" font-size="12" fill="white" dy="5">4</text></g></g><g id="minder_node35"><g id="node_expander34" style="cursor: pointer;" display="none"><path id="kity_path_357" fill="white" stroke="gray" d="M379.5000065937638,705.5000077709556A6,6,0,1,1,367.5000065937638,705.5000077709556A6,6,0,1,1,379.5000065937638,705.5000077709556"></path><path id="kity_path_358" fill="none" stroke="gray"></path></g><path id="node_outline35" fill="none" stroke="none" d="M384.50000720471144,690.5000077709556h312a5,5,0,0,1,5,5v20a5,5,0,0,1,-5,5h-312a5,5,0,0,1,-5,-5v-20a5,5,0,0,1,5,-5z" stroke-width="3"></path><g id="node_text35" fill="black"><text id="kity_text_354" text-rendering="inherit" font-size="12" dy=".8em" y="697.7000077441335" font-weight="bold" x="414.50000720471144">发起人的姓名、认购的股份数、出资方式、出资时间</text></g><g id="node_priority15"><path id="kity_path_449" fill="#4720C4" stroke="none" d="M390.000006839633,709.0000076293945c0,3.866,3.134,7,7,7h6c3.866,0,7,-3.134,7,-7V703.0000076293945H390.000006839633V709.0000076293945z"></path><path id="kity_path_450" fill="#A464FF" stroke="none" d="M410.000006839633,706.0000076293945c0,3.866,-3.134,7,-7,7H397.000006839633c-3.866,0,-7,-3.134,-7,-7V703.0000076293945c0,-3.866,3.134,-7,7,-7h6c3.866,0,7,3.134,7,7V706.0000076293945z" opacity="0.8"></path><text id="kity_text_451" text-rendering="geometricPrecision" x="399.0000068321824" y="705.500007621944" text-anchor="middle" font-style="italic" font-size="12" fill="white" dy="5">5</text></g></g><g id="minder_node36"><g id="node_expander35" style="cursor: pointer;" display="none"><path id="kity_path_365" fill="white" stroke="gray" d="M379.5000065937638,765.5000086650252A6,6,0,1,1,367.5000065937638,765.5000086650252A6,6,0,1,1,379.5000065937638,765.5000086650252"></path><path id="kity_path_366" fill="none" stroke="gray"></path></g><path id="node_outline36" fill="none" stroke="none" d="M384.50000720471144,750.5000086650252h227a5,5,0,0,1,5,5v20a5,5,0,0,1,-5,5h-227a5,5,0,0,1,-5,-5v-20a5,5,0,0,1,5,-5z" stroke-width="3"></path><g id="node_text36" fill="black"><text id="kity_text_362" text-rendering="inherit" font-size="12" dy=".8em" y="757.7000086382031" font-weight="bold" x="414.50000720471144">董事会、监事会的组成职权议事规则</text></g><g id="node_priority16"><path id="kity_path_454" fill="#515151" stroke="none" d="M390.000006839633,769.0000085234642c0,3.866,3.134,7,7,7h6c3.866,0,7,-3.134,7,-7V763.0000085234642H390.000006839633V769.0000085234642z"></path><path id="kity_path_455" fill="#A3A3A3" stroke="none" d="M410.000006839633,766.0000085234642c0,3.866,-3.134,7,-7,7H397.000006839633c-3.866,0,-7,-3.134,-7,-7V763.0000085234642c0,-3.866,3.134,-7,7,-7h6c3.866,0,7,3.134,7,7V766.0000085234642z" opacity="0.8"></path><text id="kity_text_456" text-rendering="geometricPrecision" x="399.0000068321824" y="765.5000085160136" text-anchor="middle" font-style="italic" font-size="12" fill="white" dy="5">6</text></g></g><g id="minder_node37"><g id="node_expander36" style="cursor: pointer;" display="none"><path id="kity_path_373" fill="white" stroke="gray" d="M379.5000065937638,825.5000095590949A6,6,0,1,1,367.5000065937638,825.5000095590949A6,6,0,1,1,379.5000065937638,825.5000095590949"></path><path id="kity_path_374" fill="none" stroke="gray"></path></g><path id="node_outline37" fill="none" stroke="none" d="M384.50000720471144,810.5000095590949h96a5,5,0,0,1,5,5v20a5,5,0,0,1,-5,5h-96a5,5,0,0,1,-5,-5v-20a5,5,0,0,1,5,-5z" stroke-width="3"></path><g id="node_text37" fill="black"><text id="kity_text_370" text-rendering="inherit" font-size="12" dy=".8em" y="817.7000095322728" x="414.50000720471144">法定代表人</text></g><g id="node_priority17"><path id="kity_path_459" fill="#515151" stroke="none" d="M390.000006839633,829.0000094175339c0,3.866,3.134,7,7,7h6c3.866,0,7,-3.134,7,-7V823.0000094175339H390.000006839633V829.0000094175339z"></path><path id="kity_path_460" fill="#A3A3A3" stroke="none" d="M410.000006839633,826.0000094175339c0,3.866,-3.134,7,-7,7H397.000006839633c-3.866,0,-7,-3.134,-7,-7V823.0000094175339c0,-3.866,3.134,-7,7,-7h6c3.866,0,7,3.134,7,7V826.0000094175339z" opacity="0.8"></path><text id="kity_text_461" text-rendering="geometricPrecision" x="399.0000068321824" y="825.5000094100833" text-anchor="middle" font-style="italic" font-size="12" fill="white" dy="5">7</text></g></g><g id="minder_node38"><g id="node_expander37" style="cursor: pointer;" display="none"><path id="kity_path_381" fill="white" stroke="gray" d="M379.5000065937638,885.5000104531646A6,6,0,1,1,367.5000065937638,885.5000104531646A6,6,0,1,1,379.5000065937638,885.5000104531646"></path><path id="kity_path_382" fill="none" stroke="gray"></path></g><path id="node_outline38" fill="#e5b8b7" stroke="none" d="M384.50000720471144,870.5000104531646h299a5,5,0,0,1,5,5v20a5,5,0,0,1,-5,5h-299a5,5,0,0,1,-5,-5v-20a5,5,0,0,1,5,-5z" stroke-width="3"></path><g id="node_text38" fill="black"><text id="kity_text_378" text-rendering="inherit" font-size="12" dy=".8em" y="877.7000104263425" x="414.50000720471144">公司林润分配办法、解算清算办法、通知公告办法</text></g><g id="node_priority18"><path id="kity_path_464" fill="#515151" stroke="none" d="M390.000006839633,889.0000103116035c0,3.866,3.134,7,7,7h6c3.866,0,7,-3.134,7,-7V883.0000103116035H390.000006839633V889.0000103116035z"></path><path id="kity_path_465" fill="#A3A3A3" stroke="none" d="M410.000006839633,886.0000103116035c0,3.866,-3.134,7,-7,7H397.000006839633c-3.866,0,-7,-3.134,-7,-7V883.0000103116035c0,-3.866,3.134,-7,7,-7h6c3.866,0,7,3.134,7,7V886.0000103116035z" opacity="0.8"></path><text id="kity_text_466" text-rendering="geometricPrecision" x="399.0000068321824" y="885.500010304153" text-anchor="middle" font-style="italic" font-size="12" fill="white" dy="5">8</text></g></g><g id="minder_node39"><g id="node_expander38" style="cursor: pointer;" display="none"><path id="kity_path_389" fill="white" stroke="gray" d="M379.5000065937638,945.5000113472342A6,6,0,1,1,367.5000065937638,945.5000113472342A6,6,0,1,1,379.5000065937638,945.5000113472342"></path><path id="kity_path_390" fill="none" stroke="gray"></path></g><path id="node_outline39" fill="none" stroke="none" d="M384.50000720471144,930.5000113472342h192a5,5,0,0,1,5,5v20a5,5,0,0,1,-5,5h-192a5,5,0,0,1,-5,-5v-20a5,5,0,0,1,5,-5z" stroke-width="3"></path><g id="node_text39" fill="black"><text id="kity_text_386" text-rendering="inherit" font-size="12" dy=".8em" y="937.7000113204122" x="414.50000720471144">股东会议认为需要的其他事项</text></g><g id="node_priority19"><path id="kity_path_469" fill="#515151" stroke="none" d="M390.000006839633,949.0000112056732c0,3.866,3.134,7,7,7h6c3.866,0,7,-3.134,7,-7V943.0000112056732H390.000006839633V949.0000112056732z"></path><path id="kity_path_470" fill="#A3A3A3" stroke="none" d="M410.000006839633,946.0000112056732c0,3.866,-3.134,7,-7,7H397.000006839633c-3.866,0,-7,-3.134,-7,-7V943.0000112056732c0,-3.866,3.134,-7,7,-7h6c3.866,0,7,3.134,7,7V946.0000112056732z" opacity="0.8"></path><text id="kity_text_471" text-rendering="geometricPrecision" x="399.0000068321824" y="945.5000111982226" text-anchor="middle" font-style="italic" font-size="12" fill="white" dy="5">9</text></g></g><g id="minder_node34" opacity="1"><g id="node_expander33" style="cursor: pointer;" display="none"><path id="kity_path_333" fill="white" stroke="gray" d="M379.5000065937638,585.5000059828162A6,6,0,1,1,367.5000065937638,585.5000059828162A6,6,0,1,1,379.5000065937638,585.5000059828162"></path><path id="kity_path_334" fill="none" stroke="gray"></path></g><path id="node_outline34" fill="none" stroke="none" d="M384.50000720471144,570.5000059828162h84a5,5,0,0,1,5,5v20a5,5,0,0,1,-5,5h-84a5,5,0,0,1,-5,-5v-20a5,5,0,0,1,5,-5z" stroke-width="3"></path><g id="node_text34" fill="black"><text id="kity_text_330" text-rendering="inherit" font-size="12" dy=".8em" y="577.7000059559941" x="414.50000720471144">注册资本</text></g><g id="node_priority13"><path id="kity_path_439" fill="#006300" stroke="none" d="M390.000006839633,589.0000058412552c0,3.866,3.134,7,7,7h6c3.866,0,7,-3.134,7,-7V583.0000058412552H390.000006839633V589.0000058412552z"></path><path id="kity_path_440" fill="#00AF00" stroke="none" d="M410.000006839633,586.0000058412552c0,3.866,-3.134,7,-7,7H397.000006839633c-3.866,0,-7,-3.134,-7,-7V583.0000058412552c0,-3.866,3.134,-7,7,-7h6c3.866,0,7,3.134,7,7V586.0000058412552z" opacity="0.8"></path><text id="kity_text_441" text-rendering="geometricPrecision" x="399.0000068321824" y="585.5000058338046" text-anchor="middle" font-style="italic" font-size="12" fill="white" dy="5">3</text></g></g><g id="kity_g_12" display="none"><path id="kity_path_13" fill="none" stroke="rgb(112, 66, 86)" d="M246.5000016912818,507.5000039860606h49a5,5,0,0,1,5,5v8a5,5,0,0,1,-5,5h-49a5,5,0,0,1,-5,-5v-8a5,5,0,0,1,5,-5z" stroke-width="5"></path></g></g></g></svg>