<svg xmlns="http://www.w3.org/2000/svg" width="547" height="326" style="background:#fbfbfb;visibility:visible">
    <g text-rendering="optimize-speed">
        <g fill="none" stroke="#73BF76">
            <path d="M69 175.5a98.5 142 0 0 1 98.5-142"/>
            <path d="M69 175.5a100.5 74 0 0 1 100.5-74"/>
            <path d="M69 175.5a103.5 10 0 0 1 103.5-10M69 175.5a106.5 54 0 0 0 106.5 54"/>
            <path d="M69 175.5a107.5 118 0 0 0 107.5 118"/>
        </g>
        <path fill="#73BF76" stroke="#73BF76" d="M25.5 155.5h87a5 5 0 0 1 5 5v30a5 5 0 0 1-5 5h-87a5 5 0 0 1-5-5v-30a5 5 0 0 1 5-5z" stroke-width="3"/>
        <text text-rendering="inherit" font-size="16" dy=".8em" y="165.1" x="44.5" fill="#fff">分公司</text>
        <path fill="#EEF6EE" stroke="#73BF76" d="M172.5 20.5h344a3 3 0 0 1 3 3v20a3 3 0 0 1-3 3h-344a3 3 0 0 1-3-3v-20a3 3 0 0 1 3-3z"/>
        <text text-rendering="inherit" font-size="14" dy=".8em" y="24.4" font-weight="bold" x="189.5">分公司不具有法人资格，其民事责任由总公司承担</text>
        <path fill="#EEF6EE" stroke="#73BF76" d="M174.5 88.5h301a3 3 0 0 1 3 3v20a3 3 0 0 1-3 3h-301a3 3 0 0 1-3-3v-20a3 3 0 0 1 3-3z"/>
        <text text-rendering="inherit" font-size="14" dy=".8em" y="92.4" font-weight="bold" x="191.5">分公司经营范围不能超出总公司的经营范围</text>
        <path fill="#EEF6EE" stroke="#73BF76" d="M177.5 152.5h344a3 3 0 0 1 3 3v20a3 3 0 0 1-3 3h-344a3 3 0 0 1-3-3v-20a3 3 0 0 1 3-3z"/>
        <text text-rendering="inherit" font-size="14" dy=".8em" y="156.4" x="194.5">分公司不具有法人资格不能独立享有权利承担责任</text>
        <path fill="#EEF6EE" stroke="#73BF76" d="M180.5 216.5h344a3 3 0 0 1 3 3v20a3 3 0 0 1-3 3h-344a3 3 0 0 1-3-3v-20a3 3 0 0 1 3-3z"/>
        <text text-rendering="inherit" font-size="14" dy=".8em" y="220.4" x="197.5">没有独立公司名称、章程，经营、人事没有自主权</text>
        <path fill="#EEF6EE" stroke="#73BF76" d="M181.5 280.5h287a3 3 0 0 1 3 3v20a3 3 0 0 1-3 3h-287a3 3 0 0 1-3-3v-20a3 3 0 0 1 3-3z"/>
        <text text-rendering="inherit" font-size="14" dy=".8em" y="284.4" x="198.5">没有独立的财产，其所有资产属于总公司</text>
    </g>
</svg>
