<svg id="kity_svg_6" xmlns="http://www.w3.org/2000/svg" xmlns:xlink="http://www.w3.org/1999/xlink" version="1.1" width="934" height="507" style="background: rgb(251, 251, 251); visibility: visible;" viewBox="0 0 934 507"><defs id="kity_defs_7"><linearGradient id="kity_linearGradient_17" x1="0" y1="0" x2="0" y2="1"><stop id="kity_stop_18" offset="0" stop-color="rgb(255, 255, 255)"></stop><stop id="kity_stop_19" offset="1" stop-color="rgb(204, 204, 204)"></stop></linearGradient><marker id="kity_marker_2" orient="auto" refX="6" refY="0" viewBox="-7 -7 14 14" markerWidth="7" markerHeight="7" markerUnits="userSpaceOnUse"><path id="kity_path_3" fill="rgb(115, 191, 118)" stroke="none" d="M6,0A6,6,0,1,1,-6,0A6,6,0,1,1,6,0"></path></marker></defs><g id="kity_g_8"><g id="minder1" text-rendering="optimize-speed"><g id="minder_connect_group1"><path id="kity_path_78" fill="none" stroke="rgb(115, 191, 118)" stroke-width="1" d="M65.00000108033419,257.5000039562583A74.5,190,0,0,1,139.5000010803342,67.5000039562583"></path><path id="kity_path_86" fill="none" stroke="rgb(115, 191, 118)" stroke-width="1" d="M65.00000108033419,257.5000039562583A73.5,112,0,0,1,138.5000010803342,145.5000039562583"></path><path id="kity_path_118" fill="none" stroke="rgb(115, 191, 118)" stroke-width="1" d="M65.00000108033419,257.5000039562583A78.5,40,0,0,1,143.5000010803342,217.5000039562583"></path><path id="kity_path_126" fill="none" stroke="rgb(115, 191, 118)" stroke-width="1" d="M65.00000108033419,257.5000039562583A77.5,21,0,0,0,142.5000010803342,278.5000039562583"></path><path id="kity_path_140" fill="none" stroke="rgb(115, 191, 118)" stroke-width="1" d="M65.00000108033419,257.5000039562583A78.5,95,0,0,0,143.5000010803342,352.5000039562583"></path><path id="kity_path_148" fill="none" stroke="rgb(115, 191, 118)" stroke-width="1" d="M241.5000010803342,352.5000039562583C249.5000010803342,352.5000039562583,249.5000010803342,335.5000039562583,257.5000010803342,335.5000039562583"></path><path id="kity_path_156" fill="none" stroke="rgb(115, 191, 118)" stroke-width="1" d="M241.5000010803342,352.5000039562583C249.5000010803342,352.5000039562583,249.5000010803342,369.5000039562583,257.5000010803342,369.5000039562583"></path><path id="kity_path_164" fill="none" stroke="rgb(115, 191, 118)" stroke-width="1" d="M634.5000010803342,217.5000039562583C642.5000010803342,217.5000039562583,642.5000010803342,217.5000039562583,650.5000010803342,217.5000039562583"></path><path id="kity_path_172" fill="none" stroke="rgb(115, 191, 118)" stroke-width="1" d="M65.00000108033419,257.5000039562583A80.5,183,0,0,0,145.5000010803342,440.5000039562583"></path><path id="kity_path_211" fill="none" stroke="rgb(115, 191, 118)" stroke-width="1" d="M608.5000010803342,440.5000039562583C616.5000010803342,440.5000039562583,616.5000010803342,406.5000039562583,624.5000010803342,406.5000039562583"></path><path id="kity_path_212" fill="none" stroke="rgb(115, 191, 118)" stroke-width="1" d="M608.5000010803342,440.5000039562583C616.5000010803342,440.5000039562583,616.5000010803342,440.5000039562583,624.5000010803342,440.5000039562583"></path><path id="kity_path_213" fill="none" stroke="rgb(115, 191, 118)" stroke-width="1" d="M608.5000010803342,440.5000039562583C616.5000010803342,440.5000039562583,616.5000010803342,474.5000039562583,624.5000010803342,474.5000039562583"></path><path id="kity_path_214" fill="none" stroke="rgb(115, 191, 118)" stroke-width="1" d="M244.5000010803342,440.5000039562583C252.5000010803342,440.5000039562583,252.5000010803342,440.5000039562583,260.5000010803342,440.5000039562583"></path><path id="kity_path_215" fill="none" stroke="rgb(115, 191, 118)" stroke-width="1" d="M657.5000010803342,67.5000039562583C665.5000010803342,67.5000039562583,665.5000010803342,33.5000039562583,673.5000010803342,33.5000039562583"></path><path id="kity_path_216" fill="none" stroke="rgb(115, 191, 118)" stroke-width="1" d="M657.5000010803342,67.5000039562583C665.5000010803342,67.5000039562583,665.5000010803342,67.5000039562583,673.5000010803342,67.5000039562583"></path><path id="kity_path_217" fill="none" stroke="rgb(115, 191, 118)" stroke-width="1" d="M657.5000010803342,67.5000039562583C665.5000010803342,67.5000039562583,665.5000010803342,101.5000039562583,673.5000010803342,101.5000039562583"></path></g><g id="minder_node1"><path id="node_outline1" fill="rgb(115, 191, 118)" stroke="rgb(115, 191, 118)" d="M25.500001080334187,243.5000039562583h79a5,5,0,0,1,5,5v18a5,5,0,0,1,-5,5h-79a5,5,0,0,1,-5,-5v-18a5,5,0,0,1,5,-5z" stroke-width="3"></path><g id="node_text1" fill="white"><text id="kity_text_22" text-rendering="inherit" font-size="16" dy=".8em" y="247.1000039204955" x="32.50000108033419">反转形态</text></g></g><g id="kity_g_12" display="none"><path id="kity_path_13" fill="none" stroke="none" d="M32.50000108033419,257.5000039562583h0v0h0z"></path></g><g id="kity_g_14" display="none"><path id="kity_path_15" fill="rgba(0, 153, 5, 0.5)" stroke="none" d="M145.5000010803342,381.5000039562583h96v8h-96z"></path><path id="kity_path_16" fill="none" stroke="rgb(0, 128, 4)" d="M145.5000010803342,381.5000039562583L241.5000010803342,381.5000039562583" stroke-width="1"></path></g><g id="minder_node7" opacity="1"><g id="node_expander9" style="cursor: pointer;"><path id="kity_path_112" fill="white" stroke="gray" d="M140.50000260025263,67.50000112503767A6,6,0,1,1,128.50000260025263,67.50000112503767A6,6,0,1,1,140.50000260025263,67.50000112503767"></path><path id="kity_path_113" fill="none" stroke="gray" d="M130.00000260025263,67.50000112503767L139.00000260025263,67.50000112503767"></path></g><path id="node_outline10" fill="rgb(238, 246, 238)" stroke="rgb(115, 191, 118)" d="M144.50000300258398,54.50000112503767h510a3,3,0,0,1,3,3v20a3,3,0,0,1,-3,3h-510a3,3,0,0,1,-3,-3v-20a3,3,0,0,1,3,-3z" stroke-width="1"></path><g id="node_text10" fill="black"><text id="kity_text_94" text-rendering="inherit" font-size="14" dy=".8em" y="58.40000109374523" font-weight="bold" x="161.50000300258398">个股走势会体现市场内所有已知信息和将影响该股价格未来走势的可预见因素</text></g></g><g id="minder_node11"><g id="node_expander10" style="cursor: pointer;" display="none"><path id="kity_path_115" fill="white" stroke="gray" d="M139.50000258535147,145.50000228732824A6,6,0,1,1,127.50000258535147,145.50000228732824A6,6,0,1,1,139.50000258535147,145.50000228732824"></path><path id="kity_path_116" fill="none" stroke="gray"></path></g><path id="node_outline11" fill="#9bbb59" stroke="rgb(115, 191, 118)" d="M143.50000298768282,132.50000228732824h539a3,3,0,0,1,3,3v20a3,3,0,0,1,-3,3h-539a3,3,0,0,1,-3,-3v-20a3,3,0,0,1,3,-3z" stroke-width="1"></path><g id="node_text11" fill="black"><text id="kity_text_96" text-rendering="inherit" font-size="14" dy=".8em" y="136.4000022560358" font-weight="bold" x="160.50000298768282">当股价趋势反转时不论是多转空还是空转多图表上都会出现一个可辨识的反转形态</text></g></g><g id="minder_node12" opacity="1"><g id="node_expander11" style="cursor: pointer;"><path id="kity_path_123" fill="white" stroke="gray" d="M144.50000265985727,217.50000336021185A6,6,0,1,1,132.50000265985727,217.50000336021185A6,6,0,1,1,144.50000265985727,217.50000336021185"></path><path id="kity_path_124" fill="none" stroke="gray" d="M134.00000265985727,217.50000336021185L143.00000265985727,217.50000336021185"></path></g><path id="node_outline12" fill="rgb(238, 246, 238)" stroke="rgb(115, 191, 118)" d="M148.50000306218863,204.50000336021185h483a3,3,0,0,1,3,3v20a3,3,0,0,1,-3,3h-483a3,3,0,0,1,-3,-3v-20a3,3,0,0,1,3,-3z" stroke-width="1"></path><g id="node_text12" fill="black"><text id="kity_text_120" text-rendering="inherit" font-size="14" dy=".8em" y="208.4000033289194" font-weight="bold" x="165.50000306218863">反转区域越大（价格波动越大，反转区域的形成越耗时）则其意义越重大</text></g></g><g id="minder_node13" opacity="1"><g id="node_expander12" style="cursor: pointer;" display="none"><path id="kity_path_131" fill="white" stroke="gray" d="M143.5000026449561,278.5000042691827A6,6,0,1,1,131.5000026449561,278.5000042691827A6,6,0,1,1,143.5000026449561,278.5000042691827"></path><path id="kity_path_132" fill="none" stroke="gray"></path></g><path id="node_outline13" fill="rgb(238, 246, 238)" stroke="rgb(115, 191, 118)" d="M147.50000304728746,265.5000042691827h287a3,3,0,0,1,3,3v20a3,3,0,0,1,-3,3h-287a3,3,0,0,1,-3,-3v-20a3,3,0,0,1,3,-3z" stroke-width="1"></path><g id="node_text13" fill="black"><text id="kity_text_128" text-rendering="inherit" font-size="14" dy=".8em" y="269.40000423789024" x="164.50000304728746">图表分析反转形态判断其预示的交易机会</text></g></g><g id="minder_node14" opacity="1"><g id="node_expander13" style="cursor: pointer;"><path id="kity_path_145" fill="white" stroke="gray" d="M144.50000265985727,352.5000053718686A6,6,0,1,1,132.50000265985727,352.5000053718686A6,6,0,1,1,144.50000265985727,352.5000053718686"></path><path id="kity_path_146" fill="none" stroke="gray" d="M134.00000265985727,352.5000053718686L143.00000265985727,352.5000053718686"></path></g><path id="node_outline14" fill="rgb(238, 246, 238)" stroke="rgb(115, 191, 118)" d="M148.50000306218863,339.5000053718686h90a3,3,0,0,1,3,3v20a3,3,0,0,1,-3,3h-90a3,3,0,0,1,-3,-3v-20a3,3,0,0,1,3,-3z" stroke-width="1"></path><g id="node_text14" fill="black"><text id="kity_text_142" text-rendering="inherit" font-size="14" dy=".8em" y="343.4000053405762" x="165.50000306218863">单日反转</text></g></g><g id="minder_node15"><g id="node_expander14" style="cursor: pointer;" display="none"><path id="kity_path_153" fill="white" stroke="gray" d="M257.5000043436885,335.50000511854887A6,6,0,1,1,245.5000043436885,335.50000511854887A6,6,0,1,1,257.5000043436885,335.50000511854887"></path><path id="kity_path_154" fill="none" stroke="gray"></path></g><path id="node_outline15" fill="none" stroke="none" d="M262.5000048801303,322.50000511854887h266a5,5,0,0,1,5,5v16a5,5,0,0,1,-5,5h-266a5,5,0,0,1,-5,-5v-16a5,5,0,0,1,5,-5z" stroke-width="3"></path><g id="node_text15" fill="black"><text id="kity_text_150" text-rendering="inherit" font-size="12" dy=".8em" y="327.7000050917268" x="287.5000048801303">有时意味着涨势或跌势的止步（至少是暂停）</text></g><g id="node_priority4"><path id="kity_path_235" fill="#840023" stroke="none" d="M263.00000451505184,339.00000497698784c0,3.866,3.134,7,7,7h6c3.866,0,7,-3.134,7,-7V333.00000497698784H263.00000451505184V339.00000497698784z"></path><path id="kity_path_236" fill="#FF1200" stroke="none" d="M283.00000451505184,336.00000497698784c0,3.866,-3.134,7,-7,7H270.00000451505184c-3.866,0,-7,-3.134,-7,-7V333.00000497698784c0,-3.866,3.134,-7,7,-7h6c3.866,0,7,3.134,7,7V336.00000497698784z" opacity="0.8"></path><text id="kity_text_237" text-rendering="geometricPrecision" x="272.00000450760126" y="335.50000496953726" text-anchor="middle" font-style="italic" font-size="12" fill="white" dy="5">1</text></g></g><g id="minder_node16"><g id="node_expander15" style="cursor: pointer;" display="none"><path id="kity_path_161" fill="white" stroke="gray" d="M257.5000043436885,369.50000562518835A6,6,0,1,1,245.5000043436885,369.50000562518835A6,6,0,1,1,257.5000043436885,369.50000562518835"></path><path id="kity_path_162" fill="none" stroke="gray"></path></g><path id="node_outline16" fill="none" stroke="none" d="M262.5000048801303,356.50000562518835h243a5,5,0,0,1,5,5v16a5,5,0,0,1,-5,5h-243a5,5,0,0,1,-5,-5v-16a5,5,0,0,1,5,-5z" stroke-width="3"></path><g id="node_text16" fill="black"><text id="kity_text_158" text-rendering="inherit" font-size="12" dy=".8em" y="361.70000559836626" x="287.5000048801303">一般它并不表示趋势会立即向反方向逆转</text></g><g id="node_priority5"><path id="kity_path_240" fill="#01467F" stroke="none" d="M263.00000451505184,373.0000054836273c0,3.866,3.134,7,7,7h6c3.866,0,7,-3.134,7,-7V367.0000054836273H263.00000451505184V373.0000054836273z"></path><path id="kity_path_241" fill="#0074FF" stroke="none" d="M283.00000451505184,370.0000054836273c0,3.866,-3.134,7,-7,7H270.00000451505184c-3.866,0,-7,-3.134,-7,-7V367.0000054836273c0,-3.866,3.134,-7,7,-7h6c3.866,0,7,3.134,7,7V370.0000054836273z" opacity="0.8"></path><text id="kity_text_242" text-rendering="geometricPrecision" x="272.00000450760126" y="369.50000547617674" text-anchor="middle" font-style="italic" font-size="12" fill="white" dy="5">2</text></g></g><g id="minder_node17"><g id="node_expander16" style="cursor: pointer;" display="none"><path id="kity_path_169" fill="white" stroke="gray" d="M650.5000101998448,217.50000336021185A6,6,0,1,1,638.5000101998448,217.50000336021185A6,6,0,1,1,650.5000101998448,217.50000336021185"></path><path id="kity_path_170" fill="none" stroke="gray"></path></g><path id="node_outline17" fill="none" stroke="none" d="M655.5000103637576,208.50000336021185h254a5,5,0,0,1,5,5v8a5,5,0,0,1,-5,5h-254a5,5,0,0,1,-5,-5v-8a5,5,0,0,1,5,-5z" stroke-width="3"></path><g id="node_text17" fill="black"><text id="kity_text_166" text-rendering="inherit" font-size="12" dy=".8em" y="209.70000333338976" font-weight="bold" x="655.5000103637576">大势逆转的反转形态却需要花更长的时间来形成</text></g></g><g id="minder_node18" opacity="1"><g id="node_expander17" style="cursor: pointer;"><path id="kity_path_177" fill="white" stroke="gray" d="M146.5000026896596,440.5000066831708A6,6,0,1,1,134.5000026896596,440.5000066831708A6,6,0,1,1,146.5000026896596,440.5000066831708"></path><path id="kity_path_178" fill="none" stroke="gray" d="M136.0000026896596,440.5000066831708L145.0000026896596,440.5000066831708"></path></g><path id="node_outline18" fill="rgb(238, 246, 238)" stroke="rgb(115, 191, 118)" d="M150.50000309199095,427.5000066831708h91a3,3,0,0,1,3,3v20a3,3,0,0,1,-3,3h-91a3,3,0,0,1,-3,-3v-20a3,3,0,0,1,3,-3z" stroke-width="1"></path><g id="node_text18" fill="black"><text id="kity_text_174" text-rendering="inherit" font-size="14" dy=".8em" y="431.40000665187836" x="167.50000309199095">时间要求</text></g></g><g id="minder_node20"><g id="node_expander19" style="cursor: pointer;" display="none"><path id="kity_path_193" fill="white" stroke="gray" d="M624.5000098124146,406.5000061765313A6,6,0,1,1,612.5000098124146,406.5000061765313A6,6,0,1,1,624.5000098124146,406.5000061765313"></path><path id="kity_path_194" fill="none" stroke="gray"></path></g><path id="node_outline20" fill="none" stroke="none" d="M629.5000103488564,393.5000061765313h230a5,5,0,0,1,5,5v16a5,5,0,0,1,-5,5h-230a5,5,0,0,1,-5,-5v-16a5,5,0,0,1,5,-5z" stroke-width="3"></path><g id="node_text20" fill="black"><text id="kity_text_190" text-rendering="inherit" font-size="12" dy=".8em" y="398.7000061497092" font-weight="bold" x="654.5000103488564">出货需要时间并伴随着大量股票的易手</text></g><g id="node_priority6"><path id="kity_path_245" fill="#840023" stroke="none" d="M630.000009983778,410.0000060349703c0,3.866,3.134,7,7,7h6c3.866,0,7,-3.134,7,-7V404.0000060349703H630.000009983778V410.0000060349703z"></path><path id="kity_path_246" fill="#FF1200" stroke="none" d="M650.000009983778,407.0000060349703c0,3.866,-3.134,7,-7,7H637.000009983778c-3.866,0,-7,-3.134,-7,-7V404.0000060349703c0,-3.866,3.134,-7,7,-7h6c3.866,0,7,3.134,7,7V407.0000060349703z" opacity="0.8"></path><text id="kity_text_247" text-rendering="geometricPrecision" x="639.0000099763274" y="406.5000060275197" text-anchor="middle" font-style="italic" font-size="12" fill="white" dy="5">1</text></g></g><g id="minder_node21"><g id="node_expander20" style="cursor: pointer;" display="none"><path id="kity_path_201" fill="white" stroke="gray" d="M624.5000098124146,440.5000066831708A6,6,0,1,1,612.5000098124146,440.5000066831708A6,6,0,1,1,624.5000098124146,440.5000066831708"></path><path id="kity_path_202" fill="none" stroke="gray"></path></g><path id="node_outline21" fill="none" stroke="none" d="M629.5000103488564,427.5000066831708h194a5,5,0,0,1,5,5v16a5,5,0,0,1,-5,5h-194a5,5,0,0,1,-5,-5v-16a5,5,0,0,1,5,-5z" stroke-width="3"></path><g id="node_text21" fill="black"><text id="kity_text_198" text-rendering="inherit" font-size="12" dy=".8em" y="432.7000066563487" font-weight="bold" x="654.5000103488564">出货往往伴随着清晰的顶部形态</text></g><g id="node_priority7"><path id="kity_path_250" fill="#01467F" stroke="none" d="M630.000009983778,444.00000654160976c0,3.866,3.134,7,7,7h6c3.866,0,7,-3.134,7,-7V438.00000654160976H630.000009983778V444.00000654160976z"></path><path id="kity_path_251" fill="#0074FF" stroke="none" d="M650.000009983778,441.00000654160976c0,3.866,-3.134,7,-7,7H637.000009983778c-3.866,0,-7,-3.134,-7,-7V438.00000654160976c0,-3.866,3.134,-7,7,-7h6c3.866,0,7,3.134,7,7V441.00000654160976z" opacity="0.8"></path><text id="kity_text_252" text-rendering="geometricPrecision" x="639.0000099763274" y="440.5000065341592" text-anchor="middle" font-style="italic" font-size="12" fill="white" dy="5">2</text></g></g><g id="minder_node22"><g id="node_expander21" style="cursor: pointer;" display="none"><path id="kity_path_209" fill="white" stroke="gray" d="M624.5000098124146,474.5000071898103A6,6,0,1,1,612.5000098124146,474.5000071898103A6,6,0,1,1,624.5000098124146,474.5000071898103"></path><path id="kity_path_210" fill="none" stroke="gray"></path></g><path id="node_outline22" fill="none" stroke="none" d="M629.5000103488564,461.5000071898103h195a5,5,0,0,1,5,5v16a5,5,0,0,1,-5,5h-195a5,5,0,0,1,-5,-5v-16a5,5,0,0,1,5,-5z" stroke-width="3"></path><g id="node_text22" fill="black"><text id="kity_text_206" text-rendering="inherit" font-size="12" dy=".8em" y="466.7000071629882" font-weight="bold" x="654.5000103488564">建仓往往伴随着清晰的底部形态</text></g><g id="node_priority8"><path id="kity_path_255" fill="#006300" stroke="none" d="M630.000009983778,478.00000704824924c0,3.866,3.134,7,7,7h6c3.866,0,7,-3.134,7,-7V472.00000704824924H630.000009983778V478.00000704824924z"></path><path id="kity_path_256" fill="#00AF00" stroke="none" d="M650.000009983778,475.00000704824924c0,3.866,-3.134,7,-7,7H637.000009983778c-3.866,0,-7,-3.134,-7,-7V472.00000704824924c0,-3.866,3.134,-7,7,-7h6c3.866,0,7,3.134,7,7V475.00000704824924z" opacity="0.8"></path><text id="kity_text_257" text-rendering="geometricPrecision" x="639.0000099763274" y="474.50000704079866" text-anchor="middle" font-style="italic" font-size="12" fill="white" dy="5">3</text></g></g><g id="minder_node19"><g id="node_expander18" style="cursor: pointer;"><path id="kity_path_185" fill="white" stroke="gray" d="M260.500004388392,440.5000066831708A6,6,0,1,1,248.50000438839197,440.5000066831708A6,6,0,1,1,260.500004388392,440.5000066831708"></path><path id="kity_path_186" fill="none" stroke="gray" d="M250.00000438839197,440.5000066831708L259.000004388392,440.5000066831708"></path></g><path id="node_outline19" fill="none" stroke="none" d="M265.50000455230474,431.5000066831708h338a5,5,0,0,1,5,5v8a5,5,0,0,1,-5,5h-338a5,5,0,0,1,-5,-5v-8a5,5,0,0,1,5,-5z" stroke-width="3"></path><g id="node_text19" fill="black"><text id="kity_text_182" text-rendering="inherit" font-size="12" dy=".8em" y="432.7000066563487" font-weight="bold" x="265.50000455230474">价格走势顶部区域（代表出货的形态）的形成需要时间和成交量</text></g></g><g id="minder_node8"><g id="node_expander6" style="cursor: pointer;" display="none"><path id="kity_path_103" fill="white" stroke="gray" d="M673.5000105425715,33.50000061839819A6,6,0,1,1,661.5000105425715,33.50000061839819A6,6,0,1,1,673.5000105425715,33.50000061839819"></path><path id="kity_path_104" fill="none" stroke="gray"></path></g><path id="node_outline7" fill="#9bbb59" stroke="none" d="M678.5000110790133,20.50000061839819h194a5,5,0,0,1,5,5v16a5,5,0,0,1,-5,5h-194a5,5,0,0,1,-5,-5v-16a5,5,0,0,1,5,-5z" stroke-width="3"></path><g id="node_text7" fill="black"><text id="kity_text_88" text-rendering="inherit" font-size="12" dy=".8em" y="25.7000005915761" font-weight="bold" x="703.5000110790133">图表是所有影响价格因素的载体</text></g><g id="node_priority1"><path id="kity_path_220" fill="#840023" stroke="none" d="M679.0000107139349,37.00000047683716c0,3.866,3.134,7,7,7h6c3.866,0,7,-3.134,7,-7V31.000000476837158H679.0000107139349V37.00000047683716z"></path><path id="kity_path_221" fill="#FF1200" stroke="none" d="M699.0000107139349,34.00000047683716c0,3.866,-3.134,7,-7,7H686.0000107139349c-3.866,0,-7,-3.134,-7,-7V31.000000476837158c0,-3.866,3.134,-7,7,-7h6c3.866,0,7,3.134,7,7V34.00000047683716z" opacity="0.8"></path><text id="kity_text_222" text-rendering="geometricPrecision" x="688.0000107064843" y="33.50000046938658" text-anchor="middle" font-style="italic" font-size="12" fill="white" dy="5">1</text></g></g><g id="minder_node9"><g id="node_expander7" style="cursor: pointer;" display="none"><path id="kity_path_106" fill="white" stroke="gray" d="M673.5000105425715,67.50000112503767A6,6,0,1,1,661.5000105425715,67.50000112503767A6,6,0,1,1,673.5000105425715,67.50000112503767"></path><path id="kity_path_107" fill="none" stroke="gray"></path></g><path id="node_outline8" fill="none" stroke="none" d="M678.5000110790133,54.50000112503767h206a5,5,0,0,1,5,5v16a5,5,0,0,1,-5,5h-206a5,5,0,0,1,-5,-5v-16a5,5,0,0,1,5,-5z" stroke-width="3"></path><g id="node_text8" fill="black"><text id="kity_text_90" text-rendering="inherit" font-size="12" dy=".8em" y="59.70000109821558" x="703.5000110790133">图表中包括“内幕交易者”的操作</text></g><g id="node_priority2"><path id="kity_path_225" fill="#01467F" stroke="none" d="M679.0000107139349,71.00000098347664c0,3.866,3.134,7,7,7h6c3.866,0,7,-3.134,7,-7V65.00000098347664H679.0000107139349V71.00000098347664z"></path><path id="kity_path_226" fill="#0074FF" stroke="none" d="M699.0000107139349,68.00000098347664c0,3.866,-3.134,7,-7,7H686.0000107139349c-3.866,0,-7,-3.134,-7,-7V65.00000098347664c0,-3.866,3.134,-7,7,-7h6c3.866,0,7,3.134,7,7V68.00000098347664z" opacity="0.8"></path><text id="kity_text_227" text-rendering="geometricPrecision" x="688.0000107064843" y="67.50000097602606" text-anchor="middle" font-style="italic" font-size="12" fill="white" dy="5">2</text></g></g><g id="minder_node10"><g id="node_expander8" style="cursor: pointer;" display="none"><path id="kity_path_109" fill="white" stroke="gray" d="M673.5000105425715,101.50000163167715A6,6,0,1,1,661.5000105425715,101.50000163167715A6,6,0,1,1,673.5000105425715,101.50000163167715"></path><path id="kity_path_110" fill="none" stroke="gray"></path></g><path id="node_outline9" fill="none" stroke="none" d="M678.5000110790133,88.50000163167715h158a5,5,0,0,1,5,5v16a5,5,0,0,1,-5,5h-158a5,5,0,0,1,-5,-5v-16a5,5,0,0,1,5,-5z" stroke-width="3"></path><g id="node_text9" fill="black"><text id="kity_text_92" text-rendering="inherit" font-size="12" dy=".8em" y="93.70000160485506" x="703.5000110790133">“内幕交易者”也会犯错</text></g><g id="node_priority3"><path id="kity_path_230" fill="#006300" stroke="none" d="M679.0000107139349,105.00000149011612c0,3.866,3.134,7,7,7h6c3.866,0,7,-3.134,7,-7V99.00000149011612H679.0000107139349V105.00000149011612z"></path><path id="kity_path_231" fill="#00AF00" stroke="none" d="M699.0000107139349,102.00000149011612c0,3.866,-3.134,7,-7,7H686.0000107139349c-3.866,0,-7,-3.134,-7,-7V99.00000149011612c0,-3.866,3.134,-7,7,-7h6c3.866,0,7,3.134,7,7V102.00000149011612z" opacity="0.8"></path><text id="kity_text_232" text-rendering="geometricPrecision" x="688.0000107064843" y="101.50000148266554" text-anchor="middle" font-style="italic" font-size="12" fill="white" dy="5">3</text></g></g></g></g></svg>