<svg id="kity_svg_6" xmlns="http://www.w3.org/2000/svg" xmlns:xlink="http://www.w3.org/1999/xlink" version="1.1" width="781" height="414" style="background: rgb(251, 251, 251); visibility: visible;" viewBox="0 0 781 414"><defs id="kity_defs_7"><linearGradient id="kity_linearGradient_17" x1="0" y1="0" x2="0" y2="1"><stop id="kity_stop_18" offset="0" stop-color="rgb(255, 255, 255)"></stop><stop id="kity_stop_19" offset="1" stop-color="rgb(204, 204, 204)"></stop></linearGradient><marker id="kity_marker_2" orient="auto" refX="6" refY="0" viewBox="-7 -7 14 14" markerWidth="7" markerHeight="7" markerUnits="userSpaceOnUse"><path id="kity_path_3" fill="rgb(191, 147, 115)" stroke="none" d="M6,0A6,6,0,1,1,-6,0A6,6,0,1,1,6,0"></path></marker></defs><g id="kity_g_8"><g id="minder1" text-rendering="optimize-speed"><g id="minder_connect_group1"><path id="kity_path_97" fill="none" stroke="rgb(191, 147, 115)" stroke-width="1" d="M48.500002421438694,192.50000289827585A94,143,0,0,0,142.5000024214387,335.50000289827585"></path><path id="kity_path_222" fill="none" stroke="rgb(191, 147, 115)" stroke-width="1" d="M48.500002421438694,192.50000289827585A92,12,0,0,1,140.5000024214387,180.50000289827585"></path><path id="kity_path_235" fill="none" stroke="rgb(191, 147, 115)" stroke-width="1" d="M48.500002421438694,192.50000289827585A93,124,0,0,1,141.5000024214387,68.50000289827585"></path><path id="kity_path_262" fill="none" stroke="rgb(191, 147, 115)" stroke-width="1" d="M326.5000024214387,247.50000289827585C334.5000024214387,247.50000289827585,334.5000024214387,247.50000289827585,342.5000024214387,247.50000289827585"></path><path id="kity_path_263" fill="none" stroke="rgb(191, 147, 115)" stroke-width="1" d="M226.5000024214387,335.50000289827585C241.0000024214387,335.50000289827585,241.0000024214387,247.50000289827585,255.5000024214387,247.50000289827585"></path><path id="kity_path_264" fill="none" stroke="rgb(191, 147, 115)" stroke-width="1" d="M356.5000024214387,314.50000289827585C364.5000024214387,314.50000289827585,364.5000024214387,314.50000289827585,372.5000024214387,314.50000289827585"></path><path id="kity_path_265" fill="none" stroke="rgb(191, 147, 115)" stroke-width="1" d="M226.5000024214387,335.50000289827585C238.5000024214387,335.50000289827585,238.5000024214387,314.50000289827585,250.5000024214387,314.50000289827585"></path><path id="kity_path_266" fill="none" stroke="rgb(191, 147, 115)" stroke-width="1" d="M226.5000024214387,335.50000289827585C237.0000024214387,335.50000289827585,237.0000024214387,385.50000289827585,247.5000024214387,385.50000289827585"></path><path id="kity_path_303" fill="none" stroke="rgb(191, 147, 115)" stroke-width="1" d="M212.5000024214387,180.50000289827585C220.5000024214387,180.50000289827585,220.5000024214387,146.50000289827585,228.5000024214387,146.50000289827585"></path><path id="kity_path_304" fill="none" stroke="rgb(191, 147, 115)" stroke-width="1" d="M301.5000024214387,180.50000289827585C335.0000024214387,180.50000289827585,335.0000024214387,179.50000289827585,368.5000024214387,179.50000289827585"></path><path id="kity_path_305" fill="none" stroke="rgb(191, 147, 115)" stroke-width="1" d="M212.5000024214387,180.50000289827585C220.5000024214387,180.50000289827585,220.5000024214387,180.50000289827585,228.5000024214387,180.50000289827585"></path><path id="kity_path_306" fill="none" stroke="rgb(191, 147, 115)" stroke-width="1" d="M212.5000024214387,180.50000289827585C220.5000024214387,180.50000289827585,220.5000024214387,214.50000289827585,228.5000024214387,214.50000289827585"></path><path id="kity_path_327" fill="none" stroke="rgb(191, 147, 115)" stroke-width="1" d="M270.5000024214387,29.500002898275852C282.0000024214387,29.500002898275852,282.0000024214387,29.500002898275852,293.5000024214387,29.500002898275852"></path><path id="kity_path_328" fill="none" stroke="rgb(191, 147, 115)" stroke-width="1" d="M212.5000024214387,68.50000289827585C220.5000024214387,68.50000289827585,220.5000024214387,29.500002898275852,228.5000024214387,29.500002898275852"></path><path id="kity_path_329" fill="none" stroke="rgb(191, 147, 115)" stroke-width="1" d="M212.5000024214387,68.50000289827585C220.5000024214387,68.50000289827585,220.5000024214387,55.50000289827585,228.5000024214387,55.50000289827585"></path><path id="kity_path_330" fill="none" stroke="rgb(191, 147, 115)" stroke-width="1" d="M212.5000024214387,68.50000289827585C220.5000024214387,68.50000289827585,220.5000024214387,81.50000289827585,228.5000024214387,81.50000289827585"></path><path id="kity_path_331" fill="none" stroke="rgb(191, 147, 115)" stroke-width="1" d="M212.5000024214387,68.50000289827585C222.5000024214387,68.50000289827585,222.5000024214387,111.50000289827585,232.5000024214387,111.50000289827585"></path></g><g id="minder_node1"><path id="node_outline1" fill="rgb(191, 147, 115)" stroke="rgb(191, 147, 115)" d="M25.500002421438694,178.50000289827585h46a5,5,0,0,1,5,5v18a5,5,0,0,1,-5,5h-46a5,5,0,0,1,-5,-5v-18a5,5,0,0,1,5,-5z" stroke-width="3"></path><g id="node_text1" fill="white"><text id="kity_text_22" text-rendering="inherit" font-size="16" dy=".8em" y="182.10000286251307" x="32.500002421438694">图表</text></g></g><g id="kity_g_14" display="none"><path id="kity_path_15" fill="rgba(153, 64, 0, 0.5)" stroke="none" d="M233.5000024214387,52.50000289827585h47v4h-47z"></path><path id="kity_path_16" fill="none" stroke="rgb(128, 53, 0)" d="M233.5000024214387,56.50000289827585L280.5000024214387,56.50000289827585" stroke-width="1"></path></g><g id="minder_node10" opacity="1"><g id="node_expander9" style="cursor: pointer;"><path id="kity_path_102" fill="white" stroke="gray" d="M143.50000398606062,335.5000050291419A6,6,0,1,1,131.50000398606062,335.5000050291419A6,6,0,1,1,143.50000398606062,335.5000050291419"></path><path id="kity_path_103" fill="none" stroke="gray" d="M133.00000398606062,335.5000050291419L142.00000398606062,335.5000050291419"></path></g><path id="node_outline10" fill="rgb(246, 242, 238)" stroke="rgb(191, 147, 115)" d="M147.50000438839197,322.5000050291419h76a3,3,0,0,1,3,3v20a3,3,0,0,1,-3,3h-76a3,3,0,0,1,-3,-3v-20a3,3,0,0,1,3,-3z" stroke-width="1"></path><g id="node_text10" fill="black"><text id="kity_text_99" text-rendering="inherit" font-size="14" dy=".8em" y="326.40000499784946" x="164.50000438839197">坐标系</text></g></g><g id="minder_node18" opacity="1"><g id="node_expander17" style="cursor: pointer;"><path id="kity_path_227" fill="white" stroke="gray" d="M141.5000039562583,180.50000271946192A6,6,0,1,1,129.5000039562583,180.50000271946192A6,6,0,1,1,141.5000039562583,180.50000271946192"></path><path id="kity_path_228" fill="none" stroke="gray" d="M131.0000039562583,180.50000271946192L140.0000039562583,180.50000271946192"></path></g><path id="node_outline18" fill="rgb(246, 242, 238)" stroke="rgb(191, 147, 115)" d="M145.50000435858965,167.50000271946192h64a3,3,0,0,1,3,3v20a3,3,0,0,1,-3,3h-64a3,3,0,0,1,-3,-3v-20a3,3,0,0,1,3,-3z" stroke-width="1"></path><g id="node_text18" fill="black"><text id="kity_text_224" text-rendering="inherit" font-size="14" dy=".8em" y="171.40000268816948" x="162.50000435858965">指标</text></g></g><g id="minder_node19" opacity="1"><g id="node_expander18" style="cursor: pointer;"><path id="kity_path_240" fill="white" stroke="gray" d="M142.50000397115946,68.50000105053186A6,6,0,1,1,130.50000397115946,68.50000105053186A6,6,0,1,1,142.50000397115946,68.50000105053186"></path><path id="kity_path_241" fill="none" stroke="gray" d="M132.00000397115946,68.50000105053186L141.00000397115946,68.50000105053186"></path></g><path id="node_outline19" fill="rgb(246, 242, 238)" stroke="rgb(191, 147, 115)" d="M146.5000043734908,55.500001050531864h63a3,3,0,0,1,3,3v20a3,3,0,0,1,-3,3h-63a3,3,0,0,1,-3,-3v-20a3,3,0,0,1,3,-3z" stroke-width="1"></path><g id="node_text19" fill="black"><text id="kity_text_237" text-rendering="inherit" font-size="14" dy=".8em" y="59.400001019239426" x="163.5000043734908">类型</text></g></g><g id="kity_g_12" display="none"><path id="kity_path_13" fill="none" stroke="rgb(112, 85, 66)" d="M138.5000024214387,-144.49999710172415h91a3,3,0,0,1,3,3v20a3,3,0,0,1,-3,3h-91a3,3,0,0,1,-3,-3v-20a3,3,0,0,1,3,-3z" stroke-width="5"></path></g><g id="minder_node13"><g id="node_expander12" style="cursor: pointer;" display="none"><path id="kity_path_131" fill="white" stroke="gray" d="M342.5000069513917,247.50000371783972A6,6,0,1,1,330.5000069513917,247.50000371783972A6,6,0,1,1,342.5000069513917,247.50000371783972"></path><path id="kity_path_132" fill="none" stroke="gray"></path></g><path id="node_outline13" fill="none" stroke="none" d="M347.50000711530447,238.50000371783972h193a5,5,0,0,1,5,5v8a5,5,0,0,1,-5,5h-193a5,5,0,0,1,-5,-5v-8a5,5,0,0,1,5,-5z" stroke-width="3"></path><g id="node_text13" fill="black"><text id="kity_text_128" text-rendering="inherit" font-size="12" dy=".8em" y="239.70000369101763" x="347.50000711530447">相同的纵向距离表示相等的价格变动</text></g></g><g id="minder_node11" opacity="1"><g id="node_expander10" style="cursor: pointer;"><path id="kity_path_113" fill="white" stroke="gray" d="M255.50000565499067,247.50000371783972A6,6,0,1,1,243.50000565499067,247.50000371783972A6,6,0,1,1,255.50000565499067,247.50000371783972"></path><path id="kity_path_114" fill="none" stroke="gray" d="M245.00000565499067,247.50000371783972L254.00000565499067,247.50000371783972"></path></g><path id="node_outline11" fill="none" stroke="none" d="M260.50000581890345,238.50000371783972h61a5,5,0,0,1,5,5v8a5,5,0,0,1,-5,5h-61a5,5,0,0,1,-5,-5v-8a5,5,0,0,1,5,-5z" stroke-width="3"></path><g id="node_text11" fill="black"><text id="kity_text_110" text-rendering="inherit" font-size="12" dy=".8em" y="239.70000369101763" x="260.50000581890345">等差坐标系</text></g></g><g id="minder_node14"><g id="node_expander13" style="cursor: pointer;" display="none"><path id="kity_path_139" fill="white" stroke="gray" d="M372.50000739842653,314.5000047162175A6,6,0,1,1,360.50000739842653,314.5000047162175A6,6,0,1,1,372.50000739842653,314.5000047162175"></path><path id="kity_path_140" fill="none" stroke="gray"></path></g><path id="node_outline14" fill="#fabf8f" stroke="none" d="M377.5000075623393,305.5000047162175h229a5,5,0,0,1,5,5v8a5,5,0,0,1,-5,5h-229a5,5,0,0,1,-5,-5v-8a5,5,0,0,1,5,-5z" stroke-width="3"></path><g id="node_text14" fill="black"><text id="kity_text_136" text-rendering="inherit" font-size="12" dy=".8em" y="306.7000046893954" font-weight="bold" x="377.5000075623393">相同的纵向距离表示相等的百分比价格变动</text></g></g><g id="minder_node12" opacity="1"><g id="node_expander11" style="cursor: pointer;"><path id="kity_path_121" fill="white" stroke="gray" d="M250.50000558048487,314.5000047162175A6,6,0,1,1,238.50000558048487,314.5000047162175A6,6,0,1,1,250.50000558048487,314.5000047162175"></path><path id="kity_path_122" fill="none" stroke="gray" d="M240.00000558048487,314.5000047162175L249.00000558048487,314.5000047162175"></path></g><path id="node_outline12" fill="none" stroke="none" d="M255.50000574439764,305.5000047162175h96a5,5,0,0,1,5,5v8a5,5,0,0,1,-5,5h-96a5,5,0,0,1,-5,-5v-8a5,5,0,0,1,5,-5z" stroke-width="3"></path><g id="node_text12" fill="black"><text id="kity_text_118" text-rendering="inherit" font-size="12" dy=".8em" y="306.7000046893954" x="255.50000574439764">半对数等比坐标系</text></g></g><g id="minder_node15" opacity="1"><g id="node_expander14" style="cursor: pointer;" display="none"><path id="kity_path_147" fill="white" stroke="gray" d="M247.50000553578138,385.50000577419996A6,6,0,1,1,235.50000553578138,385.50000577419996A6,6,0,1,1,247.50000553578138,385.50000577419996"></path><path id="kity_path_148" fill="none" stroke="gray"></path></g><path id="node_outline15" fill="#fabf8f" stroke="none" d="M252.50000569969416,376.50000577419996h504a5,5,0,0,1,5,5v8a5,5,0,0,1,-5,5h-504a5,5,0,0,1,-5,-5v-8a5,5,0,0,1,5,-5z" stroke-width="3"></path><g id="node_text15" fill="black"><text id="kity_text_144" text-rendering="inherit" font-size="12" dy=".8em" y="377.7000057473779" font-weight="bold" x="252.50000569969416">半对数坐标系能更直观的比较高价股和低价股，一些趋势线在半对数坐标系中得到更好的体现。</text></g></g><g id="minder_node3" opacity="1"><g id="node_expander2" style="cursor: pointer;" display="none"><path id="kity_path_44" fill="white" stroke="gray" d="M228.50000525265932,146.50000221282244A6,6,0,1,1,216.50000525265932,146.50000221282244A6,6,0,1,1,228.50000525265932,146.50000221282244"></path><path id="kity_path_45" fill="none" stroke="gray"></path></g><path id="node_outline3" fill="none" stroke="none" d="M233.50000578910112,133.50000221282244h229a5,5,0,0,1,5,5v16a5,5,0,0,1,-5,5h-229a5,5,0,0,1,-5,-5v-16a5,5,0,0,1,5,-5z" stroke-width="3"></path><g id="node_text3" fill="black"><text id="kity_text_41" text-rendering="inherit" font-size="12" dy=".8em" y="138.70000218600035" font-weight="bold" x="258.5000057891011">记录了每日的价格变动（高位和低位）</text></g><g id="node_priority1"><path id="kity_path_314" fill="#840023" stroke="none" d="M234.00000542402267,150.0000020712614c0,3.866,3.134,7,7,7h6c3.866,0,7,-3.134,7,-7V144.0000020712614H234.00000542402267V150.0000020712614z"></path><path id="kity_path_315" fill="#FF1200" stroke="none" d="M254.00000542402267,147.0000020712614c0,3.866,-3.134,7,-7,7H241.00000542402267c-3.866,0,-7,-3.134,-7,-7V144.0000020712614c0,-3.866,3.134,-7,7,-7h6c3.866,0,7,3.134,7,7V147.0000020712614z" opacity="0.8"></path><text id="kity_text_316" text-rendering="geometricPrecision" x="243.0000054165721" y="146.50000206381083" text-anchor="middle" font-style="italic" font-size="12" fill="white" dy="5">1</text></g></g><g id="minder_node9" opacity="1"><g id="node_expander8" style="cursor: pointer;" display="none"><path id="kity_path_92" fill="white" stroke="gray" d="M368.5000073388219,179.50000270456076A6,6,0,1,1,356.5000073388219,179.50000270456076A6,6,0,1,1,368.5000073388219,179.50000270456076"></path><path id="kity_path_93" fill="none" stroke="gray"></path></g><path id="node_outline9" fill="none" stroke="none" d="M373.50000750273466,170.50000270456076h170a5,5,0,0,1,5,5v8a5,5,0,0,1,-5,5h-170a5,5,0,0,1,-5,-5v-8a5,5,0,0,1,5,-5z" stroke-width="3"></path><g id="node_text9" fill="black"><text id="kity_text_89" text-rendering="inherit" font-size="12" dy=".8em" y="171.70000267773867" x="373.50000750273466">代表当天市场对股票的最终定价</text></g></g><g id="minder_node4" opacity="1"><g id="node_expander3" style="cursor: pointer;"><path id="kity_path_52" fill="white" stroke="gray" d="M228.50000525265932,180.50000271946192A6,6,0,1,1,216.50000525265932,180.50000271946192A6,6,0,1,1,228.50000525265932,180.50000271946192"></path><path id="kity_path_53" fill="none" stroke="gray" d="M218.00000525265932,180.50000271946192L227.00000525265932,180.50000271946192"></path></g><path id="node_outline4" fill="none" stroke="none" d="M233.50000578910112,167.50000271946192h63a5,5,0,0,1,5,5v16a5,5,0,0,1,-5,5h-63a5,5,0,0,1,-5,-5v-16a5,5,0,0,1,5,-5z" stroke-width="3"></path><g id="node_text4" fill="black"><text id="kity_text_49" text-rendering="inherit" font-size="12" dy=".8em" y="172.70000269263983" font-weight="bold" x="258.5000057891011">收盘价</text></g><g id="node_priority2"><path id="kity_path_319" fill="#01467F" stroke="none" d="M234.00000542402267,184.0000025779009c0,3.866,3.134,7,7,7h6c3.866,0,7,-3.134,7,-7V178.0000025779009H234.00000542402267V184.0000025779009z"></path><path id="kity_path_320" fill="#0074FF" stroke="none" d="M254.00000542402267,181.0000025779009c0,3.866,-3.134,7,-7,7H241.00000542402267c-3.866,0,-7,-3.134,-7,-7V178.0000025779009c0,-3.866,3.134,-7,7,-7h6c3.866,0,7,3.134,7,7V181.0000025779009z" opacity="0.8"></path><text id="kity_text_321" text-rendering="geometricPrecision" x="243.0000054165721" y="180.5000025704503" text-anchor="middle" font-style="italic" font-size="12" fill="white" dy="5">2</text></g></g><g id="minder_node5" opacity="1"><g id="node_expander4" style="cursor: pointer;" display="none"><path id="kity_path_60" fill="white" stroke="gray" d="M228.50000525265932,214.5000032261014A6,6,0,1,1,216.50000525265932,214.5000032261014A6,6,0,1,1,228.50000525265932,214.5000032261014"></path><path id="kity_path_61" fill="none" stroke="gray"></path></g><path id="node_outline5" fill="none" stroke="none" d="M233.50000578910112,201.5000032261014h63a5,5,0,0,1,5,5v16a5,5,0,0,1,-5,5h-63a5,5,0,0,1,-5,-5v-16a5,5,0,0,1,5,-5z" stroke-width="3"></path><g id="node_text5" fill="black"><text id="kity_text_57" text-rendering="inherit" font-size="12" dy=".8em" y="206.7000031992793" font-weight="bold" x="258.5000057891011">成交量</text></g><g id="node_priority3"><path id="kity_path_324" fill="#006300" stroke="none" d="M234.00000542402267,218.00000308454037c0,3.866,3.134,7,7,7h6c3.866,0,7,-3.134,7,-7V212.00000308454037H234.00000542402267V218.00000308454037z"></path><path id="kity_path_325" fill="#00AF00" stroke="none" d="M254.00000542402267,215.00000308454037c0,3.866,-3.134,7,-7,7H241.00000542402267c-3.866,0,-7,-3.134,-7,-7V212.00000308454037c0,-3.866,3.134,-7,7,-7h6c3.866,0,7,3.134,7,7V215.00000308454037z" opacity="0.8"></path><text id="kity_text_326" text-rendering="geometricPrecision" x="243.0000054165721" y="214.5000030770898" text-anchor="middle" font-style="italic" font-size="12" fill="white" dy="5">3</text></g></g><g id="minder_node17" opacity="1"><g id="node_expander16" style="cursor: pointer;" display="none"><path id="kity_path_219" fill="white" stroke="gray" d="M293.5000062212348,29.500000469386578A6,6,0,1,1,281.5000062212348,29.500000469386578A6,6,0,1,1,293.5000062212348,29.500000469386578"></path><path id="kity_path_220" fill="none" stroke="gray"></path></g><path id="node_outline17" fill="none" stroke="none" d="M298.50000638514757,20.500000469386578h170a5,5,0,0,1,5,5v8a5,5,0,0,1,-5,5h-170a5,5,0,0,1,-5,-5v-8a5,5,0,0,1,5,-5z" stroke-width="3"></path><g id="node_text17" fill="black"><text id="kity_text_216" text-rendering="inherit" font-size="12" dy=".8em" y="21.700000442564487" font-weight="bold" x="298.50000638514757">趋势的方向能得到更清晰的体现</text></g></g><g id="minder_node16" opacity="1"><g id="node_expander15" style="cursor: pointer;"><path id="kity_path_211" fill="white" stroke="gray" d="M228.50000525265932,29.500000469386578A6,6,0,1,1,216.50000525265932,29.500000469386578A6,6,0,1,1,228.50000525265932,29.500000469386578"></path><path id="kity_path_212" fill="none" stroke="gray" d="M218.00000525265932,29.500000469386578L227.00000525265932,29.500000469386578"></path></g><path id="node_outline16" fill="none" stroke="none" d="M233.5000054165721,20.500000469386578h32a5,5,0,0,1,5,5v8a5,5,0,0,1,-5,5h-32a5,5,0,0,1,-5,-5v-8a5,5,0,0,1,5,-5z" stroke-width="3"></path><g id="node_text16" fill="black"><text id="kity_text_208" text-rendering="inherit" font-size="12" dy=".8em" y="21.700000442564487" font-weight="bold" x="233.5000054165721">K线图</text></g></g><g id="minder_node6" opacity="1"><g id="node_expander5" style="cursor: pointer;" display="none"><path id="kity_path_68" fill="white" stroke="gray" d="M228.50000525265932,55.50000085681677A6,6,0,1,1,216.50000525265932,55.50000085681677A6,6,0,1,1,228.50000525265932,55.50000085681677"></path><path id="kity_path_69" fill="none" stroke="gray"></path></g><path id="node_outline6" fill="none" stroke="none" d="M233.5000054165721,46.50000085681677h36a5,5,0,0,1,5,5v8a5,5,0,0,1,-5,5h-36a5,5,0,0,1,-5,-5v-8a5,5,0,0,1,5,-5z" stroke-width="3"></path><g id="node_text6" fill="black"><text id="kity_text_65" text-rendering="inherit" font-size="12" dy=".8em" y="47.70000082999468" x="233.5000054165721">日线图</text></g></g><g id="minder_node7" opacity="1"><g id="node_expander6" style="cursor: pointer;" display="none"><path id="kity_path_76" fill="white" stroke="gray" d="M228.50000525265932,81.50000124424696A6,6,0,1,1,216.50000525265932,81.50000124424696A6,6,0,1,1,228.50000525265932,81.50000124424696"></path><path id="kity_path_77" fill="none" stroke="gray"></path></g><path id="node_outline7" fill="none" stroke="none" d="M233.5000054165721,72.50000124424696h37a5,5,0,0,1,5,5v8a5,5,0,0,1,-5,5h-37a5,5,0,0,1,-5,-5v-8a5,5,0,0,1,5,-5z" stroke-width="3"></path><g id="node_text7" fill="black"><text id="kity_text_73" text-rendering="inherit" font-size="12" dy=".8em" y="73.70000121742487" x="233.5000054165721">周线图</text></g></g><g id="minder_node8" opacity="1"><g id="node_expander7" style="cursor: pointer;" display="none"><path id="kity_path_84" fill="white" stroke="gray" d="M232.50000531226397,111.5000016912818A6,6,0,1,1,220.50000531226397,111.5000016912818A6,6,0,1,1,232.50000531226397,111.5000016912818"></path><path id="kity_path_85" fill="none" stroke="gray"></path></g><path id="node_outline8" fill="none" stroke="none" d="M237.50000547617674,102.5000016912818h36a5,5,0,0,1,5,5v8a5,5,0,0,1,-5,5h-36a5,5,0,0,1,-5,-5v-8a5,5,0,0,1,5,-5z" stroke-width="3"></path><g id="node_text8" fill="black"><text id="kity_text_81" text-rendering="inherit" font-size="12" dy=".8em" y="103.7000016644597" x="237.50000547617674">月线图</text></g></g></g></g></svg>