<svg id="kity_svg_6" xmlns="http://www.w3.org/2000/svg" xmlns:xlink="http://www.w3.org/1999/xlink" version="1.1" width="869" height="160" style="background: rgb(251, 251, 251); visibility: visible;" viewBox="0 0 869 160"><defs id="kity_defs_7"><linearGradient id="kity_linearGradient_17" x1="0" y1="0" x2="0" y2="1"><stop id="kity_stop_18" offset="0" stop-color="rgb(255, 255, 255)"></stop><stop id="kity_stop_19" offset="1" stop-color="rgb(204, 204, 204)"></stop></linearGradient><marker id="kity_marker_2" orient="auto" refX="6" refY="0" viewBox="-7 -7 14 14" markerWidth="7" markerHeight="7" markerUnits="userSpaceOnUse"><path id="kity_path_3" fill="rgb(123, 115, 191)" stroke="none" d="M6,0A6,6,0,1,1,-6,0A6,6,0,1,1,6,0"></path></marker></defs><g id="kity_g_8"><g id="minder1" text-rendering="optimize-speed"><g id="minder_connect_group1"><path id="kity_path_178" fill="none" stroke="rgb(123, 115, 191)" stroke-width="1" d="M64.50000134855509,76.50000273436308A60,34,0,0,1,124.50000134855509,42.50000273436308"></path><path id="kity_path_186" fill="none" stroke="rgb(123, 115, 191)" stroke-width="1" d="M252.5000013485551,42.50000273436308C260.5000013485551,42.50000273436308,260.5000013485551,42.50000273436308,268.5000013485551,42.50000273436308"></path><path id="kity_path_194" fill="none" stroke="rgb(123, 115, 191)" stroke-width="1" d="M556.5000013485551,42.50000273436308C564.5000013485551,42.50000273436308,564.5000013485551,29.50000273436308,572.5000013485551,29.50000273436308"></path><path id="kity_path_202" fill="none" stroke="rgb(123, 115, 191)" stroke-width="1" d="M556.5000013485551,42.50000273436308C564.5000013485551,42.50000273436308,564.5000013485551,55.50000273436308,572.5000013485551,55.50000273436308"></path><path id="kity_path_210" fill="none" stroke="rgb(123, 115, 191)" stroke-width="1" d="M64.50000134855509,76.50000273436308A60,34,0,0,0,124.50000134855509,110.50000273436308"></path><path id="kity_path_218" fill="none" stroke="rgb(123, 115, 191)" stroke-width="1" d="M223.5000013485551,110.50000273436308C231.5000013485551,110.50000273436308,231.5000013485551,93.50000273436308,239.5000013485551,93.50000273436308"></path><path id="kity_path_226" fill="none" stroke="rgb(123, 115, 191)" stroke-width="1" d="M223.5000013485551,110.50000273436308C231.5000013485551,110.50000273436308,231.5000013485551,127.50000273436308,239.5000013485551,127.50000273436308"></path></g><g id="minder_node1"><path id="node_outline1" fill="rgb(123, 115, 191)" stroke="rgb(123, 115, 191)" d="M25.500001348555088,62.50000273436308h78a5,5,0,0,1,5,5v18a5,5,0,0,1,-5,5h-78a5,5,0,0,1,-5,-5v-18a5,5,0,0,1,5,-5z" stroke-width="3"></path><g id="node_text1" fill="white"><text id="kity_text_22" text-rendering="inherit" font-size="16" dy=".8em" y="66.10000269860029" x="32.50000134855509">基准点法</text></g></g><g id="kity_g_12"><path id="kity_path_13" fill="none" stroke="none" d="M32.50000134855509,76.50000273436308h0v0h0z"></path></g><g id="kity_g_14"><path id="kity_path_15" fill="none" stroke="none" d="M32.50000134855509,76.50000273436308h0v0h0z"></path><path id="kity_path_16" fill="none" stroke="none"></path></g><g id="minder_node15"><g id="node_expander14" style="cursor: pointer;"><path id="kity_path_183" fill="white" stroke="gray" d="M125.50000264495611,42.5000022277236A6,6,0,1,1,113.50000264495611,42.5000022277236A6,6,0,1,1,125.50000264495611,42.5000022277236"></path><path id="kity_path_184" fill="none" stroke="gray" d="M115.00000264495611,42.5000022277236L124.00000264495611,42.5000022277236"></path></g><path id="node_outline15" fill="rgb(239, 238, 246)" stroke="rgb(123, 115, 191)" d="M129.50000304728746,29.5000022277236h120a3,3,0,0,1,3,3v20a3,3,0,0,1,-3,3h-120a3,3,0,0,1,-3,-3v-20a3,3,0,0,1,3,-3z" stroke-width="1"></path><g id="node_text15" fill="black"><text id="kity_text_180" text-rendering="inherit" font-size="14" dy=".8em" y="33.40000219643116" x="146.50000304728746">分型市场理论</text></g></g><g id="minder_node16"><g id="node_expander15" style="cursor: pointer;"><path id="kity_path_191" fill="white" stroke="gray" d="M268.50000477582216,42.5000022277236A6,6,0,1,1,256.50000477582216,42.5000022277236A6,6,0,1,1,268.50000477582216,42.5000022277236"></path><path id="kity_path_192" fill="none" stroke="gray" d="M258.00000477582216,42.5000022277236L267.00000477582216,42.5000022277236"></path></g><path id="node_outline16" fill="none" stroke="none" d="M273.50000493973494,33.5000022277236h278a5,5,0,0,1,5,5v8a5,5,0,0,1,-5,5h-278a5,5,0,0,1,-5,-5v-8a5,5,0,0,1,5,-5z" stroke-width="3"></path><g id="node_text16" fill="black"><text id="kity_text_188" text-rendering="inherit" font-size="12" dy=".8em" y="34.70000220090151" font-weight="bold" x="273.50000493973494">在一个整体中不同大小的组成部分都具有相同的形状</text></g></g><g id="minder_node17"><g id="node_expander16" style="cursor: pointer;" display="none"><path id="kity_path_199" fill="white" stroke="gray" d="M572.5000093057752,29.500002034008503A6,6,0,1,1,560.5000093057752,29.500002034008503A6,6,0,1,1,572.5000093057752,29.500002034008503"></path><path id="kity_path_200" fill="none" stroke="gray"></path></g><path id="node_outline17" fill="none" stroke="none" d="M577.5000094696879,20.500002034008503h267a5,5,0,0,1,5,5v8a5,5,0,0,1,-5,5h-267a5,5,0,0,1,-5,-5v-8a5,5,0,0,1,5,-5z" stroke-width="3"></path><g id="node_text17" fill="black"><text id="kity_text_196" text-rendering="inherit" font-size="12" dy=".8em" y="21.700002007186413" x="577.5000094696879">2分钟K线图所展现的形态和特征与日线周线图相同</text></g></g><g id="minder_node18"><g id="node_expander17" style="cursor: pointer;" display="none"><path id="kity_path_207" fill="white" stroke="gray" d="M572.5000093057752,55.500002421438694A6,6,0,1,1,560.5000093057752,55.500002421438694A6,6,0,1,1,572.5000093057752,55.500002421438694"></path><path id="kity_path_208" fill="none" stroke="gray"></path></g><path id="node_outline18" fill="none" stroke="none" d="M577.5000094696879,46.500002421438694h237a5,5,0,0,1,5,5v8a5,5,0,0,1,-5,5h-237a5,5,0,0,1,-5,-5v-8a5,5,0,0,1,5,-5z" stroke-width="3"></path><g id="node_text18" fill="black"><text id="kity_text_204" text-rendering="inherit" font-size="12" dy=".8em" y="47.700002394616604" x="577.5000094696879">关注的时间单位越短=更容易被‘噪声’左右</text></g></g><g id="minder_node19"><g id="node_expander18" style="cursor: pointer;"><path id="kity_path_215" fill="white" stroke="gray" d="M125.50000264495611,110.50000324100256A6,6,0,1,1,113.50000264495611,110.50000324100256A6,6,0,1,1,125.50000264495611,110.50000324100256"></path><path id="kity_path_216" fill="none" stroke="gray" d="M115.00000264495611,110.50000324100256L124.00000264495611,110.50000324100256"></path></g><path id="node_outline19" fill="rgb(239, 238, 246)" stroke="rgb(123, 115, 191)" d="M129.50000304728746,97.50000324100256h91a3,3,0,0,1,3,3v20a3,3,0,0,1,-3,3h-91a3,3,0,0,1,-3,-3v-20a3,3,0,0,1,3,-3z" stroke-width="1"></path><g id="node_text19" fill="black"><text id="kity_text_212" text-rendering="inherit" font-size="14" dy=".8em" y="101.40000320971012" x="146.50000304728746">两种变体</text></g></g><g id="minder_node20"><g id="node_expander19" style="cursor: pointer;" display="none"><path id="kity_path_223" fill="white" stroke="gray" d="M239.5000043436885,93.50000298768282A6,6,0,1,1,227.5000043436885,93.50000298768282A6,6,0,1,1,239.5000043436885,93.50000298768282"></path><path id="kity_path_224" fill="none" stroke="gray"></path></g><path id="node_outline20" fill="none" stroke="none" d="M244.5000048801303,80.50000298768282h159a5,5,0,0,1,5,5v16a5,5,0,0,1,-5,5h-159a5,5,0,0,1,-5,-5v-16a5,5,0,0,1,5,-5z" stroke-width="3"></path><g id="node_text20" fill="black"><text id="kity_text_220" text-rendering="inherit" font-size="12" dy=".8em" y="85.70000296086073" x="269.5000048801303">根据波段低点设置止损位</text></g><g id="node_priority6"><path id="kity_path_235" fill="#840023" stroke="none" d="M245.00000451505184,97.00000284612179c0,3.866,3.134,7,7,7h6c3.866,0,7,-3.134,7,-7V91.00000284612179H245.00000451505184V97.00000284612179z"></path><path id="kity_path_236" fill="#FF1200" stroke="none" d="M265.00000451505184,94.00000284612179c0,3.866,-3.134,7,-7,7H252.00000451505184c-3.866,0,-7,-3.134,-7,-7V91.00000284612179c0,-3.866,3.134,-7,7,-7h6c3.866,0,7,3.134,7,7V94.00000284612179z" opacity="0.8"></path><text id="kity_text_237" text-rendering="geometricPrecision" x="254.00000450760126" y="93.50000283867121" text-anchor="middle" font-style="italic" font-size="12" fill="white" dy="5">1</text></g></g><g id="minder_node21"><g id="node_expander20" style="cursor: pointer;" display="none"><path id="kity_path_231" fill="white" stroke="gray" d="M239.5000043436885,127.5000034943223A6,6,0,1,1,227.5000043436885,127.5000034943223A6,6,0,1,1,239.5000043436885,127.5000034943223"></path><path id="kity_path_232" fill="none" stroke="gray"></path></g><path id="node_outline21" fill="none" stroke="none" d="M244.5000048801303,114.5000034943223h229a5,5,0,0,1,5,5v16a5,5,0,0,1,-5,5h-229a5,5,0,0,1,-5,-5v-16a5,5,0,0,1,5,-5z" stroke-width="3"></path><g id="node_text21" fill="black"><text id="kity_text_228" text-rendering="inherit" font-size="12" dy=".8em" y="119.70000346750021" x="269.5000048801303">除了考虑波段低点外还考虑新波段高点</text></g><g id="node_priority7"><path id="kity_path_240" fill="#01467F" stroke="none" d="M245.00000451505184,131.00000335276127c0,3.866,3.134,7,7,7h6c3.866,0,7,-3.134,7,-7V125.00000335276127H245.00000451505184V131.00000335276127z"></path><path id="kity_path_241" fill="#0074FF" stroke="none" d="M265.00000451505184,128.00000335276127c0,3.866,-3.134,7,-7,7H252.00000451505184c-3.866,0,-7,-3.134,-7,-7V125.00000335276127c0,-3.866,3.134,-7,7,-7h6c3.866,0,7,3.134,7,7V128.00000335276127z" opacity="0.8"></path><text id="kity_text_242" text-rendering="geometricPrecision" x="254.00000450760126" y="127.50000334531069" text-anchor="middle" font-style="italic" font-size="12" fill="white" dy="5">2</text></g></g></g></g></svg>