<svg id="kity_svg_6" xmlns="http://www.w3.org/2000/svg" xmlns:xlink="http://www.w3.org/1999/xlink" version="1.1" width="866" height="238" style="background: rgb(251, 251, 251); visibility: visible;" viewBox="0 0 866 238"><defs id="kity_defs_7"><linearGradient id="kity_linearGradient_17" x1="0" y1="0" x2="0" y2="1"><stop id="kity_stop_18" offset="0" stop-color="rgb(255, 255, 255)"></stop><stop id="kity_stop_19" offset="1" stop-color="rgb(204, 204, 204)"></stop></linearGradient><marker id="kity_marker_2" orient="auto" refX="6" refY="0" viewBox="-7 -7 14 14" markerWidth="7" markerHeight="7" markerUnits="userSpaceOnUse"><path id="kity_path_3" fill="rgb(191, 147, 115)" stroke="none" d="M6,0A6,6,0,1,1,-6,0A6,6,0,1,1,6,0"></path></marker></defs><g id="kity_g_8"><g id="minder1" text-rendering="optimize-speed"><g id="minder_connect_group1"><path id="kity_path_31" fill="none" stroke="rgb(191, 147, 115)" stroke-width="1" d="M57.50000152736902,108.50000234693289A59,9,0,0,1,116.50000152736902,99.50000234693289"></path><path id="kity_path_83" fill="none" stroke="rgb(191, 147, 115)" stroke-width="1" d="M57.50000152736902,108.50000234693289A55,80,0,0,0,112.50000152736902,188.5000023469329"></path><path id="kity_path_118" fill="none" stroke="rgb(191, 147, 115)" stroke-width="1" d="M57.50000152736902,108.50000234693289A56,75,0,0,1,113.50000152736902,33.50000234693289"></path><path id="kity_path_134" fill="none" stroke="rgb(191, 147, 115)" stroke-width="1" d="M338.500001527369,188.5000023469329C346.500001527369,188.5000023469329,346.500001527369,171.5000023469329,354.500001527369,171.5000023469329"></path><path id="kity_path_142" fill="none" stroke="rgb(191, 147, 115)" stroke-width="1" d="M338.500001527369,188.5000023469329C346.500001527369,188.5000023469329,346.500001527369,205.5000023469329,354.500001527369,205.5000023469329"></path><path id="kity_path_209" fill="none" stroke="rgb(191, 147, 115)" stroke-width="1" d="M244.50000152736902,99.50000234693289C252.50000152736902,99.50000234693289,252.50000152736902,82.50000234693289,260.500001527369,82.50000234693289"></path><path id="kity_path_210" fill="none" stroke="rgb(191, 147, 115)" stroke-width="1" d="M244.50000152736902,99.50000234693289C252.50000152736902,99.50000234693289,252.50000152736902,116.50000234693289,260.500001527369,116.50000234693289"></path></g><g id="minder_node1"><path id="node_outline1" fill="rgb(191, 147, 115)" stroke="rgb(191, 147, 115)" d="M25.500001527369022,94.50000234693289h64a5,5,0,0,1,5,5v18a5,5,0,0,1,-5,5h-64a5,5,0,0,1,-5,-5v-18a5,5,0,0,1,5,-5z" stroke-width="3"></path><g id="node_text1" fill="white"><text id="kity_text_22" text-rendering="inherit" font-size="16" dy=".8em" y="98.1000023111701" x="32.50000152736902">成交量</text></g></g><g id="kity_g_14" display="none"><path id="kity_path_15" fill="rgba(153, 64, 0, 0.5)" stroke="none" d="M260.500001527369,94.50000234693289h361v4h-361z"></path><path id="kity_path_16" fill="none" stroke="rgb(128, 53, 0)" d="M260.500001527369,94.50000234693289L621.500001527369,94.50000234693289" stroke-width="1"></path></g><g id="minder_node2" opacity="1"><g id="node_expander1" style="cursor: pointer;"><path id="kity_path_36" fill="white" stroke="gray" d="M117.50000270456076,99.50000221282244A6,6,0,1,1,105.50000270456076,99.50000221282244A6,6,0,1,1,117.50000270456076,99.50000221282244"></path><path id="kity_path_37" fill="none" stroke="gray" d="M107.00000270456076,99.50000221282244L116.00000270456076,99.50000221282244"></path></g><path id="node_outline2" fill="rgb(246, 242, 238)" stroke="rgb(191, 147, 115)" d="M121.50000310689211,86.50000221282244h120a3,3,0,0,1,3,3v20a3,3,0,0,1,-3,3h-120a3,3,0,0,1,-3,-3v-20a3,3,0,0,1,3,-3z" stroke-width="1"></path><g id="node_text2" fill="black"><text id="kity_text_33" text-rendering="inherit" font-size="14" dy=".8em" y="90.40000218153" x="138.5000031068921">成交量的形态</text></g></g><g id="minder_node8" opacity="1"><g id="node_expander7" style="cursor: pointer;"><path id="kity_path_88" fill="white" stroke="gray" d="M113.50000264495611,188.50000353902578A6,6,0,1,1,101.50000264495611,188.50000353902578A6,6,0,1,1,113.50000264495611,188.50000353902578"></path><path id="kity_path_89" fill="none" stroke="gray" d="M103.00000264495611,188.50000353902578L112.00000264495611,188.50000353902578"></path></g><path id="node_outline8" fill="rgb(246, 242, 238)" stroke="rgb(191, 147, 115)" d="M117.50000304728746,175.50000353902578h218a3,3,0,0,1,3,3v20a3,3,0,0,1,-3,3h-218a3,3,0,0,1,-3,-3v-20a3,3,0,0,1,3,-3z" stroke-width="1"></path><g id="node_text8" fill="black"><text id="kity_text_85" text-rendering="inherit" font-size="14" dy=".8em" y="179.40000350773335" x="134.50000304728746">成交量的高低是一个相对概念</text></g></g><g id="kity_g_12" display="none"><path id="kity_path_13" fill="none" stroke="rgb(112, 85, 66)" d="M121.50000152736902,26.500002346932888h77a3,3,0,0,1,3,3v20a3,3,0,0,1,-3,3h-77a3,3,0,0,1,-3,-3v-20a3,3,0,0,1,3,-3z" stroke-width="5"></path></g><g id="minder_node11" opacity="1"><g id="node_expander11" style="cursor: pointer;" display="none"><path id="kity_path_131" fill="white" stroke="gray" d="M114.50000265985727,33.5000012293458A6,6,0,1,1,102.50000265985727,33.5000012293458A6,6,0,1,1,114.50000265985727,33.5000012293458"></path><path id="kity_path_132" fill="none" stroke="gray" d="M104.00000265985727,33.5000012293458L113.00000265985727,33.5000012293458"></path></g><path id="node_outline12" fill="rgb(246, 242, 238)" stroke="rgb(191, 147, 115)" d="M118.50000306218863,20.5000012293458h161a3,3,0,0,1,3,3v20a3,3,0,0,1,-3,3h-161a3,3,0,0,1,-3,-3v-20a3,3,0,0,1,3,-3z" stroke-width="1"></path><g id="node_text12" fill="black"><text id="kity_text_124" text-rendering="inherit" font-size="14" dy=".8em" y="24.40000119805336" x="135.50000306218863">成交量必须时刻关注</text></g></g><g id="minder_node13"><g id="node_expander12" style="cursor: pointer;" display="none"><path id="kity_path_139" fill="white" stroke="gray" d="M354.50000623613596,171.50000328570604A6,6,0,1,1,342.50000623613596,171.50000328570604A6,6,0,1,1,354.50000623613596,171.50000328570604"></path><path id="kity_path_140" fill="none" stroke="gray"></path></g><path id="node_outline13" fill="none" stroke="none" d="M359.50000677257776,158.50000328570604h482a5,5,0,0,1,5,5v16a5,5,0,0,1,-5,5h-482a5,5,0,0,1,-5,-5v-16a5,5,0,0,1,5,-5z" stroke-width="3"></path><g id="node_text13" fill="black"><text id="kity_text_136" text-rendering="inherit" font-size="12" dy=".8em" y="163.70000325888395" font-weight="bold" x="384.50000677257776">成交量高指同一只股票某时段内的成交水平明显高于同一时段内其他交易日的一般水平</text></g><g id="node_priority1"><path id="kity_path_160" fill="#840023" stroke="none" d="M360.0000064074993,175.000003144145c0,3.866,3.134,7,7,7h6c3.866,0,7,-3.134,7,-7V169.000003144145H360.0000064074993V175.000003144145z"></path><path id="kity_path_161" fill="#FF1200" stroke="none" d="M380.0000064074993,172.000003144145c0,3.866,-3.134,7,-7,7H367.0000064074993c-3.866,0,-7,-3.134,-7,-7V169.000003144145c0,-3.866,3.134,-7,7,-7h6c3.866,0,7,3.134,7,7V172.000003144145z" opacity="0.8"></path><text id="kity_text_162" text-rendering="geometricPrecision" x="369.00000640004873" y="171.50000313669443" text-anchor="middle" font-style="italic" font-size="12" fill="white" dy="5">1</text></g></g><g id="minder_node14"><g id="node_expander13" style="cursor: pointer;" display="none"><path id="kity_path_147" fill="white" stroke="gray" d="M354.50000623613596,205.50000379234552A6,6,0,1,1,342.50000623613596,205.50000379234552A6,6,0,1,1,354.50000623613596,205.50000379234552"></path><path id="kity_path_148" fill="none" stroke="gray"></path></g><path id="node_outline14" fill="none" stroke="none" d="M359.50000677257776,192.50000379234552h158a5,5,0,0,1,5,5v16a5,5,0,0,1,-5,5h-158a5,5,0,0,1,-5,-5v-16a5,5,0,0,1,5,-5z" stroke-width="3"></path><g id="node_text14" fill="black"><text id="kity_text_144" text-rendering="inherit" font-size="12" dy=".8em" y="197.70000376552343" font-weight="bold" x="384.50000677257776">成交的具体股数并不重要</text></g><g id="node_priority2"><path id="kity_path_165" fill="#01467F" stroke="none" d="M360.0000064074993,209.0000036507845c0,3.866,3.134,7,7,7h6c3.866,0,7,-3.134,7,-7V203.0000036507845H360.0000064074993V209.0000036507845z"></path><path id="kity_path_166" fill="#0074FF" stroke="none" d="M380.0000064074993,206.0000036507845c0,3.866,-3.134,7,-7,7H367.0000064074993c-3.866,0,-7,-3.134,-7,-7V203.0000036507845c0,-3.866,3.134,-7,7,-7h6c3.866,0,7,3.134,7,7V206.0000036507845z" opacity="0.8"></path><text id="kity_text_167" text-rendering="geometricPrecision" x="369.00000640004873" y="205.5000036433339" text-anchor="middle" font-style="italic" font-size="12" fill="white" dy="5">2</text></g></g><g id="minder_node10" opacity="1"><g id="node_expander9" style="cursor: pointer;" display="none"><path id="kity_path_115" fill="white" stroke="gray" d="M260.5000048354268,82.5000019595027A6,6,0,1,1,248.5000048354268,82.5000019595027A6,6,0,1,1,260.5000048354268,82.5000019595027"></path><path id="kity_path_116" fill="none" stroke="gray"></path></g><path id="node_outline10" fill="#fbd4b4" stroke="none" d="M265.5000053718686,69.5000019595027h351a5,5,0,0,1,5,5v16a5,5,0,0,1,-5,5h-351a5,5,0,0,1,-5,-5v-16a5,5,0,0,1,5,-5z" stroke-width="3"></path><g id="node_text10" fill="black"><text id="kity_text_112" text-rendering="inherit" font-size="12" dy=".8em" y="74.7000019326806" font-weight="bold" x="290.5000053718686">股票的反转形态必须同时满足价格和成交量的形态的特定要求</text></g><g id="node_priority3"><path id="kity_path_197" fill="#840023" stroke="none" d="M266.00000500679016,86.00000181794167c0,3.866,3.134,7,7,7h6c3.866,0,7,-3.134,7,-7V80.00000181794167H266.00000500679016V86.00000181794167z"></path><path id="kity_path_198" fill="#FF1200" stroke="none" d="M286.00000500679016,83.00000181794167c0,3.866,-3.134,7,-7,7H273.00000500679016c-3.866,0,-7,-3.134,-7,-7V80.00000181794167c0,-3.866,3.134,-7,7,-7h6c3.866,0,7,3.134,7,7V83.00000181794167z" opacity="0.8"></path><text id="kity_text_199" text-rendering="geometricPrecision" x="275.0000049993396" y="82.50000181049109" text-anchor="middle" font-style="italic" font-size="12" fill="white" dy="5">1</text></g></g><g id="minder_node16" opacity="1"><g id="node_expander15" style="cursor: pointer;" display="none"><path id="kity_path_176" fill="white" stroke="gray" d="M260.5000048354268,116.50000246614218A6,6,0,1,1,248.5000048354268,116.50000246614218A6,6,0,1,1,260.5000048354268,116.50000246614218"></path><path id="kity_path_177" fill="none" stroke="gray" d="M250.0000048354268,116.50000246614218L259.0000048354268,116.50000246614218"></path></g><path id="node_outline16" fill="none" stroke="none" d="M265.5000053718686,103.50000246614218h218a5,5,0,0,1,5,5v16a5,5,0,0,1,-5,5h-218a5,5,0,0,1,-5,-5v-16a5,5,0,0,1,5,-5z" stroke-width="3"></path><g id="node_text16" fill="black"><text id="kity_text_173" text-rendering="inherit" font-size="12" dy=".8em" y="108.70000243932009" x="290.5000053718686">成交量高是头肩顶中左肩的重要特征</text></g><g id="node_priority4"><path id="kity_path_202" fill="#01467F" stroke="none" d="M266.00000500679016,120.00000232458115c0,3.866,3.134,7,7,7h6c3.866,0,7,-3.134,7,-7V114.00000232458115H266.00000500679016V120.00000232458115z"></path><path id="kity_path_203" fill="#0074FF" stroke="none" d="M286.00000500679016,117.00000232458115c0,3.866,-3.134,7,-7,7H273.00000500679016c-3.866,0,-7,-3.134,-7,-7V114.00000232458115c0,-3.866,3.134,-7,7,-7h6c3.866,0,7,3.134,7,7V117.00000232458115z" opacity="0.8"></path><text id="kity_text_204" text-rendering="geometricPrecision" x="275.0000049993396" y="116.50000231713057" text-anchor="middle" font-style="italic" font-size="12" fill="white" dy="5">2</text></g></g></g></g></svg>