<svg id="kity_svg_6" xmlns="http://www.w3.org/2000/svg" xmlns:xlink="http://www.w3.org/1999/xlink" version="1.1" width="1235" height="449" style="background: rgb(251, 251, 251); visibility: visible;" viewBox="0 0 1235 449"><defs id="kity_defs_7"><linearGradient id="kity_linearGradient_17" x1="0" y1="0" x2="0" y2="1"><stop id="kity_stop_18" offset="0" stop-color="rgb(255, 255, 255)"></stop><stop id="kity_stop_19" offset="1" stop-color="rgb(204, 204, 204)"></stop></linearGradient><marker id="kity_marker_2" orient="auto" refX="6" refY="0" viewBox="-7 -7 14 14" markerWidth="7" markerHeight="7" markerUnits="userSpaceOnUse"><path id="kity_path_3" fill="rgb(115, 161, 191)" stroke="none" d="M6,0A6,6,0,1,1,-6,0A6,6,0,1,1,6,0"></path></marker></defs><g id="kity_g_8"><g id="minder1" text-rendering="optimize-speed"><g id="minder_connect_group1"><path id="kity_path_31" fill="none" stroke="rgb(115, 161, 191)" stroke-width="1" d="M65.50000054389238,219.50000263005495A78,143,0,0,1,143.50000054389238,76.50000263005495"></path><path id="kity_path_39" fill="none" stroke="rgb(115, 161, 191)" stroke-width="1" d="M65.50000054389238,219.50000263005495A75,5,0,0,1,140.50000054389238,214.50000263005495"></path><path id="kity_path_96" fill="none" stroke="rgb(115, 161, 191)" stroke-width="1" d="M65.50000054389238,219.50000263005495A71,154,0,0,0,136.50000054389238,373.50000263005495"></path><path id="kity_path_124" fill="none" stroke="rgb(115, 161, 191)" stroke-width="1" d="M443.5000005438924,373.50000263005495C459.5000005438924,373.50000263005495,459.5000005438924,315.50000263005495,475.5000005438924,315.50000263005495"></path><path id="kity_path_132" fill="none" stroke="rgb(115, 161, 191)" stroke-width="1" d="M443.5000005438924,373.50000263005495C459.5000005438924,373.50000263005495,459.5000005438924,363.50000263005495,475.5000005438924,363.50000263005495"></path><path id="kity_path_141" fill="none" stroke="rgb(115, 161, 191)" stroke-width="1" d="M443.5000005438924,373.50000263005495C459.5000005438924,373.50000263005495,459.5000005438924,410.50000263005495,475.5000005438924,410.50000263005495"></path><path id="kity_path_149" fill="none" stroke="rgb(115, 161, 191)" stroke-width="1" d="M474.5000005438924,214.50000263005495C482.5000005438924,214.50000263005495,482.5000005438924,197.50000263005495,490.5000005438924,197.50000263005495"></path><path id="kity_path_150" fill="none" stroke="rgb(115, 161, 191)" stroke-width="1" d="M474.5000005438924,214.50000263005495C481.0000005438924,214.50000263005495,481.0000005438924,255.50000263005495,487.5000005438924,255.50000263005495"></path><path id="kity_path_166" fill="none" stroke="rgb(115, 161, 191)" stroke-width="1" d="M620.5000005438924,76.50000263005495C628.5000005438924,76.50000263005495,628.5000005438924,37.50000263005495,636.5000005438924,37.50000263005495"></path><path id="kity_path_167" fill="none" stroke="rgb(115, 161, 191)" stroke-width="1" d="M620.5000005438924,76.50000263005495C629.0000005438924,76.50000263005495,629.0000005438924,95.50000263005495,637.5000005438924,95.50000263005495"></path><path id="kity_path_168" fill="none" stroke="rgb(115, 161, 191)" stroke-width="1" d="M620.5000005438924,76.50000263005495C630.5000005438924,76.50000263005495,630.5000005438924,153.50000263005495,640.5000005438924,153.50000263005495"></path></g><g id="minder_node1"><path id="node_outline1" fill="rgb(115, 161, 191)" stroke="rgb(115, 161, 191)" d="M25.500000543892384,205.50000263005495h80a5,5,0,0,1,5,5v18a5,5,0,0,1,-5,5h-80a5,5,0,0,1,-5,-5v-18a5,5,0,0,1,5,-5z" stroke-width="3"></path><g id="node_text1" fill="white"><text id="kity_text_22" text-rendering="inherit" font-size="16" dy=".8em" y="209.10000259429216" x="32.500000543892384">技术分析</text></g></g><g id="kity_g_14" display="none"><path id="kity_path_15" fill="rgba(0, 92, 153, 0.5)" stroke="none" d="M451.5000005438924,266.50000263005495h695v4h-695z"></path><path id="kity_path_16" fill="none" stroke="rgb(0, 76, 128)" d="M451.5000005438924,266.50000263005495L1146.5000005438924,266.50000263005495" stroke-width="1"></path></g><g id="minder_node2" opacity="1"><g id="node_expander1" style="cursor: pointer;"><path id="kity_path_36" fill="white" stroke="gray" d="M144.50000212341547,76.5000004991889A6,6,0,1,1,132.50000212341547,76.5000004991889A6,6,0,1,1,144.50000212341547,76.5000004991889"></path><path id="kity_path_37" fill="none" stroke="gray" d="M134.00000212341547,76.5000004991889L143.00000212341547,76.5000004991889"></path></g><path id="node_outline2" fill="rgb(238, 243, 246)" stroke="rgb(115, 161, 191)" d="M148.50000289827585,60.5000004991889h469a3,3,0,0,1,3,3v26a3,3,0,0,1,-3,3h-469a3,3,0,0,1,-3,-3v-26a3,3,0,0,1,3,-3z" stroke-width="1"></path><g id="node_text2" fill="black"><text id="kity_text_33" text-rendering="inherit" font-size="14" dy=".8em" y="67.40000046789646" x="190.50000289827585">为股票确定内在价值是徒劳的,股价始终完全由交易市场的供需决定</text></g><g id="node_priority1"><path id="kity_path_153" fill="#840023" stroke="none" d="M166.0000025331974,80.00000035762787c0,3.866,3.134,7,7,7h6c3.866,0,7,-3.134,7,-7V74.00000035762787H166.0000025331974V80.00000035762787z"></path><path id="kity_path_154" fill="#FF1200" stroke="none" d="M186.0000025331974,77.00000035762787c0,3.866,-3.134,7,-7,7H173.0000025331974c-3.866,0,-7,-3.134,-7,-7V74.00000035762787c0,-3.866,3.134,-7,7,-7h6c3.866,0,7,3.134,7,7V77.00000035762787z" opacity="0.8"></path><text id="kity_text_155" text-rendering="geometricPrecision" x="175.00000252574682" y="76.50000035017729" text-anchor="middle" font-style="italic" font-size="12" fill="white" dy="5">1</text></g></g><g id="minder_node3" opacity="1"><g id="node_expander2" style="cursor: pointer;"><path id="kity_path_44" fill="white" stroke="gray" d="M141.500002078712,214.50000255554914A6,6,0,1,1,129.500002078712,214.50000255554914A6,6,0,1,1,141.500002078712,214.50000255554914"></path><path id="kity_path_45" fill="none" stroke="gray" d="M131.000002078712,214.50000255554914L140.000002078712,214.50000255554914"></path></g><path id="node_outline3" fill="rgb(238, 243, 246)" stroke="rgb(115, 161, 191)" d="M145.50000285357237,198.50000255554914h326a3,3,0,0,1,3,3v26a3,3,0,0,1,-3,3h-326a3,3,0,0,1,-3,-3v-26a3,3,0,0,1,3,-3z" stroke-width="1"></path><g id="node_text3" fill="black"><text id="kity_text_41" text-rendering="inherit" font-size="14" dy=".8em" y="205.4000025242567" x="187.50000285357237">基本面分析所研究的大部分数据都已经过时</text></g><g id="node_priority2"><path id="kity_path_158" fill="#01467F" stroke="none" d="M163.00000248849392,218.0000024139881c0,3.866,3.134,7,7,7h6c3.866,0,7,-3.134,7,-7V212.0000024139881H163.00000248849392V218.0000024139881z"></path><path id="kity_path_159" fill="#0074FF" stroke="none" d="M183.00000248849392,215.0000024139881c0,3.866,-3.134,7,-7,7H170.00000248849392c-3.866,0,-7,-3.134,-7,-7V212.0000024139881c0,-3.866,3.134,-7,7,-7h6c3.866,0,7,3.134,7,7V215.0000024139881z" opacity="0.8"></path><text id="kity_text_160" text-rendering="geometricPrecision" x="172.00000248104334" y="214.50000240653753" text-anchor="middle" font-style="italic" font-size="12" fill="white" dy="5">2</text></g></g><g id="kity_g_12" display="none"><path id="kity_path_13" fill="none" stroke="rgb(66, 94, 112)" d="M596.5000005438924,161.50000263005495h361a5,5,0,0,1,5,5v26a5,5,0,0,1,-5,5h-361a5,5,0,0,1,-5,-5v-26a5,5,0,0,1,5,-5z" stroke-width="5"></path></g><g id="minder_node9" opacity="1"><g id="node_expander8" style="cursor: pointer;"><path id="kity_path_101" fill="white" stroke="gray" d="M137.50000201910734,373.5000049248338A6,6,0,1,1,125.50000201910734,373.5000049248338A6,6,0,1,1,137.50000201910734,373.5000049248338"></path><path id="kity_path_102" fill="none" stroke="gray" d="M127.00000201910734,373.5000049248338L136.00000201910734,373.5000049248338"></path></g><path id="node_outline9" fill="rgb(238, 243, 246)" stroke="rgb(115, 161, 191)" d="M141.50000279396772,357.5000049248338h299a3,3,0,0,1,3,3v26a3,3,0,0,1,-3,3h-299a3,3,0,0,1,-3,-3v-26a3,3,0,0,1,3,-3z" stroke-width="1"></path><g id="node_text9" fill="black"><text id="kity_text_98" text-rendering="inherit" font-size="14" dy=".8em" y="364.40000489354134" x="183.50000279396772">价格沿趋势变动，直至供需平衡被打破</text></g><g id="node_priority3"><path id="kity_path_163" fill="#006300" stroke="none" d="M159.00000242888927,377.00000478327274c0,3.866,3.134,7,7,7h6c3.866,0,7,-3.134,7,-7V371.00000478327274H159.00000242888927V377.00000478327274z"></path><path id="kity_path_164" fill="#00AF00" stroke="none" d="M179.00000242888927,374.00000478327274c0,3.866,-3.134,7,-7,7H166.00000242888927c-3.866,0,-7,-3.134,-7,-7V371.00000478327274c0,-3.866,3.134,-7,7,-7h6c3.866,0,7,3.134,7,7V374.00000478327274z" opacity="0.8"></path><text id="kity_text_165" text-rendering="geometricPrecision" x="168.0000024214387" y="373.50000477582216" text-anchor="middle" font-style="italic" font-size="12" fill="white" dy="5">3</text></g></g><g id="minder_node12" opacity="1"><g id="node_expander11" style="cursor: pointer;" display="none"><path id="kity_path_129" fill="white" stroke="gray" d="M475.5000070556998,315.5000040605664A6,6,0,1,1,463.5000070556998,315.5000040605664A6,6,0,1,1,475.5000070556998,315.5000040605664"></path><path id="kity_path_130" fill="none" stroke="gray"></path></g><path id="node_outline12" fill="#73a1bf" stroke="none" d="M480.5000075921416,302.5000040605664h314a5,5,0,0,1,5,5v16a5,5,0,0,1,-5,5h-314a5,5,0,0,1,-5,-5v-16a5,5,0,0,1,5,-5z" stroke-width="3"></path><g id="node_text12" fill="black"><text id="kity_text_126" text-rendering="inherit" font-size="12" dy=".8em" y="307.70000403374434" font-weight="bold" x="505.5000075921416">打破供需平衡的变化往往可以从市场运行状况中推测出</text></g><g id="node_progress6"><path id="kity_path_200" fill="#FFED83" stroke="none" d="M500.0000073760748,316.000004068017A9,9,0,1,1,482.0000073760748,316.000004068017A9,9,0,1,1,500.0000073760748,316.000004068017"></path><path id="kity_path_201" fill="#43BC00" stroke="none" d="M491.0000073760748,316.000004068017L500.0000073760748,316.000004068017A9,9,0,0,0,497.3639684067537,309.6360430373381A9,9,0,0,0,491.0000073760748,307.000004068017L491.0000073760748,316.000004068017z"></path><path id="kity_path_202" fill="#8E8E8E" stroke="none" d="M491.0000072270632,309.0000039190054c4.418,0,8,3.582,8,8h1c0,-5.523,-3.477,-10,-9,-10S482.0000072270632,311.47700391900537,482.0000072270632,317.0000039190054h1C483.0000072270632,312.5820039190054,486.5820072270632,309.0000039190054,491.0000072270632,309.0000039190054z"></path><path id="kity_path_204" fill="#EEE" stroke="none" d="M506.8120073760748,323.896004068017l-6.75,6.75l-4.5,-4.5L497.2500073760748,324.459004068017l2.812,2.803l5.062,-5.053L506.8120073760748,323.896004068017z" display="none"></path><path id="kity_path_203" fill="url(#kity_linearGradient_17)" stroke="none" d="M491.0000072270632,306.0000039190054C485.47700722706315,306.0000039190054,481.0000072270632,310.47700391900537,481.0000072270632,316.0000039190054c0,5.523,4.477,10,10,10s10,-4.477,10,-10C501.0000072270632,310.47700391900537,496.5230072270632,306.0000039190054,491.0000072270632,306.0000039190054zM491.0000072270632,324.0000039190054c-4.418,0,-8,-3.582,-8,-8s3.582,-8,8,-8s8,3.582,8,8S495.4180072270632,324.0000039190054,491.0000072270632,324.0000039190054z"></path></g></g><g id="minder_node13" opacity="1"><g id="node_expander12" style="cursor: pointer;" display="none"><path id="kity_path_137" fill="white" stroke="gray" d="M475.5000070556998,363.50000477582216A6,6,0,1,1,463.5000070556998,363.50000477582216A6,6,0,1,1,475.5000070556998,363.50000477582216"></path><path id="kity_path_138" fill="none" stroke="gray"></path></g><path id="node_outline13" fill="none" stroke="none" d="M480.5000075921416,345.50000477582216h386a5,5,0,0,1,5,5v26a5,5,0,0,1,-5,5h-386a5,5,0,0,1,-5,-5v-26a5,5,0,0,1,5,-5z" stroke-width="3"></path><g id="node_text13" fill="black"><text id="kity_text_134" text-rendering="inherit" font-size="12" dy=".8em" y="346.7000047490001" x="505.5000075921416">图上出现的各种形态、样式、点位和区域都有自己的意义，有助于推</text><text id="kity_text_139" text-rendering="inherit" font-size="12" dy=".8em" y="364.7000047490001" x="505.5000075921416">测未来走势</text></g><g id="node_progress7"><path id="kity_path_206" fill="#FFED83" stroke="none" d="M500.0000073760748,364.00000478327274A9,9,0,1,1,482.0000073760748,364.00000478327274A9,9,0,1,1,500.0000073760748,364.00000478327274"></path><path id="kity_path_207" fill="#43BC00" stroke="none" d="M491.0000073760748,364.00000478327274L500.0000073760748,364.00000478327274A9,9,0,0,0,497.3639684067537,357.6360437525938A9,9,0,0,0,491.0000073760748,355.00000478327274L491.0000073760748,364.00000478327274z"></path><path id="kity_path_208" fill="#8E8E8E" stroke="none" d="M491.0000072270632,357.00000463426113c4.418,0,8,3.582,8,8h1c0,-5.523,-3.477,-10,-9,-10S482.0000072270632,359.4770046342611,482.0000072270632,365.00000463426113h1C483.0000072270632,360.5820046342611,486.5820072270632,357.00000463426113,491.0000072270632,357.00000463426113z"></path><path id="kity_path_210" fill="#EEE" stroke="none" d="M506.8120073760748,371.89600478327276l-6.75,6.75l-4.5,-4.5L497.2500073760748,372.45900478327275l2.812,2.803l5.062,-5.053L506.8120073760748,371.89600478327276z" display="none"></path><path id="kity_path_209" fill="url(#kity_linearGradient_17)" stroke="none" d="M491.0000072270632,354.00000463426113C485.47700722706315,354.00000463426113,481.0000072270632,358.4770046342611,481.0000072270632,364.00000463426113c0,5.523,4.477,10,10,10s10,-4.477,10,-10C501.0000072270632,358.4770046342611,496.5230072270632,354.00000463426113,491.0000072270632,354.00000463426113zM491.0000072270632,372.00000463426113c-4.418,0,-8,-3.582,-8,-8s3.582,-8,8,-8s8,3.582,8,8S495.4180072270632,372.00000463426113,491.0000072270632,372.00000463426113z"></path></g></g><g id="minder_node14" opacity="1"><g id="node_expander13" style="cursor: pointer;" display="none"><path id="kity_path_146" fill="white" stroke="gray" d="M475.5000070556998,410.50000547617674A6,6,0,1,1,463.5000070556998,410.50000547617674A6,6,0,1,1,475.5000070556998,410.50000547617674"></path><path id="kity_path_147" fill="none" stroke="gray"></path></g><path id="node_outline14" fill="none" stroke="none" d="M480.5000075921416,392.50000547617674h278a5,5,0,0,1,5,5v26a5,5,0,0,1,-5,5h-278a5,5,0,0,1,-5,-5v-26a5,5,0,0,1,5,-5z" stroke-width="3"></path><g id="node_text14" fill="black"><text id="kity_text_143" text-rendering="inherit" font-size="12" dy=".8em" y="393.70000544935465" x="505.5000075921416">这些信息并不绝对正确，但正确的概率却远高于</text><text id="kity_text_148" text-rendering="inherit" font-size="12" dy=".8em" y="411.70000544935465" x="505.5000075921416">错误的概率</text></g><g id="node_progress8"><path id="kity_path_212" fill="#FFED83" stroke="none" d="M500.0000073760748,411.0000054836273A9,9,0,1,1,482.0000073760748,411.0000054836273A9,9,0,1,1,500.0000073760748,411.0000054836273"></path><path id="kity_path_213" fill="#43BC00" stroke="none" d="M491.0000073760748,411.0000054836273L500.0000073760748,411.0000054836273A9,9,0,0,0,497.3639684067537,404.6360444529484A9,9,0,0,0,491.0000073760748,402.0000054836273L491.0000073760748,411.0000054836273z"></path><path id="kity_path_214" fill="#8E8E8E" stroke="none" d="M491.0000072270632,404.0000053346157c4.418,0,8,3.582,8,8h1c0,-5.523,-3.477,-10,-9,-10S482.0000072270632,406.4770053346157,482.0000072270632,412.0000053346157h1C483.0000072270632,407.5820053346157,486.5820072270632,404.0000053346157,491.0000072270632,404.0000053346157z"></path><path id="kity_path_216" fill="#EEE" stroke="none" d="M506.8120073760748,418.89600548362733l-6.75,6.75l-4.5,-4.5L497.2500073760748,419.4590054836273l2.812,2.803l5.062,-5.053L506.8120073760748,418.89600548362733z" display="none"></path><path id="kity_path_215" fill="url(#kity_linearGradient_17)" stroke="none" d="M491.0000072270632,401.0000053346157C485.47700722706315,401.0000053346157,481.0000072270632,405.4770053346157,481.0000072270632,411.0000053346157c0,5.523,4.477,10,10,10s10,-4.477,10,-10C501.0000072270632,405.4770053346157,496.5230072270632,401.0000053346157,491.0000072270632,401.0000053346157zM491.0000072270632,419.0000053346157c-4.418,0,-8,-3.582,-8,-8s3.582,-8,8,-8s8,3.582,8,8S495.4180072270632,419.0000053346157,491.0000072270632,419.0000053346157z"></path></g></g><g id="minder_node6"><g id="node_expander5" style="cursor: pointer;" display="none"><path id="kity_path_74" fill="white" stroke="gray" d="M490.50000727921724,197.5000023022294A6,6,0,1,1,478.50000727921724,197.5000023022294A6,6,0,1,1,490.50000727921724,197.5000023022294"></path><path id="kity_path_75" fill="none" stroke="gray"></path></g><path id="node_outline6" fill="#73a1bf" stroke="none" d="M495.50000781565905,184.5000023022294h710a5,5,0,0,1,5,5v16a5,5,0,0,1,-5,5h-710a5,5,0,0,1,-5,-5v-16a5,5,0,0,1,5,-5z" stroke-width="3"></path><g id="node_text6" fill="black"><text id="kity_text_71" text-rendering="inherit" font-size="12" dy=".8em" y="189.70000227540731" font-weight="bold" x="520.500007815659">场对于过去，甚至当下发生的事情不感兴趣。市场永远向前看，让股价反映出投资者基于不同的角度和理解水平所形成的不同预期</text></g><g id="node_progress4"><path id="kity_path_188" fill="#FFED83" stroke="none" d="M515.0000075995922,198.00000230967999A9,9,0,1,1,497.0000075995922,198.00000230967999A9,9,0,1,1,515.0000075995922,198.00000230967999"></path><path id="kity_path_189" fill="#43BC00" stroke="none" d="M506.0000075995922,198.00000230967999L515.0000075995922,198.00000230967999A9,9,0,0,0,514.3149233921938,194.55585141839418A9,9,0,0,0,512.3639686302712,191.63604127900106L506.0000075995922,198.00000230967999z"></path><path id="kity_path_190" fill="#8E8E8E" stroke="none" d="M506.0000074505806,191.00000216066837c4.418,0,8,3.582,8,8h1c0,-5.523,-3.477,-10,-9,-10S497.0000074505806,193.47700216066838,497.0000074505806,199.00000216066837h1C498.0000074505806,194.58200216066837,501.5820074505806,191.00000216066837,506.0000074505806,191.00000216066837z"></path><path id="kity_path_192" fill="#EEE" stroke="none" d="M521.8120075995922,205.89600230967997l-6.75,6.75l-4.5,-4.5L512.2500075995922,206.45900230968l2.812,2.803l5.062,-5.053L521.8120075995922,205.89600230967997z" display="none"></path><path id="kity_path_191" fill="url(#kity_linearGradient_17)" stroke="none" d="M506.0000074505806,188.00000216066837C500.4770074505806,188.00000216066837,496.0000074505806,192.47700216066838,496.0000074505806,198.00000216066837c0,5.523,4.477,10,10,10s10,-4.477,10,-10C516.0000074505806,192.47700216066838,511.5230074505806,188.00000216066837,506.0000074505806,188.00000216066837zM506.0000074505806,206.00000216066837c-4.418,0,-8,-3.582,-8,-8s3.582,-8,8,-8s8,3.582,8,8S510.4180074505806,206.00000216066837,506.0000074505806,206.00000216066837z"></path></g></g><g id="minder_node8" opacity="1"><g id="node_expander7" style="cursor: pointer;" display="none"><path id="kity_path_92" fill="white" stroke="gray" d="M487.50000723451376,255.50000316649675A6,6,0,1,1,475.50000723451376,255.50000316649675A6,6,0,1,1,487.50000723451376,255.50000316649675"></path><path id="kity_path_93" fill="none" stroke="gray"></path></g><path id="node_outline8" fill="none" stroke="none" d="M492.50000777095556,242.50000316649675h650a5,5,0,0,1,5,5v16a5,5,0,0,1,-5,5h-650a5,5,0,0,1,-5,-5v-16a5,5,0,0,1,5,-5z" stroke-width="3"></path><g id="node_text8" fill="black"><text id="kity_text_89" text-rendering="inherit" font-size="12" dy=".8em" y="247.70000313967466" font-weight="bold" x="517.5000077709556">当前股价反映了所有统计分析师希望了解的基本面信息（还有一些内幕信息），以及另外一些同等甚至更加重要的信息</text></g><g id="node_progress5"><path id="kity_path_194" fill="#FFED83" stroke="none" d="M512.0000075548887,256.00000317394733A9,9,0,1,1,494.0000075548887,256.00000317394733A9,9,0,1,1,512.0000075548887,256.00000317394733"></path><path id="kity_path_195" fill="#43BC00" stroke="none" d="M503.0000075548887,256.00000317394733L512.0000075548887,256.00000317394733A9,9,0,0,0,511.3149233474903,252.55585228266153A9,9,0,0,0,509.36396858556765,249.6360421432684L503.0000075548887,256.00000317394733z"></path><path id="kity_path_196" fill="#8E8E8E" stroke="none" d="M503.0000074058771,249.00000302493572c4.418,0,8,3.582,8,8h1c0,-5.523,-3.477,-10,-9,-10S494.0000074058771,251.47700302493573,494.0000074058771,257.0000030249357h1C495.0000074058771,252.58200302493572,498.5820074058771,249.00000302493572,503.0000074058771,249.00000302493572z"></path><path id="kity_path_198" fill="#EEE" stroke="none" d="M518.8120075548887,263.89600317394735l-6.75,6.75l-4.5,-4.5L509.2500075548887,264.45900317394734l2.812,2.803l5.062,-5.053L518.8120075548887,263.89600317394735z" display="none"></path><path id="kity_path_197" fill="url(#kity_linearGradient_17)" stroke="none" d="M503.0000074058771,246.00000302493572C497.4770074058771,246.00000302493572,493.0000074058771,250.47700302493573,493.0000074058771,256.0000030249357c0,5.523,4.477,10,10,10s10,-4.477,10,-10C513.0000074058771,250.47700302493573,508.52300740587714,246.00000302493572,503.0000074058771,246.00000302493572zM503.0000074058771,264.0000030249357c-4.418,0,-8,-3.582,-8,-8s3.582,-8,8,-8s8,3.582,8,8S507.4180074058771,264.0000030249357,503.0000074058771,264.0000030249357z"></path></g></g><g id="minder_node4"><g id="node_expander3" style="cursor: pointer;" display="none"><path id="kity_path_52" fill="white" stroke="gray" d="M636.5000094547868,37.49999991804361A6,6,0,1,1,624.5000094547868,37.49999991804361A6,6,0,1,1,636.5000094547868,37.49999991804361"></path><path id="kity_path_53" fill="none" stroke="gray"></path></g><path id="node_outline4" fill="none" stroke="none" d="M641.5000099912286,19.499999918043613h327a5,5,0,0,1,5,5v26a5,5,0,0,1,-5,5h-327a5,5,0,0,1,-5,-5v-26a5,5,0,0,1,5,-5z" stroke-width="3"></path><g id="node_text4" fill="black"><text id="kity_text_49" text-rendering="inherit" font-size="12" dy=".8em" y="20.699999891221523" x="666.5000099912286">基本面分析研究的数据会对供需造成影响。但是，许多其</text><text id="kity_text_54" text-rendering="inherit" font-size="12" dy=".8em" y="38.69999989122152" x="666.5000099912286">他因素也在影响供需</text></g><g id="node_progress1"><path id="kity_path_170" fill="#FFED83" stroke="none" d="M661.0000097751617,37.999999925494194A9,9,0,1,1,643.0000097751617,37.999999925494194A9,9,0,1,1,661.0000097751617,37.999999925494194"></path><path id="kity_path_171" fill="#43BC00" stroke="none" d="M652.0000097751617,37.999999925494194"></path><path id="kity_path_172" fill="#8E8E8E" stroke="none" d="M652.0000096261501,30.999999776482582c4.418,0,8,3.582,8,8h1c0,-5.523,-3.477,-10,-9,-10S643.0000096261501,33.476999776482586,643.0000096261501,38.99999977648258h1C644.0000096261501,34.58199977648258,647.5820096261501,30.999999776482582,652.0000096261501,30.999999776482582z"></path><path id="kity_path_174" fill="#EEE" stroke="none" d="M667.8120097751618,45.895999925494195l-6.75,6.75l-4.5,-4.5L658.2500097751617,46.4589999254942l2.812,2.803l5.062,-5.053L667.8120097751618,45.895999925494195z" display="none"></path><path id="kity_path_173" fill="url(#kity_linearGradient_17)" stroke="none" d="M652.0000096261501,27.999999776482582C646.4770096261501,27.999999776482582,642.0000096261501,32.476999776482586,642.0000096261501,37.99999977648258c0,5.523,4.477,10,10,10s10,-4.477,10,-10C662.0000096261501,32.476999776482586,657.5230096261502,27.999999776482582,652.0000096261501,27.999999776482582zM652.0000096261501,45.99999977648258c-4.418,0,-8,-3.582,-8,-8s3.582,-8,8,-8s8,3.582,8,8S656.4180096261501,45.99999977648258,652.0000096261501,45.99999977648258z"></path></g></g><g id="minder_node5" opacity="1"><g id="node_expander4" style="cursor: pointer;" display="none"><path id="kity_path_63" fill="white" stroke="gray" d="M637.5000094696879,95.50000078231096A6,6,0,1,1,625.5000094696879,95.50000078231096A6,6,0,1,1,637.5000094696879,95.50000078231096"></path><path id="kity_path_64" fill="none" stroke="gray"></path></g><path id="node_outline5" fill="none" stroke="none" d="M642.5000100061297,77.50000078231096h386a5,5,0,0,1,5,5v26a5,5,0,0,1,-5,5h-386a5,5,0,0,1,-5,-5v-26a5,5,0,0,1,5,-5z" stroke-width="3"></path><g id="node_text5" fill="black"><text id="kity_text_60" text-rendering="inherit" font-size="12" dy=".8em" y="78.70000075548887" font-weight="bold" x="667.5000100061297">市场价格不仅反映出证券分析师们不同的估值</text><text id="kity_text_65" text-rendering="inherit" font-size="12" dy=".8em" y="96.70000075548887" font-weight="bold" x="667.5000100061297">预测，也反映出众多投资者的理性判断、情绪变化、需求、资源等。</text></g><g id="node_progress2"><path id="kity_path_176" fill="#FFED83" stroke="none" d="M662.0000097900629,96.00000078976154A9,9,0,1,1,644.0000097900629,96.00000078976154A9,9,0,1,1,662.0000097900629,96.00000078976154"></path><path id="kity_path_177" fill="#43BC00" stroke="none" d="M653.0000097900629,96.00000078976154"></path><path id="kity_path_178" fill="#8E8E8E" stroke="none" d="M653.0000096410513,89.00000064074993c4.418,0,8,3.582,8,8h1c0,-5.523,-3.477,-10,-9,-10S644.0000096410513,91.47700064074994,644.0000096410513,97.00000064074993h1C645.0000096410513,92.58200064074992,648.5820096410513,89.00000064074993,653.0000096410513,89.00000064074993z"></path><path id="kity_path_180" fill="#EEE" stroke="none" d="M668.8120097900629,103.89600078976154l-6.75,6.75l-4.5,-4.5L659.2500097900629,104.45900078976155l2.812,2.803l5.062,-5.053L668.8120097900629,103.89600078976154z" display="none"></path><path id="kity_path_179" fill="url(#kity_linearGradient_17)" stroke="none" d="M653.0000096410513,86.00000064074993C647.4770096410513,86.00000064074993,643.0000096410513,90.47700064074994,643.0000096410513,96.00000064074993c0,5.523,4.477,10,10,10s10,-4.477,10,-10C663.0000096410513,90.47700064074994,658.5230096410513,86.00000064074993,653.0000096410513,86.00000064074993zM653.0000096410513,104.00000064074993c-4.418,0,-8,-3.582,-8,-8s3.582,-8,8,-8s8,3.582,8,8S657.4180096410513,104.00000064074993,653.0000096410513,104.00000064074993z"></path></g></g><g id="minder_node7" opacity="1"><g id="node_expander6" style="cursor: pointer;" display="none"><path id="kity_path_84" fill="white" stroke="gray" d="M640.5000095143914,153.5000016465783A6,6,0,1,1,628.5000095143914,153.5000016465783A6,6,0,1,1,640.5000095143914,153.5000016465783"></path><path id="kity_path_85" fill="none" stroke="gray"></path></g><path id="node_outline7" fill="#73a1bf" stroke="none" d="M645.5000100508332,140.5000016465783h565a5,5,0,0,1,5,5v16a5,5,0,0,1,-5,5h-565a5,5,0,0,1,-5,-5v-16a5,5,0,0,1,5,-5z" stroke-width="3"></path><g id="node_text7" fill="black"><text id="kity_text_81" text-rendering="inherit" font-size="12" dy=".8em" y="145.70000161975622" font-weight="bold" x="670.5000100508332">这些因素没有数据可循，也难以分析，但仍然全部体现在一个精确的成交价上。这是唯一有意义的数字</text></g><g id="node_progress3"><path id="kity_path_182" fill="#FFED83" stroke="none" d="M665.0000098347664,154.0000016540289A9,9,0,1,1,647.0000098347664,154.0000016540289A9,9,0,1,1,665.0000098347664,154.0000016540289"></path><path id="kity_path_183" fill="#43BC00" stroke="none" d="M656.0000098347664,154.0000016540289"></path><path id="kity_path_184" fill="#8E8E8E" stroke="none" d="M656.0000096857548,147.00000150501728c4.418,0,8,3.582,8,8h1c0,-5.523,-3.477,-10,-9,-10S647.0000096857548,149.47700150501728,647.0000096857548,155.00000150501728h1C648.0000096857548,150.58200150501727,651.5820096857548,147.00000150501728,656.0000096857548,147.00000150501728z"></path><path id="kity_path_186" fill="#EEE" stroke="none" d="M671.8120098347664,161.89600165402888l-6.75,6.75l-4.5,-4.5L662.2500098347664,162.4590016540289l2.812,2.803l5.062,-5.053L671.8120098347664,161.89600165402888z" display="none"></path><path id="kity_path_185" fill="url(#kity_linearGradient_17)" stroke="none" d="M656.0000096857548,144.00000150501728C650.4770096857548,144.00000150501728,646.0000096857548,148.47700150501728,646.0000096857548,154.00000150501728c0,5.523,4.477,10,10,10s10,-4.477,10,-10C666.0000096857548,148.47700150501728,661.5230096857548,144.00000150501728,656.0000096857548,144.00000150501728zM656.0000096857548,162.00000150501728c-4.418,0,-8,-3.582,-8,-8s3.582,-8,8,-8s8,3.582,8,8S660.4180096857548,162.00000150501728,656.0000096857548,162.00000150501728z"></path></g></g></g></g></svg>