<svg id="kity_svg_6" xmlns="http://www.w3.org/2000/svg" xmlns:xlink="http://www.w3.org/1999/xlink" version="1.1" width="983" height="318" style="background: rgb(251, 251, 251); visibility: visible;" viewBox="0 0 983 318"><defs id="kity_defs_7"><linearGradient id="kity_linearGradient_17" x1="0" y1="0" x2="0" y2="1"><stop id="kity_stop_18" offset="0" stop-color="rgb(255, 255, 255)"></stop><stop id="kity_stop_19" offset="1" stop-color="rgb(204, 204, 204)"></stop></linearGradient><marker id="kity_marker_2" orient="auto" refX="6" refY="0" viewBox="-7 -7 14 14" markerWidth="7" markerHeight="7" markerUnits="userSpaceOnUse"><path id="kity_path_3" fill="rgb(115, 191, 118)" stroke="none" d="M6,0A6,6,0,1,1,-6,0A6,6,0,1,1,6,0"></path></marker></defs><g id="kity_g_8"><g id="minder1" text-rendering="optimize-speed"><g id="minder_connect_group1"><path id="kity_path_47" fill="none" stroke="rgb(115, 191, 118)" stroke-width="1" d="M270.00000535696745,143.50000298768282A120.5,70,0,0,0,149.50000535696745,73.50000298768282"></path><path id="kity_path_55" fill="none" stroke="rgb(115, 191, 118)" stroke-width="1" d="M270.00000535696745,143.50000298768282A97.5,41,0,0,1,172.50000535696745,184.50000298768282"></path><path id="kity_path_63" fill="none" stroke="rgb(115, 191, 118)" stroke-width="1" d="M270.00000535696745,143.50000298768282A75.5,107,0,0,1,345.50000535696745,36.50000298768282"></path><path id="kity_path_87" fill="none" stroke="rgb(115, 191, 118)" stroke-width="1" d="M270.00000535696745,143.50000298768282A85.5,139,0,0,0,355.50000535696745,282.5000029876828"></path><path id="kity_path_95" fill="none" stroke="rgb(115, 191, 118)" stroke-width="1" d="M270.00000535696745,143.50000298768282A84.5,8,0,0,0,354.50000535696745,151.50000298768282"></path><path id="kity_path_167" fill="none" stroke="rgb(115, 191, 118)" stroke-width="1" d="M497.50000535696745,36.50000298768282C506.00000535696745,36.50000298768282,506.00000535696745,35.50000298768282,514.5000053569674,35.50000298768282"></path><path id="kity_path_169" fill="none" stroke="rgb(115, 191, 118)" stroke-width="1" d="M493.50000535696745,282.5000029876828C509.00000535696745,282.5000029876828,509.00000535696745,282.5000029876828,524.5000053569674,282.5000029876828"></path><path id="kity_path_170" fill="none" stroke="rgb(115, 191, 118)" stroke-width="1" d="M492.50000535696745,151.50000298768282C500.50000535696745,151.50000298768282,500.50000535696745,117.50000298768282,508.50000535696745,117.50000298768282"></path><path id="kity_path_171" fill="none" stroke="rgb(115, 191, 118)" stroke-width="1" d="M492.50000535696745,151.50000298768282C500.50000535696745,151.50000298768282,500.50000535696745,151.50000298768282,508.50000535696745,151.50000298768282"></path><path id="kity_path_172" fill="none" stroke="rgb(115, 191, 118)" stroke-width="1" d="M492.50000535696745,151.50000298768282C500.50000535696745,151.50000298768282,500.50000535696745,185.50000298768282,508.50000535696745,185.50000298768282"></path></g><g id="minder_node1"><path id="node_outline1" fill="rgb(115, 191, 118)" stroke="rgb(115, 191, 118)" d="M230.50000535696745,129.50000298768282h79a5,5,0,0,1,5,5v18a5,5,0,0,1,-5,5h-79a5,5,0,0,1,-5,-5v-18a5,5,0,0,1,5,-5z" stroke-width="3"></path><g id="node_text1" fill="white"><text id="kity_text_22" text-rendering="inherit" font-size="16" dy=".8em" y="133.10000295192003" x="237.50000535696745">股票研究</text></g></g><g id="kity_g_14" display="none"><path id="kity_path_15" fill="rgba(0, 153, 5, 0.5)" stroke="none" d="M-4.499994643032551,101.50000298768282h96v20h-96z"></path><path id="kity_path_16" fill="none" stroke="rgb(0, 128, 4)" d="M-4.499994643032551,101.50000298768282L91.50000535696745,101.50000298768282" stroke-width="1"></path></g><g id="minder_node4" opacity="1"><g id="node_expander3" style="cursor: pointer;" display="none"><path id="kity_path_52" fill="white" stroke="gray" d="M25.50000210851431,73.50000194460154A6,6,0,1,1,13.500002108514309,73.50000194460154A6,6,0,1,1,25.50000210851431,73.50000194460154"></path><path id="kity_path_53" fill="none" stroke="gray"></path></g><path id="node_outline4" fill="#9bbb59" stroke="rgb(115, 191, 118)" d="M29.50000288337469,57.500001944601536h115a3,3,0,0,1,3,3v26a3,3,0,0,1,-3,3h-115a3,3,0,0,1,-3,-3v-26a3,3,0,0,1,3,-3z" stroke-width="1"></path><g id="node_text4" fill="black"><text id="kity_text_49" text-rendering="inherit" font-size="14" dy=".8em" y="64.4000019133091" x="71.50000288337469">交易什么</text></g><g id="node_priority1"><path id="kity_path_175" fill="#840023" stroke="none" d="M47.00000251829624,77.0000018030405c0,3.866,3.134,7,7,7h6c3.866,0,7,-3.134,7,-7V71.0000018030405H47.00000251829624V77.0000018030405z"></path><path id="kity_path_176" fill="#FF1200" stroke="none" d="M67.00000251829624,74.0000018030405c0,3.866,-3.134,7,-7,7H54.00000251829624c-3.866,0,-7,-3.134,-7,-7V71.0000018030405c0,-3.866,3.134,-7,7,-7h6c3.866,0,7,3.134,7,7V74.0000018030405z" opacity="0.8"></path><text id="kity_text_177" text-rendering="geometricPrecision" x="56.00000251084566" y="73.50000179558992" text-anchor="middle" font-style="italic" font-size="12" fill="white" dy="5">1</text></g></g><g id="minder_node5" opacity="1"><g id="node_expander4" style="cursor: pointer;" display="none"><path id="kity_path_60" fill="white" stroke="gray" d="M19.50000201910734,184.50000359863043A6,6,0,1,1,7.500002019107342,184.50000359863043A6,6,0,1,1,19.50000201910734,184.50000359863043"></path><path id="kity_path_61" fill="none" stroke="gray"></path></g><path id="node_outline5" fill="#9bbb59" stroke="rgb(115, 191, 118)" d="M23.500002793967724,168.50000359863043h144a3,3,0,0,1,3,3v26a3,3,0,0,1,-3,3h-144a3,3,0,0,1,-3,-3v-26a3,3,0,0,1,3,-3z" stroke-width="1"></path><g id="node_text5" fill="black"><text id="kity_text_57" text-rendering="inherit" font-size="14" dy=".8em" y="175.400003567338" x="65.50000279396772">什么时候交易</text></g><g id="node_priority2"><path id="kity_path_180" fill="#01467F" stroke="none" d="M41.000002428889275,188.0000034570694c0,3.866,3.134,7,7,7h6c3.866,0,7,-3.134,7,-7V182.0000034570694H41.000002428889275V188.0000034570694z"></path><path id="kity_path_181" fill="#0074FF" stroke="none" d="M61.000002428889275,185.0000034570694c0,3.866,-3.134,7,-7,7H48.000002428889275c-3.866,0,-7,-3.134,-7,-7V182.0000034570694c0,-3.866,3.134,-7,7,-7h6c3.866,0,7,3.134,7,7V185.0000034570694z" opacity="0.8"></path><text id="kity_text_182" text-rendering="geometricPrecision" x="50.000002421438694" y="184.50000344961882" text-anchor="middle" font-style="italic" font-size="12" fill="white" dy="5">2</text></g></g><g id="minder_node6" opacity="1"><g id="node_expander5" style="cursor: pointer;"><path id="kity_path_68" fill="white" stroke="gray" d="M346.50000689178705,36.50000139325857A6,6,0,1,1,334.50000689178705,36.50000139325857A6,6,0,1,1,346.50000689178705,36.50000139325857"></path><path id="kity_path_69" fill="none" stroke="gray" d="M336.00000689178705,36.50000139325857L345.00000689178705,36.50000139325857"></path></g><path id="node_outline6" fill="rgb(238, 246, 238)" stroke="rgb(115, 191, 118)" d="M350.50000766664743,20.50000139325857h144a3,3,0,0,1,3,3v26a3,3,0,0,1,-3,3h-144a3,3,0,0,1,-3,-3v-26a3,3,0,0,1,3,-3z" stroke-width="1"></path><g id="node_text6" fill="black"><text id="kity_text_65" text-rendering="inherit" font-size="14" dy=".8em" y="27.400001361966133" x="392.50000766664743">基本面分析派</text></g><g id="node_priority3"><path id="kity_path_185" fill="#840023" stroke="none" d="M368.000007301569,40.00000125169754c0,3.866,3.134,7,7,7h6c3.866,0,7,-3.134,7,-7V34.00000125169754H368.000007301569V40.00000125169754z"></path><path id="kity_path_186" fill="#FF1200" stroke="none" d="M388.000007301569,37.00000125169754c0,3.866,-3.134,7,-7,7H375.000007301569c-3.866,0,-7,-3.134,-7,-7V34.00000125169754c0,-3.866,3.134,-7,7,-7h6c3.866,0,7,3.134,7,7V37.00000125169754z" opacity="0.8"></path><text id="kity_text_187" text-rendering="geometricPrecision" x="377.0000072941184" y="36.50000124424696" text-anchor="middle" font-style="italic" font-size="12" fill="white" dy="5">1</text></g></g><g id="minder_node9" opacity="1"><g id="node_expander8" style="cursor: pointer;"><path id="kity_path_92" fill="white" stroke="gray" d="M356.50000704079866,282.5000050589442A6,6,0,1,1,344.50000704079866,282.5000050589442A6,6,0,1,1,356.50000704079866,282.5000050589442"></path><path id="kity_path_93" fill="none" stroke="gray" d="M346.00000704079866,282.5000050589442L355.00000704079866,282.5000050589442"></path></g><path id="node_outline9" fill="rgb(238, 246, 238)" stroke="rgb(115, 191, 118)" d="M360.50000781565905,266.5000050589442h130a3,3,0,0,1,3,3v26a3,3,0,0,1,-3,3h-130a3,3,0,0,1,-3,-3v-26a3,3,0,0,1,3,-3z" stroke-width="1"></path><g id="node_text9" fill="black"><text id="kity_text_89" text-rendering="inherit" font-size="14" dy=".8em" y="273.4000050276518" x="402.50000781565905">周期分析派</text></g><g id="node_priority5"><path id="kity_path_195" fill="#006300" stroke="none" d="M378.0000074505806,286.0000049173832c0,3.866,3.134,7,7,7h6c3.866,0,7,-3.134,7,-7V280.0000049173832H378.0000074505806V286.0000049173832z"></path><path id="kity_path_196" fill="#00AF00" stroke="none" d="M398.0000074505806,283.0000049173832c0,3.866,-3.134,7,-7,7H385.0000074505806c-3.866,0,-7,-3.134,-7,-7V280.0000049173832c0,-3.866,3.134,-7,7,-7h6c3.866,0,7,3.134,7,7V283.0000049173832z" opacity="0.8"></path><text id="kity_text_197" text-rendering="geometricPrecision" x="387.00000744313" y="282.5000049099326" text-anchor="middle" font-style="italic" font-size="12" fill="white" dy="5">3</text></g></g><g id="minder_node10" opacity="1"><g id="node_expander9" style="cursor: pointer;"><path id="kity_path_100" fill="white" stroke="gray" d="M355.5000070258975,151.5000031068921A6,6,0,1,1,343.5000070258975,151.5000031068921A6,6,0,1,1,355.5000070258975,151.5000031068921"></path><path id="kity_path_101" fill="none" stroke="gray" d="M345.0000070258975,151.5000031068921L354.0000070258975,151.5000031068921"></path></g><path id="node_outline10" fill="rgb(238, 246, 238)" stroke="rgb(115, 191, 118)" d="M359.5000078007579,135.5000031068921h130a3,3,0,0,1,3,3v26a3,3,0,0,1,-3,3h-130a3,3,0,0,1,-3,-3v-26a3,3,0,0,1,3,-3z" stroke-width="1"></path><g id="node_text10" fill="black"><text id="kity_text_97" text-rendering="inherit" font-size="14" dy=".8em" y="142.40000307559967" x="401.5000078007579">技术分析派</text></g><g id="node_priority4"><path id="kity_path_190" fill="#01467F" stroke="none" d="M377.00000743567944,155.00000296533108c0,3.866,3.134,7,7,7h6c3.866,0,7,-3.134,7,-7V149.00000296533108H377.00000743567944V155.00000296533108z"></path><path id="kity_path_191" fill="#0074FF" stroke="none" d="M397.00000743567944,152.00000296533108c0,3.866,-3.134,7,-7,7H384.00000743567944c-3.866,0,-7,-3.134,-7,-7V149.00000296533108c0,-3.866,3.134,-7,7,-7h6c3.866,0,7,3.134,7,7V152.00000296533108z" opacity="0.8"></path><text id="kity_text_192" text-rendering="geometricPrecision" x="386.00000742822886" y="151.5000029578805" text-anchor="middle" font-style="italic" font-size="12" fill="white" dy="5">2</text></g></g><g id="kity_g_12" display="none"><path id="kity_path_13" fill="none" stroke="rgb(66, 112, 68)" d="M218.50000535696745,123.50000298768282h103a5,5,0,0,1,5,5v30a5,5,0,0,1,-5,5h-103a5,5,0,0,1,-5,-5v-30a5,5,0,0,1,5,-5z" stroke-width="5"></path></g><g id="minder_node12" opacity="1"><g id="node_expander11" style="cursor: pointer;" display="none"><path id="kity_path_118" fill="white" stroke="gray" d="M514.5000093951821,35.50000137835741A6,6,0,1,1,502.50000939518213,35.50000137835741A6,6,0,1,1,514.5000093951821,35.50000137835741"></path><path id="kity_path_119" fill="none" stroke="gray" d="M504.00000939518213,35.50000137835741L513.0000093951821,35.50000137835741"></path></g><path id="node_outline12" fill="none" stroke="none" d="M519.5000095590949,26.50000137835741h122a5,5,0,0,1,5,5v8a5,5,0,0,1,-5,5h-122a5,5,0,0,1,-5,-5v-8a5,5,0,0,1,5,-5z" stroke-width="3"></path><g id="node_text12" fill="black"><text id="kity_text_115" text-rendering="inherit" font-size="12" dy=".8em" y="27.70000135153532" font-weight="bold" x="519.5000095590949">依赖统计数据进行分析</text></g></g><g id="minder_node11" opacity="1"><g id="node_expander10" style="cursor: pointer;" display="none"><path id="kity_path_108" fill="white" stroke="gray" d="M524.5000095441937,282.5000050589442A6,6,0,1,1,512.5000095441937,282.5000050589442A6,6,0,1,1,524.5000095441937,282.5000050589442"></path><path id="kity_path_109" fill="none" stroke="gray"></path></g><path id="node_outline11" fill="none" stroke="none" d="M529.5000097081065,273.5000050589442h110a5,5,0,0,1,5,5v8a5,5,0,0,1,-5,5h-110a5,5,0,0,1,-5,-5v-8a5,5,0,0,1,5,-5z" stroke-width="3"></path><g id="node_text11" fill="black"><text id="kity_text_105" text-rendering="inherit" font-size="12" dy=".8em" y="274.70000503212214" font-weight="bold" x="529.5000097081065">有助于理解经济趋势</text></g></g><g id="minder_node14"><g id="node_expander13" style="cursor: pointer;" display="none"><path id="kity_path_143" fill="white" stroke="gray" d="M508.50000930577517,117.50000260025263A6,6,0,1,1,496.50000930577517,117.50000260025263A6,6,0,1,1,508.50000930577517,117.50000260025263"></path><path id="kity_path_144" fill="none" stroke="gray"></path></g><path id="node_outline14" fill="none" stroke="none" d="M513.500009842217,104.50000260025263h362a5,5,0,0,1,5,5v16a5,5,0,0,1,-5,5h-362a5,5,0,0,1,-5,-5v-16a5,5,0,0,1,5,-5z" stroke-width="3"></path><g id="node_text14" fill="black"><text id="kity_text_140" text-rendering="inherit" font-size="12" dy=".8em" y="109.70000257343054" font-weight="bold" x="538.500009842217">对市场运行的研究，而不是对市场中交易标的的研究的一门科学</text></g><g id="node_progress1"><path id="kity_path_199" fill="#FFED83" stroke="none" d="M533.0000096261501,118.00000260770321A9,9,0,1,1,515.0000096261501,118.00000260770321A9,9,0,1,1,533.0000096261501,118.00000260770321"></path><path id="kity_path_200" fill="#43BC00" stroke="none" d="M524.0000096261501,118.00000260770321L533.0000096261501,118.00000260770321A9,9,0,0,0,524.0000096261501,109.00000260770321A9,9,0,0,0,515.0000096261501,118.00000260770321L524.0000096261501,118.00000260770321z"></path><path id="kity_path_201" fill="#8E8E8E" stroke="none" d="M524.0000094771385,111.0000024586916c4.418,0,8,3.582,8,8h1c0,-5.523,-3.477,-10,-9,-10S515.0000094771385,113.4770024586916,515.0000094771385,119.0000024586916h1C516.0000094771385,114.58200245869159,519.5820094771385,111.0000024586916,524.0000094771385,111.0000024586916z"></path><path id="kity_path_203" fill="#EEE" stroke="none" d="M539.8120096261501,125.89600260770321l-6.75,6.75l-4.5,-4.5L530.2500096261501,126.45900260770321l2.812,2.803l5.062,-5.053L539.8120096261501,125.89600260770321z" display="none"></path><path id="kity_path_202" fill="url(#kity_linearGradient_17)" stroke="none" d="M524.0000094771385,108.0000024586916C518.4770094771385,108.0000024586916,514.0000094771385,112.4770024586916,514.0000094771385,118.0000024586916c0,5.523,4.477,10,10,10s10,-4.477,10,-10C534.0000094771385,112.4770024586916,529.5230094771385,108.0000024586916,524.0000094771385,108.0000024586916zM524.0000094771385,126.0000024586916c-4.418,0,-8,-3.582,-8,-8s3.582,-8,8,-8s8,3.582,8,8S528.4180094771385,126.0000024586916,524.0000094771385,126.0000024586916z"></path></g></g><g id="minder_node15"><g id="node_expander14" style="cursor: pointer;" display="none"><path id="kity_path_151" fill="white" stroke="gray" d="M508.50000930577517,151.5000031068921A6,6,0,1,1,496.50000930577517,151.5000031068921A6,6,0,1,1,508.50000930577517,151.5000031068921"></path><path id="kity_path_152" fill="none" stroke="gray"></path></g><path id="node_outline15" fill="#9bbb59" stroke="none" d="M513.500009842217,138.5000031068921h445a5,5,0,0,1,5,5v16a5,5,0,0,1,-5,5h-445a5,5,0,0,1,-5,-5v-16a5,5,0,0,1,5,-5z" stroke-width="3"></path><g id="node_text15" fill="black"><text id="kity_text_148" text-rendering="inherit" font-size="12" dy=".8em" y="143.70000308007002" x="538.500009842217">以图形的形式记录特定股票或平均指数的实际交易历史（价格变动，交易量等）</text></g><g id="node_progress2"><path id="kity_path_205" fill="#FFED83" stroke="none" d="M533.0000096261501,152.0000031143427A9,9,0,1,1,515.0000096261501,152.0000031143427A9,9,0,1,1,533.0000096261501,152.0000031143427"></path><path id="kity_path_206" fill="#43BC00" stroke="none" d="M524.0000096261501,152.0000031143427"></path><path id="kity_path_207" fill="#8E8E8E" stroke="none" d="M524.0000094771385,145.00000296533108c4.418,0,8,3.582,8,8h1c0,-5.523,-3.477,-10,-9,-10S515.0000094771385,147.47700296533108,515.0000094771385,153.00000296533108h1C516.0000094771385,148.58200296533107,519.5820094771385,145.00000296533108,524.0000094771385,145.00000296533108z"></path><path id="kity_path_209" fill="#EEE" stroke="none" d="M539.8120096261501,159.89600311434268l-6.75,6.75l-4.5,-4.5L530.2500096261501,160.4590031143427l2.812,2.803l5.062,-5.053L539.8120096261501,159.89600311434268z" display="none"></path><path id="kity_path_208" fill="url(#kity_linearGradient_17)" stroke="none" d="M524.0000094771385,142.00000296533108C518.4770094771385,142.00000296533108,514.0000094771385,146.47700296533108,514.0000094771385,152.00000296533108c0,5.523,4.477,10,10,10s10,-4.477,10,-10C534.0000094771385,146.47700296533108,529.5230094771385,142.00000296533108,524.0000094771385,142.00000296533108zM524.0000094771385,160.00000296533108c-4.418,0,-8,-3.582,-8,-8s3.582,-8,8,-8s8,3.582,8,8S528.4180094771385,160.00000296533108,524.0000094771385,160.00000296533108z"></path></g></g><g id="minder_node16"><g id="node_expander15" style="cursor: pointer;" display="none"><path id="kity_path_165" fill="white" stroke="gray" d="M508.50000930577517,185.5000036135316A6,6,0,1,1,496.50000930577517,185.5000036135316A6,6,0,1,1,508.50000930577517,185.5000036135316"></path><path id="kity_path_166" fill="none" stroke="gray"></path></g><path id="node_outline16" fill="none" stroke="none" d="M513.500009842217,172.5000036135316h231a5,5,0,0,1,5,5v16a5,5,0,0,1,-5,5h-231a5,5,0,0,1,-5,-5v-16a5,5,0,0,1,5,-5z" stroke-width="3"></path><g id="node_text16" fill="black"><text id="kity_text_162" text-rendering="inherit" font-size="12" dy=".8em" y="177.7000035867095" x="538.500009842217">在以上基础上推测未来可能出现的趋势</text></g><g id="node_progress3"><path id="kity_path_211" fill="#FFED83" stroke="none" d="M533.0000096261501,186.00000362098217A9,9,0,1,1,515.0000096261501,186.00000362098217A9,9,0,1,1,533.0000096261501,186.00000362098217"></path><path id="kity_path_212" fill="#43BC00" stroke="none" d="M524.0000096261501,186.00000362098217L533.0000096261501,186.00000362098217A9,9,0,0,0,532.3149254187517,182.55585272969637A9,9,0,0,0,530.3639706568291,179.63604259030325L524.0000096261501,186.00000362098217z"></path><path id="kity_path_213" fill="#8E8E8E" stroke="none" d="M524.0000094771385,179.00000347197056c4.418,0,8,3.582,8,8h1c0,-5.523,-3.477,-10,-9,-10S515.0000094771385,181.47700347197056,515.0000094771385,187.00000347197056h1C516.0000094771385,182.58200347197055,519.5820094771385,179.00000347197056,524.0000094771385,179.00000347197056z"></path><path id="kity_path_215" fill="#EEE" stroke="none" d="M539.8120096261501,193.89600362098216l-6.75,6.75l-4.5,-4.5L530.2500096261501,194.45900362098217l2.812,2.803l5.062,-5.053L539.8120096261501,193.89600362098216z" display="none"></path><path id="kity_path_214" fill="url(#kity_linearGradient_17)" stroke="none" d="M524.0000094771385,176.00000347197056C518.4770094771385,176.00000347197056,514.0000094771385,180.47700347197056,514.0000094771385,186.00000347197056c0,5.523,4.477,10,10,10s10,-4.477,10,-10C534.0000094771385,180.47700347197056,529.5230094771385,176.00000347197056,524.0000094771385,176.00000347197056zM524.0000094771385,194.00000347197056c-4.418,0,-8,-3.582,-8,-8s3.582,-8,8,-8s8,3.582,8,8S528.4180094771385,194.00000347197056,524.0000094771385,194.00000347197056z"></path></g></g></g></g></svg>