<svg id="kity_svg_6" xmlns="http://www.w3.org/2000/svg" xmlns:xlink="http://www.w3.org/1999/xlink" version="1.1" width="733" height="1065" style="background: rgb(251, 251, 251); visibility: visible;" viewBox="0 0 733 1065"><defs id="kity_defs_7"><linearGradient id="kity_linearGradient_17" x1="0" y1="0" x2="0" y2="1"><stop id="kity_stop_18" offset="0" stop-color="rgb(255, 255, 255)"></stop><stop id="kity_stop_19" offset="1" stop-color="rgb(204, 204, 204)"></stop></linearGradient><marker id="kity_marker_2" orient="auto" refX="6" refY="0" viewBox="-7 -7 14 14" markerWidth="7" markerHeight="7" markerUnits="userSpaceOnUse"><path id="kity_path_3" fill="rgb(115, 161, 191)" stroke="none" d="M6,0A6,6,0,1,1,-6,0A6,6,0,1,1,6,0"></path></marker></defs><g id="kity_g_8"><g id="minder1" text-rendering="optimize-speed"><g id="minder_connect_group1"><path id="kity_path_31" fill="none" stroke="rgb(115, 161, 191)" stroke-width="1" d="M112.50000175088644,570.5000071302056A86,521,0,0,1,198.50000175088644,49.50000713020563"></path><path id="kity_path_39" fill="none" stroke="rgb(115, 161, 191)" stroke-width="1" d="M112.50000175088644,570.5000071302056A197,409,0,0,1,309.50000175088644,161.50000713020563"></path><path id="kity_path_276" fill="none" stroke="rgb(115, 161, 191)" stroke-width="1" d="M518.5000017508864,32.50000713020563C526.5000017508864,32.50000713020563,526.5000017508864,32.50000713020563,534.5000017508864,32.50000713020563"></path><path id="kity_path_277" fill="none" stroke="rgb(115, 161, 191)" stroke-width="1" d="M394.50000175088644,49.50000713020563C402.50000175088644,49.50000713020563,402.50000175088644,32.50000713020563,410.50000175088644,32.50000713020563"></path><path id="kity_path_278" fill="none" stroke="rgb(115, 161, 191)" stroke-width="1" d="M663.5000017508864,66.50000713020563C671.5000017508864,66.50000713020563,671.5000017508864,66.50000713020563,679.5000017508864,66.50000713020563"></path><path id="kity_path_279" fill="none" stroke="rgb(115, 161, 191)" stroke-width="1" d="M394.50000175088644,49.50000713020563C402.50000175088644,49.50000713020563,402.50000175088644,66.50000713020563,410.50000175088644,66.50000713020563"></path><path id="kity_path_290" fill="none" stroke="rgb(115, 161, 191)" stroke-width="1" d="M506.50000175088644,93.50000713020563C514.5000017508864,93.50000713020563,514.5000017508864,93.50000713020563,522.5000017508864,93.50000713020563"></path><path id="kity_path_291" fill="none" stroke="rgb(115, 161, 191)" stroke-width="1" d="M393.50000175088644,161.50000713020563C401.50000175088644,161.50000713020563,401.50000175088644,93.50000713020563,409.50000175088644,93.50000713020563"></path><path id="kity_path_292" fill="none" stroke="rgb(115, 161, 191)" stroke-width="1" d="M517.5000017508864,127.50000713020563C525.5000017508864,127.50000713020563,525.5000017508864,127.50000713020563,533.5000017508864,127.50000713020563"></path><path id="kity_path_293" fill="none" stroke="rgb(115, 161, 191)" stroke-width="1" d="M393.50000175088644,161.50000713020563C401.50000175088644,161.50000713020563,401.50000175088644,127.50000713020563,409.50000175088644,127.50000713020563"></path><path id="kity_path_294" fill="none" stroke="rgb(115, 161, 191)" stroke-width="1" d="M517.5000017508864,161.50000713020563C525.5000017508864,161.50000713020563,525.5000017508864,161.50000713020563,533.5000017508864,161.50000713020563"></path><path id="kity_path_295" fill="none" stroke="rgb(115, 161, 191)" stroke-width="1" d="M393.50000175088644,161.50000713020563C401.50000175088644,161.50000713020563,401.50000175088644,161.50000713020563,409.50000175088644,161.50000713020563"></path><path id="kity_path_296" fill="none" stroke="rgb(115, 161, 191)" stroke-width="1" d="M494.50000175088644,195.50000713020563C502.50000175088644,195.50000713020563,502.50000175088644,195.50000713020563,510.50000175088644,195.50000713020563"></path><path id="kity_path_297" fill="none" stroke="rgb(115, 161, 191)" stroke-width="1" d="M393.50000175088644,161.50000713020563C401.50000175088644,161.50000713020563,401.50000175088644,195.50000713020563,409.50000175088644,195.50000713020563"></path><path id="kity_path_298" fill="none" stroke="rgb(115, 161, 191)" stroke-width="1" d="M494.50000175088644,229.50000713020563C502.50000175088644,229.50000713020563,502.50000175088644,229.50000713020563,510.50000175088644,229.50000713020563"></path><path id="kity_path_299" fill="none" stroke="rgb(115, 161, 191)" stroke-width="1" d="M393.50000175088644,161.50000713020563C401.50000175088644,161.50000713020563,401.50000175088644,229.50000713020563,409.50000175088644,229.50000713020563"></path><path id="kity_path_301" fill="none" stroke="rgb(115, 161, 191)" stroke-width="1" d="M112.50000175088644,570.5000071302056A169,261,0,0,1,281.50000175088644,309.50000713020563"></path><path id="kity_path_405" fill="none" stroke="rgb(115, 161, 191)" stroke-width="1" d="M112.50000175088644,570.5000071302056A206,43,0,0,1,318.50000175088644,527.5000071302056"></path><path id="kity_path_420" fill="none" stroke="rgb(115, 161, 191)" stroke-width="1" d="M531.5000017508864,258.50000713020563C539.5000017508864,258.50000713020563,539.5000017508864,258.50000713020563,547.5000017508864,258.50000713020563"></path><path id="kity_path_421" fill="none" stroke="rgb(115, 161, 191)" stroke-width="1" d="M394.50000175088644,309.50000713020563C402.50000175088644,309.50000713020563,402.50000175088644,258.50000713020563,410.50000175088644,258.50000713020563"></path><path id="kity_path_422" fill="none" stroke="rgb(115, 161, 191)" stroke-width="1" d="M518.5000017508864,292.50000713020563C526.5000017508864,292.50000713020563,526.5000017508864,292.50000713020563,534.5000017508864,292.50000713020563"></path><path id="kity_path_423" fill="none" stroke="rgb(115, 161, 191)" stroke-width="1" d="M394.50000175088644,309.50000713020563C402.50000175088644,309.50000713020563,402.50000175088644,292.50000713020563,410.50000175088644,292.50000713020563"></path><path id="kity_path_424" fill="none" stroke="rgb(115, 161, 191)" stroke-width="1" d="M519.5000017508864,326.50000713020563C527.5000017508864,326.50000713020563,527.5000017508864,326.50000713020563,535.5000017508864,326.50000713020563"></path><path id="kity_path_425" fill="none" stroke="rgb(115, 161, 191)" stroke-width="1" d="M394.50000175088644,309.50000713020563C402.50000175088644,309.50000713020563,402.50000175088644,326.50000713020563,410.50000175088644,326.50000713020563"></path><path id="kity_path_426" fill="none" stroke="rgb(115, 161, 191)" stroke-width="1" d="M567.5000017508864,360.50000713020563C575.5000017508864,360.50000713020563,575.5000017508864,360.50000713020563,583.5000017508864,360.50000713020563"></path><path id="kity_path_427" fill="none" stroke="rgb(115, 161, 191)" stroke-width="1" d="M394.50000175088644,309.50000713020563C402.50000175088644,309.50000713020563,402.50000175088644,360.50000713020563,410.50000175088644,360.50000713020563"></path><path id="kity_path_528" fill="none" stroke="rgb(115, 161, 191)" stroke-width="1" d="M515.5000017508864,391.50000713020563C523.5000017508864,391.50000713020563,523.5000017508864,391.50000713020563,531.5000017508864,391.50000713020563"></path><path id="kity_path_529" fill="none" stroke="rgb(115, 161, 191)" stroke-width="1" d="M402.50000175088644,527.5000071302056C410.50000175088644,527.5000071302056,410.50000175088644,391.50000713020563,418.50000175088644,391.50000713020563"></path><path id="kity_path_530" fill="none" stroke="rgb(115, 161, 191)" stroke-width="1" d="M538.5000017508864,425.50000713020563C546.5000017508864,425.50000713020563,546.5000017508864,425.50000713020563,554.5000017508864,425.50000713020563"></path><path id="kity_path_531" fill="none" stroke="rgb(115, 161, 191)" stroke-width="1" d="M402.50000175088644,527.5000071302056C410.50000175088644,527.5000071302056,410.50000175088644,425.50000713020563,418.50000175088644,425.50000713020563"></path><path id="kity_path_532" fill="none" stroke="rgb(115, 161, 191)" stroke-width="1" d="M502.50000175088644,459.50000713020563C510.50000175088644,459.50000713020563,510.50000175088644,459.50000713020563,518.5000017508864,459.50000713020563"></path><path id="kity_path_533" fill="none" stroke="rgb(115, 161, 191)" stroke-width="1" d="M402.50000175088644,527.5000071302056C410.50000175088644,527.5000071302056,410.50000175088644,459.50000713020563,418.50000175088644,459.50000713020563"></path><path id="kity_path_534" fill="none" stroke="rgb(115, 161, 191)" stroke-width="1" d="M402.50000175088644,527.5000071302056C410.50000175088644,527.5000071302056,410.50000175088644,493.50000713020563,418.50000175088644,493.50000713020563"></path><path id="kity_path_535" fill="none" stroke="rgb(115, 161, 191)" stroke-width="1" d="M402.50000175088644,527.5000071302056C410.50000175088644,527.5000071302056,410.50000175088644,527.5000071302056,418.50000175088644,527.5000071302056"></path><path id="kity_path_537" fill="none" stroke="rgb(115, 161, 191)" stroke-width="1" d="M525.5000017508864,493.50000713020563C533.5000017508864,493.50000713020563,533.5000017508864,493.50000713020563,541.5000017508864,493.50000713020563"></path><path id="kity_path_545" fill="none" stroke="rgb(115, 161, 191)" stroke-width="1" d="M503.50000175088644,527.5000071302056C511.50000175088644,527.5000071302056,511.50000175088644,527.5000071302056,519.5000017508864,527.5000071302056"></path><path id="kity_path_553" fill="none" stroke="rgb(115, 161, 191)" stroke-width="1" d="M402.50000175088644,527.5000071302056C410.50000175088644,527.5000071302056,410.50000175088644,561.5000071302056,418.50000175088644,561.5000071302056"></path><path id="kity_path_561" fill="none" stroke="rgb(115, 161, 191)" stroke-width="1" d="M514.5000017508864,561.5000071302056C522.5000017508864,561.5000071302056,522.5000017508864,561.5000071302056,530.5000017508864,561.5000071302056"></path><path id="kity_path_569" fill="none" stroke="rgb(115, 161, 191)" stroke-width="1" d="M402.50000175088644,527.5000071302056C410.50000175088644,527.5000071302056,410.50000175088644,595.5000071302056,418.50000175088644,595.5000071302056"></path><path id="kity_path_577" fill="none" stroke="rgb(115, 161, 191)" stroke-width="1" d="M515.5000017508864,595.5000071302056C523.5000017508864,595.5000071302056,523.5000017508864,595.5000071302056,531.5000017508864,595.5000071302056"></path><path id="kity_path_585" fill="none" stroke="rgb(115, 161, 191)" stroke-width="1" d="M402.50000175088644,527.5000071302056C410.50000175088644,527.5000071302056,410.50000175088644,629.5000071302056,418.50000175088644,629.5000071302056"></path><path id="kity_path_593" fill="none" stroke="rgb(115, 161, 191)" stroke-width="1" d="M549.5000017508864,629.5000071302056C557.5000017508864,629.5000071302056,557.5000017508864,629.5000071302056,565.5000017508864,629.5000071302056"></path><path id="kity_path_601" fill="none" stroke="rgb(115, 161, 191)" stroke-width="1" d="M402.50000175088644,527.5000071302056C410.50000175088644,527.5000071302056,410.50000175088644,663.5000071302056,418.50000175088644,663.5000071302056"></path><path id="kity_path_609" fill="none" stroke="rgb(115, 161, 191)" stroke-width="1" d="M502.50000175088644,663.5000071302056C510.50000175088644,663.5000071302056,510.50000175088644,663.5000071302056,518.5000017508864,663.5000071302056"></path><path id="kity_path_670" fill="none" stroke="rgb(115, 161, 191)" stroke-width="1" d="M112.50000175088644,570.5000071302056A152,160,0,0,0,264.50000175088644,730.5000071302056"></path><path id="kity_path_678" fill="none" stroke="rgb(115, 161, 191)" stroke-width="1" d="M112.50000175088644,570.5000071302056A141,310,0,0,0,253.50000175088644,880.5000071302056"></path><path id="kity_path_686" fill="none" stroke="rgb(115, 161, 191)" stroke-width="1" d="M112.50000175088644,570.5000071302056A114,444,0,0,0,226.50000175088644,1014.5000071302056"></path><path id="kity_path_753" fill="none" stroke="rgb(115, 161, 191)" stroke-width="1" d="M540.5000017508864,696.5000071302056C548.5000017508864,696.5000071302056,548.5000017508864,696.5000071302056,556.5000017508864,696.5000071302056"></path><path id="kity_path_754" fill="none" stroke="rgb(115, 161, 191)" stroke-width="1" d="M404.50000175088644,730.5000071302056C412.50000175088644,730.5000071302056,412.50000175088644,696.5000071302056,420.50000175088644,696.5000071302056"></path><path id="kity_path_755" fill="none" stroke="rgb(115, 161, 191)" stroke-width="1" d="M504.50000175088644,730.5000071302056C512.5000017508864,730.5000071302056,512.5000017508864,730.5000071302056,520.5000017508864,730.5000071302056"></path><path id="kity_path_756" fill="none" stroke="rgb(115, 161, 191)" stroke-width="1" d="M404.50000175088644,730.5000071302056C412.50000175088644,730.5000071302056,412.50000175088644,730.5000071302056,420.50000175088644,730.5000071302056"></path><path id="kity_path_757" fill="none" stroke="rgb(115, 161, 191)" stroke-width="1" d="M504.50000175088644,764.5000071302056C512.5000017508864,764.5000071302056,512.5000017508864,764.5000071302056,520.5000017508864,764.5000071302056"></path><path id="kity_path_758" fill="none" stroke="rgb(115, 161, 191)" stroke-width="1" d="M404.50000175088644,730.5000071302056C412.50000175088644,730.5000071302056,412.50000175088644,764.5000071302056,420.50000175088644,764.5000071302056"></path><path id="kity_path_852" fill="none" stroke="rgb(115, 161, 191)" stroke-width="1" d="M407.50000175088644,880.5000071302056C415.50000175088644,880.5000071302056,415.50000175088644,795.5000071302056,423.50000175088644,795.5000071302056"></path><path id="kity_path_853" fill="none" stroke="rgb(115, 161, 191)" stroke-width="1" d="M407.50000175088644,880.5000071302056C415.50000175088644,880.5000071302056,415.50000175088644,829.5000071302056,423.50000175088644,829.5000071302056"></path><path id="kity_path_854" fill="none" stroke="rgb(115, 161, 191)" stroke-width="1" d="M407.50000175088644,880.5000071302056C415.50000175088644,880.5000071302056,415.50000175088644,863.5000071302056,423.50000175088644,863.5000071302056"></path><path id="kity_path_855" fill="none" stroke="rgb(115, 161, 191)" stroke-width="1" d="M407.50000175088644,880.5000071302056C415.50000175088644,880.5000071302056,415.50000175088644,897.5000071302056,423.50000175088644,897.5000071302056"></path><path id="kity_path_856" fill="none" stroke="rgb(115, 161, 191)" stroke-width="1" d="M407.50000175088644,880.5000071302056C415.50000175088644,880.5000071302056,415.50000175088644,931.5000071302056,423.50000175088644,931.5000071302056"></path><path id="kity_path_857" fill="none" stroke="rgb(115, 161, 191)" stroke-width="1" d="M407.50000175088644,880.5000071302056C415.50000175088644,880.5000071302056,415.50000175088644,965.5000071302056,423.50000175088644,965.5000071302056"></path><path id="kity_path_859" fill="none" stroke="rgb(115, 161, 191)" stroke-width="1" d="M507.50000175088644,795.5000071302056C515.5000017508864,795.5000071302056,515.5000017508864,795.5000071302056,523.5000017508864,795.5000071302056"></path><path id="kity_path_867" fill="none" stroke="rgb(115, 161, 191)" stroke-width="1" d="M519.5000017508864,829.5000071302056C527.5000017508864,829.5000071302056,527.5000017508864,829.5000071302056,535.5000017508864,829.5000071302056"></path><path id="kity_path_875" fill="none" stroke="rgb(115, 161, 191)" stroke-width="1" d="M507.50000175088644,863.5000071302056C515.5000017508864,863.5000071302056,515.5000017508864,863.5000071302056,523.5000017508864,863.5000071302056"></path><path id="kity_path_883" fill="none" stroke="rgb(115, 161, 191)" stroke-width="1" d="M567.5000017508864,897.5000071302056C575.5000017508864,897.5000071302056,575.5000017508864,897.5000071302056,583.5000017508864,897.5000071302056"></path><path id="kity_path_891" fill="none" stroke="rgb(115, 161, 191)" stroke-width="1" d="M591.5000017508864,931.5000071302056C599.5000017508864,931.5000071302056,599.5000017508864,931.5000071302056,607.5000017508864,931.5000071302056"></path><path id="kity_path_899" fill="none" stroke="rgb(115, 161, 191)" stroke-width="1" d="M591.5000017508864,965.5000071302056C599.5000017508864,965.5000071302056,599.5000017508864,965.5000071302056,607.5000017508864,965.5000071302056"></path><path id="kity_path_982" fill="none" stroke="rgb(115, 161, 191)" stroke-width="1" d="M555.5000017508864,997.5000071302056C563.5000017508864,997.5000071302056,563.5000017508864,997.5000071302056,571.5000017508864,997.5000071302056"></path><path id="kity_path_983" fill="none" stroke="rgb(115, 161, 191)" stroke-width="1" d="M408.50000175088644,1014.5000071302056C416.50000175088644,1014.5000071302056,416.50000175088644,997.5000071302056,424.50000175088644,997.5000071302056"></path><path id="kity_path_984" fill="none" stroke="rgb(115, 161, 191)" stroke-width="1" d="M592.5000017508864,1031.5000071302056C600.5000017508864,1031.5000071302056,600.5000017508864,1031.5000071302056,608.5000017508864,1031.5000071302056"></path><path id="kity_path_985" fill="none" stroke="rgb(115, 161, 191)" stroke-width="1" d="M408.50000175088644,1014.5000071302056C416.50000175088644,1014.5000071302056,416.50000175088644,1031.5000071302056,424.50000175088644,1031.5000071302056"></path></g><g id="minder_node1"><path id="node_outline1" fill="rgb(115, 161, 191)" stroke="rgb(115, 161, 191)" d="M25.50000175088644,556.5000071302056h174a5,5,0,0,1,5,5v18a5,5,0,0,1,-5,5h-174a5,5,0,0,1,-5,-5v-18a5,5,0,0,1,5,-5z" stroke-width="3"></path><g id="node_text1" fill="white"><text id="kity_text_22" text-rendering="inherit" font-size="16" dy=".8em" y="560.1000070944428" x="32.50000175088644">证券市场基本法律法规</text></g></g><g id="kity_g_14" display="none"><path id="kity_path_15" fill="rgba(0, 92, 153, 0.5)" stroke="none" d="M442.50000175088644,534.5000071302056h228v4h-228z"></path><path id="kity_path_16" fill="none" stroke="rgb(0, 76, 128)" d="M442.50000175088644,538.5000071302056L670.5000017508864,538.5000071302056" stroke-width="1"></path></g><g id="minder_node2" opacity="1"><g id="node_expander1" style="cursor: pointer;"><path id="kity_path_36" fill="white" stroke="gray" d="M199.5000041499734,49.49999936670065A6,6,0,1,1,187.5000041499734,49.49999936670065A6,6,0,1,1,199.5000041499734,49.49999936670065"></path><path id="kity_path_37" fill="none" stroke="gray" d="M189.0000041499734,49.49999936670065L198.0000041499734,49.49999936670065"></path></g><path id="node_outline2" fill="rgb(238, 243, 246)" stroke="rgb(115, 161, 191)" d="M203.50000455230474,36.49999936670065h188a3,3,0,0,1,3,3v20a3,3,0,0,1,-3,3h-188a3,3,0,0,1,-3,-3v-20a3,3,0,0,1,3,-3z" stroke-width="1"></path><g id="node_text2" fill="black"><text id="kity_text_33" text-rendering="inherit" font-size="14" dy=".8em" y="40.39999933540821" x="220.50000455230474">证券市场的法律法规体系</text></g></g><g id="minder_node3" opacity="1"><g id="node_expander2" style="cursor: pointer;"><path id="kity_path_44" fill="white" stroke="gray" d="M310.5000058040023,161.5000010356307A6,6,0,1,1,298.5000058040023,161.5000010356307A6,6,0,1,1,310.5000058040023,161.5000010356307"></path><path id="kity_path_45" fill="none" stroke="gray" d="M300.0000058040023,161.5000010356307L309.0000058040023,161.5000010356307"></path></g><path id="node_outline3" fill="rgb(238, 243, 246)" stroke="rgb(115, 161, 191)" d="M314.50000620633364,148.5000010356307h76a3,3,0,0,1,3,3v20a3,3,0,0,1,-3,3h-76a3,3,0,0,1,-3,-3v-20a3,3,0,0,1,3,-3z" stroke-width="1"></path><g id="node_text3" fill="black"><text id="kity_text_41" text-rendering="inherit" font-size="14" dy=".8em" y="152.40000100433826" x="331.50000620633364">公司法</text></g></g><g id="kity_g_12" display="none"><path id="kity_path_13" fill="none" stroke="rgb(66, 94, 112)" d="M434.50000175088644,656.5000071302056h50a5,5,0,0,1,5,5v8a5,5,0,0,1,-5,5h-50a5,5,0,0,1,-5,-5v-8a5,5,0,0,1,5,-5z" stroke-width="5"></path></g><g id="minder_node18"><g id="node_expander17" style="cursor: pointer;" display="none"><path id="kity_path_181" fill="white" stroke="gray" d="M534.5000091418624,32.49999911338091A6,6,0,1,1,522.5000091418624,32.49999911338091A6,6,0,1,1,534.5000091418624,32.49999911338091"></path><path id="kity_path_182" fill="none" stroke="gray"></path></g><path id="node_outline18" fill="none" stroke="none" d="M539.5000093057752,23.49999911338091h24a5,5,0,0,1,5,5v8a5,5,0,0,1,-5,5h-24a5,5,0,0,1,-5,-5v-8a5,5,0,0,1,5,-5z" stroke-width="3"></path><g id="node_text18" fill="black"><text id="kity_text_178" text-rendering="inherit" font-size="12" dy=".8em" y="24.69999908655882" font-weight="bold" x="539.5000093057752">了解</text></g></g><g id="minder_node4" opacity="1"><g id="node_expander3" style="cursor: pointer;"><path id="kity_path_52" fill="white" stroke="gray" d="M410.5000072941184,32.49999911338091A6,6,0,1,1,398.5000072941184,32.49999911338091A6,6,0,1,1,410.5000072941184,32.49999911338091"></path><path id="kity_path_53" fill="none" stroke="gray" d="M400.0000072941184,32.49999911338091L409.0000072941184,32.49999911338091"></path></g><path id="node_outline4" fill="none" stroke="none" d="M415.5000078305602,19.49999911338091h98a5,5,0,0,1,5,5v16a5,5,0,0,1,-5,5h-98a5,5,0,0,1,-5,-5v-16a5,5,0,0,1,5,-5z" stroke-width="3"></path><g id="node_text4" fill="black"><text id="kity_text_49" text-rendering="inherit" font-size="12" dy=".8em" y="24.69999908655882" x="440.5000078305602">法和法的关系</text></g><g id="node_priority1"><path id="kity_path_87" fill="#840023" stroke="none" d="M416.00000746548176,35.99999897181988c0,3.866,3.134,7,7,7h6c3.866,0,7,-3.134,7,-7V29.999998971819878H416.00000746548176V35.99999897181988z"></path><path id="kity_path_88" fill="#FF1200" stroke="none" d="M436.00000746548176,32.99999897181988c0,3.866,-3.134,7,-7,7H423.00000746548176c-3.866,0,-7,-3.134,-7,-7V29.999998971819878c0,-3.866,3.134,-7,7,-7h6c3.866,0,7,3.134,7,7V32.99999897181988z" opacity="0.8"></path><text id="kity_text_89" text-rendering="geometricPrecision" x="425.0000074580312" y="32.4999989643693" text-anchor="middle" font-style="italic" font-size="12" fill="white" dy="5">1</text></g></g><g id="minder_node19"><g id="node_expander18" style="cursor: pointer;" display="none"><path id="kity_path_189" fill="white" stroke="gray" d="M679.5000113025308,66.49999962002039A6,6,0,1,1,667.5000113025308,66.49999962002039A6,6,0,1,1,679.5000113025308,66.49999962002039"></path><path id="kity_path_190" fill="none" stroke="gray"></path></g><path id="node_outline19" fill="none" stroke="none" d="M684.5000114664435,57.49999962002039h24a5,5,0,0,1,5,5v8a5,5,0,0,1,-5,5h-24a5,5,0,0,1,-5,-5v-8a5,5,0,0,1,5,-5z" stroke-width="3"></path><g id="node_text19" fill="black"><text id="kity_text_186" text-rendering="inherit" font-size="12" dy=".8em" y="58.6999995931983" font-weight="bold" x="684.5000114664435">了解</text></g></g><g id="minder_node5" opacity="1"><g id="node_expander4" style="cursor: pointer;"><path id="kity_path_60" fill="white" stroke="gray" d="M410.5000072941184,66.49999962002039A6,6,0,1,1,398.5000072941184,66.49999962002039A6,6,0,1,1,410.5000072941184,66.49999962002039"></path><path id="kity_path_61" fill="none" stroke="gray" d="M400.0000072941184,66.49999962002039L409.0000072941184,66.49999962002039"></path></g><path id="node_outline5" fill="none" stroke="none" d="M415.5000078305602,53.49999962002039h243a5,5,0,0,1,5,5v16a5,5,0,0,1,-5,5h-243a5,5,0,0,1,-5,-5v-16a5,5,0,0,1,5,-5z" stroke-width="3"></path><g id="node_text5" fill="black"><text id="kity_text_57" text-rendering="inherit" font-size="12" dy=".8em" y="58.6999995931983" x="440.5000078305602">证券市场法律法规体系的层级和对应法规</text></g><g id="node_priority2"><path id="kity_path_92" fill="#01467F" stroke="none" d="M416.00000746548176,69.99999947845936c0,3.866,3.134,7,7,7h6c3.866,0,7,-3.134,7,-7V63.99999947845936H416.00000746548176V69.99999947845936z"></path><path id="kity_path_93" fill="#0074FF" stroke="none" d="M436.00000746548176,66.99999947845936c0,3.866,-3.134,7,-7,7H423.00000746548176c-3.866,0,-7,-3.134,-7,-7V63.99999947845936c0,-3.866,3.134,-7,7,-7h6c3.866,0,7,3.134,7,7V66.99999947845936z" opacity="0.8"></path><text id="kity_text_94" text-rendering="geometricPrecision" x="425.0000074580312" y="66.49999947100878" text-anchor="middle" font-style="italic" font-size="12" fill="white" dy="5">2</text></g></g><g id="minder_node20"><g id="node_expander19" style="cursor: pointer;" display="none"><path id="kity_path_197" fill="white" stroke="gray" d="M522.5000089630485,93.50000002235174A6,6,0,1,1,510.50000896304846,93.50000002235174A6,6,0,1,1,522.5000089630485,93.50000002235174"></path><path id="kity_path_198" fill="none" stroke="gray"></path></g><path id="node_outline20" fill="none" stroke="none" d="M527.5000091269612,84.50000002235174h49a5,5,0,0,1,5,5v8a5,5,0,0,1,-5,5h-49a5,5,0,0,1,-5,-5v-8a5,5,0,0,1,5,-5z" stroke-width="3"></path><g id="node_text20" fill="black"><text id="kity_text_194" text-rendering="inherit" font-size="12" dy=".8em" y="85.69999999552965" font-weight="bold" x="527.5000091269612">重点掌握</text></g></g><g id="minder_node8"><g id="node_expander7" style="cursor: pointer;"><path id="kity_path_101" fill="white" stroke="gray" d="M409.50000727921724,93.50000002235174A6,6,0,1,1,397.50000727921724,93.50000002235174A6,6,0,1,1,409.50000727921724,93.50000002235174"></path><path id="kity_path_102" fill="none" stroke="gray" d="M399.00000727921724,93.50000002235174L408.00000727921724,93.50000002235174"></path></g><path id="node_outline8" fill="none" stroke="none" d="M414.50000781565905,80.50000002235174h87a5,5,0,0,1,5,5v16a5,5,0,0,1,-5,5h-87a5,5,0,0,1,-5,-5v-16a5,5,0,0,1,5,-5z" stroke-width="3"></path><g id="node_text8" fill="black"><text id="kity_text_98" text-rendering="inherit" font-size="12" dy=".8em" y="85.69999999552965" x="439.50000781565905">公司法概述</text></g><g id="node_priority3"><path id="kity_path_233" fill="#840023" stroke="none" d="M415.0000074505806,96.99999988079071c0,3.866,3.134,7,7,7h6c3.866,0,7,-3.134,7,-7V90.99999988079071H415.0000074505806V96.99999988079071z"></path><path id="kity_path_234" fill="#FF1200" stroke="none" d="M435.0000074505806,93.99999988079071c0,3.866,-3.134,7,-7,7H422.0000074505806c-3.866,0,-7,-3.134,-7,-7V90.99999988079071c0,-3.866,3.134,-7,7,-7h6c3.866,0,7,3.134,7,7V93.99999988079071z" opacity="0.8"></path><text id="kity_text_235" text-rendering="geometricPrecision" x="424.00000744313" y="93.49999987334013" text-anchor="middle" font-style="italic" font-size="12" fill="white" dy="5">1</text></g></g><g id="minder_node21"><g id="node_expander20" style="cursor: pointer;" display="none"><path id="kity_path_205" fill="white" stroke="gray" d="M533.5000091269612,127.50000052899122A6,6,0,1,1,521.5000091269612,127.50000052899122A6,6,0,1,1,533.5000091269612,127.50000052899122"></path><path id="kity_path_206" fill="none" stroke="gray"></path></g><path id="node_outline21" fill="none" stroke="none" d="M538.500009290874,118.50000052899122h49a5,5,0,0,1,5,5v8a5,5,0,0,1,-5,5h-49a5,5,0,0,1,-5,-5v-8a5,5,0,0,1,5,-5z" stroke-width="3"></path><g id="node_text21" fill="black"><text id="kity_text_202" text-rendering="inherit" font-size="12" dy=".8em" y="119.70000050216913" font-weight="bold" x="538.500009290874">重点掌握</text></g></g><g id="minder_node9"><g id="node_expander8" style="cursor: pointer;"><path id="kity_path_109" fill="white" stroke="gray" d="M409.50000727921724,127.50000052899122A6,6,0,1,1,397.50000727921724,127.50000052899122A6,6,0,1,1,409.50000727921724,127.50000052899122"></path><path id="kity_path_110" fill="none" stroke="gray" d="M399.00000727921724,127.50000052899122L408.00000727921724,127.50000052899122"></path></g><path id="node_outline9" fill="none" stroke="none" d="M414.50000781565905,114.50000052899122h98a5,5,0,0,1,5,5v16a5,5,0,0,1,-5,5h-98a5,5,0,0,1,-5,-5v-16a5,5,0,0,1,5,-5z" stroke-width="3"></path><g id="node_text9" fill="black"><text id="kity_text_106" text-rendering="inherit" font-size="12" dy=".8em" y="119.70000050216913" x="439.50000781565905">有限责任公司</text></g><g id="node_priority4"><path id="kity_path_238" fill="#01467F" stroke="none" d="M415.0000074505806,131.0000003874302c0,3.866,3.134,7,7,7h6c3.866,0,7,-3.134,7,-7V125.00000038743019H415.0000074505806V131.0000003874302z"></path><path id="kity_path_239" fill="#0074FF" stroke="none" d="M435.0000074505806,128.0000003874302c0,3.866,-3.134,7,-7,7H422.0000074505806c-3.866,0,-7,-3.134,-7,-7V125.00000038743019c0,-3.866,3.134,-7,7,-7h6c3.866,0,7,3.134,7,7V128.0000003874302z" opacity="0.8"></path><text id="kity_text_240" text-rendering="geometricPrecision" x="424.00000744313" y="127.50000037997961" text-anchor="middle" font-style="italic" font-size="12" fill="white" dy="5">2</text></g></g><g id="minder_node22"><g id="node_expander21" style="cursor: pointer;" display="none"><path id="kity_path_213" fill="white" stroke="gray" d="M533.5000091269612,161.5000010356307A6,6,0,1,1,521.5000091269612,161.5000010356307A6,6,0,1,1,533.5000091269612,161.5000010356307"></path><path id="kity_path_214" fill="none" stroke="gray"></path></g><path id="node_outline22" fill="none" stroke="none" d="M538.500009290874,152.5000010356307h49a5,5,0,0,1,5,5v8a5,5,0,0,1,-5,5h-49a5,5,0,0,1,-5,-5v-8a5,5,0,0,1,5,-5z" stroke-width="3"></path><g id="node_text22" fill="black"><text id="kity_text_210" text-rendering="inherit" font-size="12" dy=".8em" y="153.7000010088086" font-weight="bold" x="538.500009290874">重点掌握</text></g></g><g id="minder_node10"><g id="node_expander9" style="cursor: pointer;"><path id="kity_path_117" fill="white" stroke="gray" d="M409.50000727921724,161.5000010356307A6,6,0,1,1,397.50000727921724,161.5000010356307A6,6,0,1,1,409.50000727921724,161.5000010356307"></path><path id="kity_path_118" fill="none" stroke="gray" d="M399.00000727921724,161.5000010356307L408.00000727921724,161.5000010356307"></path></g><path id="node_outline10" fill="none" stroke="none" d="M414.50000781565905,148.5000010356307h98a5,5,0,0,1,5,5v16a5,5,0,0,1,-5,5h-98a5,5,0,0,1,-5,-5v-16a5,5,0,0,1,5,-5z" stroke-width="3"></path><g id="node_text10" fill="black"><text id="kity_text_114" text-rendering="inherit" font-size="12" dy=".8em" y="153.7000010088086" x="439.50000781565905">股份有限公司</text></g><g id="node_priority5"><path id="kity_path_243" fill="#006300" stroke="none" d="M415.0000074505806,165.00000089406967c0,3.866,3.134,7,7,7h6c3.866,0,7,-3.134,7,-7V159.00000089406967H415.0000074505806V165.00000089406967z"></path><path id="kity_path_244" fill="#00AF00" stroke="none" d="M435.0000074505806,162.00000089406967c0,3.866,-3.134,7,-7,7H422.0000074505806c-3.866,0,-7,-3.134,-7,-7V159.00000089406967c0,-3.866,3.134,-7,7,-7h6c3.866,0,7,3.134,7,7V162.00000089406967z" opacity="0.8"></path><text id="kity_text_245" text-rendering="geometricPrecision" x="424.00000744313" y="161.5000008866191" text-anchor="middle" font-style="italic" font-size="12" fill="white" dy="5">3</text></g></g><g id="minder_node23"><g id="node_expander22" style="cursor: pointer;" display="none"><path id="kity_path_221" fill="white" stroke="gray" d="M510.5000087842345,195.50000154227018A6,6,0,1,1,498.5000087842345,195.50000154227018A6,6,0,1,1,510.5000087842345,195.50000154227018"></path><path id="kity_path_222" fill="none" stroke="gray"></path></g><path id="node_outline23" fill="none" stroke="none" d="M515.5000089481473,186.50000154227018h49a5,5,0,0,1,5,5v8a5,5,0,0,1,-5,5h-49a5,5,0,0,1,-5,-5v-8a5,5,0,0,1,5,-5z" stroke-width="3"></path><g id="node_text23" fill="black"><text id="kity_text_218" text-rendering="inherit" font-size="12" dy=".8em" y="187.7000015154481" font-weight="bold" x="515.5000089481473">重点掌握</text></g></g><g id="minder_node11"><g id="node_expander10" style="cursor: pointer;"><path id="kity_path_125" fill="white" stroke="gray" d="M409.50000727921724,195.50000154227018A6,6,0,1,1,397.50000727921724,195.50000154227018A6,6,0,1,1,409.50000727921724,195.50000154227018"></path><path id="kity_path_126" fill="none" stroke="gray" d="M399.00000727921724,195.50000154227018L408.00000727921724,195.50000154227018"></path></g><path id="node_outline11" fill="none" stroke="none" d="M414.50000781565905,182.50000154227018h75a5,5,0,0,1,5,5v16a5,5,0,0,1,-5,5h-75a5,5,0,0,1,-5,-5v-16a5,5,0,0,1,5,-5z" stroke-width="3"></path><g id="node_text11" fill="black"><text id="kity_text_122" text-rendering="inherit" font-size="12" dy=".8em" y="187.7000015154481" x="439.50000781565905">其他规定</text></g><g id="node_priority6"><path id="kity_path_248" fill="#B25000" stroke="none" d="M415.0000074505806,199.00000140070915c0,3.866,3.134,7,7,7h6c3.866,0,7,-3.134,7,-7V193.00000140070915H415.0000074505806V199.00000140070915z"></path><path id="kity_path_249" fill="#FF962E" stroke="none" d="M435.0000074505806,196.00000140070915c0,3.866,-3.134,7,-7,7H422.0000074505806c-3.866,0,-7,-3.134,-7,-7V193.00000140070915c0,-3.866,3.134,-7,7,-7h6c3.866,0,7,3.134,7,7V196.00000140070915z" opacity="0.8"></path><text id="kity_text_250" text-rendering="geometricPrecision" x="424.00000744313" y="195.50000139325857" text-anchor="middle" font-style="italic" font-size="12" fill="white" dy="5">4</text></g></g><g id="minder_node24"><g id="node_expander23" style="cursor: pointer;" display="none"><path id="kity_path_229" fill="white" stroke="gray" d="M510.5000087842345,229.50000204890966A6,6,0,1,1,498.5000087842345,229.50000204890966A6,6,0,1,1,510.5000087842345,229.50000204890966"></path><path id="kity_path_230" fill="none" stroke="gray"></path></g><path id="node_outline24" fill="none" stroke="none" d="M515.5000089481473,220.50000204890966h24a5,5,0,0,1,5,5v8a5,5,0,0,1,-5,5h-24a5,5,0,0,1,-5,-5v-8a5,5,0,0,1,5,-5z" stroke-width="3"></path><g id="node_text24" fill="black"><text id="kity_text_226" text-rendering="inherit" font-size="12" dy=".8em" y="221.70000202208757" font-weight="bold" x="515.5000089481473">了解</text></g></g><g id="minder_node12"><g id="node_expander11" style="cursor: pointer;"><path id="kity_path_133" fill="white" stroke="gray" d="M409.50000727921724,229.50000204890966A6,6,0,1,1,397.50000727921724,229.50000204890966A6,6,0,1,1,409.50000727921724,229.50000204890966"></path><path id="kity_path_134" fill="none" stroke="gray" d="M399.00000727921724,229.50000204890966L408.00000727921724,229.50000204890966"></path></g><path id="node_outline12" fill="none" stroke="none" d="M414.50000781565905,216.50000204890966h75a5,5,0,0,1,5,5v16a5,5,0,0,1,-5,5h-75a5,5,0,0,1,-5,-5v-16a5,5,0,0,1,5,-5z" stroke-width="3"></path><g id="node_text12" fill="black"><text id="kity_text_130" text-rendering="inherit" font-size="12" dy=".8em" y="221.70000202208757" x="439.50000781565905">法律责任</text></g><g id="node_priority7"><path id="kity_path_253" fill="#4720C4" stroke="none" d="M415.0000074505806,233.00000190734863c0,3.866,3.134,7,7,7h6c3.866,0,7,-3.134,7,-7V227.00000190734863H415.0000074505806V233.00000190734863z"></path><path id="kity_path_254" fill="#A464FF" stroke="none" d="M435.0000074505806,230.00000190734863c0,3.866,-3.134,7,-7,7H422.0000074505806c-3.866,0,-7,-3.134,-7,-7V227.00000190734863c0,-3.866,3.134,-7,7,-7h6c3.866,0,7,3.134,7,7V230.00000190734863z" opacity="0.8"></path><text id="kity_text_255" text-rendering="geometricPrecision" x="424.00000744313" y="229.50000189989805" text-anchor="middle" font-style="italic" font-size="12" fill="white" dy="5">5</text></g></g><g id="minder_node25" opacity="1"><g id="node_expander24" style="cursor: pointer;"><path id="kity_path_306" fill="white" stroke="gray" d="M282.50000538676977,309.50000324100256A6,6,0,1,1,270.50000538676977,309.50000324100256A6,6,0,1,1,282.50000538676977,309.50000324100256"></path><path id="kity_path_307" fill="none" stroke="gray" d="M272.00000538676977,309.50000324100256L281.00000538676977,309.50000324100256"></path></g><path id="node_outline25" fill="rgb(238, 243, 246)" stroke="rgb(115, 161, 191)" d="M286.5000057891011,296.50000324100256h105a3,3,0,0,1,3,3v20a3,3,0,0,1,-3,3h-105a3,3,0,0,1,-3,-3v-20a3,3,0,0,1,3,-3z" stroke-width="1"></path><g id="node_text25" fill="black"><text id="kity_text_303" text-rendering="inherit" font-size="14" dy=".8em" y="300.4000032097101" x="303.5000057891011">合伙企业法</text></g></g><g id="minder_node34" opacity="1"><g id="node_expander33" style="cursor: pointer;"><path id="kity_path_410" fill="white" stroke="gray" d="M319.50000593811274,527.5000064894557A6,6,0,1,1,307.50000593811274,527.5000064894557A6,6,0,1,1,319.50000593811274,527.5000064894557"></path><path id="kity_path_411" fill="none" stroke="gray" d="M309.00000593811274,527.5000064894557L318.00000593811274,527.5000064894557"></path></g><path id="node_outline34" fill="rgb(238, 243, 246)" stroke="rgb(115, 161, 191)" d="M323.5000063404441,514.5000064894557h76a3,3,0,0,1,3,3v20a3,3,0,0,1,-3,3h-76a3,3,0,0,1,-3,-3v-20a3,3,0,0,1,3,-3z" stroke-width="1"></path><g id="node_text34" fill="black"><text id="kity_text_407" text-rendering="inherit" font-size="14" dy=".8em" y="518.4000064581633" x="340.5000063404441">证券法</text></g></g><g id="minder_node30"><g id="node_expander29" style="cursor: pointer;" display="none"><path id="kity_path_358" fill="white" stroke="gray" d="M547.5000093355775,258.50000248104334A6,6,0,1,1,535.5000093355775,258.50000248104334A6,6,0,1,1,547.5000093355775,258.50000248104334"></path><path id="kity_path_359" fill="none" stroke="gray"></path></g><path id="node_outline30" fill="none" stroke="none" d="M552.5000094994903,249.50000248104334h24a5,5,0,0,1,5,5v8a5,5,0,0,1,-5,5h-24a5,5,0,0,1,-5,-5v-8a5,5,0,0,1,5,-5z" stroke-width="3"></path><g id="node_text30" fill="black"><text id="kity_text_355" text-rendering="inherit" font-size="12" dy=".8em" y="250.70000245422125" font-weight="bold" x="552.5000094994903">了解</text></g></g><g id="minder_node26"><g id="node_expander25" style="cursor: pointer;"><path id="kity_path_314" fill="white" stroke="gray" d="M410.5000072941184,258.50000248104334A6,6,0,1,1,398.5000072941184,258.50000248104334A6,6,0,1,1,410.5000072941184,258.50000248104334"></path><path id="kity_path_315" fill="none" stroke="gray" d="M400.0000072941184,258.50000248104334L409.0000072941184,258.50000248104334"></path></g><path id="node_outline26" fill="none" stroke="none" d="M415.5000078305602,245.50000248104334h111a5,5,0,0,1,5,5v16a5,5,0,0,1,-5,5h-111a5,5,0,0,1,-5,-5v-16a5,5,0,0,1,5,-5z" stroke-width="3"></path><g id="node_text26" fill="black"><text id="kity_text_311" text-rendering="inherit" font-size="12" dy=".8em" y="250.70000245422125" x="440.5000078305602">合伙企业法概述</text></g><g id="node_priority8"><path id="kity_path_386" fill="#840023" stroke="none" d="M416.00000746548176,262.0000023394823c0,3.866,3.134,7,7,7h6c3.866,0,7,-3.134,7,-7V256.0000023394823H416.00000746548176V262.0000023394823z"></path><path id="kity_path_387" fill="#FF1200" stroke="none" d="M436.00000746548176,259.0000023394823c0,3.866,-3.134,7,-7,7H423.00000746548176c-3.866,0,-7,-3.134,-7,-7V256.0000023394823c0,-3.866,3.134,-7,7,-7h6c3.866,0,7,3.134,7,7V259.0000023394823z" opacity="0.8"></path><text id="kity_text_388" text-rendering="geometricPrecision" x="425.0000074580312" y="258.5000023320317" text-anchor="middle" font-style="italic" font-size="12" fill="white" dy="5">1</text></g></g><g id="minder_node31"><g id="node_expander30" style="cursor: pointer;" display="none"><path id="kity_path_366" fill="white" stroke="gray" d="M534.5000091418624,292.5000029876828A6,6,0,1,1,522.5000091418624,292.5000029876828A6,6,0,1,1,534.5000091418624,292.5000029876828"></path><path id="kity_path_367" fill="none" stroke="gray"></path></g><path id="node_outline31" fill="none" stroke="none" d="M539.5000093057752,283.5000029876828h49a5,5,0,0,1,5,5v8a5,5,0,0,1,-5,5h-49a5,5,0,0,1,-5,-5v-8a5,5,0,0,1,5,-5z" stroke-width="3"></path><g id="node_text31" fill="black"><text id="kity_text_363" text-rendering="inherit" font-size="12" dy=".8em" y="284.70000296086073" font-weight="bold" x="539.5000093057752">重点掌握</text></g></g><g id="minder_node27"><g id="node_expander26" style="cursor: pointer;"><path id="kity_path_322" fill="white" stroke="gray" d="M410.5000072941184,292.5000029876828A6,6,0,1,1,398.5000072941184,292.5000029876828A6,6,0,1,1,410.5000072941184,292.5000029876828"></path><path id="kity_path_323" fill="none" stroke="gray" d="M400.0000072941184,292.5000029876828L409.0000072941184,292.5000029876828"></path></g><path id="node_outline27" fill="none" stroke="none" d="M415.5000078305602,279.5000029876828h98a5,5,0,0,1,5,5v16a5,5,0,0,1,-5,5h-98a5,5,0,0,1,-5,-5v-16a5,5,0,0,1,5,-5z" stroke-width="3"></path><g id="node_text27" fill="black"><text id="kity_text_319" text-rendering="inherit" font-size="12" dy=".8em" y="284.70000296086073" x="440.5000078305602">普通合伙企业</text></g><g id="node_priority9"><path id="kity_path_391" fill="#01467F" stroke="none" d="M416.00000746548176,296.0000028461218c0,3.866,3.134,7,7,7h6c3.866,0,7,-3.134,7,-7V290.0000028461218H416.00000746548176V296.0000028461218z"></path><path id="kity_path_392" fill="#0074FF" stroke="none" d="M436.00000746548176,293.0000028461218c0,3.866,-3.134,7,-7,7H423.00000746548176c-3.866,0,-7,-3.134,-7,-7V290.0000028461218c0,-3.866,3.134,-7,7,-7h6c3.866,0,7,3.134,7,7V293.0000028461218z" opacity="0.8"></path><text id="kity_text_393" text-rendering="geometricPrecision" x="425.0000074580312" y="292.5000028386712" text-anchor="middle" font-style="italic" font-size="12" fill="white" dy="5">2</text></g></g><g id="minder_node32"><g id="node_expander31" style="cursor: pointer;" display="none"><path id="kity_path_374" fill="white" stroke="gray" d="M535.5000091567636,326.5000034943223A6,6,0,1,1,523.5000091567636,326.5000034943223A6,6,0,1,1,535.5000091567636,326.5000034943223"></path><path id="kity_path_375" fill="none" stroke="gray"></path></g><path id="node_outline32" fill="none" stroke="none" d="M540.5000093206763,317.5000034943223h49a5,5,0,0,1,5,5v8a5,5,0,0,1,-5,5h-49a5,5,0,0,1,-5,-5v-8a5,5,0,0,1,5,-5z" stroke-width="3"></path><g id="node_text32" fill="black"><text id="kity_text_371" text-rendering="inherit" font-size="12" dy=".8em" y="318.7000034675002" font-weight="bold" x="540.5000093206763">重点掌握</text></g></g><g id="minder_node28"><g id="node_expander27" style="cursor: pointer;"><path id="kity_path_330" fill="white" stroke="gray" d="M410.5000072941184,326.5000034943223A6,6,0,1,1,398.5000072941184,326.5000034943223A6,6,0,1,1,410.5000072941184,326.5000034943223"></path><path id="kity_path_331" fill="none" stroke="gray" d="M400.0000072941184,326.5000034943223L409.0000072941184,326.5000034943223"></path></g><path id="node_outline28" fill="none" stroke="none" d="M415.5000078305602,313.5000034943223h99a5,5,0,0,1,5,5v16a5,5,0,0,1,-5,5h-99a5,5,0,0,1,-5,-5v-16a5,5,0,0,1,5,-5z" stroke-width="3"></path><g id="node_text28" fill="black"><text id="kity_text_327" text-rendering="inherit" font-size="12" dy=".8em" y="318.7000034675002" x="440.5000078305602">有限合伙企业</text></g><g id="node_priority10"><path id="kity_path_396" fill="#006300" stroke="none" d="M416.00000746548176,330.00000335276127c0,3.866,3.134,7,7,7h6c3.866,0,7,-3.134,7,-7V324.00000335276127H416.00000746548176V330.00000335276127z"></path><path id="kity_path_397" fill="#00AF00" stroke="none" d="M436.00000746548176,327.00000335276127c0,3.866,-3.134,7,-7,7H423.00000746548176c-3.866,0,-7,-3.134,-7,-7V324.00000335276127c0,-3.866,3.134,-7,7,-7h6c3.866,0,7,3.134,7,7V327.00000335276127z" opacity="0.8"></path><text id="kity_text_398" text-rendering="geometricPrecision" x="425.0000074580312" y="326.5000033453107" text-anchor="middle" font-style="italic" font-size="12" fill="white" dy="5">3</text></g></g><g id="minder_node33"><g id="node_expander32" style="cursor: pointer;" display="none"><path id="kity_path_382" fill="white" stroke="gray" d="M583.5000098720193,360.5000040009618A6,6,0,1,1,571.5000098720193,360.5000040009618A6,6,0,1,1,583.5000098720193,360.5000040009618"></path><path id="kity_path_383" fill="none" stroke="gray"></path></g><path id="node_outline33" fill="none" stroke="none" d="M588.5000100359321,351.5000040009618h24a5,5,0,0,1,5,5v8a5,5,0,0,1,-5,5h-24a5,5,0,0,1,-5,-5v-8a5,5,0,0,1,5,-5z" stroke-width="3"></path><g id="node_text33" fill="black"><text id="kity_text_379" text-rendering="inherit" font-size="12" dy=".8em" y="352.7000039741397" font-weight="bold" x="588.5000100359321">掌握</text></g></g><g id="minder_node29"><g id="node_expander28" style="cursor: pointer;"><path id="kity_path_338" fill="white" stroke="gray" d="M410.5000072941184,360.5000040009618A6,6,0,1,1,398.5000072941184,360.5000040009618A6,6,0,1,1,410.5000072941184,360.5000040009618"></path><path id="kity_path_339" fill="none" stroke="gray" d="M400.0000072941184,360.5000040009618L409.0000072941184,360.5000040009618"></path></g><path id="node_outline29" fill="none" stroke="none" d="M415.5000078305602,347.5000040009618h147a5,5,0,0,1,5,5v16a5,5,0,0,1,-5,5h-147a5,5,0,0,1,-5,-5v-16a5,5,0,0,1,5,-5z" stroke-width="3"></path><g id="node_text29" fill="black"><text id="kity_text_335" text-rendering="inherit" font-size="12" dy=".8em" y="352.7000039741397" x="440.5000078305602">合伙企业的解散和清算</text></g><g id="node_priority11"><path id="kity_path_401" fill="#B25000" stroke="none" d="M416.00000746548176,364.00000385940075c0,3.866,3.134,7,7,7h6c3.866,0,7,-3.134,7,-7V358.00000385940075H416.00000746548176V364.00000385940075z"></path><path id="kity_path_402" fill="#FF962E" stroke="none" d="M436.00000746548176,361.00000385940075c0,3.866,-3.134,7,-7,7H423.00000746548176c-3.866,0,-7,-3.134,-7,-7V358.00000385940075c0,-3.866,3.134,-7,7,-7h6c3.866,0,7,3.134,7,7V361.00000385940075z" opacity="0.8"></path><text id="kity_text_403" text-rendering="geometricPrecision" x="425.0000074580312" y="360.50000385195017" text-anchor="middle" font-style="italic" font-size="12" fill="white" dy="5">4</text></g></g><g id="minder_node39"><g id="node_expander38" style="cursor: pointer;" display="none"><path id="kity_path_494" fill="white" stroke="gray" d="M531.5000090971589,391.5000044628978A6,6,0,1,1,519.5000090971589,391.5000044628978A6,6,0,1,1,531.5000090971589,391.5000044628978"></path><path id="kity_path_495" fill="none" stroke="gray"></path></g><path id="node_outline39" fill="none" stroke="none" d="M536.5000092610717,382.5000044628978h24a5,5,0,0,1,5,5v8a5,5,0,0,1,-5,5h-24a5,5,0,0,1,-5,-5v-8a5,5,0,0,1,5,-5z" stroke-width="3"></path><g id="node_text39" fill="black"><text id="kity_text_491" text-rendering="inherit" font-size="12" dy=".8em" y="383.7000044360757" font-weight="bold" x="536.5000092610717">掌握</text></g></g><g id="minder_node35"><g id="node_expander34" style="cursor: pointer;"><path id="kity_path_434" fill="white" stroke="gray" d="M418.5000074133277,391.5000044628978A6,6,0,1,1,406.5000074133277,391.5000044628978A6,6,0,1,1,418.5000074133277,391.5000044628978"></path><path id="kity_path_435" fill="none" stroke="gray" d="M408.0000074133277,391.5000044628978L417.0000074133277,391.5000044628978"></path></g><path id="node_outline35" fill="none" stroke="none" d="M423.5000079497695,378.5000044628978h87a5,5,0,0,1,5,5v16a5,5,0,0,1,-5,5h-87a5,5,0,0,1,-5,-5v-16a5,5,0,0,1,5,-5z" stroke-width="3"></path><g id="node_text35" fill="black"><text id="kity_text_431" text-rendering="inherit" font-size="12" dy=".8em" y="383.7000044360757" x="448.5000079497695">证券法概述</text></g><g id="node_priority12"><path id="kity_path_626" fill="#840023" stroke="none" d="M424.00000758469105,395.00000432133675c0,3.866,3.134,7,7,7h6c3.866,0,7,-3.134,7,-7V389.00000432133675H424.00000758469105V395.00000432133675z"></path><path id="kity_path_627" fill="#FF1200" stroke="none" d="M444.00000758469105,392.00000432133675c0,3.866,-3.134,7,-7,7H431.00000758469105c-3.866,0,-7,-3.134,-7,-7V389.00000432133675c0,-3.866,3.134,-7,7,-7h6c3.866,0,7,3.134,7,7V392.00000432133675z" opacity="0.8"></path><text id="kity_text_628" text-rendering="geometricPrecision" x="433.00000757724047" y="391.50000431388617" text-anchor="middle" font-style="italic" font-size="12" fill="white" dy="5">1</text></g></g><g id="minder_node40"><g id="node_expander39" style="cursor: pointer;" display="none"><path id="kity_path_502" fill="white" stroke="gray" d="M554.5000094398856,425.50000496953726A6,6,0,1,1,542.5000094398856,425.50000496953726A6,6,0,1,1,554.5000094398856,425.50000496953726"></path><path id="kity_path_503" fill="none" stroke="gray"></path></g><path id="node_outline40" fill="none" stroke="none" d="M559.5000096037984,416.50000496953726h48a5,5,0,0,1,5,5v8a5,5,0,0,1,-5,5h-48a5,5,0,0,1,-5,-5v-8a5,5,0,0,1,5,-5z" stroke-width="3"></path><g id="node_text40" fill="black"><text id="kity_text_499" text-rendering="inherit" font-size="12" dy=".8em" y="417.70000494271517" font-weight="bold" x="559.5000096037984">重点掌握</text></g></g><g id="minder_node36"><g id="node_expander35" style="cursor: pointer;"><path id="kity_path_442" fill="white" stroke="gray" d="M418.5000074133277,425.50000496953726A6,6,0,1,1,406.5000074133277,425.50000496953726A6,6,0,1,1,418.5000074133277,425.50000496953726"></path><path id="kity_path_443" fill="none" stroke="gray" d="M408.0000074133277,425.50000496953726L417.0000074133277,425.50000496953726"></path></g><path id="node_outline36" fill="none" stroke="none" d="M423.5000079497695,412.50000496953726h110a5,5,0,0,1,5,5v16a5,5,0,0,1,-5,5h-110a5,5,0,0,1,-5,-5v-16a5,5,0,0,1,5,-5z" stroke-width="3"></path><g id="node_text36" fill="black"><text id="kity_text_439" text-rendering="inherit" font-size="12" dy=".8em" y="417.70000494271517" x="448.5000079497695">证券发行与承销</text></g><g id="node_priority13"><path id="kity_path_631" fill="#01467F" stroke="none" d="M424.00000758469105,429.0000048279762c0,3.866,3.134,7,7,7h6c3.866,0,7,-3.134,7,-7V423.0000048279762H424.00000758469105V429.0000048279762z"></path><path id="kity_path_632" fill="#0074FF" stroke="none" d="M444.00000758469105,426.0000048279762c0,3.866,-3.134,7,-7,7H431.00000758469105c-3.866,0,-7,-3.134,-7,-7V423.0000048279762c0,-3.866,3.134,-7,7,-7h6c3.866,0,7,3.134,7,7V426.0000048279762z" opacity="0.8"></path><text id="kity_text_633" text-rendering="geometricPrecision" x="433.00000757724047" y="425.50000482052565" text-anchor="middle" font-style="italic" font-size="12" fill="white" dy="5">2</text></g></g><g id="minder_node41"><g id="node_expander40" style="cursor: pointer;" display="none"><path id="kity_path_510" fill="white" stroke="gray" d="M518.5000089034438,459.50000547617674A6,6,0,1,1,506.5000089034438,459.50000547617674A6,6,0,1,1,518.5000089034438,459.50000547617674"></path><path id="kity_path_511" fill="none" stroke="gray"></path></g><path id="node_outline41" fill="none" stroke="none" d="M523.5000090673566,450.50000547617674h48a5,5,0,0,1,5,5v8a5,5,0,0,1,-5,5h-48a5,5,0,0,1,-5,-5v-8a5,5,0,0,1,5,-5z" stroke-width="3"></path><g id="node_text41" fill="black"><text id="kity_text_507" text-rendering="inherit" font-size="12" dy=".8em" y="451.70000544935465" font-weight="bold" x="523.5000090673566">重点掌握</text></g></g><g id="minder_node37"><g id="node_expander36" style="cursor: pointer;"><path id="kity_path_450" fill="white" stroke="gray" d="M418.5000074133277,459.50000547617674A6,6,0,1,1,406.5000074133277,459.50000547617674A6,6,0,1,1,418.5000074133277,459.50000547617674"></path><path id="kity_path_451" fill="none" stroke="gray" d="M408.0000074133277,459.50000547617674L417.0000074133277,459.50000547617674"></path></g><path id="node_outline37" fill="none" stroke="none" d="M423.5000079497695,446.50000547617674h74a5,5,0,0,1,5,5v16a5,5,0,0,1,-5,5h-74a5,5,0,0,1,-5,-5v-16a5,5,0,0,1,5,-5z" stroke-width="3"></path><g id="node_text37" fill="black"><text id="kity_text_447" text-rendering="inherit" font-size="12" dy=".8em" y="451.70000544935465" x="448.5000079497695">证券交易</text></g><g id="node_priority14"><path id="kity_path_636" fill="#006300" stroke="none" d="M424.00000758469105,463.0000053346157c0,3.866,3.134,7,7,7h6c3.866,0,7,-3.134,7,-7V457.0000053346157H424.00000758469105V463.0000053346157z"></path><path id="kity_path_637" fill="#00AF00" stroke="none" d="M444.00000758469105,460.0000053346157c0,3.866,-3.134,7,-7,7H431.00000758469105c-3.866,0,-7,-3.134,-7,-7V457.0000053346157c0,-3.866,3.134,-7,7,-7h6c3.866,0,7,3.134,7,7V460.0000053346157z" opacity="0.8"></path><text id="kity_text_638" text-rendering="geometricPrecision" x="433.00000757724047" y="459.5000053271651" text-anchor="middle" font-style="italic" font-size="12" fill="white" dy="5">3</text></g></g><g id="minder_node38"><g id="node_expander37" style="cursor: pointer;"><path id="kity_path_458" fill="white" stroke="gray" d="M418.5000074133277,493.5000059828162A6,6,0,1,1,406.5000074133277,493.5000059828162A6,6,0,1,1,418.5000074133277,493.5000059828162"></path><path id="kity_path_459" fill="none" stroke="gray" d="M408.0000074133277,493.5000059828162L417.0000074133277,493.5000059828162"></path></g><path id="node_outline38" fill="none" stroke="none" d="M423.5000079497695,480.5000059828162h97a5,5,0,0,1,5,5v16a5,5,0,0,1,-5,5h-97a5,5,0,0,1,-5,-5v-16a5,5,0,0,1,5,-5z" stroke-width="3"></path><g id="node_text38" fill="black"><text id="kity_text_455" text-rendering="inherit" font-size="12" dy=".8em" y="485.70000595599413" x="448.5000079497695">上市公司收购</text></g><g id="node_priority15"><path id="kity_path_641" fill="#B25000" stroke="none" d="M424.00000758469105,497.0000058412552c0,3.866,3.134,7,7,7h6c3.866,0,7,-3.134,7,-7V491.0000058412552H424.00000758469105V497.0000058412552z"></path><path id="kity_path_642" fill="#FF962E" stroke="none" d="M444.00000758469105,494.0000058412552c0,3.866,-3.134,7,-7,7H431.00000758469105c-3.866,0,-7,-3.134,-7,-7V491.0000058412552c0,-3.866,3.134,-7,7,-7h6c3.866,0,7,3.134,7,7V494.0000058412552z" opacity="0.8"></path><text id="kity_text_643" text-rendering="geometricPrecision" x="433.00000757724047" y="493.5000058338046" text-anchor="middle" font-style="italic" font-size="12" fill="white" dy="5">4</text></g></g><g id="minder_node42"><g id="node_expander41" style="cursor: pointer;"><path id="kity_path_518" fill="white" stroke="gray" d="M418.5000074133277,527.5000064894557A6,6,0,1,1,406.5000074133277,527.5000064894557A6,6,0,1,1,418.5000074133277,527.5000064894557"></path><path id="kity_path_519" fill="none" stroke="gray" d="M408.0000074133277,527.5000064894557L417.0000074133277,527.5000064894557"></path></g><path id="node_outline42" fill="none" stroke="none" d="M423.5000079497695,514.5000064894557h75a5,5,0,0,1,5,5v16a5,5,0,0,1,-5,5h-75a5,5,0,0,1,-5,-5v-16a5,5,0,0,1,5,-5z" stroke-width="3"></path><g id="node_text42" fill="black"><text id="kity_text_515" text-rendering="inherit" font-size="12" dy=".8em" y="519.7000064626336" x="448.5000079497695">信息披露</text></g><g id="node_priority16"><path id="kity_path_646" fill="#4720C4" stroke="none" d="M424.00000758469105,531.0000063478947c0,3.866,3.134,7,7,7h6c3.866,0,7,-3.134,7,-7V525.0000063478947H424.00000758469105V531.0000063478947z"></path><path id="kity_path_647" fill="#A464FF" stroke="none" d="M444.00000758469105,528.0000063478947c0,3.866,-3.134,7,-7,7H431.00000758469105c-3.866,0,-7,-3.134,-7,-7V525.0000063478947c0,-3.866,3.134,-7,7,-7h6c3.866,0,7,3.134,7,7V528.0000063478947z" opacity="0.8"></path><text id="kity_text_648" text-rendering="geometricPrecision" x="433.00000757724047" y="527.5000063404441" text-anchor="middle" font-style="italic" font-size="12" fill="white" dy="5">5</text></g></g><g id="minder_node43"><g id="node_expander42" style="cursor: pointer;" display="none"><path id="kity_path_542" fill="white" stroke="gray" d="M541.5000092461705,493.5000059828162A6,6,0,1,1,529.5000092461705,493.5000059828162A6,6,0,1,1,541.5000092461705,493.5000059828162"></path><path id="kity_path_543" fill="none" stroke="gray"></path></g><path id="node_outline43" fill="none" stroke="none" d="M546.5000094100833,484.5000059828162h24a5,5,0,0,1,5,5v8a5,5,0,0,1,-5,5h-24a5,5,0,0,1,-5,-5v-8a5,5,0,0,1,5,-5z" stroke-width="3"></path><g id="node_text43" fill="black"><text id="kity_text_539" text-rendering="inherit" font-size="12" dy=".8em" y="485.70000595599413" font-weight="bold" x="546.5000094100833">掌握</text></g></g><g id="minder_node44"><g id="node_expander43" style="cursor: pointer;" display="none"><path id="kity_path_550" fill="white" stroke="gray" d="M519.500008918345,527.5000064894557A6,6,0,1,1,507.500008918345,527.5000064894557A6,6,0,1,1,519.500008918345,527.5000064894557"></path><path id="kity_path_551" fill="none" stroke="gray"></path></g><path id="node_outline44" fill="none" stroke="none" d="M524.5000090822577,518.5000064894557h24a5,5,0,0,1,5,5v8a5,5,0,0,1,-5,5h-24a5,5,0,0,1,-5,-5v-8a5,5,0,0,1,5,-5z" stroke-width="3"></path><g id="node_text44" fill="black"><text id="kity_text_547" text-rendering="inherit" font-size="12" dy=".8em" y="519.7000064626336" font-weight="bold" x="524.5000090822577">掌握</text></g></g><g id="minder_node45"><g id="node_expander44" style="cursor: pointer;"><path id="kity_path_558" fill="white" stroke="gray" d="M418.5000074133277,561.5000069960952A6,6,0,1,1,406.5000074133277,561.5000069960952A6,6,0,1,1,418.5000074133277,561.5000069960952"></path><path id="kity_path_559" fill="none" stroke="gray" d="M408.0000074133277,561.5000069960952L417.0000074133277,561.5000069960952"></path></g><path id="node_outline45" fill="none" stroke="none" d="M423.5000079497695,548.5000069960952h86a5,5,0,0,1,5,5v16a5,5,0,0,1,-5,5h-86a5,5,0,0,1,-5,-5v-16a5,5,0,0,1,5,-5z" stroke-width="3"></path><g id="node_text45" fill="black"><text id="kity_text_555" text-rendering="inherit" font-size="12" dy=".8em" y="553.7000069692731" x="448.5000079497695">投资者保护</text></g><g id="node_priority17"><path id="kity_path_651" fill="#515151" stroke="none" d="M424.00000758469105,565.0000068545341c0,3.866,3.134,7,7,7h6c3.866,0,7,-3.134,7,-7V559.0000068545341H424.00000758469105V565.0000068545341z"></path><path id="kity_path_652" fill="#A3A3A3" stroke="none" d="M444.00000758469105,562.0000068545341c0,3.866,-3.134,7,-7,7H431.00000758469105c-3.866,0,-7,-3.134,-7,-7V559.0000068545341c0,-3.866,3.134,-7,7,-7h6c3.866,0,7,3.134,7,7V562.0000068545341z" opacity="0.8"></path><text id="kity_text_653" text-rendering="geometricPrecision" x="433.00000757724047" y="561.5000068470836" text-anchor="middle" font-style="italic" font-size="12" fill="white" dy="5">6</text></g></g><g id="minder_node46"><g id="node_expander45" style="cursor: pointer;" display="none"><path id="kity_path_566" fill="white" stroke="gray" d="M530.5000090822577,561.5000069960952A6,6,0,1,1,518.5000090822577,561.5000069960952A6,6,0,1,1,530.5000090822577,561.5000069960952"></path><path id="kity_path_567" fill="none" stroke="gray"></path></g><path id="node_outline46" fill="none" stroke="none" d="M535.5000092461705,552.5000069960952h24a5,5,0,0,1,5,5v8a5,5,0,0,1,-5,5h-24a5,5,0,0,1,-5,-5v-8a5,5,0,0,1,5,-5z" stroke-width="3"></path><g id="node_text46" fill="black"><text id="kity_text_563" text-rendering="inherit" font-size="12" dy=".8em" y="553.7000069692731" font-weight="bold" x="535.5000092461705">掌握</text></g></g><g id="minder_node47"><g id="node_expander46" style="cursor: pointer;"><path id="kity_path_574" fill="white" stroke="gray" d="M418.5000074133277,595.5000075027347A6,6,0,1,1,406.5000074133277,595.5000075027347A6,6,0,1,1,418.5000074133277,595.5000075027347"></path><path id="kity_path_575" fill="none" stroke="gray" d="M408.0000074133277,595.5000075027347L417.0000074133277,595.5000075027347"></path></g><path id="node_outline47" fill="none" stroke="none" d="M423.5000079497695,582.5000075027347h87a5,5,0,0,1,5,5v16a5,5,0,0,1,-5,5h-87a5,5,0,0,1,-5,-5v-16a5,5,0,0,1,5,-5z" stroke-width="3"></path><g id="node_text47" fill="black"><text id="kity_text_571" text-rendering="inherit" font-size="12" dy=".8em" y="587.7000074759126" x="448.5000079497695">证券交易所</text></g><g id="node_priority18"><path id="kity_path_656" fill="#515151" stroke="none" d="M424.00000758469105,599.0000073611736c0,3.866,3.134,7,7,7h6c3.866,0,7,-3.134,7,-7V593.0000073611736H424.00000758469105V599.0000073611736z"></path><path id="kity_path_657" fill="#A3A3A3" stroke="none" d="M444.00000758469105,596.0000073611736c0,3.866,-3.134,7,-7,7H431.00000758469105c-3.866,0,-7,-3.134,-7,-7V593.0000073611736c0,-3.866,3.134,-7,7,-7h6c3.866,0,7,3.134,7,7V596.0000073611736z" opacity="0.8"></path><text id="kity_text_658" text-rendering="geometricPrecision" x="433.00000757724047" y="595.500007353723" text-anchor="middle" font-style="italic" font-size="12" fill="white" dy="5">7</text></g></g><g id="minder_node48"><g id="node_expander47" style="cursor: pointer;" display="none"><path id="kity_path_582" fill="white" stroke="gray" d="M531.5000090971589,595.5000075027347A6,6,0,1,1,519.5000090971589,595.5000075027347A6,6,0,1,1,531.5000090971589,595.5000075027347"></path><path id="kity_path_583" fill="none" stroke="gray"></path></g><path id="node_outline48" fill="none" stroke="none" d="M536.5000092610717,586.5000075027347h25a5,5,0,0,1,5,5v8a5,5,0,0,1,-5,5h-25a5,5,0,0,1,-5,-5v-8a5,5,0,0,1,5,-5z" stroke-width="3"></path><g id="node_text48" fill="black"><text id="kity_text_579" text-rendering="inherit" font-size="12" dy=".8em" y="587.7000074759126" font-weight="bold" x="536.5000092610717">熟悉</text></g></g><g id="minder_node49"><g id="node_expander48" style="cursor: pointer;"><path id="kity_path_590" fill="white" stroke="gray" d="M418.5000074133277,629.5000080093741A6,6,0,1,1,406.5000074133277,629.5000080093741A6,6,0,1,1,418.5000074133277,629.5000080093741"></path><path id="kity_path_591" fill="none" stroke="gray" d="M408.0000074133277,629.5000080093741L417.0000074133277,629.5000080093741"></path></g><path id="node_outline49" fill="none" stroke="none" d="M423.5000079497695,616.5000080093741h121a5,5,0,0,1,5,5v16a5,5,0,0,1,-5,5h-121a5,5,0,0,1,-5,-5v-16a5,5,0,0,1,5,-5z" stroke-width="3"></path><g id="node_text49" fill="black"><text id="kity_text_587" text-rendering="inherit" font-size="12" dy=".8em" y="621.700007982552" x="448.5000079497695">证券登记结算机构</text></g><g id="node_priority19"><path id="kity_path_661" fill="#515151" stroke="none" d="M424.00000758469105,633.0000078678131c0,3.866,3.134,7,7,7h6c3.866,0,7,-3.134,7,-7V627.0000078678131H424.00000758469105V633.0000078678131z"></path><path id="kity_path_662" fill="#A3A3A3" stroke="none" d="M444.00000758469105,630.0000078678131c0,3.866,-3.134,7,-7,7H431.00000758469105c-3.866,0,-7,-3.134,-7,-7V627.0000078678131c0,-3.866,3.134,-7,7,-7h6c3.866,0,7,3.134,7,7V630.0000078678131z" opacity="0.8"></path><text id="kity_text_663" text-rendering="geometricPrecision" x="433.00000757724047" y="629.5000078603625" text-anchor="middle" font-style="italic" font-size="12" fill="white" dy="5">8</text></g></g><g id="minder_node50"><g id="node_expander49" style="cursor: pointer;" display="none"><path id="kity_path_598" fill="white" stroke="gray" d="M565.5000096037984,629.5000080093741A6,6,0,1,1,553.5000096037984,629.5000080093741A6,6,0,1,1,565.5000096037984,629.5000080093741"></path><path id="kity_path_599" fill="none" stroke="gray"></path></g><path id="node_outline50" fill="none" stroke="none" d="M570.5000097677112,620.5000080093741h25a5,5,0,0,1,5,5v8a5,5,0,0,1,-5,5h-25a5,5,0,0,1,-5,-5v-8a5,5,0,0,1,5,-5z" stroke-width="3"></path><g id="node_text50" fill="black"><text id="kity_text_595" text-rendering="inherit" font-size="12" dy=".8em" y="621.700007982552" font-weight="bold" x="570.5000097677112">熟悉</text></g></g><g id="minder_node51"><g id="node_expander50" style="cursor: pointer;"><path id="kity_path_606" fill="white" stroke="gray" d="M418.5000074133277,663.5000085160136A6,6,0,1,1,406.5000074133277,663.5000085160136A6,6,0,1,1,418.5000074133277,663.5000085160136"></path><path id="kity_path_607" fill="none" stroke="gray" d="M408.0000074133277,663.5000085160136L417.0000074133277,663.5000085160136"></path></g><path id="node_outline51" fill="none" stroke="none" d="M423.5000079497695,650.5000085160136h74a5,5,0,0,1,5,5v16a5,5,0,0,1,-5,5h-74a5,5,0,0,1,-5,-5v-16a5,5,0,0,1,5,-5z" stroke-width="3"></path><g id="node_text51" fill="black"><text id="kity_text_603" text-rendering="inherit" font-size="12" dy=".8em" y="655.7000084891915" x="448.5000079497695">法律责任</text></g><g id="node_priority20"><path id="kity_path_666" fill="#515151" stroke="none" d="M424.00000758469105,667.0000083744526c0,3.866,3.134,7,7,7h6c3.866,0,7,-3.134,7,-7V661.0000083744526H424.00000758469105V667.0000083744526z"></path><path id="kity_path_667" fill="#A3A3A3" stroke="none" d="M444.00000758469105,664.0000083744526c0,3.866,-3.134,7,-7,7H431.00000758469105c-3.866,0,-7,-3.134,-7,-7V661.0000083744526c0,-3.866,3.134,-7,7,-7h6c3.866,0,7,3.134,7,7V664.0000083744526z" opacity="0.8"></path><text id="kity_text_668" text-rendering="geometricPrecision" x="433.00000757724047" y="663.500008367002" text-anchor="middle" font-style="italic" font-size="12" fill="white" dy="5">9</text></g></g><g id="minder_node52"><g id="node_expander51" style="cursor: pointer;" display="none"><path id="kity_path_614" fill="white" stroke="gray" d="M518.5000089034438,663.5000085160136A6,6,0,1,1,506.5000089034438,663.5000085160136A6,6,0,1,1,518.5000089034438,663.5000085160136"></path><path id="kity_path_615" fill="none" stroke="gray"></path></g><path id="node_outline52" fill="none" stroke="none" d="M523.5000090673566,654.5000085160136h24a5,5,0,0,1,5,5v8a5,5,0,0,1,-5,5h-24a5,5,0,0,1,-5,-5v-8a5,5,0,0,1,5,-5z" stroke-width="3"></path><g id="node_text52" fill="black"><text id="kity_text_611" text-rendering="inherit" font-size="12" dy=".8em" y="655.7000084891915" font-weight="bold" x="523.5000090673566">掌握</text></g></g><g id="minder_node54" opacity="1"><g id="node_expander53" style="cursor: pointer;"><path id="kity_path_675" fill="white" stroke="gray" d="M265.50000513345003,730.5000095143914A6,6,0,1,1,253.50000513345003,730.5000095143914A6,6,0,1,1,265.50000513345003,730.5000095143914"></path><path id="kity_path_676" fill="none" stroke="gray" d="M255.00000513345003,730.5000095143914L264.00000513345003,730.5000095143914"></path></g><path id="node_outline54" fill="rgb(238, 243, 246)" stroke="rgb(115, 161, 191)" d="M269.5000055357814,717.5000095143914h132a3,3,0,0,1,3,3v20a3,3,0,0,1,-3,3h-132a3,3,0,0,1,-3,-3v-20a3,3,0,0,1,3,-3z" stroke-width="1"></path><g id="node_text54" fill="black"><text id="kity_text_672" text-rendering="inherit" font-size="14" dy=".8em" y="721.400009483099" x="286.5000055357814">证券投资基金法</text></g></g><g id="minder_node55" opacity="1"><g id="node_expander54" style="cursor: pointer;"><path id="kity_path_683" fill="white" stroke="gray" d="M254.50000496953726,880.5000117495656A6,6,0,1,1,242.50000496953726,880.5000117495656A6,6,0,1,1,254.50000496953726,880.5000117495656"></path><path id="kity_path_684" fill="none" stroke="gray" d="M244.00000496953726,880.5000117495656L253.00000496953726,880.5000117495656"></path></g><path id="node_outline55" fill="rgb(238, 243, 246)" stroke="rgb(115, 161, 191)" d="M258.5000053718686,867.5000117495656h146a3,3,0,0,1,3,3v20a3,3,0,0,1,-3,3h-146a3,3,0,0,1,-3,-3v-20a3,3,0,0,1,3,-3z" stroke-width="1"></path><g id="node_text55" fill="black"><text id="kity_text_680" text-rendering="inherit" font-size="14" dy=".8em" y="871.4000117182732" x="275.5000053718686">期货交易管理条例</text></g></g><g id="minder_node56" opacity="1"><g id="node_expander55" style="cursor: pointer;"><path id="kity_path_691" fill="white" stroke="gray" d="M227.5000045672059,1014.5000137463212A6,6,0,1,1,215.5000045672059,1014.5000137463212A6,6,0,1,1,227.5000045672059,1014.5000137463212"></path><path id="kity_path_692" fill="none" stroke="gray" d="M217.0000045672059,1014.5000137463212L226.0000045672059,1014.5000137463212"></path></g><path id="node_outline56" fill="rgb(238, 243, 246)" stroke="rgb(115, 161, 191)" d="M231.50000496953726,1001.5000137463212h174a3,3,0,0,1,3,3v20a3,3,0,0,1,-3,3h-174a3,3,0,0,1,-3,-3v-20a3,3,0,0,1,3,-3z" stroke-width="1"></path><g id="node_text56" fill="black"><text id="kity_text_688" text-rendering="inherit" font-size="14" dy=".8em" y="1005.4000137150288" x="248.50000496953726">证券公司监督管理条例</text></g></g><g id="minder_node60"><g id="node_expander59" style="cursor: pointer;" display="none"><path id="kity_path_729" fill="white" stroke="gray" d="M556.5000094696879,696.5000090077519A6,6,0,1,1,544.5000094696879,696.5000090077519A6,6,0,1,1,556.5000094696879,696.5000090077519"></path><path id="kity_path_730" fill="none" stroke="gray"></path></g><path id="node_outline60" fill="none" stroke="none" d="M561.5000096336007,687.5000090077519h48a5,5,0,0,1,5,5v8a5,5,0,0,1,-5,5h-48a5,5,0,0,1,-5,-5v-8a5,5,0,0,1,5,-5z" stroke-width="3"></path><g id="node_text60" fill="black"><text id="kity_text_726" text-rendering="inherit" font-size="12" dy=".8em" y="688.7000089809299" font-weight="bold" x="561.5000096336007">重点掌握</text></g></g><g id="minder_node57"><g id="node_expander56" style="cursor: pointer;"><path id="kity_path_699" fill="white" stroke="gray" d="M420.50000744313,696.5000090077519A6,6,0,1,1,408.50000744313,696.5000090077519A6,6,0,1,1,420.50000744313,696.5000090077519"></path><path id="kity_path_700" fill="none" stroke="gray" d="M410.00000744313,696.5000090077519L419.00000744313,696.5000090077519"></path></g><path id="node_outline57" fill="none" stroke="none" d="M425.5000079795718,683.5000090077519h110a5,5,0,0,1,5,5v16a5,5,0,0,1,-5,5h-110a5,5,0,0,1,-5,-5v-16a5,5,0,0,1,5,-5z" stroke-width="3"></path><g id="node_text57" fill="black"><text id="kity_text_696" text-rendering="inherit" font-size="12" dy=".8em" y="688.7000089809299" x="450.5000079795718">基金管理与运作</text></g><g id="node_priority21"><path id="kity_path_761" fill="#840023" stroke="none" d="M426.00000761449337,700.0000088661909c0,3.866,3.134,7,7,7h6c3.866,0,7,-3.134,7,-7V694.0000088661909H426.00000761449337V700.0000088661909z"></path><path id="kity_path_762" fill="#FF1200" stroke="none" d="M446.00000761449337,697.0000088661909c0,3.866,-3.134,7,-7,7H433.00000761449337c-3.866,0,-7,-3.134,-7,-7V694.0000088661909c0,-3.866,3.134,-7,7,-7h6c3.866,0,7,3.134,7,7V697.0000088661909z" opacity="0.8"></path><text id="kity_text_763" text-rendering="geometricPrecision" x="435.0000076070428" y="696.5000088587403" text-anchor="middle" font-style="italic" font-size="12" fill="white" dy="5">1</text></g></g><g id="minder_node61"><g id="node_expander60" style="cursor: pointer;" display="none"><path id="kity_path_737" fill="white" stroke="gray" d="M520.5000089332461,730.5000095143914A6,6,0,1,1,508.50000893324614,730.5000095143914A6,6,0,1,1,520.5000089332461,730.5000095143914"></path><path id="kity_path_738" fill="none" stroke="gray"></path></g><path id="node_outline61" fill="none" stroke="none" d="M525.5000090971589,721.5000095143914h24a5,5,0,0,1,5,5v8a5,5,0,0,1,-5,5h-24a5,5,0,0,1,-5,-5v-8a5,5,0,0,1,5,-5z" stroke-width="3"></path><g id="node_text61" fill="black"><text id="kity_text_734" text-rendering="inherit" font-size="12" dy=".8em" y="722.7000094875693" font-weight="bold" x="525.5000090971589">掌握</text></g></g><g id="minder_node58"><g id="node_expander57" style="cursor: pointer;"><path id="kity_path_707" fill="white" stroke="gray" d="M420.50000744313,730.5000095143914A6,6,0,1,1,408.50000744313,730.5000095143914A6,6,0,1,1,420.50000744313,730.5000095143914"></path><path id="kity_path_708" fill="none" stroke="gray" d="M410.00000744313,730.5000095143914L419.00000744313,730.5000095143914"></path></g><path id="node_outline58" fill="none" stroke="none" d="M425.5000079795718,717.5000095143914h74a5,5,0,0,1,5,5v16a5,5,0,0,1,-5,5h-74a5,5,0,0,1,-5,-5v-16a5,5,0,0,1,5,-5z" stroke-width="3"></path><g id="node_text58" fill="black"><text id="kity_text_704" text-rendering="inherit" font-size="12" dy=".8em" y="722.7000094875693" x="450.5000079795718">基金募集</text></g><g id="node_priority22"><path id="kity_path_766" fill="#01467F" stroke="none" d="M426.00000761449337,734.0000093728304c0,3.866,3.134,7,7,7h6c3.866,0,7,-3.134,7,-7V728.0000093728304H426.00000761449337V734.0000093728304z"></path><path id="kity_path_767" fill="#0074FF" stroke="none" d="M446.00000761449337,731.0000093728304c0,3.866,-3.134,7,-7,7H433.00000761449337c-3.866,0,-7,-3.134,-7,-7V728.0000093728304c0,-3.866,3.134,-7,7,-7h6c3.866,0,7,3.134,7,7V731.0000093728304z" opacity="0.8"></path><text id="kity_text_768" text-rendering="geometricPrecision" x="435.0000076070428" y="730.5000093653798" text-anchor="middle" font-style="italic" font-size="12" fill="white" dy="5">2</text></g></g><g id="minder_node62"><g id="node_expander61" style="cursor: pointer;" display="none"><path id="kity_path_745" fill="white" stroke="gray" d="M520.5000089332461,764.5000100210309A6,6,0,1,1,508.50000893324614,764.5000100210309A6,6,0,1,1,520.5000089332461,764.5000100210309"></path><path id="kity_path_746" fill="none" stroke="gray"></path></g><path id="node_outline62" fill="none" stroke="none" d="M525.5000090971589,755.5000100210309h24a5,5,0,0,1,5,5v8a5,5,0,0,1,-5,5h-24a5,5,0,0,1,-5,-5v-8a5,5,0,0,1,5,-5z" stroke-width="3"></path><g id="node_text62" fill="black"><text id="kity_text_742" text-rendering="inherit" font-size="12" dy=".8em" y="756.7000099942088" font-weight="bold" x="525.5000090971589">了解</text></g></g><g id="minder_node59"><g id="node_expander58" style="cursor: pointer;"><path id="kity_path_715" fill="white" stroke="gray" d="M420.50000744313,764.5000100210309A6,6,0,1,1,408.50000744313,764.5000100210309A6,6,0,1,1,420.50000744313,764.5000100210309"></path><path id="kity_path_716" fill="none" stroke="gray" d="M410.00000744313,764.5000100210309L419.00000744313,764.5000100210309"></path></g><path id="node_outline59" fill="none" stroke="none" d="M425.5000079795718,751.5000100210309h74a5,5,0,0,1,5,5v16a5,5,0,0,1,-5,5h-74a5,5,0,0,1,-5,-5v-16a5,5,0,0,1,5,-5z" stroke-width="3"></path><g id="node_text59" fill="black"><text id="kity_text_712" text-rendering="inherit" font-size="12" dy=".8em" y="756.7000099942088" x="450.5000079795718">法律责任</text></g><g id="node_priority23"><path id="kity_path_771" fill="#006300" stroke="none" d="M426.00000761449337,768.0000098794699c0,3.866,3.134,7,7,7h6c3.866,0,7,-3.134,7,-7V762.0000098794699H426.00000761449337V768.0000098794699z"></path><path id="kity_path_772" fill="#00AF00" stroke="none" d="M446.00000761449337,765.0000098794699c0,3.866,-3.134,7,-7,7H433.00000761449337c-3.866,0,-7,-3.134,-7,-7V762.0000098794699c0,-3.866,3.134,-7,7,-7h6c3.866,0,7,3.134,7,7V765.0000098794699z" opacity="0.8"></path><text id="kity_text_773" text-rendering="geometricPrecision" x="435.0000076070428" y="764.5000098720193" text-anchor="middle" font-style="italic" font-size="12" fill="white" dy="5">3</text></g></g><g id="minder_node63"><g id="node_expander62" style="cursor: pointer;"><path id="kity_path_780" fill="white" stroke="gray" d="M423.5000074878335,795.5000104829669A6,6,0,1,1,411.5000074878335,795.5000104829669A6,6,0,1,1,423.5000074878335,795.5000104829669"></path><path id="kity_path_781" fill="none" stroke="gray" d="M413.0000074878335,795.5000104829669L422.0000074878335,795.5000104829669"></path></g><path id="node_outline63" fill="none" stroke="none" d="M428.5000080242753,782.5000104829669h74a5,5,0,0,1,5,5v16a5,5,0,0,1,-5,5h-74a5,5,0,0,1,-5,-5v-16a5,5,0,0,1,5,-5z" stroke-width="3"></path><g id="node_text63" fill="black"><text id="kity_text_777" text-rendering="inherit" font-size="12" dy=".8em" y="787.7000104561448" x="453.5000080242753">期货概述</text></g><g id="node_priority24"><path id="kity_path_908" fill="#840023" stroke="none" d="M429.00000765919685,799.0000103414059c0,3.866,3.134,7,7,7h6c3.866,0,7,-3.134,7,-7V793.0000103414059H429.00000765919685V799.0000103414059z"></path><path id="kity_path_909" fill="#FF1200" stroke="none" d="M449.00000765919685,796.0000103414059c0,3.866,-3.134,7,-7,7H436.00000765919685c-3.866,0,-7,-3.134,-7,-7V793.0000103414059c0,-3.866,3.134,-7,7,-7h6c3.866,0,7,3.134,7,7V796.0000103414059z" opacity="0.8"></path><text id="kity_text_910" text-rendering="geometricPrecision" x="438.0000076517463" y="795.5000103339553" text-anchor="middle" font-style="italic" font-size="12" fill="white" dy="5">1</text></g></g><g id="minder_node64"><g id="node_expander63" style="cursor: pointer;"><path id="kity_path_788" fill="white" stroke="gray" d="M423.5000074878335,829.5000109896064A6,6,0,1,1,411.5000074878335,829.5000109896064A6,6,0,1,1,423.5000074878335,829.5000109896064"></path><path id="kity_path_789" fill="none" stroke="gray" d="M413.0000074878335,829.5000109896064L422.0000074878335,829.5000109896064"></path></g><path id="node_outline64" fill="none" stroke="none" d="M428.5000080242753,816.5000109896064h86a5,5,0,0,1,5,5v16a5,5,0,0,1,-5,5h-86a5,5,0,0,1,-5,-5v-16a5,5,0,0,1,5,-5z" stroke-width="3"></path><g id="node_text64" fill="black"><text id="kity_text_785" text-rendering="inherit" font-size="12" dy=".8em" y="821.7000109627843" x="453.5000080242753">期货交易所</text></g><g id="node_priority25"><path id="kity_path_913" fill="#01467F" stroke="none" d="M429.00000765919685,833.0000108480453c0,3.866,3.134,7,7,7h6c3.866,0,7,-3.134,7,-7V827.0000108480453H429.00000765919685V833.0000108480453z"></path><path id="kity_path_914" fill="#0074FF" stroke="none" d="M449.00000765919685,830.0000108480453c0,3.866,-3.134,7,-7,7H436.00000765919685c-3.866,0,-7,-3.134,-7,-7V827.0000108480453c0,-3.866,3.134,-7,7,-7h6c3.866,0,7,3.134,7,7V830.0000108480453z" opacity="0.8"></path><text id="kity_text_915" text-rendering="geometricPrecision" x="438.0000076517463" y="829.5000108405948" text-anchor="middle" font-style="italic" font-size="12" fill="white" dy="5">2</text></g></g><g id="minder_node65"><g id="node_expander64" style="cursor: pointer;"><path id="kity_path_796" fill="white" stroke="gray" d="M423.5000074878335,863.5000114962459A6,6,0,1,1,411.5000074878335,863.5000114962459A6,6,0,1,1,423.5000074878335,863.5000114962459"></path><path id="kity_path_797" fill="none" stroke="gray" d="M413.0000074878335,863.5000114962459L422.0000074878335,863.5000114962459"></path></g><path id="node_outline65" fill="none" stroke="none" d="M428.5000080242753,850.5000114962459h74a5,5,0,0,1,5,5v16a5,5,0,0,1,-5,5h-74a5,5,0,0,1,-5,-5v-16a5,5,0,0,1,5,-5z" stroke-width="3"></path><g id="node_text65" fill="black"><text id="kity_text_793" text-rendering="inherit" font-size="12" dy=".8em" y="855.7000114694238" x="453.5000080242753">期货公司</text></g><g id="node_priority26"><path id="kity_path_918" fill="#006300" stroke="none" d="M429.00000765919685,867.0000113546848c0,3.866,3.134,7,7,7h6c3.866,0,7,-3.134,7,-7V861.0000113546848H429.00000765919685V867.0000113546848z"></path><path id="kity_path_919" fill="#00AF00" stroke="none" d="M449.00000765919685,864.0000113546848c0,3.866,-3.134,7,-7,7H436.00000765919685c-3.866,0,-7,-3.134,-7,-7V861.0000113546848c0,-3.866,3.134,-7,7,-7h6c3.866,0,7,3.134,7,7V864.0000113546848z" opacity="0.8"></path><text id="kity_text_920" text-rendering="geometricPrecision" x="438.0000076517463" y="863.5000113472342" text-anchor="middle" font-style="italic" font-size="12" fill="white" dy="5">3</text></g></g><g id="minder_node66"><g id="node_expander65" style="cursor: pointer;"><path id="kity_path_810" fill="white" stroke="gray" d="M423.5000074878335,897.5000120028853A6,6,0,1,1,411.5000074878335,897.5000120028853A6,6,0,1,1,423.5000074878335,897.5000120028853"></path><path id="kity_path_811" fill="none" stroke="gray" d="M413.0000074878335,897.5000120028853L422.0000074878335,897.5000120028853"></path></g><path id="node_outline66" fill="none" stroke="none" d="M428.5000080242753,884.5000120028853h134a5,5,0,0,1,5,5v16a5,5,0,0,1,-5,5h-134a5,5,0,0,1,-5,-5v-16a5,5,0,0,1,5,-5z" stroke-width="3"></path><g id="node_text66" fill="black"><text id="kity_text_807" text-rendering="inherit" font-size="12" dy=".8em" y="889.7000119760633" x="453.5000080242753">期货交易的基本规则</text></g><g id="node_priority27"><path id="kity_path_923" fill="#B25000" stroke="none" d="M429.00000765919685,901.0000118613243c0,3.866,3.134,7,7,7h6c3.866,0,7,-3.134,7,-7V895.0000118613243H429.00000765919685V901.0000118613243z"></path><path id="kity_path_924" fill="#FF962E" stroke="none" d="M449.00000765919685,898.0000118613243c0,3.866,-3.134,7,-7,7H436.00000765919685c-3.866,0,-7,-3.134,-7,-7V895.0000118613243c0,-3.866,3.134,-7,7,-7h6c3.866,0,7,3.134,7,7V898.0000118613243z" opacity="0.8"></path><text id="kity_text_925" text-rendering="geometricPrecision" x="438.0000076517463" y="897.5000118538737" text-anchor="middle" font-style="italic" font-size="12" fill="white" dy="5">4</text></g></g><g id="minder_node67"><g id="node_expander66" style="cursor: pointer;"><path id="kity_path_818" fill="white" stroke="gray" d="M423.5000074878335,931.5000125095248A6,6,0,1,1,411.5000074878335,931.5000125095248A6,6,0,1,1,423.5000074878335,931.5000125095248"></path><path id="kity_path_819" fill="none" stroke="gray" d="M413.0000074878335,931.5000125095248L422.0000074878335,931.5000125095248"></path></g><path id="node_outline67" fill="none" stroke="none" d="M428.5000080242753,918.5000125095248h158a5,5,0,0,1,5,5v16a5,5,0,0,1,-5,5h-158a5,5,0,0,1,-5,-5v-16a5,5,0,0,1,5,-5z" stroke-width="3"></path><g id="node_text67" fill="black"><text id="kity_text_815" text-rendering="inherit" font-size="12" dy=".8em" y="923.7000124827027" x="453.5000080242753">期货监督管理的基本内容</text></g><g id="node_priority28"><path id="kity_path_928" fill="#4720C4" stroke="none" d="M429.00000765919685,935.0000123679638c0,3.866,3.134,7,7,7h6c3.866,0,7,-3.134,7,-7V929.0000123679638H429.00000765919685V935.0000123679638z"></path><path id="kity_path_929" fill="#A464FF" stroke="none" d="M449.00000765919685,932.0000123679638c0,3.866,-3.134,7,-7,7H436.00000765919685c-3.866,0,-7,-3.134,-7,-7V929.0000123679638c0,-3.866,3.134,-7,7,-7h6c3.866,0,7,3.134,7,7V932.0000123679638z" opacity="0.8"></path><text id="kity_text_930" text-rendering="geometricPrecision" x="438.0000076517463" y="931.5000123605132" text-anchor="middle" font-style="italic" font-size="12" fill="white" dy="5">5</text></g></g><g id="minder_node68"><g id="node_expander67" style="cursor: pointer;"><path id="kity_path_826" fill="white" stroke="gray" d="M423.5000074878335,965.5000130161643A6,6,0,1,1,411.5000074878335,965.5000130161643A6,6,0,1,1,423.5000074878335,965.5000130161643"></path><path id="kity_path_827" fill="none" stroke="gray" d="M413.0000074878335,965.5000130161643L422.0000074878335,965.5000130161643"></path></g><path id="node_outline68" fill="none" stroke="none" d="M428.5000080242753,952.5000130161643h158a5,5,0,0,1,5,5v16a5,5,0,0,1,-5,5h-158a5,5,0,0,1,-5,-5v-16a5,5,0,0,1,5,-5z" stroke-width="3"></path><g id="node_text68" fill="black"><text id="kity_text_823" text-rendering="inherit" font-size="12" dy=".8em" y="957.7000129893422" x="453.5000080242753">期货相关法律责任的规定</text></g><g id="node_priority29"><path id="kity_path_933" fill="#515151" stroke="none" d="M429.00000765919685,969.0000128746033c0,3.866,3.134,7,7,7h6c3.866,0,7,-3.134,7,-7V963.0000128746033H429.00000765919685V969.0000128746033z"></path><path id="kity_path_934" fill="#A3A3A3" stroke="none" d="M449.00000765919685,966.0000128746033c0,3.866,-3.134,7,-7,7H436.00000765919685c-3.866,0,-7,-3.134,-7,-7V963.0000128746033c0,-3.866,3.134,-7,7,-7h6c3.866,0,7,3.134,7,7V966.0000128746033z" opacity="0.8"></path><text id="kity_text_935" text-rendering="geometricPrecision" x="438.0000076517463" y="965.5000128671527" text-anchor="middle" font-style="italic" font-size="12" fill="white" dy="5">6</text></g></g><g id="minder_node69"><g id="node_expander68" style="cursor: pointer;" display="none"><path id="kity_path_864" fill="white" stroke="gray" d="M523.5000089779496,795.5000104829669A6,6,0,1,1,511.5000089779496,795.5000104829669A6,6,0,1,1,523.5000089779496,795.5000104829669"></path><path id="kity_path_865" fill="none" stroke="gray"></path></g><path id="node_outline69" fill="none" stroke="none" d="M528.5000091418624,786.5000104829669h24a5,5,0,0,1,5,5v8a5,5,0,0,1,-5,5h-24a5,5,0,0,1,-5,-5v-8a5,5,0,0,1,5,-5z" stroke-width="3"></path><g id="node_text69" fill="black"><text id="kity_text_861" text-rendering="inherit" font-size="12" dy=".8em" y="787.7000104561448" x="528.5000091418624">了解</text></g></g><g id="minder_node70"><g id="node_expander69" style="cursor: pointer;" display="none"><path id="kity_path_872" fill="white" stroke="gray" d="M535.5000091567636,829.5000109896064A6,6,0,1,1,523.5000091567636,829.5000109896064A6,6,0,1,1,535.5000091567636,829.5000109896064"></path><path id="kity_path_873" fill="none" stroke="gray"></path></g><path id="node_outline70" fill="none" stroke="none" d="M540.5000093206763,820.5000109896064h25a5,5,0,0,1,5,5v8a5,5,0,0,1,-5,5h-25a5,5,0,0,1,-5,-5v-8a5,5,0,0,1,5,-5z" stroke-width="3"></path><g id="node_text70" fill="black"><text id="kity_text_869" text-rendering="inherit" font-size="12" dy=".8em" y="821.7000109627843" font-weight="bold" x="540.5000093206763">熟悉</text></g></g><g id="minder_node71"><g id="node_expander70" style="cursor: pointer;" display="none"><path id="kity_path_880" fill="white" stroke="gray" d="M523.5000089779496,863.5000114962459A6,6,0,1,1,511.5000089779496,863.5000114962459A6,6,0,1,1,523.5000089779496,863.5000114962459"></path><path id="kity_path_881" fill="none" stroke="gray"></path></g><path id="node_outline71" fill="none" stroke="none" d="M528.5000091418624,854.5000114962459h25a5,5,0,0,1,5,5v8a5,5,0,0,1,-5,5h-25a5,5,0,0,1,-5,-5v-8a5,5,0,0,1,5,-5z" stroke-width="3"></path><g id="node_text71" fill="black"><text id="kity_text_877" text-rendering="inherit" font-size="12" dy=".8em" y="855.7000114694238" font-weight="bold" x="528.5000091418624">熟悉</text></g></g><g id="minder_node72"><g id="node_expander71" style="cursor: pointer;" display="none"><path id="kity_path_888" fill="white" stroke="gray" d="M583.5000098720193,897.5000120028853A6,6,0,1,1,571.5000098720193,897.5000120028853A6,6,0,1,1,583.5000098720193,897.5000120028853"></path><path id="kity_path_889" fill="none" stroke="gray"></path></g><path id="node_outline72" fill="none" stroke="none" d="M588.5000100359321,888.5000120028853h25a5,5,0,0,1,5,5v8a5,5,0,0,1,-5,5h-25a5,5,0,0,1,-5,-5v-8a5,5,0,0,1,5,-5z" stroke-width="3"></path><g id="node_text72" fill="black"><text id="kity_text_885" text-rendering="inherit" font-size="12" dy=".8em" y="889.7000119760633" font-weight="bold" x="588.5000100359321">熟悉</text></g></g><g id="minder_node73"><g id="node_expander72" style="cursor: pointer;" display="none"><path id="kity_path_896" fill="white" stroke="gray" d="M607.5000102296472,931.5000125095248A6,6,0,1,1,595.5000102296472,931.5000125095248A6,6,0,1,1,607.5000102296472,931.5000125095248"></path><path id="kity_path_897" fill="none" stroke="gray"></path></g><path id="node_outline73" fill="none" stroke="none" d="M612.5000103935599,922.5000125095248h24a5,5,0,0,1,5,5v8a5,5,0,0,1,-5,5h-24a5,5,0,0,1,-5,-5v-8a5,5,0,0,1,5,-5z" stroke-width="3"></path><g id="node_text73" fill="black"><text id="kity_text_893" text-rendering="inherit" font-size="12" dy=".8em" y="923.7000124827027" font-weight="bold" x="612.5000103935599">了解</text></g></g><g id="minder_node74"><g id="node_expander73" style="cursor: pointer;" display="none"><path id="kity_path_904" fill="white" stroke="gray" d="M607.5000102296472,965.5000130161643A6,6,0,1,1,595.5000102296472,965.5000130161643A6,6,0,1,1,607.5000102296472,965.5000130161643"></path><path id="kity_path_905" fill="none" stroke="gray"></path></g><path id="node_outline74" fill="none" stroke="none" d="M612.5000103935599,956.5000130161643h24a5,5,0,0,1,5,5v8a5,5,0,0,1,-5,5h-24a5,5,0,0,1,-5,-5v-8a5,5,0,0,1,5,-5z" stroke-width="3"></path><g id="node_text74" fill="black"><text id="kity_text_901" text-rendering="inherit" font-size="12" dy=".8em" y="957.7000129893422" font-weight="bold" x="612.5000103935599">了解</text></g></g><g id="minder_node77"><g id="node_expander76" style="cursor: pointer;" display="none"><path id="kity_path_972" fill="white" stroke="gray" d="M571.5000096932054,997.5000134930015A6,6,0,1,1,559.5000096932054,997.5000134930015A6,6,0,1,1,571.5000096932054,997.5000134930015"></path><path id="kity_path_973" fill="none" stroke="gray"></path></g><path id="node_outline77" fill="none" stroke="none" d="M576.5000098571181,988.5000134930015h48a5,5,0,0,1,5,5v8a5,5,0,0,1,-5,5h-48a5,5,0,0,1,-5,-5v-8a5,5,0,0,1,5,-5z" stroke-width="3"></path><g id="node_text77" fill="black"><text id="kity_text_969" text-rendering="inherit" font-size="12" dy=".8em" y="989.7000134661794" font-weight="bold" x="576.5000098571181">重点掌握</text></g></g><g id="minder_node75"><g id="node_expander74" style="cursor: pointer;"><path id="kity_path_942" fill="white" stroke="gray" d="M424.50000750273466,997.5000134930015A6,6,0,1,1,412.50000750273466,997.5000134930015A6,6,0,1,1,424.50000750273466,997.5000134930015"></path><path id="kity_path_943" fill="none" stroke="gray" d="M414.00000750273466,997.5000134930015L423.00000750273466,997.5000134930015"></path></g><path id="node_outline75" fill="none" stroke="none" d="M429.50000803917646,984.5000134930015h121a5,5,0,0,1,5,5v16a5,5,0,0,1,-5,5h-121a5,5,0,0,1,-5,-5v-16a5,5,0,0,1,5,-5z" stroke-width="3"></path><g id="node_text75" fill="black"><text id="kity_text_939" text-rendering="inherit" font-size="12" dy=".8em" y="989.7000134661794" x="454.50000803917646">证券公司相关规定</text></g><g id="node_priority30"><path id="kity_path_988" fill="#840023" stroke="none" d="M430.000007674098,1001.0000133514404c0,3.866,3.134,7,7,7h6c3.866,0,7,-3.134,7,-7V995.0000133514404H430.000007674098V1001.0000133514404z"></path><path id="kity_path_989" fill="#FF1200" stroke="none" d="M450.000007674098,998.0000133514404c0,3.866,-3.134,7,-7,7H437.000007674098c-3.866,0,-7,-3.134,-7,-7V995.0000133514404c0,-3.866,3.134,-7,7,-7h6c3.866,0,7,3.134,7,7V998.0000133514404z" opacity="0.8"></path><text id="kity_text_990" text-rendering="geometricPrecision" x="439.00000766664743" y="997.5000133439898" text-anchor="middle" font-style="italic" font-size="12" fill="white" dy="5">1</text></g></g><g id="minder_node78"><g id="node_expander77" style="cursor: pointer;" display="none"><path id="kity_path_980" fill="white" stroke="gray" d="M608.5000102445483,1031.500013999641A6,6,0,1,1,596.5000102445483,1031.500013999641A6,6,0,1,1,608.5000102445483,1031.500013999641"></path><path id="kity_path_981" fill="none" stroke="gray"></path></g><path id="node_outline78" fill="none" stroke="none" d="M613.5000104084611,1022.5000139996409h24a5,5,0,0,1,5,5v8a5,5,0,0,1,-5,5h-24a5,5,0,0,1,-5,-5v-8a5,5,0,0,1,5,-5z" stroke-width="3"></path><g id="node_text78" fill="black"><text id="kity_text_977" text-rendering="inherit" font-size="12" dy=".8em" y="1023.7000139728189" font-weight="bold" x="613.5000104084611">掌握</text></g></g><g id="minder_node76"><g id="node_expander75" style="cursor: pointer;"><path id="kity_path_950" fill="white" stroke="gray" d="M424.50000750273466,1031.500013999641A6,6,0,1,1,412.50000750273466,1031.500013999641A6,6,0,1,1,424.50000750273466,1031.500013999641"></path><path id="kity_path_951" fill="none" stroke="gray" d="M414.00000750273466,1031.500013999641L423.00000750273466,1031.500013999641"></path></g><path id="node_outline76" fill="none" stroke="none" d="M429.50000803917646,1018.5000139996409h158a5,5,0,0,1,5,5v16a5,5,0,0,1,-5,5h-158a5,5,0,0,1,-5,-5v-16a5,5,0,0,1,5,-5z" stroke-width="3"></path><g id="node_text76" fill="black"><text id="kity_text_947" text-rendering="inherit" font-size="12" dy=".8em" y="1023.7000139728189" x="454.50000803917646">监督管理措施及法律责任</text></g><g id="node_priority31"><path id="kity_path_993" fill="#01467F" stroke="none" d="M430.000007674098,1035.00001385808c0,3.866,3.134,7,7,7h6c3.866,0,7,-3.134,7,-7V1029.00001385808H430.000007674098V1035.00001385808z"></path><path id="kity_path_994" fill="#0074FF" stroke="none" d="M450.000007674098,1032.00001385808c0,3.866,-3.134,7,-7,7H437.000007674098c-3.866,0,-7,-3.134,-7,-7V1029.00001385808c0,-3.866,3.134,-7,7,-7h6c3.866,0,7,3.134,7,7V1032.00001385808z" opacity="0.8"></path><text id="kity_text_995" text-rendering="geometricPrecision" x="439.00000766664743" y="1031.5000138506293" text-anchor="middle" font-style="italic" font-size="12" fill="white" dy="5">2</text></g></g></g></g></svg>