<svg id="kity_svg_6" xmlns="http://www.w3.org/2000/svg" xmlns:xlink="http://www.w3.org/1999/xlink" version="1.1" width="985" height="278" style="background: rgb(251, 251, 251); visibility: visible;" viewBox="0 0 985 278"><defs id="kity_defs_7"><linearGradient id="kity_linearGradient_17" x1="0" y1="0" x2="0" y2="1"><stop id="kity_stop_18" offset="0" stop-color="rgb(255, 255, 255)"></stop><stop id="kity_stop_19" offset="1" stop-color="rgb(204, 204, 204)"></stop></linearGradient><marker id="kity_marker_2" orient="auto" refX="6" refY="0" viewBox="-7 -7 14 14" markerWidth="7" markerHeight="7" markerUnits="userSpaceOnUse"><path id="kity_path_3" fill="rgb(191, 115, 115)" stroke="none" d="M6,0A6,6,0,1,1,-6,0A6,6,0,1,1,6,0"></path></marker></defs><g id="kity_g_8"><g id="minder1" text-rendering="optimize-speed"><g id="minder_connect_group1"><path id="kity_path_31" fill="none" stroke="rgb(191, 115, 115)" stroke-width="1" d="M87.5000004246831,96.50000265985727A84,63,0,0,1,171.5000004246831,33.50000265985727"></path><path id="kity_path_33" fill="none" stroke="rgb(191, 115, 115)" stroke-width="1" d="M327.5000004246831,33.50000265985727C335.5000004246831,33.50000265985727,335.5000004246831,33.50000265985727,343.5000004246831,33.50000265985727"></path><path id="kity_path_35" fill="none" stroke="rgb(191, 115, 115)" stroke-width="1" d="M87.5000004246831,96.50000265985727A84,64,0,0,0,171.5000004246831,160.50000265985727"></path><path id="kity_path_37" fill="none" stroke="rgb(191, 115, 115)" stroke-width="1" d="M355.5000004246831,160.50000265985727C363.5000004246831,160.50000265985727,363.5000004246831,75.50000265985727,371.5000004246831,75.50000265985727"></path><path id="kity_path_39" fill="none" stroke="rgb(191, 115, 115)" stroke-width="1" d="M574.5000004246831,75.50000265985727C582.5000004246831,75.50000265985727,582.5000004246831,75.50000265985727,590.5000004246831,75.50000265985727"></path><path id="kity_path_41" fill="none" stroke="rgb(191, 115, 115)" stroke-width="1" d="M355.5000004246831,160.50000265985727C363.5000004246831,160.50000265985727,363.5000004246831,109.50000265985727,371.5000004246831,109.50000265985727"></path><path id="kity_path_43" fill="none" stroke="rgb(191, 115, 115)" stroke-width="1" d="M355.5000004246831,160.50000265985727C363.5000004246831,160.50000265985727,363.5000004246831,143.50000265985727,371.5000004246831,143.50000265985727"></path><path id="kity_path_45" fill="none" stroke="rgb(191, 115, 115)" stroke-width="1" d="M492.5000004246831,143.50000265985727C500.5000004246831,143.50000265985727,500.5000004246831,143.50000265985727,508.5000004246831,143.50000265985727"></path><path id="kity_path_47" fill="none" stroke="rgb(191, 115, 115)" stroke-width="1" d="M355.5000004246831,160.50000265985727C363.5000004246831,160.50000265985727,363.5000004246831,194.50000265985727,371.5000004246831,194.50000265985727"></path><path id="kity_path_49" fill="none" stroke="rgb(191, 115, 115)" stroke-width="1" d="M563.5000004246831,194.50000265985727C571.5000004246831,194.50000265985727,571.5000004246831,177.50000265985727,579.5000004246831,177.50000265985727"></path><path id="kity_path_51" fill="none" stroke="rgb(191, 115, 115)" stroke-width="1" d="M563.5000004246831,194.50000265985727C571.5000004246831,194.50000265985727,571.5000004246831,211.50000265985727,579.5000004246831,211.50000265985727"></path><path id="kity_path_53" fill="none" stroke="rgb(191, 115, 115)" stroke-width="1" d="M355.5000004246831,160.50000265985727C363.5000004246831,160.50000265985727,363.5000004246831,245.50000265985727,371.5000004246831,245.50000265985727"></path><path id="kity_path_55" fill="none" stroke="rgb(191, 115, 115)" stroke-width="1" d="M599.5000004246831,245.50000265985727C607.5000004246831,245.50000265985727,607.5000004246831,245.50000265985727,615.5000004246831,245.50000265985727"></path></g><g id="minder_node1"><path id="node_outline1" fill="rgb(191, 115, 115)" stroke="rgb(191, 115, 115)" d="M24.500000424683094,82.50000265985727h126a5,5,0,0,1,5,5v18a5,5,0,0,1,-5,5h-126a5,5,0,0,1,-5,-5v-18a5,5,0,0,1,5,-5z" stroke-width="3"></path><g id="node_text1" fill="white"><text id="kity_text_22" text-rendering="inherit" font-size="16" dy=".8em" y="86.10000262409449" x="31.500000424683094">道氏理论的缺陷</text></g></g><g id="kity_g_12"><path id="kity_path_13" fill="none" stroke="none" d="M31.500000424683094,96.50000265985727h0v0h0z"></path></g><g id="kity_g_14"><path id="kity_path_15" fill="none" stroke="none" d="M31.500000424683094,96.50000265985727h0v0h0z"></path><path id="kity_path_16" fill="none" stroke="none"></path></g><g id="minder_node2"><g id="node_expander2" style="cursor: pointer;"><path id="kity_path_99" fill="white" stroke="gray" d="M172.50000243633986,33.50000172108412A6,6,0,1,1,160.50000243633986,33.50000172108412A6,6,0,1,1,172.50000243633986,33.50000172108412"></path><path id="kity_path_100" fill="none" stroke="gray" d="M162.00000243633986,33.50000172108412L171.00000243633986,33.50000172108412"></path></g><path id="node_outline3" fill="rgb(246, 238, 238)" stroke="rgb(191, 115, 115)" d="M176.5000028386712,20.500001721084118h148a3,3,0,0,1,3,3v20a3,3,0,0,1,-3,3h-148a3,3,0,0,1,-3,-3v-20a3,3,0,0,1,3,-3z" stroke-width="1"></path><g id="node_text3" fill="black"><text id="kity_text_59" text-rendering="inherit" font-size="14" dy=".8em" y="24.40000168979168" x="193.5000028386712">道氏理论的滞后性</text></g></g><g id="minder_node3"><g id="node_expander1" style="cursor: pointer;" display="none"><path id="kity_path_96" fill="white" stroke="gray" d="M343.5000049844384,33.50000172108412A6,6,0,1,1,331.5000049844384,33.50000172108412A6,6,0,1,1,343.5000049844384,33.50000172108412"></path><path id="kity_path_97" fill="none" stroke="gray"></path></g><path id="node_outline2" fill="none" stroke="none" d="M348.5000051483512,24.500001721084118h386a5,5,0,0,1,5,5v8a5,5,0,0,1,-5,5h-386a5,5,0,0,1,-5,-5v-8a5,5,0,0,1,5,-5z" stroke-width="3"></path><g id="node_text2" fill="black"><text id="kity_text_57" text-rendering="inherit" font-size="12" dy=".8em" y="25.700001694262028" font-weight="bold" x="348.5000051483512">投资者赚不到市场长线涨幅的前1/3和后1/3，有时市场并没有中间这1/3</text></g></g><g id="minder_node4"><g id="node_expander13" style="cursor: pointer;"><path id="kity_path_132" fill="white" stroke="gray" d="M172.50000243633986,160.5000036135316A6,6,0,1,1,160.50000243633986,160.5000036135316A6,6,0,1,1,172.50000243633986,160.5000036135316"></path><path id="kity_path_133" fill="none" stroke="gray" d="M162.00000243633986,160.5000036135316L171.00000243633986,160.5000036135316"></path></g><path id="node_outline14" fill="rgb(246, 238, 238)" stroke="rgb(191, 115, 115)" d="M176.5000028386712,147.5000036135316h176a3,3,0,0,1,3,3v20a3,3,0,0,1,-3,3h-176a3,3,0,0,1,-3,-3v-20a3,3,0,0,1,3,-3z" stroke-width="1"></path><g id="node_text14" fill="black"><text id="kity_text_81" text-rendering="inherit" font-size="14" dy=".8em" y="151.40000358223915" x="193.5000028386712">道氏理论并不绝对可靠</text></g></g><g id="minder_node5"><g id="node_expander4" style="cursor: pointer;"><path id="kity_path_105" fill="white" stroke="gray" d="M371.50000540167093,75.50000234693289A6,6,0,1,1,359.50000540167093,75.50000234693289A6,6,0,1,1,371.50000540167093,75.50000234693289"></path><path id="kity_path_106" fill="none" stroke="gray" d="M361.00000540167093,75.50000234693289L370.00000540167093,75.50000234693289"></path></g><path id="node_outline5" fill="none" stroke="none" d="M376.50000593811274,62.50000234693289h193a5,5,0,0,1,5,5v16a5,5,0,0,1,-5,5h-193a5,5,0,0,1,-5,-5v-16a5,5,0,0,1,5,-5z" stroke-width="3"></path><g id="node_text5" fill="black"><text id="kity_text_63" text-rendering="inherit" font-size="12" dy=".8em" y="67.7000023201108" x="401.50000593811274">可靠性取决于投资者的解读能力</text></g><g id="node_priority1"><path id="kity_path_136" fill="#840023" stroke="none" d="M377.0000055730343,79.00000220537186c0,3.866,3.134,7,7,7h6c3.866,0,7,-3.134,7,-7V73.00000220537186H377.0000055730343V79.00000220537186z"></path><path id="kity_path_137" fill="#FF1200" stroke="none" d="M397.0000055730343,76.00000220537186c0,3.866,-3.134,7,-7,7H384.0000055730343c-3.866,0,-7,-3.134,-7,-7V73.00000220537186c0,-3.866,3.134,-7,7,-7h6c3.866,0,7,3.134,7,7V76.00000220537186z" opacity="0.8"></path><text id="kity_text_138" text-rendering="geometricPrecision" x="386.0000055655837" y="75.50000219792128" text-anchor="middle" font-style="italic" font-size="12" fill="white" dy="5">1</text></g></g><g id="minder_node6"><g id="node_expander3" style="cursor: pointer;" display="none"><path id="kity_path_102" fill="white" stroke="gray" d="M590.5000086650252,75.50000234693289A6,6,0,1,1,578.5000086650252,75.50000234693289A6,6,0,1,1,590.5000086650252,75.50000234693289"></path><path id="kity_path_103" fill="none" stroke="gray"></path></g><path id="node_outline4" fill="none" stroke="none" d="M595.500008828938,66.50000234693289h253a5,5,0,0,1,5,5v8a5,5,0,0,1,-5,5h-253a5,5,0,0,1,-5,-5v-8a5,5,0,0,1,5,-5z"></path><g id="node_text4" fill="black"><text id="kity_text_61" text-rendering="inherit" font-size="12" dy=".8em" y="67.7000023201108" x="595.500008828938">坚持基本信条：平均指数反映了一切新闻和数据</text></g></g><g id="minder_node7"><g id="node_expander5" style="cursor: pointer;" display="none"><path id="kity_path_108" fill="white" stroke="gray" d="M371.50000540167093,109.50000285357237A6,6,0,1,1,359.50000540167093,109.50000285357237A6,6,0,1,1,371.50000540167093,109.50000285357237"></path><path id="kity_path_109" fill="none" stroke="gray"></path></g><path id="node_outline6" fill="none" stroke="none" d="M376.50000593811274,96.50000285357237h518a5,5,0,0,1,5,5v16a5,5,0,0,1,-5,5h-518a5,5,0,0,1,-5,-5v-16a5,5,0,0,1,5,-5z" stroke-width="3"></path><g id="node_text6" fill="black"><text id="kity_text_65" text-rendering="inherit" font-size="12" dy=".8em" y="101.70000282675028" font-weight="bold" x="401.50000593811274">道氏理论对于市场的长线趋势永远可以给出一个方向。这个方向在一段较短的时间内会是错的</text></g><g id="node_priority2"><path id="kity_path_141" fill="#01467F" stroke="none" d="M377.0000055730343,113.00000271201134c0,3.866,3.134,7,7,7h6c3.866,0,7,-3.134,7,-7V107.00000271201134H377.0000055730343V113.00000271201134z"></path><path id="kity_path_142" fill="#0074FF" stroke="none" d="M397.0000055730343,110.00000271201134c0,3.866,-3.134,7,-7,7H384.0000055730343c-3.866,0,-7,-3.134,-7,-7V107.00000271201134c0,-3.866,3.134,-7,7,-7h6c3.866,0,7,3.134,7,7V110.00000271201134z" opacity="0.8"></path><text id="kity_text_143" text-rendering="geometricPrecision" x="386.0000055655837" y="109.50000270456076" text-anchor="middle" font-style="italic" font-size="12" fill="white" dy="5">2</text></g></g><g id="minder_node8"><g id="node_expander7" style="cursor: pointer;"><path id="kity_path_114" fill="white" stroke="gray" d="M371.50000540167093,143.50000336021185A6,6,0,1,1,359.50000540167093,143.50000336021185A6,6,0,1,1,371.50000540167093,143.50000336021185"></path><path id="kity_path_115" fill="none" stroke="gray" d="M361.00000540167093,143.50000336021185L370.00000540167093,143.50000336021185"></path></g><path id="node_outline8" fill="none" stroke="none" d="M376.50000593811274,130.50000336021185h111a5,5,0,0,1,5,5v16a5,5,0,0,1,-5,5h-111a5,5,0,0,1,-5,-5v-16a5,5,0,0,1,5,-5z" stroke-width="3"></path><g id="node_text8" fill="black"><text id="kity_text_69" text-rendering="inherit" font-size="12" dy=".8em" y="135.70000333338976" x="401.50000593811274">投资者耐心不足</text></g><g id="node_priority3"><path id="kity_path_146" fill="#006300" stroke="none" d="M377.0000055730343,147.00000321865082c0,3.866,3.134,7,7,7h6c3.866,0,7,-3.134,7,-7V141.00000321865082H377.0000055730343V147.00000321865082z"></path><path id="kity_path_147" fill="#00AF00" stroke="none" d="M397.0000055730343,144.00000321865082c0,3.866,-3.134,7,-7,7H384.0000055730343c-3.866,0,-7,-3.134,-7,-7V141.00000321865082c0,-3.866,3.134,-7,7,-7h6c3.866,0,7,3.134,7,7V144.00000321865082z" opacity="0.8"></path><text id="kity_text_148" text-rendering="geometricPrecision" x="386.0000055655837" y="143.50000321120024" text-anchor="middle" font-style="italic" font-size="12" fill="white" dy="5">3</text></g></g><g id="minder_node9"><g id="node_expander6" style="cursor: pointer;" display="none"><path id="kity_path_111" fill="white" stroke="gray" d="M508.50000744313,143.50000336021185A6,6,0,1,1,496.50000744313,143.50000336021185A6,6,0,1,1,508.50000744313,143.50000336021185"></path><path id="kity_path_112" fill="none" stroke="gray"></path></g><path id="node_outline7" fill="none" stroke="none" d="M513.5000076070428,134.50000336021185h386a5,5,0,0,1,5,5v8a5,5,0,0,1,-5,5h-386a5,5,0,0,1,-5,-5v-8a5,5,0,0,1,5,-5z"></path><g id="node_text7" fill="black"><text id="kity_text_67" text-rendering="inherit" font-size="12" dy=".8em" y="135.70000333338976" x="513.5000076070428">连续几周或几个月横盘走势形成的时候，道氏理论都无法给出明确的信号</text></g></g><g id="minder_node10"><g id="node_expander10" style="cursor: pointer;"><path id="kity_path_123" fill="white" stroke="gray" d="M371.50000540167093,194.50000412017107A6,6,0,1,1,359.50000540167093,194.50000412017107A6,6,0,1,1,371.50000540167093,194.50000412017107"></path><path id="kity_path_124" fill="none" stroke="gray" d="M361.00000540167093,194.50000412017107L370.00000540167093,194.50000412017107"></path></g><path id="node_outline11" fill="none" stroke="none" d="M376.50000593811274,181.50000412017107h182a5,5,0,0,1,5,5v16a5,5,0,0,1,-5,5h-182a5,5,0,0,1,-5,-5v-16a5,5,0,0,1,5,-5z" stroke-width="3"></path><g id="node_text11" fill="black"><text id="kity_text_75" text-rendering="inherit" font-size="12" dy=".8em" y="186.70000409334898" x="401.50000593811274">道氏理论无法帮助中线投资者</text></g><g id="node_priority4"><path id="kity_path_151" fill="#B25000" stroke="none" d="M377.0000055730343,198.00000397861004c0,3.866,3.134,7,7,7h6c3.866,0,7,-3.134,7,-7V192.00000397861004H377.0000055730343V198.00000397861004z"></path><path id="kity_path_152" fill="#FF962E" stroke="none" d="M397.0000055730343,195.00000397861004c0,3.866,-3.134,7,-7,7H384.0000055730343c-3.866,0,-7,-3.134,-7,-7V192.00000397861004c0,-3.866,3.134,-7,7,-7h6c3.866,0,7,3.134,7,7V195.00000397861004z" opacity="0.8"></path><text id="kity_text_153" text-rendering="geometricPrecision" x="386.0000055655837" y="194.50000397115946" text-anchor="middle" font-style="italic" font-size="12" fill="white" dy="5">4</text></g></g><g id="minder_node11"><g id="node_expander8" style="cursor: pointer;" display="none"><path id="kity_path_117" fill="white" stroke="gray" d="M579.5000085011125,177.50000386685133A6,6,0,1,1,567.5000085011125,177.50000386685133A6,6,0,1,1,579.5000085011125,177.50000386685133"></path><path id="kity_path_118" fill="none" stroke="gray"></path></g><path id="node_outline9" fill="none" stroke="none" d="M584.5000090375543,164.50000386685133h183a5,5,0,0,1,5,5v16a5,5,0,0,1,-5,5h-183a5,5,0,0,1,-5,-5v-16a5,5,0,0,1,5,-5z" stroke-width="3"></path><g id="node_text9" fill="black"><text id="kity_text_71" text-rendering="inherit" font-size="12" dy=".8em" y="169.70000384002924" x="609.5000090375543">几乎无法预测中线趋势的变化</text></g><g id="node_progress1"><path id="kity_path_155" fill="#FFED83" stroke="none" d="M604.0000088214874,178.0000038743019A9,9,0,1,1,586.0000088214874,178.0000038743019A9,9,0,1,1,604.0000088214874,178.0000038743019"></path><path id="kity_path_156" fill="#43BC00" stroke="none" d="M595.0000088214874,178.0000038743019"></path><path id="kity_path_157" fill="#8E8E8E" stroke="none" d="M595.0000086724758,171.0000037252903c4.418,0,8,3.582,8,8h1c0,-5.523,-3.477,-10,-9,-10S586.0000086724758,173.4770037252903,586.0000086724758,179.0000037252903h1C587.0000086724758,174.5820037252903,590.5820086724758,171.0000037252903,595.0000086724758,171.0000037252903z"></path><path id="kity_path_159" fill="#EEE" stroke="none" d="M610.8120088214874,185.8960038743019l-6.75,6.75l-4.5,-4.5L601.2500088214874,186.4590038743019l2.812,2.803l5.062,-5.053L610.8120088214874,185.8960038743019z" display="none"></path><path id="kity_path_158" fill="url(#kity_linearGradient_17)" stroke="none" d="M595.0000086724758,168.0000037252903C589.4770086724758,168.0000037252903,585.0000086724758,172.4770037252903,585.0000086724758,178.0000037252903c0,5.523,4.477,10,10,10s10,-4.477,10,-10C605.0000086724758,172.4770037252903,600.5230086724758,168.0000037252903,595.0000086724758,168.0000037252903zM595.0000086724758,186.0000037252903c-4.418,0,-8,-3.582,-8,-8s3.582,-8,8,-8s8,3.582,8,8S599.4180086724758,186.0000037252903,595.0000086724758,186.0000037252903z"></path></g></g><g id="minder_node12"><g id="node_expander9" style="cursor: pointer;" display="none"><path id="kity_path_120" fill="white" stroke="gray" d="M579.5000085011125,211.5000043734908A6,6,0,1,1,567.5000085011125,211.5000043734908A6,6,0,1,1,579.5000085011125,211.5000043734908"></path><path id="kity_path_121" fill="none" stroke="gray"></path></g><path id="node_outline10" fill="none" stroke="none" d="M584.5000090375543,198.5000043734908h242a5,5,0,0,1,5,5v16a5,5,0,0,1,-5,5h-242a5,5,0,0,1,-5,-5v-16a5,5,0,0,1,5,-5z" stroke-width="3"></path><g id="node_text10" fill="black"><text id="kity_text_73" text-rendering="inherit" font-size="12" dy=".8em" y="203.70000434666872" x="609.5000090375543">道氏理论的目标就是预判长线趋势的方向</text></g><g id="node_progress2"><path id="kity_path_161" fill="#FFED83" stroke="none" d="M604.0000088214874,212.0000043809414A9,9,0,1,1,586.0000088214874,212.0000043809414A9,9,0,1,1,604.0000088214874,212.0000043809414"></path><path id="kity_path_162" fill="#43BC00" stroke="none" d="M595.0000088214874,212.0000043809414"></path><path id="kity_path_163" fill="#8E8E8E" stroke="none" d="M595.0000086724758,205.00000423192978c4.418,0,8,3.582,8,8h1c0,-5.523,-3.477,-10,-9,-10S586.0000086724758,207.47700423192978,586.0000086724758,213.00000423192978h1C587.0000086724758,208.58200423192977,590.5820086724758,205.00000423192978,595.0000086724758,205.00000423192978z"></path><path id="kity_path_165" fill="#EEE" stroke="none" d="M610.8120088214874,219.89600438094138l-6.75,6.75l-4.5,-4.5L601.2500088214874,220.4590043809414l2.812,2.803l5.062,-5.053L610.8120088214874,219.89600438094138z" display="none"></path><path id="kity_path_164" fill="url(#kity_linearGradient_17)" stroke="none" d="M595.0000086724758,202.00000423192978C589.4770086724758,202.00000423192978,585.0000086724758,206.47700423192978,585.0000086724758,212.00000423192978c0,5.523,4.477,10,10,10s10,-4.477,10,-10C605.0000086724758,206.47700423192978,600.5230086724758,202.00000423192978,595.0000086724758,202.00000423192978zM595.0000086724758,220.00000423192978c-4.418,0,-8,-3.582,-8,-8s3.582,-8,8,-8s8,3.582,8,8S599.4180086724758,220.00000423192978,595.0000086724758,220.00000423192978z"></path></g></g><g id="minder_node13"><g id="node_expander12" style="cursor: pointer;"><path id="kity_path_129" fill="white" stroke="gray" d="M371.50000540167093,245.5000048801303A6,6,0,1,1,359.50000540167093,245.5000048801303A6,6,0,1,1,371.50000540167093,245.5000048801303"></path><path id="kity_path_130" fill="none" stroke="gray" d="M361.00000540167093,245.5000048801303L370.00000540167093,245.5000048801303"></path></g><path id="node_outline13" fill="none" stroke="none" d="M376.50000593811274,232.5000048801303h218a5,5,0,0,1,5,5v16a5,5,0,0,1,-5,5h-218a5,5,0,0,1,-5,-5v-16a5,5,0,0,1,5,-5z" stroke-width="3"></path><g id="node_text13" fill="black"><text id="kity_text_79" text-rendering="inherit" font-size="12" dy=".8em" y="237.7000048533082" x="401.50000593811274">道氏理论来投资具有独特的风险特征</text></g><g id="node_priority5"><path id="kity_path_168" fill="#4720C4" stroke="none" d="M377.0000055730343,249.00000473856926c0,3.866,3.134,7,7,7h6c3.866,0,7,-3.134,7,-7V243.00000473856926H377.0000055730343V249.00000473856926z"></path><path id="kity_path_169" fill="#A464FF" stroke="none" d="M397.0000055730343,246.00000473856926c0,3.866,-3.134,7,-7,7H384.0000055730343c-3.866,0,-7,-3.134,-7,-7V243.00000473856926c0,-3.866,3.134,-7,7,-7h6c3.866,0,7,3.134,7,7V246.00000473856926z" opacity="0.8"></path><text id="kity_text_170" text-rendering="geometricPrecision" x="386.0000055655837" y="245.50000473111868" text-anchor="middle" font-style="italic" font-size="12" fill="white" dy="5">5</text></g></g><g id="minder_node14"><g id="node_expander11" style="cursor: pointer;" display="none"><path id="kity_path_126" fill="white" stroke="gray" d="M615.5000090375543,245.5000048801303A6,6,0,1,1,603.5000090375543,245.5000048801303A6,6,0,1,1,615.5000090375543,245.5000048801303"></path><path id="kity_path_127" fill="none" stroke="gray"></path></g><path id="node_outline12" fill="none" stroke="none" d="M620.5000095739961,232.5000048801303h339a5,5,0,0,1,5,5v16a5,5,0,0,1,-5,5h-339a5,5,0,0,1,-5,-5v-16a5,5,0,0,1,5,-5z" stroke-width="3"></path><g id="node_text12" fill="black"><text id="kity_text_77" text-rendering="inherit" font-size="12" dy=".8em" y="237.7000048533082" x="645.5000095739961">但“低吸”型投资者不仅获利更少，还必须承担更高的风险</text></g><g id="node_progress3"><path id="kity_path_172" fill="#FFED83" stroke="none" d="M640.0000093579292,246.00000488758087A9,9,0,1,1,622.0000093579292,246.00000488758087A9,9,0,1,1,640.0000093579292,246.00000488758087"></path><path id="kity_path_173" fill="#43BC00" stroke="none" d="M631.0000093579292,246.00000488758087L640.0000093579292,246.00000488758087A9,9,0,0,1,622.0000093579292,246.00000488758087A9,9,0,0,1,640.0000093579292,246.00000488758087L631.0000093579292,246.00000488758087z"></path><path id="kity_path_174" fill="#8E8E8E" stroke="none" d="M631.0000092089176,239.00000473856926c4.418,0,8,3.582,8,8h1c0,-5.523,-3.477,-10,-9,-10S622.0000092089176,241.47700473856926,622.0000092089176,247.00000473856926h1C623.0000092089176,242.58200473856925,626.5820092089176,239.00000473856926,631.0000092089176,239.00000473856926z"></path><path id="kity_path_176" fill="#EEE" stroke="none" d="M636.8120092089176,243.89600473856925l-6.75,6.75l-4.5,-4.5L627.2500092089176,244.45900473856926l2.812,2.803l5.062,-5.053L636.8120092089176,243.89600473856925z"></path><path id="kity_path_175" fill="url(#kity_linearGradient_17)" stroke="none" d="M631.0000092089176,236.00000473856926C625.4770092089176,236.00000473856926,621.0000092089176,240.47700473856926,621.0000092089176,246.00000473856926c0,5.523,4.477,10,10,10s10,-4.477,10,-10C641.0000092089176,240.47700473856926,636.5230092089176,236.00000473856926,631.0000092089176,236.00000473856926zM631.0000092089176,254.00000473856926c-4.418,0,-8,-3.582,-8,-8s3.582,-8,8,-8s8,3.582,8,8S635.4180092089176,254.00000473856926,631.0000092089176,254.00000473856926z"></path></g></g></g></g></svg>